<?xml version="1.0" standalone="no"?>
<!DOCTYPE svg PUBLIC "-//W3C//DTD SVG 1.1//EN" "http://www.w3.org/Graphics/SVG/1.1/DTD/svg11.dtd" >
<svg xmlns="http://www.w3.org/2000/svg">
<metadata></metadata>
<defs>
<font id="discreetbold" horiz-adv-x="1208" >
<font-face units-per-em="2048" ascent="2048" descent="0" />
<missing-glyph horiz-adv-x="622" />
<glyph unicode="&#xfb01;" horiz-adv-x="1181" d="M-4 938v202h127q0 52 7 100.5t23.5 97t40.5 90.5t61 78.5t83 62t108 40.5q64 15 136 15q50 0 246 -29t239 -43l-55 -254l-386 130h-65q-46 0 -81 -17t-55.5 -43t-32.5 -65.5t-16 -77t-4 -85.5h296v-202h-296v-938h-253v938h-123zM790 0v1145h256v-1145h-256z" />
<glyph unicode="&#xfb02;" horiz-adv-x="1204" d="M-4 938v202h127q0 52 7 100.5t23.5 97t40.5 90.5t61 78.5t83 62t108 40.5q64 15 136 15q40 0 200 -22q160 -24 248 -40v-1124q0 -34 3 -60t13 -53t27 -46.5t46 -34.5t69 -23l-54 -225q-30 0 -62 3l-32 3q-92 22 -148 68t-84 129t-28 213v964l-154 52h-65q-46 0 -81 -17 t-55.5 -43t-32.5 -65.5t-16 -77t-4 -85.5h296v-202h-296v-938h-253v938h-123z" />
<glyph horiz-adv-x="0" />
<glyph unicode="&#xd;" horiz-adv-x="682" />
<glyph unicode=" "  horiz-adv-x="622" />
<glyph unicode="&#x09;" horiz-adv-x="622" />
<glyph unicode="&#xa0;" horiz-adv-x="622" />
<glyph unicode="!" horiz-adv-x="770" d="M213 1602h275l-42 -1137h-192zM240 0v340h219v-340h-219z" />
<glyph unicode="&#x22;" horiz-adv-x="770" d="M106 1145v457h170v-457h-170zM456 1145v457h168v-457h-168z" />
<glyph unicode="#" horiz-adv-x="1351" d="M8 418v215h304l88 333h-242v216h303l113 420h231l-111 -420h214l112 420h236l-113 -420h270v-216h-336l-88 -333h271v-215h-330l-113 -418h-233l110 418h-215l-113 -418h-229l111 418h-240zM540 633h218l86 333h-216z" />
<glyph unicode="$" horiz-adv-x="1062" d="M108 232v292h220l24 -219q32 -30 81 -53.5t91 -23.5q29 0 56 6.5t52.5 23t44.5 40.5t30.5 63t11.5 87q0 120 -85 202q-46 44 -144 100q-104 58 -118 65q-109 66 -162 138q-75 101 -75 253q0 70 18.5 128t48.5 97t72 68.5t84 46t88 25.5l-22 323h240l-19 -321 q147 -35 275 -103v-358h-216l-22 238l-16 10q-16 10 -46 20t-57 10q-87 0 -131.5 -43t-44.5 -139q1 -92 77 -159q42 -35 138 -89q104 -57 142 -82q116 -76 170 -171q59 -104 59 -246q0 -74 -20.5 -138t-52.5 -109.5t-76 -82t-88 -59t-91 -35.5l19 -317h-240l22 310 q-98 20 -187 73t-151 129z" />
<glyph unicode="%" horiz-adv-x="1206" d="M0 0l872 1602h258l-874 -1602h-256zM51 1308q0 45 8.5 89t28.5 85.5t49 72.5t72 50t96 19q54 0 98.5 -19t73.5 -50t48 -73t27.5 -85t8.5 -89t-8.5 -89t-27.5 -84t-48 -72t-73 -49t-99 -18t-99 18.5t-73 49t-47.5 72.5t-26.5 84t-8 88zM223 1308q0 -76 23.5 -117.5 t58.5 -41.5q37 0 59.5 40.5t22.5 118.5q0 162 -82 162q-39 0 -60.5 -41t-21.5 -121zM592 289q0 44 9 87.5t28.5 85t48 73t72.5 50.5t96 19q54 0 98.5 -19t73 -50.5t48.5 -73t28 -85t8 -87.5q0 -47 -8 -90.5t-27 -85t-48 -72.5t-73.5 -49t-99.5 -18t-99.5 18.5t-72.5 49 t-47 72.5t-27 85t-8 90zM764 289q0 -78 23 -120t59 -42t59 41.5t23 120.5q0 161 -82 161q-40 0 -61 -40.5t-21 -120.5z" />
<glyph unicode="&#x26;" horiz-adv-x="1497" d="M135 502q0 142 76.5 264t202.5 198l-48 86q-68 120 -67 216q1 358 445 358q108 0 221 -32t171 -74v-296h-233v142q-23 12 -35 17.5t-34 14t-47 12t-54 3.5q-178 0 -178 -166q0 -7 3.5 -21.5t18.5 -49t41 -70.5l408 -568l125 208h293l-264 -406l264 -338h-301l-101 131 q-55 -65 -158 -110q-102 -45 -216 -45q-82 0 -155.5 19t-131.5 53t-104.5 83t-77.5 107t-47.5 125t-16.5 139zM385 502q0 -88 33.5 -156t98.5 -107t151 -39q64 0 127 35t96 85l-334 462q-72 -41 -122 -120t-50 -160z" />
<glyph unicode="'" horiz-adv-x="770" d="M299 1147v455h172v-455h-172z" />
<glyph unicode="(" horiz-adv-x="770" d="M116 801q0 236 87 483.5t247 472.5h202v-73q-152 -223 -218 -432.5t-66 -450.5q0 -244 71 -457.5t213 -421.5v-74h-202q-160 222 -247 471t-87 482z" />
<glyph unicode=")" horiz-adv-x="770" d="M116 -78q142 208 213 421t71 458q0 240 -66 449q-66 210 -218 434v73h202q160 -225 247 -472.5t87 -483.5q0 -232 -88 -481q-86 -250 -246 -472h-202v74z" />
<glyph unicode="*" horiz-adv-x="1062" d="M45 1256l65 214l328 -128l-24 354h225l-17 -354l322 134l74 -216l-346 -88l94 -101q94 -101 146 -159l-179 -138l-203 295l-190 -303l-180 137l229 271z" />
<glyph unicode="+" horiz-adv-x="1351" d="M142 528v205h411v447h225v-447h432v-205h-432v-450h-225v450h-411z" />
<glyph unicode="," horiz-adv-x="624" d="M152 -152q48 68 80 143.5t32 135.5v215h218v-215q0 -40 -24 -91.5t-52.5 -91.5t-52.5 -68l-23 -28h-178z" />
<glyph unicode="-" horiz-adv-x="1064" d="M260 582v198h545v-198h-545z" />
<glyph unicode="." horiz-adv-x="624" d="M196 0v320h210v-320h-210z" />
<glyph unicode="/" horiz-adv-x="915" d="M86 -154l510 1886h232l-510 -1886h-232z" />
<glyph unicode="0" horiz-adv-x="1165" d="M88 580v440q0 73 14.5 145.5t42 140t70.5 125.5t96 101t123 67.5t148 24.5q83 0 154.5 -23t125 -65t95 -98t67.5 -124t39.5 -142t13.5 -152v-440q0 -78 -14.5 -152.5t-42 -142t-70 -124t-96 -98t-123 -64.5t-147.5 -23q-96 0 -177 31t-139 86t-99 131t-61 166t-20 190z M346 580q0 -86 19.5 -157t52.5 -115.5t75 -68.5q43 -24 89 -24q106 0 171.5 93.5t65.5 271.5v440q0 177 -64.5 270.5t-170.5 93.5q-46 0 -89 -23.5t-76 -68t-53 -115t-20 -157.5v-440z" />
<glyph unicode="1" d="M309 1319l578 346v-1446h285v-219h-830v219h284l2 1026l-206 -117z" />
<glyph unicode="2" d="M286 0v121q0 98 19 191.5t47.5 166.5t72 146.5t85.5 127t94 111.5q12 13 53.5 56.5t78 84t76.5 88t63.5 89.5t23.5 68q0 31 -10.5 57t-33.5 49t-66 36t-103 13q-36 0 -80 -11q-44 -10 -74 -24v-260h-235v375q80 68 191 103.5t204 35.5q76 0 146 -14t131 -44t106 -74 t71 -108t26 -141q0 -54 -19.5 -107.5t-52 -101.5t-75.5 -97t-91 -99t-97 -101.5t-95 -110.5t-84 -120.5t-64 -136.5t-35 -154l342 11l27 170h206v-396h-848z" />
<glyph unicode="3" d="M291 1231v371h881v-216l-365 -448v-43q94 -11 159.5 -38t111.5 -75t68 -120t22 -172q0 -150 -79 -260t-215 -172q-88 -41 -246.5 -61.5t-332.5 -20.5v399h195l34 -175q112 0 198 33t136 99t50 158q0 50 -11.5 88t-30 62t-44.5 39t-54 21t-60 6h-188v232l375 452h-373 v-159h-231z" />
<glyph unicode="4" d="M166 698l395 904h260l-391 -906l8 -61h348v553h258v-553h128v-217h-128v-418h-258v418h-596z" />
<glyph unicode="5" d="M324 -20v366h190l39 -154q25 0 52 4t62 14t67 26t63.5 44t54 65t37 90.5t14.5 117.5q0 58 -19 104.5t-51.5 76.5t-77.5 50t-94 28.5t-104 8.5q-36 2 -89.5 1.5t-131.5 -7.5v787h813v-218h-555v-356q99 0 182.5 -14t157.5 -48t126 -86.5t82 -133.5t30 -185 q0 -120 -39 -219.5t-106 -168.5t-157 -115.5t-194 -66.5q-103 -19 -215 -15z" />
<glyph unicode="6" d="M182 760q0 74 8 150t28 162.5t50.5 164t81 149.5t113.5 124t153 83t197 31q127 0 237 -26v-365h-192l-37 189q-52 0 -97.5 -16t-80.5 -42.5t-64 -64.5t-49 -80.5t-36 -91.5t-26 -97t-16 -98t-9 -91t-3 -81q0 -34 1 -67t5 -77t9 -84t15 -84t23.5 -81t33 -71t43.5 -58 t56 -38t70 -14q49 0 90.5 26t67 65t43.5 87t25.5 90t7.5 76v20q0 20 0.5 44t-3 51t-8.5 53t-17 50t-28 42t-42 29t-60 11q-60 0 -146 -72l-77 80q10 15 26.5 34.5t43 42.5t55.5 42t65 32t70 13q54 0 101 -12t81.5 -32t62 -48.5t46 -59t32.5 -67.5t21 -69t11.5 -69t6 -62.5 t1.5 -52.5q0 -44 -7 -90t-20 -94t-34 -93t-48 -87t-63 -76t-77 -60t-93 -40t-109 -14q-78 0 -144.5 16.5t-116.5 45t-91 71t-70 89t-50 104.5t-33.5 113t-20 118t-10.5 116t-3 111z" />
<glyph unicode="7" d="M198 1229v373h974v-230q-73 -106 -150.5 -251.5t-144.5 -301t-109.5 -310.5t-42.5 -263v-246h-252v246q0 92 26.5 212.5t67.5 238.5t97 247t108 234q52 106 108 206h-450v-155h-232z" />
<glyph unicode="8" d="M226 459q0 41 10 88t32 102t62.5 114t95.5 111q-86 64 -124 146t-38 188q0 94 33 173t90 132t135 82t168 29q126 0 225 -52t155 -146t56 -214q0 -52 -15.5 -107t-41 -103t-55.5 -88t-60 -68q54 -32 94 -71.5t63 -77t37 -80.5t19 -79.5t5 -78.5q0 -104 -35 -193.5 t-97.5 -153.5t-151.5 -100q-90 -36 -194 -36q-103 0 -189.5 34t-148.5 96t-96 153t-34 200zM471 459q0 -32 7.5 -66.5t25.5 -70t43 -63t63 -45.5t84 -18t84 16.5t62.5 42.5t41 60.5t23.5 69t7 70t-10 70.5t-29 70t-53 64q-32 29 -76 47l-152 64q-41 -58 -69.5 -121t-40 -110 t-11.5 -80zM508 1214q0 -22 2 -40t8 -40.5t17 -41t30 -40.5t46 -40t66 -37t87 -35q58 59 90.5 137t32.5 137q0 28 -5 55t-18.5 54t-35 47t-56.5 32.5t-80 12.5q-59 0 -101.5 -28.5t-62.5 -72.5q-20 -46 -20 -100z" />
<glyph unicode="9" d="M217 1084q0 51 8.5 103.5t26 105.5t43 101t62.5 90.5t81 73t102 48.5t122 18q75 0 138.5 -18t111.5 -47.5t87 -74t65 -92t46 -106t31.5 -112.5t18.5 -116t9.5 -110.5t2.5 -101.5q0 -62 -4.5 -122.5t-15 -129t-27.5 -130.5t-43.5 -125t-61 -116t-82.5 -99.5t-105 -79 t-132 -50.5t-161 -18q-40 0 -112 10t-125 28v354h191l36 -190q58 0 107 16t85 42t65.5 65t49 81t34.5 93t23 97t13 99t7 92.5t2 82.5q1 28 -0.5 61t-1.5 69t-4 74t-8 75t-14 73t-23 68t-32.5 59t-43 46.5t-56.5 30.5t-71 11q-40 0 -76 -20.5t-62 -54t-44.5 -76t-28 -88.5 t-9.5 -90q0 -29 1.5 -54t6 -57.5t11.5 -58.5t20 -53t31 -45t46 -29q26 -11 60 -11q20 0 35 2t28.5 9.5t20 12t24.5 20.5l30 24l65 -94q-8 -18 -28.5 -40t-50.5 -44.5t-69.5 -38t-78.5 -15.5q-78 0 -141 25t-107 68t-73 102.5t-43 128.5q-13 70 -13 148z" />
<glyph unicode=":" horiz-adv-x="624" d="M166 0v320h206v-320h-206zM166 826v319h206v-319h-206z" />
<glyph unicode=";" horiz-adv-x="624" d="M60 -152q47 68 78.5 143t31.5 136v215h213v-215q0 -40 -23.5 -91.5t-52 -91.5t-52.5 -68l-23 -28h-172zM170 826v319h205v-319h-205z" />
<glyph unicode="&#x3c;" horiz-adv-x="1507" d="M152 561v185l986 436v-222l-698 -306l698 -306v-227z" />
<glyph unicode="=" horiz-adv-x="1214" d="M125 404v196h965v-196h-965zM125 778v195h965v-195h-965z" />
<glyph unicode="&#x3e;" horiz-adv-x="1507" d="M307 121v227l699 306l-699 306v222l987 -436v-185z" />
<glyph unicode="?" horiz-adv-x="1206" d="M203 1145v373l35 13q36 13 88 28.5t125 29t135 13.5q47 0 89 -4t88.5 -15t85.5 -28t75 -45t60.5 -65t39 -89t14.5 -115q0 -70 -24 -137t-62 -117q-32 -41 -71 -79.5t-71 -65.5t-66 -57.5t-59.5 -61.5t-46 -69.5t-31.5 -91t-11 -118.5h-226q0 70 6 124t21 103t36 88t58 83 t78 83t105 93q15 14 25.5 24t29.5 33t31 45t21 55t9 66q0 28 -3 47.5t-14 42.5t-32 37t-58 23.5t-89 9.5l-164 -31v-225h-227zM362 0v340h240v-340h-240z" />
<glyph unicode="@" horiz-adv-x="1955" d="M200 815q0 110 26.5 213.5t74.5 191.5t118.5 161t155.5 124.5t188 80t214 28.5q114 0 218.5 -28t189.5 -79.5t155 -124.5t117 -161.5t72.5 -192t25.5 -213.5q0 -74 -19 -135.5t-51.5 -103.5t-75.5 -71t-91 -42t-98 -13q-45 0 -87.5 14t-74.5 35.5t-57 48t-41 51.5t-22 46 q-6 -22 -33 -55.5t-65 -66t-84 -56t-84 -23.5q-60 0 -107 16t-76 41t-47.5 61t-26 72t-7.5 76q0 74 15 145t43 130t66 104t88 70t104 25h321v-402q0 -36 9.5 -66.5t24.5 -51t34 -34.5t39 -20t38 -6q74 0 109 56t35 155t-24.5 189.5t-73 166t-114.5 131.5t-155 87t-190 31 q-96 0 -182.5 -32t-152.5 -88t-115 -131t-74 -166t-25 -188q0 -132 39 -246.5t109 -198t173.5 -132t227.5 -48.5q110 0 218.5 36t221.5 124l119 -172q-64 -48 -128 -84t-118 -56t-112 -32t-103 -15t-98 -3q-172 0 -315.5 58t-245.5 164t-159 261.5t-57 343.5zM803 748 q0 -50 23.5 -80.5t53.5 -30.5q17 0 38.5 5.5t45.5 16t46 30.5t34 46v293h-98q-18 0 -37 -9.5t-38.5 -31t-34 -53t-24 -80t-9.5 -106.5z" />
<glyph unicode="A" horiz-adv-x="1239" d="M26 0l406 1602h375l405 -1602h-264l-118 516h-418l-119 -516h-267zM467 738h307l-143 598h-23z" />
<glyph unicode="B" horiz-adv-x="1265" d="M119 20v1582h559q195 0 306 -102q112 -102 112 -278q0 -142 -100 -264q60 -32 105 -77t72 -97t40.5 -108.5t13.5 -118.5q0 -112 -35 -207.5t-95.5 -163.5t-143 -116t-178 -71t-197.5 -23q-76 0 -221.5 14t-237.5 30zM370 213q132 -19 198 -19q72 0 134 15t112 44t85 72.5 t54.5 103.5t19.5 132q0 38 -8.5 73.5t-29.5 70.5t-53 61t-84 42t-118 16h-310v-611zM370 1028h304q42 0 74 11t52.5 30t34 45t18.5 53.5t5 59.5q0 76 -46.5 125.5t-137.5 50.5h-304v-375z" />
<glyph unicode="C" horiz-adv-x="1144" d="M58 790q0 58 3 113.5t12 121t23 124.5t37.5 120t54 112.5t74 97t96 77.5t120.5 50t148 18q34 0 66 -1.5t67 -4.5t76 -8t94 -11.5t119 -15.5v-422h-262v227q-103 18 -182 19q-49 0 -90 -24t-69.5 -63t-50 -93t-34 -109.5t-21 -117.5t-11 -112t-2.5 -98q0 -34 1 -68t5 -79 t11 -86.5t18 -87t26.5 -83.5t38 -73t49.5 -59t64 -39t79 -15q90 0 157 59t118 179l223 -116q-41 -80 -88 -141t-107.5 -108.5t-137.5 -72t-169 -24.5q-78 0 -145 17t-118 47.5t-94 74.5t-72.5 93.5t-52.5 109.5t-36.5 117.5t-22.5 122t-12 119.5t-3 113z" />
<glyph unicode="D" horiz-adv-x="1153" d="M123 6v1594q66 6 124.5 10t107 7t98 5t98.5 2q88 0 162.5 -24t131.5 -66.5t103 -104t77 -134.5t52 -159.5t30 -178t9 -191.5q0 -55 -3 -106.5t-11 -114.5t-21 -118t-35 -114t-50.5 -107t-70 -92t-92 -74t-117 -47t-144.5 -17q-265 0 -449 30zM377 215q89 -15 195 -15 q204 0 261 244q24 104 25 292v30q0 97 -7 179t-21 154t-38 127t-57 94.5t-77 60t-99 20.5q-40 0 -83 -3q-44 -4 -99 -8v-1175z" />
<glyph unicode="E" horiz-adv-x="1058" d="M127 0v1602h819v-228h-565v-462h440v-228h-440v-452h676v-232h-930z" />
<glyph unicode="F" horiz-adv-x="917" d="M100 0v1602h810v-232h-556v-469h424v-231h-424v-670h-254z" />
<glyph unicode="G" horiz-adv-x="1161" d="M26 780q0 120 13 223t34 181t52.5 142t66.5 109t77.5 79t82.5 55t85.5 33.5t84 17t78.5 4.5q58 0 115 -6t142 -17t145 -18v-424h-242v229q-18 2 -88 10.5t-102 8.5q-128 0 -202.5 -158.5t-74.5 -468.5q0 -144 22.5 -254.5t62.5 -180t93 -105t117 -35.5q25 0 48.5 4 t42.5 11.5t37 17.5t33 22t28.5 25.5t24 28t20.5 29t18 29t16 27.5q6 13 12 25v133l-262 49v174h482v-780h-128l-84 154q-12 -22 -28.5 -44.5t-43.5 -47.5t-58 -43.5t-73.5 -30.5t-88.5 -12q-73 0 -132.5 12t-107.5 38t-85 60t-75 82q-80 106 -119 262t-39 350z" />
<glyph unicode="H" horiz-adv-x="1353" d="M119 0v1602h253v-699h609v699h252v-1602h-252v674h-609v-674h-253z" />
<glyph unicode="I" horiz-adv-x="485" d="M112 0v1602h260v-1602h-260z" />
<glyph unicode="J" horiz-adv-x="774" d="M10 -62q164 21 239 112q75 92 75 264v1288h258v-1288q0 -272 -133 -425t-406 -184z" />
<glyph unicode="K" d="M106 0v1602h252v-752l451 752h293l-457 -742l397 -632h174v-228h-321l-397 633l-140 -225v-408h-252z" />
<glyph unicode="L" horiz-adv-x="911" d="M127 0v1602h256v-1374h529v-228h-785z" />
<glyph unicode="M" horiz-adv-x="1509" d="M116 0v1602h259l381 -770l378 770h256v-1602h-254v1114l-284 -574h-194l-286 574v-1114h-256z" />
<glyph unicode="N" horiz-adv-x="1341" d="M112 0v1602h302l561 -1162v1162h254v-1602h-295l-568 1155v-1155h-254z" />
<glyph unicode="O" d="M39 778v46q0 68 7 137t24.5 149.5t45.5 152t73 138.5t102 116t138 78t177 29t177 -29t138 -76.5t102 -114t72 -137.5t45 -151.5t25 -151t7 -140.5v-46q0 -68 -7 -137t-25 -149.5t-45 -152.5t-72 -139.5t-102 -116.5t-138 -78t-177 -29t-177 29t-138 78t-102 116.5 t-73 139.5t-45.5 152.5t-24.5 149.5t-7 137zM301 782q0 -45 3 -91.5t11.5 -105.5t22.5 -112t37.5 -104.5t54.5 -89t76.5 -60.5t99.5 -23t99 22t76 58.5t55 87t38 102.5t23 111.5t12 108t3 96.5v46q0 51 -4 102.5t-14 109.5t-25 110t-39.5 100t-55 83t-74 55.5t-94.5 20.5 q-50 0 -93 -20.5t-73.5 -55.5t-55 -83t-39.5 -100.5t-25.5 -110t-14.5 -109.5t-4 -102v-46z" />
<glyph unicode="P" horiz-adv-x="1126" d="M104 0v1602q92 10 239 16t199 6q116 0 214 -34.5t169 -99t111.5 -162t40.5 -218.5q0 -116 -29.5 -211t-83.5 -162.5t-132 -113t-173 -67.5t-209 -22q-18 0 -92 6v-540h-254zM358 762q52 -8 92 -8q88 0 155.5 19.5t117 61t75.5 111t26 164.5q0 132 -76 215.5t-206 83.5 q-106 0 -184 -6v-641z" />
<glyph unicode="Q" d="M39 778v46q0 68 7 138t24.5 150.5t45.5 152t73 138.5t102 115t138 77t177 29q97 0 178.5 -29t138.5 -77t101.5 -115t71 -138t44 -151.5t24 -150t6.5 -137.5v-50q0 -62 -5 -123t-18 -129t-33 -130t-51 -124t-70 -112t-94.5 -91.5t-120.5 -66.5l130 -203l-228 -127 l-133 306q-88 14 -162.5 51t-125.5 89t-91 119t-64 135t-39 143.5t-20.5 139t-5.5 125.5zM299 780q0 -47 3 -94.5t11.5 -106.5t22.5 -111t38 -103t55 -87.5t76 -59t99 -22.5t100 23t77 59.5t54.5 88t37 103.5t22.5 111t12 106t3 93v48q0 44 -3 90t-12 104t-23 111t-38 104 t-55 88.5t-76 60.5t-99 23q-52 0 -96.5 -22.5t-75 -59.5t-54.5 -87.5t-39 -103t-24 -110.5t-12.5 -106t-3.5 -92v-48z" />
<glyph unicode="R" horiz-adv-x="1148" d="M123 0v1602q211 22 403 22q72 0 133.5 -6t118 -20.5t101.5 -37t82 -56.5t61 -78.5t37.5 -103t13.5 -130.5q0 -134 -56.5 -243t-168.5 -183q138 -178 194 -363t56 -403h-252q0 198 -59 371t-179 311q-60 -9 -114 -10h-19q-46 0 -98 4v-676h-254zM377 891q53 -4 96 -4 q81 0 144 16t110.5 50.5t73 93.5t25.5 141q0 58 -14 99t-48 72t-93 46t-145 15q-30 0 -83.5 -4t-65.5 -5v-520z" />
<glyph unicode="S" horiz-adv-x="1136" d="M72 252v297h246v-189q34 -74 111 -121t153 -47q70 0 131.5 34t100.5 96q38 60 38 134q0 166 -135 218q-46 18 -134 48q-161 56 -229 87q-134 63 -194 148q-62 89 -62 219q0 100 40.5 185t109 142t160.5 89t196 32q74 0 145 -16t125 -41t93 -51t65 -52v-290h-229v176 q-24 22 -83.5 44.5t-111.5 22.5q-35 0 -69 -7.5t-67.5 -24.5t-59.5 -43t-42 -65t-16 -87q0 -22 4 -41.5t9.5 -34.5t15 -28.5t18.5 -23.5t23 -19.5t24 -15t26 -12.5t25 -11t25 -9t23 -8q202 -75 277 -109q138 -62 203 -134q79 -88 89 -231q2 -23 2 -48q0 -105 -38 -195.5 t-106 -155t-166.5 -101.5t-215.5 -37q-165 0 -288.5 68t-231.5 208z" />
<glyph unicode="T" horiz-adv-x="1060" d="M12 1372v230h1036v-230h-388v-1372h-258v1372h-390z" />
<glyph unicode="U" horiz-adv-x="1351" d="M127 772v830h258v-814q0 -56 3.5 -109t12.5 -111t23 -108t37 -96.5t52 -79t71 -52t92 -19.5q42 0 77.5 12t62 32.5t48.5 51t37.5 64t27 75.5t18.5 82.5t11 87t5 86.5t1 84v814h260v-830q0 -63 -2.5 -119.5t-11 -121.5t-21.5 -121t-35 -113.5t-51 -104t-71 -87.5t-93 -69 t-118 -44t-145 -16q-73 0 -136.5 16t-113.5 45t-92 70t-72 89t-54 104.5t-39 114t-24.5 120.5t-13.5 120t-4 117z" />
<glyph unicode="V" horiz-adv-x="1251" d="M30 1602h271l313 -1330h23l313 1330h270l-411 -1602h-365z" />
<glyph unicode="W" horiz-adv-x="1824" d="M45 1600h262l187 -1108l307 1108h223l307 -1108l187 1108h264l-299 -1600h-242l-327 1143l-330 -1143h-240z" />
<glyph unicode="X" horiz-adv-x="1126" d="M22 0l402 813l-391 789h281l249 -539l252 539h281l-396 -791l404 -811h-280l-261 570l-262 -570h-279z" />
<glyph unicode="Y" horiz-adv-x="1243" d="M30 1602h282l310 -686l314 686h276l-464 -967v-635h-254v639z" />
<glyph unicode="Z" horiz-adv-x="1087" d="M62 0v174q0 50 6 95t21 88t29.5 77t39 75.5t42.5 69t49 72.5t48 72l426 651h-639v228h962v-185l-558 -866q-25 -38 -51.5 -80.5t-47.5 -81.5t-36 -81t-17 -78h694v-230h-968z" />
<glyph unicode="[" horiz-adv-x="626" d="M70 -152v1907h540v-203h-317v-1501h317v-203h-540z" />
<glyph unicode="\" horiz-adv-x="915" d="M84 1734h238l510 -1886h-238z" />
<glyph unicode="]" horiz-adv-x="628" d="M30 51h318v1501h-318v203h542v-1907h-542v203z" />
<glyph unicode="^" horiz-adv-x="458" d="M-84 1308l200 294h228l198 -294h-204l-104 162l-109 -162h-209z" />
<glyph unicode="_" horiz-adv-x="1361" d="M14 -2h1334v-203h-1334v203z" />
<glyph unicode="`" horiz-adv-x="458" d="M43 1602h258l115 -294h-164z" />
<glyph unicode="a" horiz-adv-x="1130" d="M35 291q0 60 15.5 113.5t42 95.5t65 77.5t82 61.5t96 47.5t103.5 36t108.5 25t107 16.5t101.5 10v90q0 64 -34 91.5t-106 27.5l-178 -47v-121h-250v297q21 4 79.5 15t88.5 16t78 12t89 10t81 3q68 0 126 -10t110 -34t88 -61t58 -94t22 -129v-840h-220l-24 186 q-28 -26 -46 -42t-47 -41t-51.5 -40.5t-53 -34t-57 -28.5t-58 -17t-62.5 -7q-86 0 -155 27t-111.5 72.5t-65 101t-22.5 114.5zM278 303q0 -53 32.5 -90t82.5 -37q39 0 87 23t97 62t93 82t86 93v174q-58 -5 -121 -19.5t-127.5 -40.5t-115 -60t-82.5 -83t-32 -104z" />
<glyph unicode="b" horiz-adv-x="1132" d="M96 0v1602h254v-648q34 42 71.5 77t84 67.5t101.5 51t112 18.5q64 0 115.5 -14.5t90.5 -40t68.5 -63.5t49 -83t31.5 -102t18 -116t6 -129v-82q0 -48 -5.5 -97t-19.5 -105.5t-35.5 -106.5t-57.5 -97.5t-82 -81.5t-111.5 -54t-143.5 -20q-86 0 -167.5 47t-129.5 110 l-49 -133h-201zM350 358q40 -48 72 -79t67 -56.5t70.5 -37t75.5 -11.5q55 0 96 29.5t64.5 83.5t35 123t11.5 155v29v15v27q-2 24 -2 51.5t-4 57t-9.5 57t-17 52.5t-27.5 43.5t-39 29.5t-53 11q-98 0 -181.5 -61t-158.5 -179v-340z" />
<glyph unicode="c" horiz-adv-x="944" d="M33 568q0 98 14.5 183t49.5 163t89 133t137 88t189 33q58 0 124 -6t114 -13t124 -21v-330h-239v152l-129 33q-209 0 -209 -418q0 -30 1.5 -58.5t6.5 -68.5t13.5 -73t24 -68t36.5 -59t53 -40t72 -16q68 0 118 41t97 145l219 -130q-38 -60 -83 -107t-89.5 -76t-93 -47 t-90.5 -25q-40 -7 -82 -7q-100 0 -174.5 29t-147.5 105q-39 41 -68.5 99.5t-45.5 120.5t-24 122q-7 60 -7 116z" />
<glyph unicode="d" horiz-adv-x="1144" d="M49 551q0 45 3 89t10.5 92.5t19.5 93t31 88.5t43 82t58 70t74 55t92 36q54 13 114 13q86 0 162 -35t134 -89v556h250v-1309l29 -293h-207l-57 198q-150 -222 -344 -222q-66 0 -122.5 20t-98 54t-75 81t-54.5 98t-35.5 108t-20.5 110t-6 104zM301 555q0 -25 1.5 -52 t5.5 -63t11 -69t19.5 -66t29 -57t40.5 -39t53 -15q46 0 90.5 19t85.5 56t77 79t76 100v404q-70 36 -115 59.5t-82 35t-73 11.5q-212 0 -218 -350q0 -16 -1 -53z" />
<glyph unicode="e" horiz-adv-x="1073" d="M33 580q0 94 19.5 180t60.5 161t99.5 129.5t141 86t180.5 31.5q102 0 187 -32.5t140.5 -85t94 -122.5t55.5 -142t17 -147v-97h-731q0 -94 35 -173.5t97 -127t136 -47.5q58 0 104.5 21t81 57t66.5 92l211 -130q-39 -50 -70.5 -85t-75.5 -70t-89 -56t-105 -34t-131 -13 q-96 0 -180 31t-146.5 87t-107.5 132t-67.5 166t-22.5 188zM305 729h461q0 22 -7.5 51.5t-25.5 65.5t-43.5 65.5t-66.5 49.5t-91 20q-44 0 -82.5 -17.5t-64.5 -45.5t-44.5 -62t-27 -66.5t-8.5 -60.5z" />
<glyph unicode="f" horiz-adv-x="675" d="M-4 938v202h127q0 52 7 100.5t23.5 97t40.5 90.5t61 78.5t83 62t108 40.5q64 15 136 15q46 0 111.5 -12.5t113.5 -28.5l-47 -211l-199 56q-47 -1 -81.5 -18.5t-55 -43.5t-32.5 -65t-16 -76t-4 -85h296v-202h-296v-938h-253v938h-123z" />
<glyph unicode="g" horiz-adv-x="1105" d="M100.5 965q61.5 92 165.5 144t226 52q1 1 -1 1h-1q0 6 628 6v-238l-278 28q38 -29 61 -85.5t23 -104.5q0 -85 -35.5 -157.5t-96 -122t-141.5 -77.5t-172 -28q-66 1 -143 23v-109h408q142 0 219 -69t77 -185q0 -107 -45 -202t-121.5 -162t-181.5 -105.5t-221 -38.5 q-90 0 -165.5 28.5t-126.5 77.5t-79 116t-28 145v98h252v-68q0 -104 42 -158t116 -54q67 0 120.5 26t87.5 71t52 102.5t18 121.5q0 12 -5 25.5t-21 25.5t-38 12h-387q-81 0 -126 16t-57 46q-8 19 -8 43q0 15 3 31q7 44 29 101t48 126q-159 117 -159 293q0 113 61.5 205z M284 762q0 -40 13 -74t33 -56t46 -37t52 -21t51 -6q92 0 149.5 61t57.5 163q0 50 -18 90t-46 62t-60 33.5t-64 11.5q-88 0 -151 -64t-63 -163z" />
<glyph unicode="h" horiz-adv-x="1196" d="M133 0v1602h254v-722q58 84 112 141t106.5 89t101.5 45t106 13q50 0 91 -12t68.5 -32t48.5 -50t33 -62t19.5 -72t10 -75t2.5 -77v-788h-252v788q0 77 -23 110.5t-71 33.5q-24 0 -49 -9t-47.5 -22.5t-48 -39t-47.5 -50.5t-51 -65t-52 -74t-58 -86v-586h-254z" />
<glyph unicode="i" horiz-adv-x="483" d="M114 0v1145h254v-1145h-254zM114 1280v322h254v-322h-254z" />
<glyph unicode="j" horiz-adv-x="485" d="M-100 -291q118 110 183 242.5t65 265.5v928h250v-887q0 -151 -33 -272t-99.5 -230.5t-183.5 -239.5zM148 1278v324h250v-324h-250z" />
<glyph unicode="k" horiz-adv-x="1071" d="M102 0v1602h252v-963q50 36 102 96.5t89 121.5t60.5 105.5t33.5 69.5q14 31 24.5 56.5t18.5 56.5h248l-14 -76q-22 -102 -86.5 -216.5t-151.5 -203.5l223 -409h153v-240h-280q-62 96 -147 261t-121 225q-9 -6 -66 -52q-56 -46 -86 -64v-370h-252z" />
<glyph unicode="l" horiz-adv-x="528" d="M104 412v1190h250v-1164q0 -34 3.5 -60t13.5 -53t27 -46.5t45.5 -34.5t68.5 -23l-53 -225q-32 0 -63 3l-32 3q-92 22 -148 68t-84 129t-28 213z" />
<glyph unicode="m" horiz-adv-x="1648" d="M123 0v1145h203l49 -267q45 75 83.5 127t70.5 84t65.5 49.5t62.5 23.5t68 6q44 0 80.5 -13t59.5 -32.5t40 -47t26 -53.5t14 -55t5 -48v-37q42 75 83 128.5t74.5 83.5t70 47t64.5 22t62 5q222 0 222 -294v-874h-250v828v16.5v17t-1 16t-2.5 14.5t-3.5 13.5t-5.5 11t-8 8 t-11 5.5t-13.5 2q-10 0 -15.5 -1t-20.5 -8t-29 -20.5t-37 -42t-47 -70.5l-130 -210v-580h-250v828q0 22 -1 36.5t-5 32t-14 26.5t-26 9q-4 -1 -9 0t-13 -2t-17 -6.5t-22 -14.5t-26 -26t-31 -39t-36 -56l-125 -208v-580h-254z" />
<glyph unicode="n" horiz-adv-x="1183" d="M116 0v1145h202l46 -275q62 88 116 146.5t106 91.5t101 46.5t107 13.5q41 0 75.5 -8t60.5 -20.5t46.5 -33t34.5 -41.5t24.5 -50t15.5 -55t8.5 -60t4.5 -61.5t1 -62.5v-776h-250v776q0 86 -21.5 122t-72.5 36q-28 0 -54 -10t-54.5 -33t-53.5 -49t-60 -71t-63 -85t-72 -104 v-582h-248z" />
<glyph unicode="o" horiz-adv-x="1081" d="M37 572q0 64 8.5 124t26.5 120t46 111.5t69 96t91.5 76.5t117.5 50q66 18 144 18q77 0 144.5 -18t117.5 -50t91 -76.5t69 -96t47 -111.5t27 -120t8 -124q0 -92 -16 -176t-54 -162t-95 -134.5t-143 -89.5q-88 -34 -196 -34t-194 34t-143 90.5t-95 134t-54.5 161.5 t-16.5 176zM293 572q0 -114 26.5 -203t82.5 -143t138 -54q62 0 109.5 31t77 85.5t44.5 126t15 157.5q0 88 -13 158.5t-41 126.5t-77 87t-115 31q-59 0 -106.5 -31.5t-77.5 -86.5t-46.5 -128t-16.5 -157z" />
<glyph unicode="p" horiz-adv-x="1132" d="M98 -444v1589h197l51 -199q38 50 76 87t83.5 69t99 49t112.5 17q66 0 121 -18.5t92.5 -48.5t66.5 -73.5t46 -89.5t28 -100.5t15 -102t4 -98.5v-113q0 -90 -16 -170t-51.5 -150t-88 -120t-129.5 -79t-172 -29q-26 0 -53 5t-49.5 13t-44.5 19.5t-39 24t-33 24.5t-27 23 t-21 20t-14 14v-563h-254zM352 356q133 -178 279 -178q36 0 66.5 13t56.5 41.5t44 71.5t28 106t10 143v53q0 38 -1.5 69t-5.5 66t-10.5 63t-18.5 54t-27 43.5t-38 28t-51 10.5q-86 0 -174 -58q-90 -58 -158 -172v-354z" />
<glyph unicode="q" horiz-adv-x="1163" d="M47 526q0 56 4.5 111t18 120t35 122t57 111t82 92t114 62t148.5 24q144 0 290 -140l60 117h213l-31 -258v-1327h-254v616q-77 -98 -156.5 -149t-173.5 -51q-62 0 -116 18t-94.5 49t-74 73.5t-56 91.5t-38 103.5t-21.5 108.5q-7 52 -7 106zM301 524q0 -27 1.5 -52.5 t5.5 -60.5t11 -65t20.5 -60t31 -50.5t43.5 -34t57 -13.5q71 0 151.5 65t161.5 187v400q-24 14 -56.5 35t-47 30t-38.5 21t-40.5 16.5t-40 8t-51.5 3.5q-202 0 -208 -384q0 -18 -1 -46z" />
<glyph unicode="r" horiz-adv-x="952" d="M90 0v1145h254v-336q41 70 88.5 131.5t102.5 113.5t116 83t117 31l135 -38v-321h-215v80q-33 -1 -97 -66t-130.5 -158t-116.5 -183v-482h-254z" />
<glyph unicode="s" horiz-adv-x="980" d="M53 188v228h240v-148q38 -50 88.5 -75t102.5 -25q93 0 149.5 49t56.5 117q0 14 -1 25.5t-4 26t-10 26t-18 23.5t-28 21.5t-39 16.5q-34 10 -79 23.5t-78 22t-73 21t-69 23.5t-61 26t-54.5 31t-44 38t-34 47.5t-20 58t-7.5 70.5q0 79 32 142.5t90 105t138 64t174 22.5 q106 0 206 -36t172 -94v-244h-228v146q-16 15 -67 33t-91 18q-84 0 -134 -38t-50 -107q0 -31 12.5 -55t34 -38.5t38.5 -21.5t37 -12q94 -22 168.5 -44.5t128 -45.5t91.5 -50t61 -53t36 -58t18 -62t5 -68q0 -56 -18 -108.5t-55 -99t-90.5 -80.5t-130 -54t-166.5 -20 q-132 0 -243 54t-186 158z" />
<glyph unicode="t" horiz-adv-x="714" d="M0 938v202h137v284h252v-284h277v-202h-277v-566q0 -67 30.5 -106.5t84.5 -39.5q22 0 55.5 11t55.5 22l22 11l37 -229q-48 -34 -101 -49.5t-135 -15.5q-59 0 -108.5 21t-84.5 57t-60 85t-36.5 105t-11.5 116v578h-137z" />
<glyph unicode="u" horiz-adv-x="1183" d="M121 360v785h251v-785q0 -16 0.5 -26t3 -27t5.5 -28.5t11 -25t18 -21.5t25.5 -13.5t35.5 -5.5q26 0 52.5 10.5t49.5 27t49 45t46.5 54.5t48 68t45.5 72t47 78v577h252v-1145h-201l-51 276q-23 -34 -45 -64t-42.5 -57.5t-42.5 -51.5t-44.5 -43.5t-48.5 -35.5t-55 -26.5 t-64.5 -16t-75.5 -5.5q-42 0 -76.5 8t-60.5 22t-47 35t-34 43t-23 52t-16 55.5t-9 58t-3.5 56.5t-0.5 54z" />
<glyph unicode="v" horiz-adv-x="964" d="M37 1145h268l72 -391q72 -390 92 -480h17q-2 2 6 1l4 -1q20 90 91 480l73 391h268l-274 -1145h-338z" />
<glyph unicode="w" horiz-adv-x="1503" d="M43 1145h264l139 -717h15l147 717h283l151 -717h15l139 717h266l-290 -1145h-236l-186 842l-187 -842h-229z" />
<glyph unicode="x" horiz-adv-x="1034" d="M39 0l331 590l-310 555h274l176 -377h16l180 377h281l-319 -559l326 -586h-282l-182 416h-18l-196 -416h-277z" />
<glyph unicode="y" horiz-adv-x="1099" d="M18 -182q38 -6 72 -7h8q30 0 56 6q30 7 56 18t49.5 29t44 38t40.5 46.5t36 53.5q18 26 36 60l-78 258l-252 776l244 72l246 -820q64 158 126 389t88 408h264q-29 -174 -101.5 -423.5t-133.5 -401.5q-76 -188 -131 -293q-150 -278 -350 -391q-144 -80 -320 -80v262z" />
<glyph unicode="z" horiz-adv-x="950" d="M70 0v186l530 758l-514 -6v207h742l92 -164l-539 -770l510 8v-219h-821z" />
<glyph unicode="{" horiz-adv-x="770" d="M94 706v193q66 0 106 72.5t40 196.5v302q0 128 59.5 206.5t167.5 78.5h241v-189h-157q-52 0 -76.5 -46.5t-24.5 -149.5v-234q0 -100 -38 -189t-105 -144q69 -60 106 -146t37 -186v-235q0 -104 26.5 -148.5t86.5 -44.5h145v-191h-241q-44 0 -81.5 17t-63.5 45t-45 66 t-28 81t-9 89v290q0 71 -18 131.5t-51.5 97.5t-76.5 37z" />
<glyph unicode="|" horiz-adv-x="770" d="M282 -152v1907h208v-1907h-208z" />
<glyph unicode="}" horiz-adv-x="770" d="M78 43h145q60 0 85.5 44.5t25.5 148.5v235q0 100 38 185.5t107 146.5q-67 56 -106 144.5t-39 188.5v234q0 104 -23 150t-75 46h-158v189h242q108 0 167.5 -78.5t59.5 -206.5v-302q0 -124 39.5 -196.5t105.5 -72.5v-193q-42 0 -76 -37t-51.5 -97t-17.5 -132v-290 q0 -46 -9.5 -89t-28 -81t-45 -66t-64.5 -45q-36 -17 -80 -17h-242v191z" />
<glyph unicode="~" horiz-adv-x="1206" d="M33 534q27 52 61 95t75 79t90 56t101 20q44 0 116.5 -22t135.5 -49t127.5 -49.5t96.5 -22.5q54 0 104 37.5t78 107.5l156 -104q-24 -41 -47.5 -73.5t-57 -66.5t-68.5 -56.5t-82 -37t-100 -14.5q-44 0 -93.5 14t-94.5 35t-91 41.5t-99 35t-101 14.5q-22 0 -44 -9t-38 -22 t-33.5 -34.5t-29 -39t-27.5 -43.5z" />
<glyph unicode="&#xa1;" horiz-adv-x="624" d="M154 -434l40 1136h193l41 -1136h-274zM182 828v340h218v-340h-218z" />
<glyph unicode="&#xa2;" horiz-adv-x="1069" d="M72 561q0 72 9 138.5t32 134.5t59.5 121t95 95t134.5 62l-17 320h258l-15 -310q48 -2 139 -9.5t103 -8.5v-110v-238h-225v143l-133 55q-74 0 -128 -108t-54 -285q0 -173 47.5 -271t128.5 -98q10 0 19 3t18 7t18 11t18.5 16t19 20t19.5 24t21 27.5t22 30.5t23 33.5 t24 37.5l224 -130q-74 -107 -147 -163.5t-159 -78.5l17 -310h-258l17 310q-62 15 -113 45.5t-87 71t-61.5 88.5t-40.5 103.5t-21.5 109.5t-6.5 113z" />
<glyph unicode="&#xa3;" horiz-adv-x="1214" d="M92 82q28 78 87 143t137 97q11 70 19.5 160t8.5 132q0 54 -8 90l-178 -22v198l110 -4q-4 8 -23.5 50t-32 72t-29 74t-25 84.5t-8.5 74.5q0 70 16 128.5t42.5 97.5t63 70t73.5 49t78 29t73 15t61 4q103 0 202 -21t220 -75v-406h-187l-38 277q-108 27 -197 27 q-28 0 -54.5 -10t-50.5 -31t-38 -61t-14 -93q0 -32 13.5 -81.5t28 -86t39.5 -96t31 -74.5l289 31v-207l-240 -2q2 -17 2 -55q0 -46 -14.5 -143t-32.5 -183q35 -8 107.5 -40.5t137.5 -60.5t91 -28q18 0 33.5 2.5t36 10.5t38.5 22t40 41q20 27 40 63l113 -164q-24 -32 -45 -57 t-53 -54t-64.5 -48t-74.5 -32t-88 -13q-39 0 -85.5 14t-90.5 34l-88 40t-91.5 34t-87.5 14q-73 0 -153 -136z" />
<glyph unicode="&#xa4;" horiz-adv-x="1206" d="M127 555v187l133 -7v119l-133 -2v202l143 -8q12 88 36 170t64.5 157t93 130t124.5 88t156 33q277 0 417 -307l-241 -95q-22 55 -45.5 92.5t-46 57.5t-42.5 27.5t-42 7.5q-80 0 -144 -93.5t-88 -271.5l426 15v-207l-436 8v-127l296 13v-191l-286 10q20 -166 89 -268.5 t143 -102.5q59 0 107.5 55t70.5 149l244 -97q-28 -70 -69 -127.5t-94 -102t-119 -69t-140 -24.5q-60 0 -115 17t-99 48t-82 74.5t-67 94t-52 109t-38 118.5t-23 122z" />
<glyph unicode="&#xa5;" horiz-adv-x="1243" d="M30 1602h282l310 -686l312 686h280l-321 -660h155v-207h-262l-40 -77v-50h302v-204h-302v-404h-252v404h-304v204h304v50l-42 77h-262v207h156z" />
<glyph unicode="&#xa6;" horiz-adv-x="477" d="M135 -152v783h207v-783h-207zM135 975v780h207v-780h-207z" />
<glyph unicode="&#xa7;" horiz-adv-x="1206" d="M129 -104v334h168l53 -174q50 -10 102 -11q26 0 48 6.5t43.5 22.5t34.5 48q12 30 12 76q0 28 -24 67.5t-62 83t-83.5 93.5t-91.5 103.5t-84 106t-61.5 109.5t-23.5 107q0 80 25.5 147t103.5 183q-9 56 -9 78q0 68 14 123t35.5 90.5t54.5 62t64 39.5t71.5 21t69.5 10t67 2 q52 0 116 -10t98 -18t113 -27v-324h-185l-40 175q-52 10 -102 10q-62 0 -95 -34t-33 -116q0 -40 24 -86t61.5 -91t83 -93.5t91.5 -100t84 -103.5t61 -112q23 -58 23 -116q0 -90 -31.5 -164.5t-105.5 -157.5q0 -4 4.5 -26t4.5 -32q0 -54 -9.5 -100t-24 -80t-37.5 -61t-46 -44 t-53 -30t-54 -19t-54.5 -10t-50 -5t-43.5 -1q-138 0 -327 48zM372 924q-7 -42 10.5 -92t48.5 -95t73.5 -95t81 -88.5t76.5 -78t55 -61.5l16 98q6 36 -3.5 74t-31.5 75t-50 73t-64 74t-69 71t-68 71t-58 68z" />
<glyph unicode="&#xa8;" horiz-adv-x="1062" d="M246 1306v296h196v-296h-196zM618 1306v296h199v-296h-199z" />
<glyph unicode="&#xa9;" horiz-adv-x="1955" d="M192 803q0 112 26 216.5t74 192.5t118.5 160.5t156.5 123t190.5 78.5t219.5 28q138 0 260.5 -39t217.5 -111.5t165 -171t107 -220.5t37 -257q0 -176 -57.5 -325t-160 -254.5t-249.5 -164.5t-320 -59q-116 0 -221 28t-191 79t-156 123.5t-117.5 161t-73.5 193.5t-26 218z M408 803q0 -131 43 -245t118 -194.5t181 -127t227 -46.5q126 0 232.5 47t181 128t116 194.5t41.5 243.5q0 133 -43 247t-119 193t-182 123.5t-227 44.5t-227 -45t-181 -124.5t-118 -193t-43 -245.5zM610 803q0 84 22 154t64.5 123t112 82.5t159.5 29.5q37 0 75.5 -3t83.5 -8 t114 -13v-258h-184v120q-27 2 -89 2q-31 0 -55.5 -8t-40.5 -20t-28 -32t-18 -38t-10 -44t-4.5 -44t-0.5 -43q0 -42 7.5 -78.5t23.5 -70t46 -52.5q30 -20 72 -20q26 0 48 10t37 25t27 37t19 42t13 42l190 -72q-19 -42 -38.5 -76t-49 -68t-63.5 -56t-81 -36q-48 -14 -102 -14 q-112 0 -191 49t-119 136t-40 202z" />
<glyph unicode="&#xaa;" horiz-adv-x="915" d="M102 1192q0 72 13 136t42.5 121t73 97.5t109.5 64t148 23.5q76 0 184 -5l108 -5v-889h-168l-34 183q-9 -21 -23.5 -44.5t-36 -49t-45 -45.5t-53.5 -33t-60 -13q-45 0 -81.5 14.5t-63 39.5t-47 61t-32.5 75t-20 86t-11 91t-3 92zM303 1202q0 -24 0.5 -47t3 -59t8 -65 t13.5 -57t22 -43t31 -15q32 0 66.5 27.5t60.5 69t45 87.5t25 84v286q-48 4 -90 4q-98 0 -141.5 -64t-43.5 -208z" />
<glyph unicode="&#xab;" horiz-adv-x="1206" d="M35 654l434 512h260l-449 -512l449 -514h-260zM477 654l435 514h260l-447 -514l447 -514h-260z" />
<glyph unicode="&#xac;" horiz-adv-x="915" d="M112 432v199h691v-519h-199v320h-492z" />
<glyph unicode="&#xad;" horiz-adv-x="1064" d="M260 582v198h545v-198h-545z" />
<glyph unicode="&#xae;" horiz-adv-x="1955" d="M188 803q0 168 58 316t160.5 254t249 167.5t317.5 61.5q115 0 221 -28t193 -78.5t158 -123t120 -160.5t76 -192.5t27 -216.5q0 -140 -37 -264.5t-107.5 -222.5t-167 -169t-220.5 -109t-263 -38q-115 0 -220 28t-191 79t-156 123.5t-118 161t-74 193.5t-26 218zM404 803 q0 -131 43 -245t118.5 -194.5t181 -127t226.5 -46.5q126 0 234 47t183.5 128t117.5 194.5t42 243.5q0 133 -44 247t-121 193t-183 123.5t-229 44.5q-96 0 -183.5 -28.5t-157.5 -82.5t-121.5 -128t-79 -168.5t-27.5 -200.5zM662 434v725l36 10q37 10 112 19q74 10 150 10 q51 0 101.5 -8.5t99.5 -28t86.5 -47.5t60.5 -71t23 -95q0 -108 -127 -182q75 -88 105.5 -159t30.5 -173h-226q0 82 -21 162t-57 114l-160 -6v-270h-214zM876 852q58 -2 100 1t75 14t50 32t17 53q0 36 -24 60t-72 32q-32 5 -73 4q-41 -2 -73 -4v-192z" />
<glyph unicode="&#xaf;" horiz-adv-x="477" d="M-56 1407v193h588v-193h-588z" />
<glyph unicode="&#xb0;" horiz-adv-x="915" d="M125 1218v50q0 64 24.5 124t66.5 106.5t105 75t135 28.5q76 0 140 -28t106 -75t65 -107t23 -124v-50q0 -64 -24 -124t-67 -106t-106 -73.5t-137 -27.5q-72 0 -135 28.5t-105.5 75.5t-66.5 107q-24 58 -24 120zM322 1218q0 -70 38 -114q38 -45 96 -45t98 44.5t40 114.5v50 q0 78 -40 119t-98 41q-57 0 -95.5 -44t-38.5 -116v-50z" />
<glyph unicode="&#xb1;" horiz-adv-x="1351" d="M125 144v196h1102v-196h-1102zM125 692v195h453v281h192v-281h457v-195h-457v-280h-192v280h-453z" />
<glyph unicode="&#xb2;" horiz-adv-x="1048" d="M234 740v84q0 104 52 214t120 178q4 5 36 37.5t58 59.5t50 57t24 41q0 10 -1 15.5t-6 16t-14 16.5t-29 10.5t-47 4.5q-34 0 -57 -10v-143h-162v227q44 38 106 57t124 19q60 0 109 -12t87 -37t59 -66.5t21 -97.5q0 -37 -16 -75q-18 -38 -40 -64q-6 -6 -72 -79 q-68 -73 -104 -118q-70 -89 -84 -182q17 4 43 6.5t47.5 2t41.5 -0.5l22 99h150v-260h-518z" />
<glyph unicode="&#xb3;" horiz-adv-x="915" d="M110 715v276h146l18 -88q41 0 76 12.5t57.5 38.5t22.5 62q0 14 -1 24t-6.5 24t-15 22.5t-28.5 15t-45 6.5h-92l2 139q16 19 54.5 64t67.5 80t52 65h-144v-90h-164v236h523v-146l-193 -234q30 -4 56 -11t52 -22.5t43.5 -37t28.5 -55.5t11 -76q-1 -190 -175 -260 q-66 -26 -149 -35.5t-197 -9.5z" />
<glyph unicode="&#xb4;" horiz-adv-x="477" d="M56 1308l114 294h252l-211 -294h-155z" />
<glyph unicode="&#xb6;" horiz-adv-x="1206" d="M-2 1073q0 92 31.5 175t88 146.5t132.5 110.5t166.5 72t187.5 25h637v-185l-143 -43v-1368q0 -54 -8 -99.5t-27.5 -92.5t-51.5 -84.5t-83.5 -70.5t-120.5 -55.5t-164.5 -35t-212.5 -12.5q-10 99 -16 186q33 0 60.5 2t50 5t32.5 3v793q-116 6 -218.5 47t-177.5 109 t-119 164.5t-44 207.5zM254 1073q0 -56 19 -107.5t55 -94.5t95 -71t134 -32v606q-60 -4 -110 -23t-85.5 -48t-59.5 -67t-36 -79t-12 -84zM784 -172q30 24 48.5 47t30 64.5t11.5 99.5v1335h-90v-1546z" />
<glyph unicode="&#xb7;" horiz-adv-x="477" d="M129 559v330h219v-330h-219z" />
<glyph unicode="&#xb8;" horiz-adv-x="477" d="M0 -398l49 99q41 -17 84 -24t67 -7q40 0 62 15t22 41t-15.5 42.5t-51.5 16.5q-18 0 -26.5 -0.5t-22.5 -3.5t-33 -9l-53 58l104 170h152l-80 -125h74q61 0 103 -37t42 -96q0 -44 -23 -80t-60.5 -59t-82.5 -35t-90 -12q-62 0 -114 10t-107 36z" />
<glyph unicode="&#xb9;" horiz-adv-x="915" d="M123 1403l371 223v-768h147v-166h-491v166h149v450l-88 -50z" />
<glyph unicode="&#xba;" horiz-adv-x="915" d="M58 1184q0 68 12 130.5t41 121.5t72 102.5t109 69.5t148 26q80 0 146.5 -26t110 -69.5t73.5 -102.5t43 -121.5t13 -130.5q0 -70 -13 -134t-42.5 -122t-73 -101t-109.5 -68.5t-147.5 -25.5t-147.5 25.5t-109 68.5t-72.5 102t-41.5 122t-12 133zM256 1184q0 -64 11 -117 t33 -94.5t58 -65t82 -23.5q62 0 105 40t62 106.5t19 153.5q0 64 -10 117t-32 95t-58.5 65.5t-85 23.5t-85 -24t-58 -66.5t-31.5 -95.5t-10 -115z" />
<glyph unicode="&#xbb;" horiz-adv-x="1206" d="M35 140l447 514l-447 514h260l434 -514l-434 -514h-260zM477 140l449 514l-449 512h261l434 -512l-434 -514h-261z" />
<glyph unicode="&#xbc;" horiz-adv-x="1955" d="M80 1405l370 221v-768h148v-166h-492v166h150v450l-88 -50zM328 0l868 1602h256l-872 -1602h-252zM1128 372l256 500h203l-249 -491h163v239h187v-239h65v-168h-61v-213h-186v213h-359z" />
<glyph unicode="&#xbd;" horiz-adv-x="1955" d="M80 1405l370 221v-768h148v-166h-492v166h150v450l-88 -50zM340 0l868 1602h256l-872 -1602h-252zM1174 2v82q0 106 52 216t120 179q20 18 40 38.5t53 54.5t54 62t21 40q0 9 -1 14.5t-6 15.5t-14 16t-29 10.5t-47 4.5q-32 0 -57 -8v-143h-162v227q44 36 106 54.5 t124 18.5q60 0 109 -12t87 -36t59 -66t21 -98q0 -36 -16 -74q-18 -38 -40 -64t-82 -91t-92 -105q-72 -86 -84 -182q16 4 42 5t47 1h41l22 100h152v-260h-520z" />
<glyph unicode="&#xbe;" horiz-adv-x="1955" d="M108 715v276h146l18 -88q41 0 76 12.5t57.5 38.5t22.5 62q0 14 -1 24t-6.5 24t-15 22.5t-28.5 15t-45 6.5h-92l2 139q15 18 54.5 64t67.5 80.5t52 64.5h-144v-90h-164v236h523v-146l-193 -234q30 -4 56 -11t52 -22.5t43 -37t28 -55.5t11 -76q0 -190 -174 -260 q-66 -26 -149 -35.5t-197 -9.5zM328 0l868 1602h256l-872 -1602h-252zM1128 372l256 500h203l-249 -491h163v239h187v-239h65v-168h-61v-213h-186v213h-359z" />
<glyph unicode="&#xbf;" horiz-adv-x="1062" d="M84 -78q0 70 24 134t64 116q32 41 71 79.5t71 66t66 58t59.5 61.5t46 70t31.5 91t11 117h226q0 -70 -6 -123.5t-21.5 -103t-36.5 -89t-57.5 -83.5t-78.5 -84q-42 -38 -104 -92q-116 -92 -116 -218q0 -19 1 -33.5t6 -32.5t13 -30.5t22.5 -25.5t34.5 -21.5t50 -13.5 q29 -5 67 -5q44 0 98 12t68 21v225h226v-374l-36 -14q-36 -14 -88 -30.5t-125 -30t-135 -13.5q-46 0 -89 4t-89 15t-85 29t-74.5 47t-60 66t-39.5 89.5t-15 115.5zM520 828v342h242v-342h-242z" />
<glyph unicode="&#xc0;" horiz-adv-x="1239" d="M26 0l406 1602h375l405 -1602h-264l-118 516h-418l-119 -516h-267zM393 1956h258l115 -294h-164zM467 738h307l-143 598h-23z" />
<glyph unicode="&#xc1;" horiz-adv-x="1239" d="M26 0l406 1602h375l405 -1602h-264l-118 516h-418l-119 -516h-267zM467 738h307l-143 598h-23zM502 1662l114 294h252l-211 -294h-155z" />
<glyph unicode="&#xc2;" horiz-adv-x="1239" d="M26 0l406 1602h375l405 -1602h-264l-118 516h-418l-119 -516h-267zM282 1662l201 294h239l201 -294h-211l-104 154l-107 -154h-219zM467 738h307l-143 598h-23z" />
<glyph unicode="&#xc3;" horiz-adv-x="1239" d="M26 0l406 1602h375l405 -1602h-264l-118 516h-418l-119 -516h-267zM291 1692q0 40 13 83t36 80.5t60 62t81 24.5q34 0 76.5 -12t75.5 -26t67 -26t52 -12q30 0 45.5 24.5t17.5 59.5h127q-6 -118 -53.5 -184t-141.5 -66q-30 0 -83 20.5t-103 41.5q-52 20 -76 20 q-31 0 -51 -28t-20 -62h-123zM467 738h307l-143 598h-23z" />
<glyph unicode="&#xc4;" horiz-adv-x="1239" d="M26 0l406 1602h375l405 -1602h-264l-118 516h-418l-119 -516h-267zM326 1666v296h196v-296h-196zM467 738h307l-143 598h-23zM698 1666v296h199v-296h-199z" />
<glyph unicode="&#xc5;" horiz-adv-x="1239" d="M26 0l406 1602h375l405 -1602h-264l-118 516h-418l-119 -516h-267zM413 1838q0 90 62 151t150 61q93 0 152.5 -61t59.5 -151q0 -92 -59 -151t-151 -59q-93 0 -153.5 60t-60.5 150zM467 738h307l-143 598h-23zM541 1838q0 -36 24 -61q26 -25 60 -25q36 0 61 24.5t25 62 t-24 61.5t-62 24q-36 0 -60 -24t-24 -62z" />
<glyph unicode="&#xc6;" horiz-adv-x="1820" d="M26 0l611 1602h1079v-228h-586v-473h445v-219h-445v-454h688v-228h-944v682h-315l-262 -682h-271zM643 901h231v475h-50z" />
<glyph unicode="&#xc7;" horiz-adv-x="1144" d="M58 790q0 58 3 113.5t12 121t23 124.5t37.5 120t54 112.5t74 97t96 77.5t120.5 50t148 18q34 0 66 -1.5t67 -4.5t76 -8t94 -11.5t119 -15.5v-422h-262v227q-103 18 -182 19q-49 0 -90 -24t-69.5 -63t-50 -93t-34 -109.5t-21 -117.5t-11 -112t-2.5 -98q0 -34 1 -68t5 -79 t11 -86.5t18 -87t26.5 -83.5t38 -73t49.5 -59t64 -39t79 -15q90 0 157 59t118 179l223 -116q-41 -80 -88 -141t-107.5 -108.5t-137.5 -72t-169 -24.5q-78 0 -145 17t-118 47.5t-94 74.5t-72.5 93.5t-52.5 109.5t-36.5 117.5t-22.5 122t-12 119.5t-3 113zM400 -398l49 99 q41 -17 84 -24t67 -7q40 0 62 15t22 41t-15.5 42.5t-51.5 16.5q-18 0 -26.5 -0.5t-22.5 -3.5t-33 -9l-53 58l104 170h152l-80 -125h74q61 0 103 -37t42 -96q0 -44 -23 -80t-60.5 -59t-82.5 -35t-90 -12q-62 0 -114 10t-107 36z" />
<glyph unicode="&#xc8;" horiz-adv-x="1058" d="M127 0v1602h819v-228h-565v-462h440v-228h-440v-452h676v-232h-930zM311 1954h258l115 -294h-164z" />
<glyph unicode="&#xc9;" horiz-adv-x="1058" d="M127 0v1602h819v-228h-565v-462h440v-228h-440v-452h676v-232h-930zM404 1662l114 294h252l-211 -294h-155z" />
<glyph unicode="&#xca;" horiz-adv-x="1058" d="M127 0v1602h819v-228h-565v-462h440v-228h-440v-452h676v-232h-930zM223 1664l201 294h239l201 -294h-211l-104 154l-107 -154h-219z" />
<glyph unicode="&#xcb;" horiz-adv-x="1058" d="M127 0v1602h819v-228h-565v-462h440v-228h-440v-452h676v-232h-930zM283 1658v296h196v-296h-196zM655 1658v296h199v-296h-199z" />
<glyph unicode="&#xcc;" horiz-adv-x="528" d="M20 1952h260l116 -293h-164zM174 0v1602h260v-1602h-260z" />
<glyph unicode="&#xcd;" horiz-adv-x="528" d="M144 0v1602h260v-1602h-260zM168 1663l114 293h252l-210 -293h-156z" />
<glyph unicode="&#xce;" horiz-adv-x="528" d="M-116 1663l200 293h240l198 -293h-210l-105 153l-107 -153h-216zM78 0v1602h262v-1602h-262z" />
<glyph unicode="&#xcf;" horiz-adv-x="528" d="M-41 1659v295h197v-295h-197zM116 0v1602h261v-1602h-261zM332 1659v295h196v-295h-196z" />
<glyph unicode="&#xd0;" horiz-adv-x="1153" d="M6 696v209h121v697q158 12 244.5 17t179.5 5q88 0 162.5 -24t131.5 -66.5t103 -104t77 -134.5t52 -159.5t30 -178t9 -191.5q0 -55 -3 -106.5t-11 -114.5t-21 -118t-35 -114t-50.5 -107t-70 -92t-92 -74t-117 -47t-144.5 -17q-220 0 -445 24v696h-121zM377 215 q42 -7 77.5 -10t56.5 -4t61 -1q204 0 261 244q24 104 25 292v30q0 97 -7 179t-21 154t-38 127t-57 94.5t-77 60t-99 20.5q-40 0 -83 -3q-44 -4 -99 -8v-485h262v-209h-262v-481z" />
<glyph unicode="&#xd1;" horiz-adv-x="1351" d="M144 0v1602h300l562 -1162v1162h254v-1602h-296l-566 1155v-1155h-254zM406 1667q0 40 12.5 83.5t36 80.5t61.5 61.5t82 24.5q34 0 76 -12t75 -26t67 -26t52 -12q28 0 44 24.5t20 59.5h125q-14 -247 -195 -247q-30 0 -83 19.5t-104 39.5t-75 20q-31 0 -51.5 -28 t-20.5 -62h-122z" />
<glyph unicode="&#xd2;" d="M39 778v46q0 68 7 137t24.5 149.5t45.5 152t73 138.5t102 116t138 78t177 29t177 -29t138 -76.5t102 -114t72 -137.5t45 -151.5t25 -151t7 -140.5v-46q0 -68 -7 -137t-25 -149.5t-45 -152.5t-72 -139.5t-102 -116.5t-138 -78t-177 -29t-177 29t-138 78t-102 116.5 t-73 139.5t-45.5 152.5t-24.5 149.5t-7 137zM301 782q0 -45 3 -91.5t11.5 -105.5t22.5 -112t37.5 -104.5t54.5 -89t76.5 -60.5t99.5 -23t99 22t76 58.5t55 87t38 102.5t23 111.5t12 108t3 96.5v46q0 51 -4 102.5t-14 109.5t-25 110t-39.5 100t-55 83t-74 55.5t-94.5 20.5 q-50 0 -93 -20.5t-73.5 -55.5t-55 -83t-39.5 -100.5t-25.5 -110t-14.5 -109.5t-4 -102v-46zM315 1954h258l115 -294h-164z" />
<glyph unicode="&#xd3;" d="M39 778v46q0 68 7 137t24.5 149.5t45.5 152t73 138.5t102 116t138 78t177 29t177 -29t138 -76.5t102 -114t72 -137.5t45 -151.5t25 -151t7 -140.5v-46q0 -68 -7 -137t-25 -149.5t-45 -152.5t-72 -139.5t-102 -116.5t-138 -78t-177 -29t-177 29t-138 78t-102 116.5 t-73 139.5t-45.5 152.5t-24.5 149.5t-7 137zM301 782q0 -45 3 -91.5t11.5 -105.5t22.5 -112t37.5 -104.5t54.5 -89t76.5 -60.5t99.5 -23t99 22t76 58.5t55 87t38 102.5t23 111.5t12 108t3 96.5v46q0 51 -4 102.5t-14 109.5t-25 110t-39.5 100t-55 83t-74 55.5t-94.5 20.5 q-50 0 -93 -20.5t-73.5 -55.5t-55 -83t-39.5 -100.5t-25.5 -110t-14.5 -109.5t-4 -102v-46zM498 1662l114 294h252l-211 -294h-155z" />
<glyph unicode="&#xd4;" d="M39 776v45q0 68 7 137.5t24.5 150t45.5 152t73 138.5t102 116t138 78t177 29t177 -29t138 -76.5t102 -114t72 -137.5t45 -152t25 -151.5t7 -140.5v-45q0 -68 -7 -137t-25 -149.5t-45 -152.5t-72 -139.5t-102 -116.5t-138 -78t-177 -29t-177 29t-138 78t-102 116.5 t-73 139.5t-45.5 152.5t-24.5 149.5t-7 137zM270 1663l201 293h239l200 -293h-212l-104 153l-106 -153h-218zM301 780q0 -45 3 -91.5t11.5 -105.5t22.5 -112t37.5 -104.5t54.5 -89t76.5 -60.5t99.5 -23t99 22t76 58.5t55 87t38 102.5t23 111.5t12 108t3 96.5v46 q0 51 -4 102.5t-14 109.5t-25 110t-39.5 100t-55 83t-74 55.5t-94.5 20.5q-50 0 -93 -20.5t-73.5 -55.5t-55 -83t-39.5 -100.5t-25.5 -110t-14.5 -109.5t-4 -102v-46z" />
<glyph unicode="&#xd5;" d="M39 778v46q0 68 7 137t24.5 149.5t45.5 152t73 138.5t102 116t138 78t177 29t177 -29t138 -76.5t102 -114t72 -137.5t45 -151.5t25 -151t7 -140.5v-46q0 -68 -7 -137t-25 -149.5t-45 -152.5t-72 -139.5t-102 -116.5t-138 -78t-177 -29t-177 29t-138 78t-102 116.5 t-73 139.5t-45.5 152.5t-24.5 149.5t-7 137zM270 1692q0 40 13 83t36 80.5t60 62t81 24.5q34 0 76.5 -12t75.5 -26t67 -26t52 -12q30 0 45.5 24.5t17.5 59.5h127q-6 -118 -53.5 -184t-141.5 -66q-30 0 -83 20.5t-103 41.5q-52 20 -76 20q-31 0 -51 -28t-20 -62h-123z M301 782q0 -45 3 -91.5t11.5 -105.5t22.5 -112t37.5 -104.5t54.5 -89t76.5 -60.5t99.5 -23t99 22t76 58.5t55 87t38 102.5t23 111.5t12 108t3 96.5v46q0 51 -4 102.5t-14 109.5t-25 110t-39.5 100t-55 83t-74 55.5t-94.5 20.5q-50 0 -93 -20.5t-73.5 -55.5t-55 -83 t-39.5 -100.5t-25.5 -110t-14.5 -109.5t-4 -102v-46z" />
<glyph unicode="&#xd6;" d="M39 778v46q0 68 7 137t24.5 149.5t45.5 152t73 138.5t102 116t138 78t177 29t177 -29t138 -76.5t102 -114t72 -137.5t45 -151.5t25 -151t7 -140.5v-46q0 -68 -7 -137t-25 -149.5t-45 -152.5t-72 -139.5t-102 -116.5t-138 -78t-177 -29t-177 29t-138 78t-102 116.5 t-73 139.5t-45.5 152.5t-24.5 149.5t-7 137zM301 782q0 -45 3 -91.5t11.5 -105.5t22.5 -112t37.5 -104.5t54.5 -89t76.5 -60.5t99.5 -23t99 22t76 58.5t55 87t38 102.5t23 111.5t12 108t3 96.5v46q0 51 -4 102.5t-14 109.5t-25 110t-39.5 100t-55 83t-74 55.5t-94.5 20.5 q-50 0 -93 -20.5t-73.5 -55.5t-55 -83t-39.5 -100.5t-25.5 -110t-14.5 -109.5t-4 -102v-46zM318 1662v296h196v-296h-196zM690 1662v296h199v-296h-199z" />
<glyph unicode="&#xd7;" horiz-adv-x="1214" d="M119 352l323 318l-323 317l153 153l316 -327l322 327l153 -155l-328 -315l328 -318l-155 -156l-320 330l-316 -330z" />
<glyph unicode="&#xd8;" d="M39 -152l164 334q-46 62 -78.5 140.5t-48.5 159t-23.5 152.5t-7.5 144v46q0 68 7 137t24.5 150t45.5 152.5t73 139t102 116.5t138 78t177 29q140 0 262 -74l103 205h235l-176 -358q40 -61 69 -136t44 -152t22 -147t7 -140v-46q0 -68 -7 -137t-25 -149.5t-45 -152.5 t-72 -139.5t-102 -116.5t-138 -78t-177 -29q-126 0 -244 59l-90 -187h-239zM307 782q0 -180 37 -313l428 875q-70 66 -160 65q-50 0 -93 -20.5t-73 -55.5t-55 -83t-40 -100.5t-25.5 -110t-14.5 -109.5t-4 -102v-46zM471 246q67 -50 141 -50q54 0 99 22t76 58.5t55 87 t38 102.5t23 111.5t12 108t3 96.5v46q0 163 -27 274z" />
<glyph unicode="&#xd9;" horiz-adv-x="1351" d="M127 772v830h258v-814q0 -56 3.5 -109t12.5 -111t23 -108t37 -96.5t52 -79t71 -52t92 -19.5q42 0 77.5 12t62 32.5t48.5 51t37.5 64t27 75.5t18.5 82.5t11 87t5 86.5t1 84v814h260v-830q0 -63 -2.5 -119.5t-11 -121.5t-21.5 -121t-35 -113.5t-51 -104t-71 -87.5t-93 -69 t-118 -44t-145 -16q-73 0 -136.5 16t-113.5 45t-92 70t-72 89t-54 104.5t-39 114t-24.5 120.5t-13.5 120t-4 117zM418 1950h258l115 -294h-164z" />
<glyph unicode="&#xda;" horiz-adv-x="1351" d="M127 772v830h258v-814q0 -56 3.5 -109t12.5 -111t23 -108t37 -96.5t52 -79t71 -52t92 -19.5q42 0 77.5 12t62 32.5t48.5 51t37.5 64t27 75.5t18.5 82.5t11 87t5 86.5t1 84v814h260v-830q0 -63 -2.5 -119.5t-11 -121.5t-21.5 -121t-35 -113.5t-51 -104t-71 -87.5t-93 -69 t-118 -44t-145 -16q-73 0 -136.5 16t-113.5 45t-92 70t-72 89t-54 104.5t-39 114t-24.5 120.5t-13.5 120t-4 117zM531 1662l114 294h252l-211 -294h-155z" />
<glyph unicode="&#xdb;" horiz-adv-x="1351" d="M127 772v830h258v-814q0 -56 3.5 -109t12.5 -111t23 -108t37 -96.5t52 -79t71 -52t92 -19.5q42 0 77.5 12t62 32.5t48.5 51t37.5 64t27 75.5t18.5 82.5t11 87t5 86.5t1 84v814h260v-830q0 -63 -2.5 -119.5t-11 -121.5t-21.5 -121t-35 -113.5t-51 -104t-71 -87.5t-93 -69 t-118 -44t-145 -16q-73 0 -136.5 16t-113.5 45t-92 70t-72 89t-54 104.5t-39 114t-24.5 120.5t-13.5 120t-4 117zM362 1664l201 294h239l201 -294h-211l-104 154l-107 -154h-219z" />
<glyph unicode="&#xdc;" horiz-adv-x="1351" d="M127 772v830h258v-814q0 -56 3.5 -109t12.5 -111t23 -108t37 -96.5t52 -79t71 -52t92 -19.5q42 0 77.5 12t62 32.5t48.5 51t37.5 64t27 75.5t18.5 82.5t11 87t5 86.5t1 84v814h260v-830q0 -63 -2.5 -119.5t-11 -121.5t-21.5 -121t-35 -113.5t-51 -104t-71 -87.5t-93 -69 t-118 -44t-145 -16q-73 0 -136.5 16t-113.5 45t-92 70t-72 89t-54 104.5t-39 114t-24.5 120.5t-13.5 120t-4 117zM388 1664v296h196v-296h-196zM760 1664v296h199v-296h-199z" />
<glyph unicode="&#xdd;" horiz-adv-x="1243" d="M30 1602h282l310 -686l314 686h276l-464 -967v-635h-254v639zM531 1662l114 294h252l-211 -294h-155z" />
<glyph unicode="&#xde;" horiz-adv-x="1138" d="M104 0v1602h258v-273q51 2 189 2q110 0 198 -24.5t151 -69.5t105.5 -110t62.5 -145.5t20 -176.5q0 -89 -19 -165t-52 -132.5t-81 -101t-103 -74.5t-121 -49.5t-133 -28t-141 -8.5q-14 0 -39 1t-37 1v-248h-258zM362 465q48 -4 76 -4q398 0 398 344q0 161 -70 239 q-72 78 -232 78q-96 0 -172 -6v-651z" />
<glyph unicode="&#xdf;" horiz-adv-x="1153" d="M112 0v1028q0 94 20 179t61 157.5t100 125t143 82.5t184 30q103 0 186.5 -19.5t139 -52t93 -76.5t53.5 -92t16 -102q0 -56 -20 -106t-48.5 -83t-68 -63.5t-72.5 -48t-68 -35t-47 -25.5q-28 -18 -42.5 -38.5t-14.5 -53.5q0 -28 20.5 -53.5t53.5 -47.5t73.5 -45.5t82 -53 t76.5 -64.5t59.5 -85.5t29.5 -109.5q2 -32 0 -65t-12 -70t-27.5 -71t-47 -65t-67.5 -53t-92 -36q-54 -12 -118 -12q-61 0 -115 18t-91.5 45.5t-69.5 65.5t-51 71.5t-33 69.5l196 98q24 -78 70 -124t94 -46q28 0 53 10.5t44 30t28 52.5t4 73q-4 31 -28.5 59.5t-60.5 52.5 t-79 49.5t-84.5 55.5t-76 64.5t-55.5 83.5t-21 106q0 163 167 256q18 10 52.5 25.5t59.5 27.5t50.5 31t39 46t13.5 63q0 27 -13 51t-39.5 44.5t-72 32t-104.5 11.5q-119 0 -196 -106q-77 -105 -77 -281v-1012h-250z" />
<glyph unicode="&#xe0;" horiz-adv-x="1130" d="M35 291q0 60 15.5 113.5t42 95.5t65 77.5t82 61.5t96 47.5t103.5 36t108.5 25t107 16.5t101.5 10v90q0 64 -34 91.5t-106 27.5l-178 -47v-121h-250v297q21 4 79.5 15t88.5 16t78 12t89 10t81 3q68 0 126 -10t110 -34t88 -61t58 -94t22 -129v-840h-220l-24 186 q-28 -26 -46 -42t-47 -41t-51.5 -40.5t-53 -34t-57 -28.5t-58 -17t-62.5 -7q-86 0 -155 27t-111.5 72.5t-65 101t-22.5 114.5zM278 303q0 -53 32.5 -90t82.5 -37q39 0 87 23t97 62t93 82t86 93v174q-58 -5 -121 -19.5t-127.5 -40.5t-115 -60t-82.5 -83t-32 -104zM334 1602 h258l115 -294h-164z" />
<glyph unicode="&#xe1;" horiz-adv-x="1130" d="M35 291q0 60 15.5 113.5t42 95.5t65 77.5t82 61.5t96 47.5t103.5 36t108.5 25t107 16.5t101.5 10v90q0 64 -34 91.5t-106 27.5l-178 -47v-121h-250v297q21 4 79.5 15t88.5 16t78 12t89 10t81 3q68 0 126 -10t110 -34t88 -61t58 -94t22 -129v-840h-220l-24 186 q-28 -26 -46 -42t-47 -41t-51.5 -40.5t-53 -34t-57 -28.5t-58 -17t-62.5 -7q-86 0 -155 27t-111.5 72.5t-65 101t-22.5 114.5zM278 303q0 -53 32.5 -90t82.5 -37q39 0 87 23t97 62t93 82t86 93v174q-58 -5 -121 -19.5t-127.5 -40.5t-115 -60t-82.5 -83t-32 -104zM449 1308 l114 294h252l-211 -294h-155z" />
<glyph unicode="&#xe2;" horiz-adv-x="1130" d="M35 291q0 60 15.5 113.5t42 95.5t65 77.5t82 61.5t96 47.5t103.5 36t108.5 25t107 16.5t101.5 10v90q0 64 -34 91.5t-106 27.5l-178 -47v-121h-250v297q21 4 79.5 15t88.5 16t78 12t89 10t81 3q68 0 126 -10t110 -34t88 -61t58 -94t22 -129v-840h-220l-24 186 q-28 -26 -46 -42t-47 -41t-51.5 -40.5t-53 -34t-57 -28.5t-58 -17t-62.5 -7q-86 0 -155 27t-111.5 72.5t-65 101t-22.5 114.5zM268 1308l201 294h239l201 -294h-211l-104 154l-107 -154h-219zM278 303q0 -53 32.5 -90t82.5 -37q39 0 87 23t97 62t93 82t86 93v174 q-58 -5 -121 -19.5t-127.5 -40.5t-115 -60t-82.5 -83t-32 -104z" />
<glyph unicode="&#xe3;" horiz-adv-x="1130" d="M35 291q0 60 15.5 113.5t42 95.5t65 77.5t82 61.5t96 47.5t103.5 36t108.5 25t107 16.5t101.5 10v90q0 64 -34 91.5t-106 27.5l-178 -47v-121h-250v297q21 4 79.5 15t88.5 16t78 12t89 10t81 3q68 0 126 -10t110 -34t88 -61t58 -94t22 -129v-840h-220l-24 186 q-28 -26 -46 -42t-47 -41t-51.5 -40.5t-53 -34t-57 -28.5t-58 -17t-62.5 -7q-86 0 -155 27t-111.5 72.5t-65 101t-22.5 114.5zM250 1346q0 40 13 83t36 80.5t60 62t81 24.5q34 0 76.5 -12t75.5 -26t67 -26t52 -12q30 0 45.5 24.5t17.5 59.5h127q-6 -118 -53.5 -184 t-141.5 -66q-30 0 -83 20.5t-103 41.5q-52 20 -76 20q-31 0 -51 -28t-20 -62h-123zM278 303q0 -53 32.5 -90t82.5 -37q39 0 87 23t97 62t93 82t86 93v174q-58 -5 -121 -19.5t-127.5 -40.5t-115 -60t-82.5 -83t-32 -104z" />
<glyph unicode="&#xe4;" horiz-adv-x="1130" d="M35 291q0 60 15.5 113.5t42 95.5t65 77.5t82 61.5t96 47.5t103.5 36t108.5 25t107 16.5t101.5 10v90q0 64 -34 91.5t-106 27.5l-178 -47v-121h-250v297q21 4 79.5 15t88.5 16t78 12t89 10t81 3q68 0 126 -10t110 -34t88 -61t58 -94t22 -129v-840h-220l-24 186 q-28 -26 -46 -42t-47 -41t-51.5 -40.5t-53 -34t-57 -28.5t-58 -17t-62.5 -7q-86 0 -155 27t-111.5 72.5t-65 101t-22.5 114.5zM278 303q0 -53 32.5 -90t82.5 -37q39 0 87 23t97 62t93 82t86 93v174q-58 -5 -121 -19.5t-127.5 -40.5t-115 -60t-82.5 -83t-32 -104zM322 1323 v279h186v-279h-186zM674 1323v279h186v-279h-186z" />
<glyph unicode="&#xe5;" horiz-adv-x="1130" d="M35 291q0 60 15.5 113.5t42 95.5t65 77.5t82 61.5t96 47.5t103.5 36t108.5 25t107 16.5t101.5 10v90q0 64 -34 91.5t-106 27.5l-178 -47v-121h-250v297q21 4 79.5 15t88.5 16t78 12t89 10t81 3q68 0 126 -10t110 -34t88 -61t58 -94t22 -129v-840h-220l-24 186 q-28 -26 -46 -42t-47 -41t-51.5 -40.5t-53 -34t-57 -28.5t-58 -17t-62.5 -7q-86 0 -155 27t-111.5 72.5t-65 101t-22.5 114.5zM278 303q0 -53 32.5 -90t82.5 -37q39 0 87 23t97 62t93 82t86 93v174q-58 -5 -121 -19.5t-127.5 -40.5t-115 -60t-82.5 -83t-32 -104zM374 1392 q0 90 62 151t150 61q93 0 152.5 -61t59.5 -151q0 -92 -59 -151t-151 -59q-93 0 -153.5 60t-60.5 150zM502 1392q0 -36 24 -61q26 -25 60 -25q36 0 61 24.5t25 62t-24 61.5t-62 24q-36 0 -60 -24t-24 -62z" />
<glyph unicode="&#xe6;" horiz-adv-x="1785" d="M35 291q1 424 719 483v90q0 64 -33 91.5t-105 27.5l-170 -51v-117h-258v299q74 13 137.5 24.5t138.5 20.5t140 9q217 0 338 -109q54 52 131 80.5t174 28.5q86 0 159.5 -22.5t126.5 -61.5t93 -90t65 -111t37 -121t13 -123l2 -97h-733q0 -94 35 -173.5t97.5 -127 t137.5 -47.5q83 0 142.5 43t107.5 127l211 -130q-32 -42 -59 -72t-61 -61.5t-69 -52.5t-77.5 -38.5t-93.5 -25.5t-109 -8q-156 0 -273.5 75t-177.5 205l-21 -21q-20 -20 -53 -51.5t-79 -67.5t-92 -67.5t-97 -52t-90 -20.5q-86 0 -155 27t-111.5 72.5t-65 101t-22.5 114.5z M278 303q0 -53 32.5 -90t82.5 -37q42 0 90.5 21t96 58t90 78t84.5 91l-1 92q-1 92 1 92q-57 -5 -119 -19.5t-126.5 -40.5t-115 -60t-83 -82.5t-32.5 -102.5zM1018 729h460q0 15 -3.5 35t-12 44t-21.5 48t-32 46.5t-42 40t-54 28t-66 10.5q-45 0 -84 -17.5t-65 -45.5 t-44.5 -62t-27 -66.5t-8.5 -60.5z" />
<glyph unicode="&#xe7;" horiz-adv-x="944" d="M33 568q0 98 14.5 183t49.5 163t89 133t137 88t189 33q58 0 124 -6t114 -13t124 -21v-330h-239v152l-129 33q-209 0 -209 -418q0 -30 1.5 -58.5t6.5 -68.5t13.5 -73t24 -68t36.5 -59t53 -40t72 -16q68 0 118 41t97 145l219 -130q-38 -60 -83 -107t-89.5 -76t-93 -47 t-90.5 -25q-40 -7 -82 -7q-100 0 -174.5 29t-147.5 105q-39 41 -68.5 99.5t-45.5 120.5t-24 122q-7 60 -7 116zM291 -390l49 99q41 -17 84 -24t67 -7q40 0 62 15t22 41t-15.5 42.5t-51.5 16.5q-18 0 -26.5 -0.5t-22.5 -3.5t-33 -9l-53 58l104 170h152l-80 -125h74 q61 0 103 -37t42 -96q0 -44 -23 -80t-60.5 -59t-82.5 -35t-90 -12q-62 0 -114 10t-107 36z" />
<glyph unicode="&#xe8;" horiz-adv-x="1073" d="M33 580q0 94 19.5 180t60.5 161t99.5 129.5t141 86t180.5 31.5q102 0 187 -32.5t140.5 -85t94 -122.5t55.5 -142t17 -147v-97h-731q0 -94 35 -173.5t97 -127t136 -47.5q58 0 104.5 21t81 57t66.5 92l211 -130q-39 -50 -70.5 -85t-75.5 -70t-89 -56t-105 -34t-131 -13 q-96 0 -180 31t-146.5 87t-107.5 132t-67.5 166t-22.5 188zM279 1602h258l115 -294h-164zM305 729h461q0 22 -7.5 51.5t-25.5 65.5t-43.5 65.5t-66.5 49.5t-91 20q-44 0 -82.5 -17.5t-64.5 -45.5t-44.5 -62t-27 -66.5t-8.5 -60.5z" />
<glyph unicode="&#xe9;" horiz-adv-x="1073" d="M33 580q0 94 19.5 180t60.5 161t99.5 129.5t141 86t180.5 31.5q102 0 187 -32.5t140.5 -85t94 -122.5t55.5 -142t17 -147v-97h-731q0 -94 35 -173.5t97 -127t136 -47.5q58 0 104.5 21t81 57t66.5 92l211 -130q-39 -50 -70.5 -85t-75.5 -70t-89 -56t-105 -34t-131 -13 q-96 0 -180 31t-146.5 87t-107.5 132t-67.5 166t-22.5 188zM305 729h461q0 22 -7.5 51.5t-25.5 65.5t-43.5 65.5t-66.5 49.5t-91 20q-44 0 -82.5 -17.5t-64.5 -45.5t-44.5 -62t-27 -66.5t-8.5 -60.5zM424 1308l114 294h252l-211 -294h-155z" />
<glyph unicode="&#xea;" horiz-adv-x="1073" d="M33 580q0 94 19.5 180t60.5 161t99.5 129.5t141 86t180.5 31.5q102 0 187 -32.5t140.5 -85t94 -122.5t55.5 -142t17 -147v-97h-731q0 -94 35 -173.5t97 -127t136 -47.5q58 0 104.5 21t81 57t66.5 92l211 -130q-39 -50 -70.5 -85t-75.5 -70t-89 -56t-105 -34t-131 -13 q-96 0 -180 31t-146.5 87t-107.5 132t-67.5 166t-22.5 188zM236 1308l201 294h239l201 -294h-211l-104 154l-107 -154h-219zM305 729h461q0 22 -7.5 51.5t-25.5 65.5t-43.5 65.5t-66.5 49.5t-91 20q-44 0 -82.5 -17.5t-64.5 -45.5t-44.5 -62t-27 -66.5t-8.5 -60.5z" />
<glyph unicode="&#xeb;" horiz-adv-x="1073" d="M33 580q0 94 19.5 180t60.5 161t99.5 129.5t141 86t180.5 31.5q102 0 187 -32.5t140.5 -85t94 -122.5t55.5 -142t17 -147v-97h-731q0 -94 35 -173.5t97 -127t136 -47.5q58 0 104.5 21t81 57t66.5 92l211 -130q-39 -50 -70.5 -85t-75.5 -70t-89 -56t-105 -34t-131 -13 q-96 0 -180 31t-146.5 87t-107.5 132t-67.5 166t-22.5 188zM266 1302v296h196v-296h-196zM305 729h461q0 22 -7.5 51.5t-25.5 65.5t-43.5 65.5t-66.5 49.5t-91 20q-44 0 -82.5 -17.5t-64.5 -45.5t-44.5 -62t-27 -66.5t-8.5 -60.5zM638 1302v296h199v-296h-199z" />
<glyph unicode="&#xec;" horiz-adv-x="483" d="M22 1602h258l116 -294h-164zM156 0v1145h250v-1145h-250z" />
<glyph unicode="&#xed;" horiz-adv-x="483" d="M51 1308l115 294h252l-211 -294h-156zM76 0v1145h250v-1145h-250z" />
<glyph unicode="&#xee;" horiz-adv-x="483" d="M-80 1308l201 294h239l201 -294h-211l-104 154l-106 -154h-220zM127 0v1145h250v-1145h-250z" />
<glyph unicode="&#xef;" horiz-adv-x="483" d="M-43 1306v296h197v-296h-197zM125 0v1145h250v-1145h-250zM330 1306v296h196v-296h-196z" />
<glyph unicode="&#xf0;" horiz-adv-x="1101" d="M28 576q0 60 8 117.5t26 117t45 111.5t68 97t91 78t118 52t146 19q30 0 86 -12t76 -28q-32 92 -116 160l-212 -84l-57 154l105 34q-36 22 -92 32t-88 10v168q62 0 132.5 -9t155 -34.5t144.5 -63.5l296 113l60 -150l-213 -80q237 -276 237 -802q0 -50 -7 -103.5t-24 -113 t-43 -113.5t-68 -104t-93 -86.5t-123 -58t-156 -21.5q-78 0 -145 18t-118 51t-91.5 78.5t-68 98t-45.5 112.5t-26 120t-8 122zM280 576q0 -81 15 -152.5t44 -130.5t79 -93q48 -34 112 -34q52 0 94.5 22t71 60t48 90.5t28 112t8.5 125.5q0 48 -5 93t-16 91t-31 84t-46.5 68 t-65 46.5t-86.5 16.5q-46 0 -84 -17.5t-64.5 -47.5t-46.5 -68.5t-31.5 -84t-17.5 -90.5t-6 -91z" />
<glyph unicode="&#xf1;" horiz-adv-x="1183" d="M116 0v1145h202l46 -275q62 88 116 146.5t106 91.5t101 46.5t107 13.5q41 0 75.5 -8t60.5 -20.5t46.5 -33t34.5 -41.5t24.5 -50t15.5 -55t8.5 -60t4.5 -61.5t1 -62.5v-776h-250v776q0 86 -21.5 122t-72.5 36q-28 0 -54 -10t-54.5 -33t-53.5 -49t-60 -71t-63 -85t-72 -104 v-582h-248zM297 1350q0 40 13 83t36 80.5t60 62t81 24.5q34 0 76.5 -12t75.5 -26t67 -26t52 -12q30 0 45.5 24.5t17.5 59.5h127q-6 -118 -53.5 -184t-141.5 -66q-30 0 -83 20.5t-103 41.5q-52 20 -76 20q-31 0 -51 -28t-20 -62h-123z" />
<glyph unicode="&#xf2;" horiz-adv-x="1081" d="M37 572q0 64 8.5 124t26.5 120t46 111.5t69 96t91.5 76.5t117.5 50q66 18 144 18q77 0 144.5 -18t117.5 -50t91 -76.5t69 -96t47 -111.5t27 -120t8 -124q0 -92 -16 -176t-54 -162t-95 -134.5t-143 -89.5q-88 -34 -196 -34t-194 34t-143 90.5t-95 134t-54.5 161.5 t-16.5 176zM279 1602h258l115 -294h-164zM293 572q0 -114 26.5 -203t82.5 -143t138 -54q62 0 109.5 31t77 85.5t44.5 126t15 157.5q0 88 -13 158.5t-41 126.5t-77 87t-115 31q-59 0 -106.5 -31.5t-77.5 -86.5t-46.5 -128t-16.5 -157z" />
<glyph unicode="&#xf3;" horiz-adv-x="1081" d="M37 572q0 64 8.5 124t26.5 120t46 111.5t69 96t91.5 76.5t117.5 50q66 18 144 18q77 0 144.5 -18t117.5 -50t91 -76.5t69 -96t47 -111.5t27 -120t8 -124q0 -92 -16 -176t-54 -162t-95 -134.5t-143 -89.5q-88 -34 -196 -34t-194 34t-143 90.5t-95 134t-54.5 161.5 t-16.5 176zM293 572q0 -114 26.5 -203t82.5 -143t138 -54q62 0 109.5 31t77 85.5t44.5 126t15 157.5q0 88 -13 158.5t-41 126.5t-77 87t-115 31q-59 0 -106.5 -31.5t-77.5 -86.5t-46.5 -128t-16.5 -157zM449 1308l114 294h252l-211 -294h-155z" />
<glyph unicode="&#xf4;" horiz-adv-x="1081" d="M37 572q0 64 8.5 124t26.5 120t46 111.5t69 96t91.5 76.5t117.5 50q66 18 144 18q77 0 144.5 -18t117.5 -50t91 -76.5t69 -96t47 -111.5t27 -120t8 -124q0 -92 -16 -176t-54 -162t-95 -134.5t-143 -89.5q-88 -34 -196 -34t-194 34t-143 90.5t-95 134t-54.5 161.5 t-16.5 176zM232 1308l201 294h239l201 -294h-211l-104 154l-107 -154h-219zM293 572q0 -114 26.5 -203t82.5 -143t138 -54q62 0 109.5 31t77 85.5t44.5 126t15 157.5q0 88 -13 158.5t-41 126.5t-77 87t-115 31q-59 0 -106.5 -31.5t-77.5 -86.5t-46.5 -128t-16.5 -157z" />
<glyph unicode="&#xf5;" horiz-adv-x="1081" d="M37 572q0 64 8.5 124t26.5 120t46 111.5t69 96t91.5 76.5t117.5 50q66 18 144 18q77 0 144.5 -18t117.5 -50t91 -76.5t69 -96t47 -111.5t27 -120t8 -124q0 -92 -16 -176t-54 -162t-95 -134.5t-143 -89.5q-88 -34 -196 -34t-194 34t-143 90.5t-95 134t-54.5 161.5 t-16.5 176zM230 1350q0 40 13 83t36 80.5t60 62t81 24.5q34 0 76.5 -12t75.5 -26t67 -26t52 -12q30 0 45.5 24.5t17.5 59.5h127q-6 -118 -53.5 -184t-141.5 -66q-30 0 -83 20.5t-103 41.5q-52 20 -76 20q-31 0 -51 -28t-20 -62h-123zM293 572q0 -114 26.5 -203t82.5 -143 t138 -54q62 0 109.5 31t77 85.5t44.5 126t15 157.5q0 88 -13 158.5t-41 126.5t-77 87t-115 31q-59 0 -106.5 -31.5t-77.5 -86.5t-46.5 -128t-16.5 -157z" />
<glyph unicode="&#xf6;" horiz-adv-x="1081" d="M37 572q0 64 8.5 124t26.5 120t46 111.5t69 96t91.5 76.5t117.5 50q66 18 144 18q77 0 144.5 -18t117.5 -50t91 -76.5t69 -96t47 -111.5t27 -120t8 -124q0 -92 -16 -176t-54 -162t-95 -134.5t-143 -89.5q-88 -34 -196 -34t-194 34t-143 90.5t-95 134t-54.5 161.5 t-16.5 176zM262 1306v296h196v-296h-196zM293 572q0 -114 26.5 -203t82.5 -143t138 -54q62 0 109.5 31t77 85.5t44.5 126t15 157.5q0 88 -13 158.5t-41 126.5t-77 87t-115 31q-59 0 -106.5 -31.5t-77.5 -86.5t-46.5 -128t-16.5 -157zM634 1306v296h199v-296h-199z" />
<glyph unicode="&#xf7;" horiz-adv-x="1206" d="M123 557v197h961v-197h-961zM500 144v317h200v-317h-200zM500 848v320h200v-320h-200z" />
<glyph unicode="&#xf8;" horiz-adv-x="1081" d="M37 572q0 64 8 124.5t26.5 120.5t45.5 112t68 96.5t91 76.5t117 50t145 18q102 0 191 -34l92 174h227l-151 -288q83 -96 115 -207t32 -243q0 -92 -16 -176t-54.5 -162t-95.5 -134.5t-144 -89.5q-88 -34 -196 -34q-96 0 -178 28l-82 -158h-235l143 268q-52 54 -86.5 137 t-48.5 162t-14 159zM293 572q1 -128 25 -208l313 590q-47 20 -93 21q-64 0 -111.5 -31.5t-76 -87.5t-43 -127t-14.5 -157zM459 188q29 -16 79 -16q62 0 110.5 31t78 85.5t44.5 126t15 157.5q0 129 -20 202z" />
<glyph unicode="&#xf9;" horiz-adv-x="1183" d="M121 360v785h251v-785q0 -16 0.5 -26t3 -27t5.5 -28.5t11 -25t18 -21.5t25.5 -13.5t35.5 -5.5q26 0 52.5 10.5t49.5 27t49 45t46.5 54.5t48 68t45.5 72t47 78v577h252v-1145h-201l-51 276q-23 -34 -45 -64t-42.5 -57.5t-42.5 -51.5t-44.5 -43.5t-48.5 -35.5t-55 -26.5 t-64.5 -16t-75.5 -5.5q-42 0 -76.5 8t-60.5 22t-47 35t-34 43t-23 52t-16 55.5t-9 58t-3.5 56.5t-0.5 54zM287 1602h258l115 -294h-164z" />
<glyph unicode="&#xfa;" horiz-adv-x="1183" d="M121 360v785h251v-785q0 -16 0.5 -26t3 -27t5.5 -28.5t11 -25t18 -21.5t25.5 -13.5t35.5 -5.5q26 0 52.5 10.5t49.5 27t49 45t46.5 54.5t48 68t45.5 72t47 78v577h252v-1145h-201l-51 276q-23 -34 -45 -64t-42.5 -57.5t-42.5 -51.5t-44.5 -43.5t-48.5 -35.5t-55 -26.5 t-64.5 -16t-75.5 -5.5q-42 0 -76.5 8t-60.5 22t-47 35t-34 43t-23 52t-16 55.5t-9 58t-3.5 56.5t-0.5 54zM420 1308l114 294h252l-211 -294h-155z" />
<glyph unicode="&#xfb;" horiz-adv-x="1183" d="M121 360v785h251v-785q0 -16 0.5 -26t3 -27t5.5 -28.5t11 -25t18 -21.5t25.5 -13.5t35.5 -5.5q26 0 52.5 10.5t49.5 27t49 45t46.5 54.5t48 68t45.5 72t47 78v577h252v-1145h-201l-51 276q-23 -34 -45 -64t-42.5 -57.5t-42.5 -51.5t-44.5 -43.5t-48.5 -35.5t-55 -26.5 t-64.5 -16t-75.5 -5.5q-42 0 -76.5 8t-60.5 22t-47 35t-34 43t-23 52t-16 55.5t-9 58t-3.5 56.5t-0.5 54zM266 1308l201 294h239l201 -294h-211l-104 154l-107 -154h-219z" />
<glyph unicode="&#xfc;" horiz-adv-x="1183" d="M121 360v785h251v-785q0 -16 0.5 -26t3 -27t5.5 -28.5t11 -25t18 -21.5t25.5 -13.5t35.5 -5.5q26 0 52.5 10.5t49.5 27t49 45t46.5 54.5t48 68t45.5 72t47 78v577h252v-1145h-201l-51 276q-23 -34 -45 -64t-42.5 -57.5t-42.5 -51.5t-44.5 -43.5t-48.5 -35.5t-55 -26.5 t-64.5 -16t-75.5 -5.5q-42 0 -76.5 8t-60.5 22t-47 35t-34 43t-23 52t-16 55.5t-9 58t-3.5 56.5t-0.5 54zM304 1306v296h196v-296h-196zM676 1306v296h199v-296h-199z" />
<glyph unicode="&#xfd;" horiz-adv-x="1099" d="M18 -182q38 -6 72 -7t64 6t56 18t49.5 29t44 38t40.5 46.5t36 53.5q18 26 36 60l-78 258l-252 776l244 72l246 -820q64 158 126 389t88 408h264q-29 -174 -101.5 -423.5t-133.5 -401.5q-76 -188 -131 -293q-150 -278 -350 -391q-144 -80 -320 -80v262zM504 1308l114 294 h252l-211 -294h-155z" />
<glyph unicode="&#xfe;" horiz-adv-x="1140" d="M98 -444v2046h254v-613q60 76 160 127q100 52 188 52q69 0 127.5 -21t101.5 -58t76 -86t53 -109t30 -123.5t10 -131.5v-53q0 -96 -22 -187t-64.5 -167.5t-102 -134t-139.5 -89.5t-172 -32q-30 0 -68 8.5t-89 34t-89 63.5v-526h-254zM352 301q58 -60 114 -83.5t116 -23.5 q42 0 79.5 14t73 46t61 79t41 118t15.5 159v35q0 29 -1 53t-6 55t-13 55t-22 48t-33 40t-47 26t-62 10q-80 0 -168 -61t-148 -148v-422z" />
<glyph unicode="&#xff;" horiz-adv-x="1099" d="M18 -182q38 -6 72 -7t64 6t56 18t49.5 29t44 38t40.5 46.5t36 53.5q18 26 36 60l-78 258l-252 776l244 72l246 -820q64 158 126 389t88 408h264q-29 -174 -101.5 -423.5t-133.5 -401.5q-76 -188 -131 -293q-150 -278 -350 -391q-144 -80 -320 -80v262zM295 1306v296h196 v-296h-196zM667 1306v296h199v-296h-199z" />
<glyph unicode="&#x152;" horiz-adv-x="1746" d="M39 790q0 58 3.5 113t12 119t22 121t36.5 117t53 109t72.5 93t94 74t118.5 48t145 18h1046v-228h-581v-462h445v-228h-445v-456h684v-228h-938h1q2 0 0.5 -0.5t-6 -1t-19.5 -1t-37 -1t-61 -0.5h-89q-79 0 -147 17t-119.5 46t-93.5 71.5t-72 90t-52.5 105.5t-36 114 t-22 120t-11.5 118t-3 112zM303 790q0 -34 1.5 -68t5.5 -78t10.5 -85t18 -86t26.5 -82t37.5 -71.5t50 -58t64.5 -38t79 -14.5q52 0 102 4.5t64 6.5l45 8v1146q-54 10 -117.5 17.5t-93.5 7.5q-52 0 -96 -23.5t-73.5 -61.5t-52 -91.5t-36 -108t-22 -116.5t-11 -111t-2.5 -97z " />
<glyph unicode="&#x153;" horiz-adv-x="1830" d="M37 572q0 64 8.5 124t27.5 120t47 111.5t69.5 96t92.5 76.5t118.5 50t144.5 18q241 0 377 -170q65 81 158 126q92 44 212 44q102 0 187 -32.5t140 -85t94 -122.5t56 -142t17 -147l2 -97h-734q0 -94 35.5 -173.5t98 -127t137.5 -47.5q83 0 142.5 43t107.5 127l211 -130 q-32 -42 -59 -72t-61 -61.5t-69 -52.5t-77.5 -38.5t-93 -25.5t-109.5 -8q-120 0 -217.5 47t-167.5 131q-137 -178 -387 -178q-108 0 -195 34t-144.5 90.5t-96.5 134t-55.5 161.5t-16.5 176zM293 572q0 -85 16 -157.5t46.5 -126.5t79.5 -85t110 -31q44 0 80.5 14t61.5 38 t44 58t30 69t18 77t9 78t2 74t-2 73t-9 76t-18 75t-30 66t-44 55t-61.5 36.5t-80.5 13.5q-78 0 -136.5 -54.5t-87 -145.5t-28.5 -203zM1063 729h461q0 22 -8 51.5t-25.5 65.5t-43 65.5t-65.5 49.5q-42 20 -90 20q-38 0 -71.5 -12.5t-58 -33t-44 -46.5t-31 -54.5t-18 -55.5 t-6.5 -50z" />
<glyph unicode="&#x178;" horiz-adv-x="1243" d="M30 1602h282l310 -686l314 686h276l-464 -967v-635h-254v639zM340 1660v296h196v-296h-196zM712 1660v296h199v-296h-199z" />
<glyph unicode="&#x2c6;" horiz-adv-x="477" d="M-82 1308l201 294h239l201 -294h-211l-104 154l-107 -154h-219z" />
<glyph unicode="&#x2dc;" horiz-adv-x="477" d="M-86 1354q0 40 13 83t36 80.5t60 62t81 24.5q34 0 76.5 -12t75.5 -26t67 -26t52 -12q30 0 45.5 24.5t17.5 59.5h127q-6 -118 -53.5 -184t-141.5 -66q-30 0 -83 20.5t-103 41.5q-52 20 -76 20q-31 0 -51 -28t-20 -62h-123z" />
<glyph unicode="&#x2000;" horiz-adv-x="1025" />
<glyph unicode="&#x2001;" horiz-adv-x="2050" />
<glyph unicode="&#x2002;" horiz-adv-x="1025" />
<glyph unicode="&#x2003;" horiz-adv-x="2050" />
<glyph unicode="&#x2004;" horiz-adv-x="683" />
<glyph unicode="&#x2005;" horiz-adv-x="512" />
<glyph unicode="&#x2006;" horiz-adv-x="341" />
<glyph unicode="&#x2007;" horiz-adv-x="341" />
<glyph unicode="&#x2008;" horiz-adv-x="256" />
<glyph unicode="&#x2009;" horiz-adv-x="410" />
<glyph unicode="&#x200a;" horiz-adv-x="113" />
<glyph unicode="&#x2010;" horiz-adv-x="1064" d="M260 582v198h545v-198h-545z" />
<glyph unicode="&#x2011;" horiz-adv-x="1064" d="M260 582v198h545v-198h-545z" />
<glyph unicode="&#x2012;" horiz-adv-x="1064" d="M260 582v198h545v-198h-545z" />
<glyph unicode="&#x2013;" horiz-adv-x="915" d="M116 588v198h682v-198h-682z" />
<glyph unicode="&#x2014;" horiz-adv-x="1497" d="M133 588v196h1231v-196h-1231z" />
<glyph unicode="&#x2018;" horiz-adv-x="624" d="M152 1168v202q0 31 22 77.5t49 84.5q27 36 49 64l23 28h178q-53 -76 -83 -136.5t-30 -117.5v-202h-208zM152 1168h208h-208z" />
<glyph unicode="&#x2019;" horiz-adv-x="624" d="M152 1168q53 76 82.5 136t29.5 118v202h209v-202q0 -31 -22.5 -77.5t-49.5 -84.5t-49 -65l-22 -27h-178zM264 1624h209h-209z" />
<glyph unicode="&#x201a;" horiz-adv-x="624" d="M133 -152q50 72 84.5 146t34.5 133v215h209v-215q0 -38 -23.5 -89t-52.5 -91.5t-52 -69.5l-24 -29h-176z" />
<glyph unicode="&#x201c;" horiz-adv-x="915" d="M148 1168v202q0 31 23 77.5t51 84.5q27 36 50 64l23 28h168q-29 -41 -44 -64.5t-35 -59.5t-29 -68t-7 -62l8 -202h-208zM148 1168h200h-200zM456 1168v202q0 31 23 77.5t51 84.5q28 36 51 64l23 28h168q-28 -42 -42 -64.5t-34 -59.5t-29 -68.5t-9 -61.5v-202h-202z M456 1168h202h-202z" />
<glyph unicode="&#x201d;" horiz-adv-x="915" d="M148 1145q51 73 80.5 135.5t29.5 118.5v203h209v-203q0 -30 -22.5 -76.5t-49.5 -84.5t-49 -65l-22 -28h-176zM258 1602h209h-209zM448 1145q52 74 82.5 136t30.5 118v203h207v-203q0 -30 -22.5 -76.5t-49 -84.5t-49.5 -65l-23 -28h-176zM561 1602h207h-207z" />
<glyph unicode="&#x201e;" horiz-adv-x="915" d="M127 -152q50 72 84.5 146t34.5 133v215h208v-215q0 -38 -23.5 -89t-52 -91.5t-51.5 -69.5l-24 -29h-176zM416 -152q50 72 84 146t34 133v215h210v-215q0 -38 -24 -89t-52 -91.5t-52 -69.5l-24 -29h-176z" />
<glyph unicode="&#x2022;" horiz-adv-x="770" d="M158 606v201q0 56 33 106t85 78.5t109 28.5h51q42 0 84 -17t73 -45t51 -68t20 -83v-201q0 -56 -33.5 -105t-86 -77t-108.5 -28h-51q-58 0 -110.5 28t-84.5 77t-32 105z" />
<glyph unicode="&#x2026;" horiz-adv-x="1062" d="M78 0v320h198v-320h-198zM434 -2v320h199v-320h-199zM786 -4v320h199v-320h-199z" />
<glyph unicode="&#x202f;" horiz-adv-x="410" />
<glyph unicode="&#x2039;" horiz-adv-x="915" d="M106 654l434 514h269l-453 -514l453 -514h-269z" />
<glyph unicode="&#x203a;" horiz-adv-x="915" d="M106 140l453 514l-453 514h269l434 -514l-434 -514h-269z" />
<glyph unicode="&#x205f;" horiz-adv-x="512" />
<glyph unicode="&#x2122;" horiz-adv-x="1644" d="M137 1417v185h549v-185h-170v-665h-207v665h-172zM758 752v850h192l182 -292l181 292h195v-850h-214v470l-102 -161h-121l-107 161v-470h-206z" />
<glyph unicode="&#x25fc;" horiz-adv-x="1145" d="M0 0v1145h1145v-1145h-1145z" />
</font>
</defs>
</svg>
