<?xml version="1.0" standalone="no"?>
<!DOCTYPE svg PUBLIC "-//W3C//DTD SVG 1.1//EN" "http://www.w3.org/Graphics/SVG/1.1/DTD/svg11.dtd" >
<svg xmlns="http://www.w3.org/2000/svg">
<metadata></metadata>
<defs>
<font id="discreetitalic" horiz-adv-x="1042" >
<font-face units-per-em="2048" ascent="2048" descent="0" />
<missing-glyph horiz-adv-x="604" />
<glyph unicode="&#xfb01;" horiz-adv-x="1310" d="M-98 -444l315 1446h-115v143h148l6 33q22 100 68 181t114 140.5t160 92t198 32.5q54 0 228.5 -7.5t206.5 -14.5l-37 -170l-510 55q-28 0 -59 -12.5t-64 -39.5t-61 -63.5t-52 -89.5q-24 -52 -38 -112l-6 -25h726l-250 -1145h-151l219 1002h-576l-319 -1446h-151z" />
<glyph unicode="&#xfb02;" horiz-adv-x="1331" d="M-98 -444l315 1446h-115v143h148l6 33q22 100 68 181t114 140.5t160 92t198 32.5q176 0 392 -22l-306 -1410q-4 -16 -4 -24q0 -18 9 -29.5t27 -11.5q34 1 92 33l80 -134q-92 -50 -166 -50q-84 0 -137.5 56t-53.5 140q0 26 6 54l269 1226l-320 35q-28 0 -59 -12.5 t-64 -39.5t-61 -63.5t-52 -89.5q-24 -52 -38 -112l-6 -25h325v-143h-357l-319 -1446h-151z" />
<glyph horiz-adv-x="0" />
<glyph unicode="&#xd;" horiz-adv-x="682" />
<glyph unicode=" "  horiz-adv-x="604" />
<glyph unicode="&#x09;" horiz-adv-x="604" />
<glyph unicode="&#xa0;" horiz-adv-x="604" />
<glyph unicode="!" horiz-adv-x="749" d="M116 -6l60 282h152l-60 -282h-152zM226 442l210 1160h188l-280 -1160h-118z" />
<glyph unicode="&#x22;" horiz-adv-x="749" d="M112 1168l95 434h115l-94 -434h-116zM404 1168l94 434h114l-94 -434h-114z" />
<glyph unicode="#" horiz-adv-x="1331" d="M-68 436l33 148h287l202 434h-247l31 148h286l205 436h155l-204 -436h278l206 436h155l-205 -436h280l-30 -148h-320l-204 -434h276l-30 -148h-316l-205 -436h-153l204 436h-280l-205 -436h-153l204 436h-250zM406 584h280l203 434h-279z" />
<glyph unicode="$" d="M2 223l54 233l126 -2l-14 -172q34 -59 78 -88q44 -30 110 -30q68 0 128 32.5t99 84.5t62 117q23 64 23 130q0 48 -15 89t-40 70t-57 55t-68 48t-71.5 45t-68 50.5t-57 59t-39 76t-14.5 97.5q0 115 45 212t131 160.5t200 73.5l52 330h155l-86 -328q104 -12 246 -96 l-65 -296h-132l25 202q-32 34 -64.5 50t-76.5 16q-126 0 -200.5 -79t-74.5 -208q0 -42 14.5 -78.5t39.5 -64t57.5 -52t68 -47.5t71.5 -47t68 -54t57 -65t40 -83t15 -105q0 -127 -46 -232t-140 -180t-226 -106l-46 -321h-159l82 315q-88 10 -162 60.5t-125 127.5z" />
<glyph unicode="%" horiz-adv-x="1185" d="M-168 0l1290 1602h188l-1290 -1602h-188zM236 1222q0 50 12 104t37.5 107.5t60.5 96t85.5 68.5t106.5 26q46 0 80.5 -19t54 -51t28.5 -70t9 -81q0 -40 -9.5 -85.5t-27 -90.5t-44.5 -85.5t-60 -72t-75 -49.5t-87 -18t-79 19t-54 51t-29 70t-9 80zM375 1241 q0 -14 2.5 -30.5t8.5 -35t17.5 -31t26.5 -12.5q26 0 49.5 20t40 50t29.5 65t19 65.5t6 51.5q0 13 -3 30.5t-9.5 35.5t-18.5 30.5t-27 12.5q-32 0 -60 -29.5t-45 -71.5t-26.5 -83t-9.5 -68zM486 198q0 40 9.5 86t27 91t44.5 85t60 71.5t75 50t87 18.5t79 -19t54 -51t29 -70.5 t9 -80.5q0 -50 -13 -104.5t-40 -107.5t-63 -95t-85 -68t-101 -26q-46 0 -80.5 19t-54 51t-28.5 70t-9 80zM622 217q0 -13 3 -30t9.5 -35t18.5 -31t27 -13q32 0 60 30t45 72t26.5 82t9.5 68q0 14 -2.5 31t-8.5 35t-17.5 30.5t-26.5 12.5q-26 0 -49.5 -19.5t-40 -49.5 t-29.5 -65t-19 -66t-6 -52z" />
<glyph unicode="&#x26;" horiz-adv-x="1331" d="M-43 438q0 102 32 196.5t90 169.5t144.5 128.5t190.5 73.5l-33 65q-14 29 -26.5 93t-12.5 98q0 76 25 140.5t67 109.5t99 76.5t121 46.5t132 15q58 0 126 -15.5t114 -33t119 -47.5l-41 -223h-170l39 129q-109 39 -187 39q-42 0 -82 -7.5t-79 -24.5t-67.5 -43.5t-46 -68 t-17.5 -93.5q0 -18 8.5 -65t13.5 -59l303 -610q122 258 287 279q16 2 33 2t40 -1t37 -1v-151q-8 0 -36.5 1t-41 0t-32.5 -7t-35 -19q-94 -85 -172 -267l183 -364h-168l-101 203q-79 -104 -185 -165.5t-235 -61.5q-55 0 -109 15t-102 43.5t-89.5 70.5t-71.5 92.5t-47 112.5 t-17 128zM108 438q0 -65 24 -123.5t63.5 -99.5t91 -64.5t106.5 -23.5q104 0 192 62.5t148 170.5l-249 502q-114 -12 -200 -72t-131 -151t-45 -201z" />
<glyph unicode="'" horiz-adv-x="749" d="M258 1168l94 434h115l-95 -434h-114z" />
<glyph unicode="(" horiz-adv-x="749" d="M106 512q0 154 26 296.5t70.5 264t114.5 242t149.5 224.5t185.5 218h142l-6 -33q-124 -140 -217 -280t-162 -296.5t-105 -328.5t-36 -356q0 -315 128 -586l-7 -31h-139q-144 301 -144 666z" />
<glyph unicode=")" horiz-adv-x="749" d="M-76 -154l6 31q124 140 217 280.5t162.5 296.5t105 328t35.5 356q0 316 -126 586l6 33h139q143 -303 143 -667q0 -154 -25 -296t-70 -264t-115 -242t-150 -224t-184 -218h-144z" />
<glyph unicode="*" d="M119 1292l59 121l281 -107h8l55 370h140l-90 -361l4 -9l323 126l21 -140l-332 -86l-2 -4l182 -272l-119 -80l-143 297h-12l-264 -301l-101 84l283 276l10 4z" />
<glyph unicode="+" horiz-adv-x="1331" d="M131 586l29 141h432l92 437h146l-92 -437h434l-29 -141h-437l-92 -436h-145l92 436h-430z" />
<glyph unicode="," horiz-adv-x="604" d="M-53 -152l23 26q22 26 50 63t56 84q26 47 34 83l40 189h149l-39 -189q-8 -36 -41.5 -83t-69 -84t-65.5 -63l-28 -26h-109z" />
<glyph unicode="-" d="M198 588l32 141h442l-31 -141h-443z" />
<glyph unicode="." horiz-adv-x="604" d="M88 0l62 293h149l-61 -293h-150z" />
<glyph unicode="/" horiz-adv-x="894" d="M-84 -154l885 1884l159 2l-884 -1886h-160z" />
<glyph unicode="0" horiz-adv-x="1165" d="M68 545q0 143 32 305q13 64 35.5 133t55 145.5t72 147t91 135.5t107.5 113t124.5 76t139.5 28q57 0 105.5 -19.5t83.5 -52t63 -77.5t45.5 -94.5t29.5 -105t16.5 -105.5t4.5 -99q-1 -149 -31 -289q-14 -64 -36 -135t-56 -150t-75 -154t-93.5 -143t-109.5 -119t-126.5 -81 t-139.5 -30q-56 0 -104.5 21t-82.5 55.5t-61 82.5t-43.5 99.5t-27.5 108.5t-15 106.5t-4 97.5zM221 551q0 -32 3.5 -70.5t10.5 -88.5t21 -95.5t33 -84t49 -62.5q32 -23 68 -23q41 0 83.5 20t80.5 54.5t73 75.5t65 87.5t52 87t38 76.5q124 268 124 547q0 28 -2.5 59.5 t-9 71.5t-15.5 76.5t-25 72t-35.5 61.5t-48 42t-61.5 16q-48 0 -98.5 -26.5t-92 -67t-81 -93.5t-66.5 -101t-47 -92q-119 -260 -119 -543z" />
<glyph unicode="1" horiz-adv-x="1165" d="M166 0v152h299l252 1184l-244 -138l-73 135l538 303l-316 -1484h338v-152h-794z" />
<glyph unicode="2" horiz-adv-x="1165" d="M51 0l21 92q18 81 46 156.5t60 139.5t77 129t87 118t101 113t109 108q50 46 118 108q8 8 30.5 28t35.5 31t36 33t37.5 37t35 37t33.5 40t27.5 40.5t23 42t13.5 41.5q6 24 6 44q0 32 -15 57t-38 39t-55 23t-60 12t-57 3q-58 0 -122.5 -14t-100.5 -43l-54 -243h-141l74 344 q132 110 344 110q56 0 107.5 -10t100.5 -32t86 -55t59 -82t22 -109q0 -122 -101 -252q-57 -74 -185 -190q-18 -18 -57 -52q-144 -130 -214 -202q-180 -188 -263 -380q-24 -58 -42 -118l446 10l64 147h110q-6 -29 -20 -92t-25 -116.5t-19 -92.5h-741z" />
<glyph unicode="3" horiz-adv-x="1165" d="M18 -24l68 317h121l2 -162q82 8 156 27.5t142.5 56.5t117.5 87.5t78.5 124t29.5 163.5q0 30 -7.5 54.5t-20 42t-32.5 31.5t-39.5 22t-47.5 14t-50.5 8t-53.5 3t-52 0.5t-51 -1t-45 -0.5l43 198l512 474l4 18h-391l-29 -144h-161l63 294h768l-33 -154l-574 -524l9 -14 q58 -6 105.5 -18.5t92.5 -37t76 -58.5t49.5 -87t18.5 -119q0 -92 -23 -172.5t-63.5 -142.5t-97.5 -112.5t-124.5 -85.5t-145 -58.5t-157.5 -34t-164 -10.5h-94z" />
<glyph unicode="4" horiz-adv-x="1165" d="M24 440l804 1236l128 -84l-649 -998h424l117 551h158l-119 -551h165l-38 -154h-160l-92 -440h-156l92 440h-674z" />
<glyph unicode="5" horiz-adv-x="1165" d="M47 -24l63 290h105v-137q104 8 192.5 37.5t161.5 82.5t124 135q51 84 75 190q8 36 8 78q0 36 -10 66t-26.5 50t-41.5 35t-50.5 23t-58.5 13.5t-61 7t-61 1.5q-76 0 -162 -10l-49 67l146 697h741l-37 -154h-596l-96 -448h55q51 0 98 -5t94 -16.5t86 -29t73.5 -45t58 -62.5 t37.5 -82.5t14 -103.5q0 -58 -12 -116q-26 -115 -78 -208.5t-124 -159.5t-162.5 -110t-193.5 -65q-102 -21 -218 -21h-95z" />
<glyph unicode="6" horiz-adv-x="1165" d="M94 444q0 137 39 322q18 86 42.5 167.5t61.5 169t80 161.5t102.5 142t127 115t153.5 75q84 28 180 28q52 0 92.5 -8.5t102.5 -28.5l-59 -281l-104 2v162q-10 2 -32 2q-72 0 -139 -23.5t-121 -65t-102 -99.5t-85 -125t-68 -141t-52.5 -150t-36 -152t-21.5 -144t-7 -128 q0 -45 5 -85.5t20 -84t39 -74.5t64 -51t93 -20q52 0 101.5 25t89 66.5t73 95.5t55.5 111t35 112t13 102q0 38 -7.5 73t-23 68.5t-45.5 53.5t-70 20q-36 0 -77 -24.5t-76 -62t-62 -75.5t-43 -72l-62 30q24 55 47.5 100.5t58 94.5t70 83t82.5 56t97 22t93.5 -22t74 -58.5 t53 -84t33 -99.5t10.5 -103q0 -68 -17.5 -144.5t-48.5 -150.5t-78 -141t-103 -118t-127 -81t-146 -30q-79 0 -143 26t-107 70.5t-71.5 105t-41 127.5t-12.5 139z" />
<glyph unicode="7" horiz-adv-x="1165" d="M84 1306l64 298h904q-7 -36 -20.5 -103t-23.5 -102q-66 -81 -112 -139t-104 -134t-99 -134t-89.5 -130t-83 -133t-71.5 -132t-63.5 -137t-49.5 -139t-39 -145l-39 -176h-164l46 209q26 119 75.5 244.5t111 239.5t148.5 245t170 242q83 112 193 250v20h-566l-28 -144h-160 z" />
<glyph unicode="8" horiz-adv-x="1165" d="M60 360q0 65 18 130t48.5 120t71.5 105t86 88.5t93 66.5q-121 114 -121 270q0 94 38 183t100.5 155t149.5 106t181 40q102 0 180 -38.5t123 -114t45 -177.5q0 -74 -23.5 -144t-66.5 -128t-97.5 -107t-121.5 -91q38 -24 67.5 -51t54 -64t37.5 -85.5t13 -107.5 q0 -64 -19.5 -130t-54 -125t-83 -112t-104 -91t-121 -60t-130.5 -22q-84 0 -154 31.5t-115.5 85t-70 122.5t-24.5 145zM213 379q0 -50 13 -94.5t38.5 -79.5t66.5 -55.5t93 -20.5q53 0 107 23.5t98.5 63.5t79.5 89.5t54 105t19 107.5q0 24 -4 46t-11 39.5t-19.5 34 t-24.5 28.5t-30 25t-32.5 21.5t-36.5 19t-37.5 17.5t-39 17t-37.5 16q-4 2 -54 29q-106 -78 -174.5 -194t-68.5 -238zM408 1140q0 -30 7 -56t20 -46.5t31.5 -39t41 -33.5t47.5 -30t52 -28t55 -27q114 69 187 182.5t73 229.5q0 90 -52 135t-145 45q-62 0 -120.5 -28 t-101.5 -74t-69 -107t-26 -123z" />
<glyph unicode="9" horiz-adv-x="1165" d="M70 12l63 293h103v-176q10 -2 30 -2q72 0 139 23.5t121 65.5t102 99t85.5 124t68.5 142t52.5 150.5t36 151t21.5 144t7 128.5q0 50 -4.5 91.5t-19.5 84.5t-38 72.5t-63 48t-94 18.5q-45 0 -88.5 -18.5t-79.5 -50.5t-68 -74t-56 -89.5t-41 -96.5t-26 -96t-9 -87 q0 -38 7 -73t22.5 -68t45 -53t69.5 -20q44 0 90 21t83 54t67 72t48 75l57 -26q-16 -36 -26 -58t-27 -55t-30.5 -54t-34 -48t-40 -44t-46 -35t-54 -28.5t-62.5 -17t-73 -6.5q-50 0 -92 22t-71 58.5t-49 84t-29 98.5t-9 101t10 106t28 112.5t46 111.5t61.5 104.5t76 92 t89 73.5t101 48.5t110.5 17.5q68 0 124 -18t96 -50t70 -75.5t48 -97t26 -110t8 -118.5q0 -141 -38 -321q-18 -86 -43 -168t-61 -169t-80 -161.5t-103 -142t-126 -114.5t-153 -75t-182 -28q-34 0 -83 9t-81 18z" />
<glyph unicode=":" horiz-adv-x="604" d="M82 0l64 295h145l-63 -295h-146zM264 852l62 293h145l-61 -293h-146z" />
<glyph unicode=";" horiz-adv-x="604" d="M-53 -152l23 26q22 26 50 63t55 84t33 83l42 189h149l-41 -189q-7 -36 -40.5 -83t-69 -84t-64.5 -63l-28 -26h-109zM268 852l62 293h149l-61 -293h-150z" />
<glyph unicode="&#x3c;" horiz-adv-x="1486" d="M131 574l33 159l1083 449l-43 -184l-858 -351l715 -354l-39 -168z" />
<glyph unicode="=" horiz-adv-x="1193" d="M98 442l31 142h881l-31 -142h-881zM162 738l30 140h881l-31 -140h-880z" />
<glyph unicode="&#x3e;" horiz-adv-x="1486" d="M213 125l43 184l858 351l-714 354l38 168l891 -449l-33 -159z" />
<glyph unicode="?" horiz-adv-x="1185" d="M119 -6l59 282h148l-60 -282h-147zM221 434q37 176 117 289q58 82 166 171q42 34 141 110q33 24 55 42t44 41t36.5 46t27 53t20.5 66t7 63.5t-7 49t-20 37t-31.5 26t-42 16.5t-50.5 9q-28 3 -60 3q-64 0 -184 -43l-40 -203l-152 2l64 300l71 24q72 24 158.5 48t116.5 24 t57 -2.5t58 -8.5t57 -15.5t51.5 -24.5t45 -34t34.5 -46t22.5 -60t6.5 -75t-11 -90q-14 -68 -41.5 -125t-63 -97t-77 -75t-86.5 -65.5t-89 -61.5t-86.5 -68.5t-78 -81.5t-64.5 -106.5t-45 -137.5h-127z" />
<glyph unicode="@" horiz-adv-x="1935" d="M156 633q0 131 33 256t93.5 231.5t147 196t189 152.5t224 98t249.5 35q82 0 161 -22.5t145 -63t121.5 -97.5t94 -126t60.5 -150t22 -166q0 -54 -13.5 -113.5t-37.5 -116.5t-60.5 -108.5t-80 -90.5t-98.5 -62q-56 -23 -114 -23q-195 0 -231 213q-18 -29 -41 -58 t-53.5 -59.5t-62.5 -53.5t-69.5 -38t-72.5 -15q-41 0 -76.5 20t-58 50t-35 65t-12.5 69q0 46 13.5 100t37.5 108t58.5 105t74 90t87 62.5t93.5 23.5h280q-5 -25 -27.5 -121.5t-38 -175t-15.5 -113.5q0 -72 46 -119q45 -48 117 -48q52 0 96 29t73 74t49 101t29 108t9 97 q0 102 -37 193.5t-100 156.5t-150 103t-183 38q-108 0 -212 -30t-192 -83.5t-162.5 -130.5t-126.5 -168.5t-81 -200t-29 -222.5q0 -100 37 -192.5t100 -159.5t150.5 -106.5t185.5 -39.5q123 0 252 42.5t231 115.5l63 -101q-270 -188 -546 -188q-84 0 -163 23t-145.5 64 t-122 99t-94.5 127.5t-60 150t-21 165.5zM700 686q0 -43 24 -73.5t66 -30.5q28 0 83.5 32.5t96.5 65.5l42 32l72 338h-130q-42 0 -82 -26t-70 -67t-53.5 -90t-36 -97t-12.5 -84z" />
<glyph unicode="A" horiz-adv-x="1185" d="M-100 0l739 1602h258v-1602h-147v594h-414l-266 -594h-170zM398 731h352v760h-12z" />
<glyph unicode="B" horiz-adv-x="1263" d="M4 26l346 1576h506q130 0 209.5 -84t79.5 -216q0 -102 -45 -196t-123 -156q73 -50 112 -130.5t39 -186.5q0 -114 -44 -222.5t-119 -192.5t-176 -144t-211 -82q-76 -16 -174 -16q-91 0 -183 13t-217 37zM182 148q118 -20 216 -21q83 1 151 15q84 16 161.5 62.5t136.5 111 t94.5 148t35.5 169.5q0 115 -63.5 174t-180.5 59h-393zM372 1020h372q52 0 99 24.5t78 64t49.5 89.5t18.5 100q0 70 -36 110t-105 40h-381z" />
<glyph unicode="C" horiz-adv-x="1128" d="M0 384q-4 42 -4 88q0 149 39 333q26 120 60 222.5t71 178.5t80 139t84.5 106t86.5 75t84 50t79 29.5t69 15t57 3.5q146 0 396 -30l-76 -344h-104l12 208l-228 12q-26 2 -55.5 -3t-71 -22.5t-81.5 -47t-85 -83.5t-84 -125t-77 -178t-66 -237q-26 -122 -33 -223 q-3 -44 -3 -82q0 -49 5 -87q9 -68 25 -112t39 -72q54 -70 160 -70h1q108 0 201 56q93 54 181 170l125 -94q-112 -145 -237 -215.5t-269 -70.5q-88 0 -160 33q-73 33 -123 95q-82 100 -98 282z" />
<glyph unicode="D" horiz-adv-x="1236" d="M18 10l348 1592h361q70 0 129.5 -20t100.5 -56.5t72 -84t49 -105t27 -117t9 -123.5q0 -154 -41 -344q-171 -768 -673 -768q-212 0 -382 26zM198 144q74 -6 230 -7q62 0 120 23.5t104 64.5t86 97t71 120t56.5 135.5t43 143t29.5 141.5t17 130t5 112q0 50 -6 96t-23 93 t-43.5 81t-70 56t-98.5 22h-233z" />
<glyph unicode="E" horiz-adv-x="1120" d="M0 0l350 1602h758l-35 -154h-606l-123 -564h454l-30 -153h-456l-128 -577h758l-32 -154h-910z" />
<glyph unicode="F" d="M0 0l350 1602h758l-35 -154h-604l-125 -564h454l-32 -153h-454l-160 -731h-152z" />
<glyph unicode="G" horiz-adv-x="1185" d="M36 384q-3 39 -3 80q0 153 41 341q25 120 59 222.5t70.5 178.5t80 139t85 106t86.5 75t84 50t79.5 29.5t69.5 14.5q30 4 58 4q68 0 165 -11t161 -23l64 -11l-71 -329h-151l46 210l-214 10q-26 2 -56 -3t-71.5 -22.5t-81.5 -47t-85 -83.5t-84.5 -125t-77.5 -178 q-36 -107 -64 -237q-26 -122 -35 -223q-5 -51 -5 -93t5 -76q9 -67 25 -111.5t38 -72.5q53 -69 159 -69h3q147 1 276 111l74 340l-264 53l14 94h442l-160 -727h-54l-40 125q-100 -149 -288 -149q-88 0 -160 32t-123 94q-82 100 -97 282z" />
<glyph unicode="H" horiz-adv-x="1492" d="M0 0l350 1602h152l-158 -718h758l158 718h151l-350 -1602h-151l159 731h-757l-160 -731h-152z" />
<glyph unicode="I" horiz-adv-x="630" d="M0 0l342 1602h156l-342 -1602h-156z" />
<glyph unicode="J" horiz-adv-x="698" d="M-381 -144q211 0 354 107t185 297l294 1342h152l-299 -1374q-26 -120 -87 -218.5t-149 -166t-203 -104t-247 -36.5v153z" />
<glyph unicode="K" horiz-adv-x="1275" d="M0 0l350 1602h152l-201 -920l846 977l109 -88l-652 -752l285 -667h151v-152h-246l-296 696l-260 -298l-86 -398h-152z" />
<glyph unicode="L" horiz-adv-x="978" d="M0 0l350 1602h152l-316 -1448h606l-34 -154h-758z" />
<glyph unicode="M" horiz-adv-x="1589" d="M0 0l350 1602h152l240 -862l614 862h168l-350 -1602h-152l280 1288l-530 -746h-118l-214 781l-288 -1323h-152z" />
<glyph unicode="N" horiz-adv-x="1476" d="M0 0l350 1602h160l416 -1350l294 1350h152l-350 -1602h-162l-414 1348l-294 -1348h-152z" />
<glyph unicode="O" horiz-adv-x="1263" d="M41 490q0 62 8 136t25 156t41.5 166t58.5 167.5t75 159t93.5 140.5t110 112t128.5 74t146 27h45q60 0 111 -17t87.5 -46t65 -69.5t47 -86t30.5 -98.5t16.5 -103.5t4.5 -103.5q0 -68 -7 -143t-23.5 -158.5t-40 -167t-57.5 -165t-75 -154.5t-95 -135.5t-114 -108 t-134.5 -71t-155.5 -25.5q-86 0 -154 29t-111.5 78t-72.5 117t-41 139t-12 151zM198 492q0 -36 3 -70t9.5 -70.5t17 -67t29 -59.5t42 -49t57.5 -31.5t76 -11.5q62 0 120 23.5t105 64.5t89 97.5t74 122t58.5 137t45 143t31 141.5t18.5 131.5t6 112.5q0 33 -1.5 63.5 t-7.5 68.5t-15 69.5t-25 62.5t-37 52.5t-52 34.5t-69 13h-45q-56 0 -110 -24t-98 -67t-84.5 -101.5t-72.5 -125.5t-58.5 -140t-46 -145.5t-32.5 -141.5t-20 -128t-7 -105z" />
<glyph unicode="P" horiz-adv-x="1144" d="M0 0l346 1585q182 39 348 39q73 0 136.5 -12t118 -40t93 -70t60.5 -103t22 -139q0 -63 -16 -142q-58 -268 -238 -412.5t-454 -144.5q-64 1 -140 11l-124 -572h-152zM312 723q54 -6 110 -6q216 0 352 109q136 110 184 323q12 59 13 111q0 38 -8.5 69.5t-23.5 54t-37 39 t-46.5 27t-56 16.5t-60.5 8t-65 2q-98 0 -201 -16z" />
<glyph unicode="Q" horiz-adv-x="1331" d="M41 490q0 62 8 136t25 156t41 166t58.5 167.5t75.5 159t93 140.5t110 112t129 74t146 27h45q60 0 111 -17t87.5 -46t65 -69.5t47 -86t30.5 -98.5t16.5 -103.5t4.5 -103.5q0 -64 -6.5 -135t-21 -149t-35 -156.5t-51 -157t-66.5 -149.5t-83 -134.5t-100.5 -112.5 t-119 -82.5t-137.5 -45.5l180 -158l-129 -127l-221 287q-66 14 -118 49t-86 84t-57 111t-32.5 127t-9.5 135zM198 492q0 -36 3 -70t9.5 -70.5t17 -67t29 -59.5t42 -49t57.5 -31.5t76 -11.5q62 0 120 23.5t105 64.5t89 97.5t74 122t58.5 137t45 143t31 141.5t18.5 131.5 t6 112.5q0 33 -1.5 63.5t-7.5 68.5t-15 69.5t-25 62.5t-37 52.5t-52 34.5t-69 13h-45q-56 0 -110 -24t-98 -67t-84.5 -101.5t-72.5 -125.5t-58.5 -140t-46 -145.5t-32.5 -141.5t-20 -128t-7 -105z" />
<glyph unicode="R" horiz-adv-x="1228" d="M0 0l346 1585q170 39 336 39q56 0 107 -7t102 -21.5t91.5 -40t72 -60.5t48.5 -86t17 -113q0 -52 -12 -106q-32 -150 -120 -252t-218 -154q71 -114 104 -236q34 -122 34 -266v-282h-152v278q0 266 -140 462q-94 -16 -182 -17q-60 0 -122 6l-160 -729h-152zM344 880 q62 -4 92 -4q62 0 119 8t111 24t100 44t84 65t65 89t41 116q8 32 8 78q0 42 -19 75t-49 52t-71 31t-78 16t-77 4q-106 0 -201 -24z" />
<glyph unicode="S" horiz-adv-x="1155" d="M-60 262l54 246h154l-48 -211q40 -66 124 -118t159 -52q80 0 151 27.5t122 76.5t80.5 119t29.5 152q0 54 -19.5 99t-52 77.5t-75.5 61t-90 53.5t-94 50.5t-89.5 57t-75 68.5t-52.5 89t-20 116q0 89 27 162.5t74 126.5t111.5 89.5t141 54t160.5 17.5q194 0 400 -82 l-70 -322h-151l49 222q-120 28 -232 28q-74 0 -137 -16t-112.5 -50.5t-78.5 -92.5q-28 -57 -28 -135q0 -80 78 -144q42 -34 143 -90q110 -60 154 -91q120 -82 164 -182q31 -69 31 -153q0 -113 -41 -213.5t-111 -172.5t-170 -114t-213 -42q-69 0 -136 22t-124 62t-105 92 t-82 112z" />
<glyph unicode="T" horiz-adv-x="942" d="M58 1448l34 154h881l-35 -154h-379l-317 -1448h-152l318 1448h-350z" />
<glyph unicode="U" horiz-adv-x="1284" d="M6 498q0 82 9 154q9 70 24 140l176 810h151l-182 -842q-8 -36 -14 -74t-11 -86q-5 -46 -6 -92v-17q-1 -37 3 -76q4 -47 14.5 -88t29.5 -78t45.5 -63t66.5 -42q40 -15 88 -15q64 0 123.5 24t106 64t88.5 95.5t73 114.5t57 126t44 125q18 56 30 114l178 810h152l-185 -842 q-16 -74 -38.5 -146.5t-56 -151t-74 -148t-93.5 -132.5t-113 -108.5t-135 -71.5t-157 -26q-90 0 -160 29.5t-113 79t-71 117.5t-39 141t-11 155z" />
<glyph unicode="V" horiz-adv-x="1046" d="M160 0v1602h149v-1448h15l414 898q61 129 100 271q38 143 38 279h152q0 -87 -13 -174.5t-37 -169.5t-51 -152t-63 -148l-442 -958h-262z" />
<glyph unicode="W" horiz-adv-x="1763" d="M166 0v1602h152v-1448h14l544 1152v296h150v-1448h14l414 898q44 94 90 270t50 280h151q-3 -119 -56 -319q-53 -201 -110 -325l-441 -958h-262l2 1002l-476 -1002h-236z" />
<glyph unicode="X" horiz-adv-x="1159" d="M-74 0l566 826l-199 776h159l148 -648l424 648h186l-550 -806l204 -796h-160l-153 670l-439 -670h-186z" />
<glyph unicode="Y" d="M49 1602h160l187 -804l524 804h184l-664 -976l-137 -626h-151l143 652z" />
<glyph unicode="Z" horiz-adv-x="1099" d="M0 0l33 154q23 87 61 179.5t83 175.5t103 174t112 167t120 163t119 153.5t116.5 147t104.5 134.5h-620l32 154h807l-31 -152v-2h-2q-44 -62 -124 -164.5t-156 -196t-166 -215.5t-163 -233.5t-138 -240.5q-65 -128 -101 -244h692l-36 -154h-846z" />
<glyph unicode="[" horiz-adv-x="749" d="M-56 -152l406 1907h438l-28 -131h-293l-351 -1646h294l-27 -130h-439z" />
<glyph unicode="\" horiz-adv-x="894" d="M266 1732l140 -2l196 -1884h-139z" />
<glyph unicode="]" horiz-adv-x="749" d="M-203 -152l27 130h292l351 1646h-293l29 131h440l-405 -1907h-441z" />
<glyph unicode="^" horiz-adv-x="456" d="M-104 1308l266 294h158l141 -294h-147l-80 208l-178 -208h-160z" />
<glyph unicode="_" horiz-adv-x="1341" d="M-4 0h1346v-152h-1346v152z" />
<glyph unicode="`" horiz-adv-x="438" d="M0 1602h203l77 -294h-126z" />
<glyph unicode="a" d="M0 297q0 54 8 118.5t24 136t41.5 144t57 141.5t74 129t90 105t107.5 71q58 26 122 26q172 0 348 -156l29 20l-137 -622q-14 -63 -20.5 -140t-7.5 -127.5t-1 -142.5h-151l16 246q-26 -54 -63 -101.5t-83.5 -86t-103.5 -60.5q-56 -22 -116 -22q-52 0 -93.5 19t-67 50 t-42.5 74t-24 87t-7 91zM160 332q0 -20 1 -39t4 -47t10 -51t17 -44.5t27 -34t39 -12.5q38 0 78 19.5t72 48.5t64 68.5t54 73.5t42 69l56 101l99 452q-11 8 -34 27t-40 31t-39 26t-44 21t-42 7q-42 0 -81.5 -23t-72 -64t-62.5 -93.5t-52.5 -112t-41 -120.5t-30.5 -118 t-18 -104.5t-6 -80.5z" />
<glyph unicode="b" d="M0 246l297 1356h151l-141 -644q42 46 104.5 93t137 82t131.5 35q221 0 221 -286q-1 -126 -31 -274q-10 -47 -19.5 -89t-25 -93.5t-32.5 -95.5t-40.5 -91t-50 -84t-60.5 -72t-72.5 -58t-86 -36t-100.5 -13q-37 0 -71 7t-62 19t-54 29.5t-48 38t-44 45t-41 49t-40 52.5 q-15 20 -23 30zM152 248q91 -132 231 -132q56 0 105.5 32.5t85.5 85.5t66 122.5t50 142.5t33 147t19 134.5t6 106.5q0 20 -2 38.5t-8 39.5t-15.5 35t-26 24t-36.5 10q-48 0 -121.5 -40.5t-145 -101t-129.5 -126.5z" />
<glyph unicode="c" horiz-adv-x="864" d="M20 372q0 60 8.5 130t27 147t45.5 150.5t67 141t89 117.5t113.5 80t137.5 30q94 0 295 -25l-59 -297h-103l-4 162q-70 6 -129 6q-42 0 -81.5 -20.5t-70 -56t-57.5 -82t-46.5 -99.5t-35 -107t-24.5 -106.5t-14 -95.5t-5 -77t8 -76t23.5 -86t46 -74t70.5 -30q28 0 55 11 t48 27t43.5 41t37.5 45q14 18 32 46l128 -86q-64 -98 -151 -155t-193 -57q-62 0 -114 24t-86 63.5t-57.5 92t-34 106.5t-10.5 110z" />
<glyph unicode="d" horiz-adv-x="1083" d="M0 299q0 50 6 107t18 120.5t30 127.5t43.5 127.5t56.5 120t71.5 105.5t85.5 84.5t100 56t115 20.5q133 0 277 -101l119 535h151l-350 -1602h-151l54 254q-218 -278 -390 -278q-53 0 -94.5 19t-67.5 50.5t-43 74.5t-24 87t-7 92zM154 295q0 -22 5 -48.5t15 -54t30 -45.5 t44 -18q44 0 97 27.5t102 70.5t96 95t82 99.5t57 86.5l86 393q-22 20 -30 27.5t-30.5 26.5t-35 27.5t-34 22.5t-38 20.5t-36.5 11.5t-38 5q-56 0 -108 -41t-92 -108t-73 -149.5t-54.5 -166.5t-33 -157.5t-11.5 -124.5z" />
<glyph unicode="e" horiz-adv-x="942" d="M8 383q0 68 12 142.5t37 150.5t60 147.5t83 134t104 109.5t127 74t147 27q124 0 194 -71t70 -196q0 -59 -25.5 -114t-68.5 -98.5t-99.5 -81.5t-119 -65.5t-127 -47.5t-123 -31t-107.5 -13q-4 -24 -4 -69q0 -49 3 -87t14 -78t28.5 -65.5t48 -42t72.5 -16.5q44 0 86.5 22 t76 58t58.5 79t39 87l146 -52q-30 -88 -92.5 -158t-148 -111t-177.5 -41q-64 0 -118 24t-89.5 64t-60 93t-35.5 110t-11 116zM186 551q48 7 104 24t112 41t107 56t90.5 67t63 77t23.5 83q0 72 -31 108.5t-81 36.5q-62 0 -118 -30t-98 -78t-77 -114t-57 -133t-38 -138z" />
<glyph unicode="f" horiz-adv-x="733" d="M-98 -444l315 1446h-115v143h148l6 33q22 100 68 181t114 140.5t160 92t198 32.5q80 0 146 -14l-37 -150l-221 27q-28 0 -59 -12.5t-64 -39.5t-61 -63.5t-52 -89.5q-24 -52 -38 -112l-6 -25h325v-143h-357l-319 -1446h-151z" />
<glyph unicode="g" horiz-adv-x="1083" d="M-4 -291q47 0 93.5 3.5t98.5 12.5t98 22t91 35t79 50.5t59.5 68t35.5 87.5l51 229q-200 -241 -360 -241q-53 0 -95 19t-68 50t-43 74.5t-23.5 87t-6.5 92.5q0 64 9.5 140t30 160.5t50.5 164.5t74 154t96 129t121 88t145 33q133 0 277 -101l19 -13l96 126l120 -94 l-136 -178l-214 -961q-14 -62 -44 -115t-71 -92.5t-93.5 -71t-110 -52.5t-122 -34.5t-128 -19.5t-129.5 -6v153zM160 295q0 -22 5 -48.5t15.5 -54t30 -45.5t43.5 -18q47 0 105 32t112.5 83.5t100.5 105.5q46 52 84 106l102 460q-30 28 -51.5 45t-53 38.5t-61.5 32t-60 10.5 q-56 0 -108 -41t-92 -108t-73 -149.5t-54.5 -166.5t-33 -157.5t-11.5 -124.5z" />
<glyph unicode="h" horiz-adv-x="1185" d="M0 0l350 1602h152l-168 -768q55 70 111 127.5t117.5 105t126.5 74.5t126 27q40 0 70.5 -14t50 -36t32 -53.5t18 -64t5.5 -68.5q-1 -74 -23 -178l-165 -754h-151l172 784q18 84 18 146q0 34 -10 59t-29 25q-52 0 -112.5 -28t-116.5 -73t-112 -104t-101 -116t-83 -113 l-126 -580h-152z" />
<glyph unicode="i" horiz-adv-x="542" d="M0 0l250 1145h152l-250 -1145h-152zM291 1331l59 271h152l-60 -271h-151z" />
<glyph unicode="j" horiz-adv-x="585" d="M-230 -344q112 94 192 219t110 265l221 1005h153l-227 -1037q-36 -166 -127.5 -312.5t-224.5 -258.5zM334 1331l59 271h152l-59 -271h-152z" />
<glyph unicode="k" horiz-adv-x="1013" d="M-26 0l352 1602h149l-235 -1076q76 54 158 126.5t162 155t146 172.5t99 167v-2h163q-8 -36 -40 -94.5t-64 -104.5q-120 -167 -284 -315q18 -149 94 -314t178 -284l-114 -101q-101 117 -173 278q-72 160 -102 326q-123 -96 -258 -176l-80 -360h-151z" />
<glyph unicode="l" horiz-adv-x="538" d="M0 172q0 26 6 54l301 1376h152l-305 -1410q-4 -16 -4 -24q0 -18 8 -29.5t26 -11.5q34 1 92 33l80 -134q-92 -50 -166 -50q-84 0 -137 56t-53 140z" />
<glyph unicode="m" horiz-adv-x="1624" d="M0 0l252 1145h112l-42 -342q36 60 69.5 109t76 98.5t82.5 82.5t87.5 54t93.5 21q50 0 87.5 -20t59 -54.5t32 -75t10.5 -88.5q0 -66 -8 -115q210 353 401 353q40 0 72.5 -13.5t54.5 -36t36 -53t20.5 -64t6.5 -71.5q0 -80 -20 -176l-103 -459q-26 -116 -38 -295h-156 q6 120 43 282l111 504q18 87 18 144q0 12 -2 24.5t-6 27t-14 23.5t-23 9q-36 0 -75.5 -18t-76.5 -47t-75.5 -69t-70.5 -80t-63.5 -86t-53.5 -81t-42 -68l-125 -565h-153l172 786q18 83 18 144v11.5v13t-1 14t-3 13.5t-4.5 12t-6 10.5t-9.5 7t-13 2.5q-49 0 -106 -34 t-105 -82t-98 -113t-82 -115q-34 -50 -62 -100l-126 -570h-152z" />
<glyph unicode="n" d="M-8 0l252 1145h114l-44 -361q32 62 62 112t70.5 103t81 88t91 58t102.5 23q40 0 72.5 -13.5t54.5 -36t36.5 -53t21 -64t6.5 -71.5q0 -78 -21 -176l-103 -459q-26 -116 -38 -295h-156q6 120 43 282l111 504q18 83 18 144q0 12 -2 25t-7 27t-15 23t-25 9q-34 0 -71.5 -17 t-72.5 -44.5t-72 -67t-68 -78.5t-63 -85t-54 -82q-24 -34 -46 -72l-126 -568h-152z" />
<glyph unicode="o" horiz-adv-x="948" d="M-8 362q0 66 10 140t32 152t53.5 152t76 140t96.5 115t120 78t142 29q66 0 119.5 -22t89 -59.5t59.5 -89t35 -109.5t11 -122q0 -68 -11 -141.5t-33 -150.5t-53 -149t-76 -135.5t-97 -111.5t-119.5 -75t-141.5 -27q-66 0 -119 20.5t-88.5 56t-59.5 85.5t-35 106t-11 118z M131 364q0 -38 3.5 -70.5t15.5 -69t30 -61.5t50 -42t75 -17q56 0 106.5 26t89.5 69t72 99.5t55 118.5t38 125.5t23 120.5t7 103q0 39 -3 73.5t-15 74t-30 67.5t-50.5 46.5t-75.5 18.5q-56 0 -106.5 -27t-89 -72t-71.5 -104t-55 -123t-38 -130t-23.5 -123t-7.5 -103z" />
<glyph unicode="p" horiz-adv-x="1116" d="M-98 -444l348 1589h108l-2 -205q238 228 398 228q223 0 223 -283q0 -118 -33 -277q-12 -61 -26 -116t-36 -120.5t-49 -120t-65 -107t-82.5 -88.5t-103.5 -58q-60 -22 -126 -22q-153 0 -280 136l-120 -556h-154zM209 258q28 -34 52 -57t53.5 -44t63.5 -32t70 -11 q62 0 115.5 33t90 85.5t66 123t47 142.5t28.5 147.5t15.5 133t4.5 105.5q0 22 -1.5 40t-6.5 39t-14.5 35t-27 24t-40.5 10q-72 0 -185 -80q-112 -80 -224 -202l-97 -445z" />
<glyph unicode="q" horiz-adv-x="1185" d="M35 299q0 64 9.5 140t30.5 160.5t51 164.5t74 154t96 129t120 88t145 33q137 0 279 -101l18 80h152l-346 -1591h-152l150 698q-44 -58 -89 -105t-95.5 -87.5t-104 -63t-103.5 -22.5q-44 0 -81 13t-62 37t-43 54t-29 68t-15.5 74.5t-4.5 76.5zM190 295q0 -30 5 -59.5 t15 -57.5t29 -45t43 -17q44 0 97.5 29t102 73.5t96 99t82 102.5t57.5 88l86 393q-12 11 -25.5 23t-27.5 24t-29 24t-30 22t-31 19t-32 15.5t-33 10t-34 3.5q-48 0 -93.5 -31t-81.5 -82t-68 -118t-55 -139t-39.5 -142t-25 -131t-8.5 -104z" />
<glyph unicode="r" horiz-adv-x="878" d="M0 0l252 1145h114l-42 -313q26 45 52.5 87.5t51 79.5t54.5 68t60.5 53t69 35t82.5 13q38 0 70 -13t54 -35t37 -52t22 -65t7 -73v-90l-144 30v60q0 39 -13 61.5t-37 22.5q-26 0 -53.5 -9.5t-52 -24t-50.5 -39.5t-47.5 -49t-47 -59t-43.5 -63t-42 -68.5t-38 -67.5 q-16 -26 -38 -66l-126 -568h-152z" />
<glyph unicode="s" horiz-adv-x="790" d="M-16 33l28 243h111v-153l82 -31q97 0 153 58.5t56 156.5q0 48 -16 88t-42 70t-57 59t-62 60.5t-56.5 67.5t-41.5 88t-16 114q0 77 24.5 137t69 98.5t106 58.5t136.5 20q122 0 235 -54l-34 -244h-107v144l-92 45q-83 0 -134 -56.5t-51 -148.5q0 -44 16.5 -82.5t42.5 -68 t57.5 -58t63 -61t57.5 -69.5t42.5 -90.5t16.5 -117.5q0 -160 -89 -245.5t-251 -85.5q-130 0 -248 57z" />
<glyph unicode="t" horiz-adv-x="784" d="M90 198q0 32 6 62l164 742h-158v143h189l59 272l162 43l-70 -315h287v-143h-317l-162 -744q-6 -30 -7 -56t5.5 -49t26 -37t51.5 -14t65 21t59 53.5t46 66.5t32 66l96 -73q-14 -27 -25 -48.5t-29 -49.5t-36 -49.5t-42 -44t-48.5 -36.5t-56 -23t-63.5 -9q-112 0 -173 59 t-61 163z" />
<glyph unicode="u" d="M0 295q0 97 22 199l144 651h152l-150 -682q-16 -84 -16 -166q0 -19 2 -39t8 -44t16 -42t27 -30.5t39 -12.5q31 0 65.5 15.5t66.5 40t66.5 59t62 68.5t56.5 73t47.5 67t36.5 56l139 637h152l-172 -785l-41 -360h-153l30 260q-32 -52 -63 -93.5t-66.5 -78t-72 -60.5 t-77.5 -38t-85 -14q-52 0 -93 19t-67 50t-44 73t-25 86t-7 91z" />
<glyph unicode="v" horiz-adv-x="890" d="M102 0v1145h140v-991h42l244 477q58 114 98 255t40 259h153q0 -144 -42.5 -298.5t-114.5 -287.5l-308 -559h-252z" />
<glyph unicode="w" horiz-adv-x="1456" d="M102 0v1145h140v-889h18l422 596v293h133v-881h43l246 342q68 96 104 253q28 125 29 233q0 27 -2 53h141q8 -54 8 -80q0 -92 -13 -173.5t-35.5 -146.5t-57 -129t-72.5 -116t-88 -114t-96 -115.5t-103.5 -127t-105.5 -143.5h-125v654l-460 -654h-126z" />
<glyph unicode="x" horiz-adv-x="1067" d="M0 0l416 592l-236 553h166l160 -435h12l278 435h187l-401 -571l242 -574h-166l-166 452h-13l-293 -452h-186z" />
<glyph unicode="y" horiz-adv-x="937" d="M-342 -291q116 0 240 64q126 64 244 182v1190h138v-1018h21q204 268 307.5 512.5t103.5 505.5h154v-33q0 -103 -28 -226.5t-79 -251.5t-124 -259t-158 -250t-185 -224t-203 -181t-215 -120t-216 -44v153z" />
<glyph unicode="z" horiz-adv-x="894" d="M-33 121l639 895l-438 -14l35 143h532l61 -121l-632 -887l464 21l-36 -158h-562z" />
<glyph unicode="{" horiz-adv-x="749" d="M137 731l33 145q32 0 62 17t53 45.5t43.5 67.5t35 82.5t25.5 93.5l65 317q26 116 94 186t154 70h144l-27 -131h-121q-18 0 -30.5 -4t-27 -17t-26.5 -37.5t-25 -67t-26 -104.5l-53 -243q-26 -120 -88 -214.5t-131 -129.5v-6q53 -36 74 -127.5t-3 -217.5l-50 -245 q-14 -61 -19 -103t-4 -66.5t10.5 -37.5t21 -16.5t29.5 -3.5h121l-29 -132h-143q-86 0 -124 75t-13 194l66 303q12 62 14.5 115t-6 96.5t-34 69t-65.5 26.5z" />
<glyph unicode="|" horiz-adv-x="749" d="M137 -152l405 1907h146l-406 -1907h-145z" />
<glyph unicode="}" horiz-adv-x="749" d="M-114 -148l26 132h121q18 0 30.5 3.5t27.5 16.5t26.5 37.5t25 66.5t25.5 103l53 245q26 120 88.5 214.5t130.5 130.5v6q-54 36 -74 127q-22 91 2 217l52 243q13 62 18 104.5t3.5 67t-10.5 37.5t-20 17t-30 4h-121l29 131h143q86 0 125 -69.5t15 -186.5l-68 -317 q-13 -62 -15.5 -115t6.5 -96.5t34 -69t65 -25.5l-33 -145q-40 -2 -75.5 -27t-62.5 -68.5t-47 -96.5t-34 -115l-64 -303q-24 -118 -94 -193.5t-156 -75.5h-142z" />
<glyph unicode="~" horiz-adv-x="1185" d="M98 536q27 36 53.5 64.5t62.5 55.5t80 41.5t93 14.5q38 0 85.5 -14t90.5 -34.5t84.5 -41t81 -34.5t67.5 -14t57 12t57.5 35t50 45t49.5 55l55 -86q-22 -23 -31 -33t-29.5 -30.5t-33 -30.5t-33 -25.5t-37 -23.5t-37.5 -17t-42.5 -12.5t-45.5 -3.5q-38 0 -75 10.5t-65 25.5 t-61 33t-64 34t-74.5 26t-90.5 10q-36 0 -73 -23t-65 -54t-54 -71z" />
<glyph unicode="&#xa1;" horiz-adv-x="604" d="M-43 -440l281 1159h114l-210 -1159h-185zM254 884l60 284h147l-59 -284h-148z" />
<glyph unicode="&#xa2;" horiz-adv-x="864" d="M49 396q0 52 7 112t23.5 127.5t39.5 132.5t58.5 125.5t78 106.5t100.5 75t123 33l49 320h156l-86 -324q32 -2 93 -9t85 -9l-57 -283h-111l-4 145q-62 4 -106 4q-48 0 -91 -30t-73.5 -80t-55 -110.5t-39.5 -124t-22.5 -117.5t-7.5 -94q0 -32 6.5 -68t19.5 -73t38 -61 t57 -24q24 0 47 9.5t40 22t38 35.5t34 41t33 46l132 -88q-126 -182 -288 -199l-42 -301h-160l82 313q-41 14 -74.5 41.5t-56 62t-38 76t-22 83.5t-6.5 84z" />
<glyph unicode="&#xa3;" horiz-adv-x="1185" d="M-70 43q44 78 109 136t143 81q6 19 29 80t34.5 96t27 88.5t23 98.5t7.5 83q0 26 -2 42l-176 -23l27 123h139q-6 26 -26 96t-29.5 119.5t-9.5 97.5q0 94 34.5 180.5t93.5 149.5t142 100q84 37 176 37q184 0 360 -92l-80 -368h-98l22 266q-144 42 -237 42q-80 0 -143.5 -41 t-96.5 -109t-33 -150q0 -63 25 -177.5t29 -144.5l326 35l-29 -131l-283 -2q0 -55 -15.5 -121.5t-38 -126t-48.5 -124.5q-26 -64 -48 -114q38 -3 83 -18t86 -34.5t81 -38.5t78 -32.5t66 -13.5q26 0 52 10.5t50 29.5t42 36t38 41l41 -96q-1 -2 -5 -6q-30 -34 -47 -51.5 t-47 -44t-54 -40.5t-58 -24t-70 -10q-44 0 -86 14t-78.5 34.5t-74.5 41t-87.5 34.5t-103.5 14q-29 0 -59.5 -14t-56.5 -37t-46 -47q-21 -22 -38 -48z" />
<glyph unicode="&#xa4;" horiz-adv-x="1185" d="M98 590l29 137l133 -8l35 172l-133 -9l28 138l136 -8q29 94 67 179.5t91 165.5t113.5 138.5t136.5 93.5t157 35q63 0 114 -22t84.5 -61t54.5 -85t30 -100l-168 -68q-8 43 -19.5 77.5t-29 63.5t-43 44.5t-56.5 15.5q-43 0 -96.5 -36t-105.5 -98t-100 -153 q-48 -90 -79 -192l451 10l-29 -138l-451 11l-38 -176l315 10l-29 -137l-307 10q-14 -108 -4 -197t35.5 -154t64.5 -101t83 -36q108 0 230 200l140 -66q-32 -54 -73 -101t-90.5 -85t-109.5 -60q-61 -22 -123 -22q-48 0 -91 18t-76.5 51t-61 79t-44.5 100.5t-28 116t-11 125.5 t8 130z" />
<glyph unicode="&#xa5;" d="M49 442l31 142h290l15 61l-25 93h-248l30 140h182l-187 724h162l187 -795l528 795h178l-492 -724h174l-28 -140h-244l-66 -99l-12 -55h289l-31 -142h-286l-94 -442h-154l94 442h-293z" />
<glyph unicode="&#xa6;" horiz-adv-x="460" d="M-56 -152l156 734h146l-156 -734h-146zM194 1022l156 733h146l-156 -733h-146z" />
<glyph unicode="&#xa7;" horiz-adv-x="1185" d="M-47 -114l57 264h104l-2 -148q84 -16 140 -16q62 0 115 31.5t84 85t31 116.5q0 42 -21 93t-52 98t-67 103.5t-67 108.5t-51.5 115t-20.5 121q0 97 53.5 190.5t134.5 163.5q0 125 51.5 220t143.5 145.5t212 50.5q62 0 122.5 -13t144.5 -38l-57 -264h-105l2 147 q-78 16 -139 16q-95 0 -162.5 -67t-67.5 -162q0 -42 21 -92.5t52 -97.5t67 -104t67 -109t51.5 -115t20.5 -121q0 -98 -53.5 -193t-135.5 -165q0 -92 -32 -170t-87 -132t-130 -84t-158 -30q-62 0 -125 14q-62 14 -141 38zM348 916q0 -44 22 -102t55.5 -116t69 -115.5 t68.5 -119t47 -109.5q22 44 41 99.5t19 93.5q0 44 -22 101.5t-56 116t-69 116t-68 119t-47 108.5q-22 -45 -41 -100q-19 -54 -19 -92z" />
<glyph unicode="&#xa8;" d="M262 1313l62 295h139l-61 -295h-140zM565 1313l61 295h140l-62 -295h-139z" />
<glyph unicode="&#xa9;" horiz-adv-x="1935" d="M162 641q0 118 35 236.5t96 222.5t147.5 196t187 157t218.5 103t238 38q107 0 201.5 -31t168 -88t127 -135t81.5 -174t28 -202q0 -118 -35 -236t-96 -222.5t-147.5 -196t-187 -156.5t-218 -103t-236.5 -38q-134 0 -248 48.5t-192.5 132t-123 199.5t-44.5 249zM284 639 q0 -86 22.5 -162.5t65 -138.5t101 -108t135 -70.5t162.5 -24.5q102 0 204 33.5t189 90.5t162.5 137t128 171.5t82.5 194.5t30 204q0 107 -35 200t-97 160.5t-153 105.5t-197 38q-102 0 -205 -33t-190 -91t-162.5 -138t-128.5 -171t-83.5 -194t-30.5 -204zM578 694 q0 60 12.5 118.5t36 111t60 97.5t81 77t101.5 51t120 19q52 0 123 -5.5t123 -9.5l-47 -227h-102l2 135q-42 2 -120 2q-52 0 -95 -21.5t-73 -57.5t-51 -82t-31 -94t-10 -96q0 -74 35 -117.5t109 -43.5q59 0 116.5 44.5t94.5 102.5l109 -44q-64 -94 -151 -150t-191 -56 q-122 0 -187 63t-65 183z" />
<glyph unicode="&#xaa;" horiz-adv-x="894" d="M114 956q0 60 8 123t26 130t44 128t64 116t84 95t107 63t131 23q230 0 254 -10l-191 -889h-103l27 252q-165 -254 -295 -254q-36 0 -64 13.5t-45 34.5t-28 51t-15 60t-4 64zM244 954q0 -106 61 -106q32 0 84.5 51t100 118t84.5 129q36 62 42 87q12 52 32 149t28 130 q-54 8 -123 8q-48 0 -90 -22.5t-72.5 -59.5t-56 -86.5t-42 -101.5t-28 -107t-16 -102t-4.5 -87z" />
<glyph unicode="&#xab;" d="M26 654l496 514h174l-518 -529l356 -499h-166zM320 645l528 523h178l-555 -529l357 -499h-166z" />
<glyph unicode="&#xac;" horiz-adv-x="894" d="M164 434l30 148h586l-94 -440h-148l64 292h-438z" />
<glyph unicode="&#xad;" d="M198 588l32 141h442l-31 -141h-443z" />
<glyph unicode="&#xae;" horiz-adv-x="1935" d="M162 641q0 118 35 236.5t96 222.5t147.5 196t187 157t218.5 103t238 38q107 0 201.5 -31t168 -88t127 -135t81.5 -174t28 -202q0 -118 -35 -236t-96 -222.5t-147.5 -196t-187 -156.5t-218 -103t-236.5 -38q-134 0 -248 48.5t-192.5 132t-123 199.5t-44.5 249zM284 639 q0 -86 22.5 -162.5t65 -138.5t101 -108t135 -70.5t162.5 -24.5q102 0 204 33.5t189 90.5t162.5 137t128 171.5t82.5 194.5t30 204q0 107 -35 200t-97 160.5t-153 105.5t-197 38q-102 0 -205 -33t-190 -91t-162.5 -138t-128.5 -171t-83.5 -194t-30.5 -204zM596 461l144 679 q92 30 254 30q34 0 70.5 -5.5t76 -19t69.5 -33t50 -51t20 -70.5t-17 -74t-45 -61t-61 -45.5t-69 -32.5q23 -32 33 -47t27.5 -44t25 -49t14.5 -48q6 -30 6 -58q0 -36 -6 -69h-156q8 38 8 88q0 121 -57 201l-197 -8l-59 -283h-131zM803 826h40t45 1.5t49.5 4t48.5 8.5t48 13 t41 19t34 27t21 36t8 46q0 92 -188 92q-32 0 -94 -4z" />
<glyph unicode="&#xaf;" horiz-adv-x="456" d="M-74 1491l25 111h541l-25 -111h-541z" />
<glyph unicode="&#xb0;" horiz-adv-x="894" d="M129 1149q0 64 18 129.5t52.5 123.5t81 104t108 73t129.5 27q72 0 126.5 -34t83 -91.5t28.5 -128.5q0 -53 -13 -108t-36.5 -106t-59 -95.5t-77.5 -77.5t-94 -53q-54 -19 -110 -19q-72 0 -126 34.5t-82.5 92.5t-28.5 129zM256 1147q0 -60 26 -95.5t84 -35.5q48 0 91.5 21 t74 55.5t52.5 78t33 90.5t11 91q0 132 -110 131q-48 0 -91 -21t-74 -55.5t-53 -78.5t-33 -90t-11 -91z" />
<glyph unicode="&#xb1;" horiz-adv-x="1331" d="M37 148l31 141h1012l-32 -141h-1011zM160 727l30 141h434l64 300h142l-64 -300h436l-30 -141h-434l-64 -293h-142l64 293h-436z" />
<glyph unicode="&#xb2;" horiz-adv-x="894" d="M58 729l14 69q24 115 87 211.5t163 192.5q8 8 36 33t52 47t50 48t41 50t15 42t-9.5 29.5t-25 17t-30.5 7.5t-31 2q-30 0 -68 -10l-30 -143h-136l46 211q100 78 218 78q40 0 76 -9t65.5 -28t47 -51t17.5 -74t-19 -84t-51 -80t-72 -76t-83 -78.5t-82 -82t-73.5 -93 t-52.5 -104.5q59 10 175 10l28 76h110l-44 -211h-434z" />
<glyph unicode="&#xb3;" horiz-adv-x="894" d="M60 715l46 221h111l2 -80q43 5 79 17.5t66 33.5t47 56t17 79q0 20 -8 34t-23 22t-30.5 13t-38 6t-38.5 1t-38 -1t-31 -1l29 136l229 214h-119l-14 -72h-137l43 208h450l-24 -113l-276 -256q79 0 122.5 -41.5t43.5 -120.5q0 -104 -56 -185q-56 -82 -152 -124 q-66 -29 -136 -38q-68 -9 -164 -9z" />
<glyph unicode="&#xb4;" horiz-adv-x="456" d="M76 1308l200 294h203l-276 -294h-127z" />
<glyph unicode="&#xb6;" horiz-adv-x="1476" d="M100 1004q0 84 29 163.5t79 144t118 119.5t144 92t158 58t162 21h598l-20 -103l-156 -37l-315 -1484q-16 -74 -44 -133.5t-64 -103t-83.5 -76.5t-99 -53.5t-114 -33t-124.5 -17.5t-136 -5q2 42 14 110q80 0 152 6l196 922q-76 0 -147 16t-134 49t-110 80.5t-75 115.5 q-28 69 -28 149zM252 1010q0 -45 11 -83.5t30.5 -66.5t47 -50t59.5 -36t69.5 -23.5t75 -13.5t77.5 -4l156 729h-16q-72 0 -146 -21.5t-139 -63t-115.5 -96t-80 -125t-29.5 -146.5zM545 -295q42 15 75.5 39t55.5 51t39 64t27 72t20 81l309 1450h-151z" />
<glyph unicode="&#xb7;" horiz-adv-x="456" d="M116 582l62 292h146l-62 -292h-146z" />
<glyph unicode="&#xb8;" horiz-adv-x="456" d="M-47 -404l41 68q24 -12 62.5 -19t66.5 -7q20 0 39.5 4t38 13t32.5 25t19 38q8 43 -13 63.5t-65 20.5q-54 0 -84 -15l-22 37l155 176h91l-114 -127q38 6 74 6q44 0 78 -22.5t47 -55.5t7 -65q-8 -46 -38 -82t-71 -56t-82 -29t-80 -9q-52 0 -102.5 9t-79.5 27z" />
<glyph unicode="&#xb9;" horiz-adv-x="894" d="M53 729l29 137h146l114 537l-114 -61l-46 102l346 194l-164 -772h148l-28 -137h-431z" />
<glyph unicode="&#xba;" horiz-adv-x="894" d="M76 1057q0 62 13.5 128.5t39 131t64.5 122t87 101.5t110.5 69t131.5 25q56 0 101 -18t73 -48.5t46.5 -74t26 -90.5t7.5 -101q0 -47 -9 -99.5t-28 -107.5t-45 -107.5t-64 -99t-82 -80.5t-100 -54q-56 -21 -118 -21q-53 0 -96.5 18.5t-72.5 49t-48 72.5t-28 88t-9 96z M207 1054q0 -30 4.5 -58t14.5 -55.5t26.5 -47.5t43 -32.5t58.5 -12.5q48 0 91.5 23t74.5 61t55.5 86t39.5 100t22.5 100t7.5 90q0 32 -4 60.5t-14.5 57t-26.5 48.5t-42 33t-60 13q-48 0 -91 -23.5t-73.5 -62t-55.5 -87.5t-40 -101t-23 -101t-8 -91z" />
<glyph unicode="&#xbb;" d="M-86 140l553 528l-357 500h166l342 -506l-526 -522h-178zM244 140l518 528l-358 500h166l342 -514l-494 -514h-174z" />
<glyph unicode="&#xbc;" horiz-adv-x="1935" d="M131 729l29 137h145l115 537l-115 -61l-45 102l346 194l-164 -772h148l-31 -137h-428zM160 0l1290 1602h176l-1290 -1602h-176zM977 223l14 139l357 510h145l-359 -514h170l62 294h137l-61 -294h74l-29 -135h-74l-47 -223h-137l47 223h-299z" />
<glyph unicode="&#xbd;" horiz-adv-x="1935" d="M133 729l29 137h145l115 537l-117 -61l-45 102l348 194l-164 -772h146l-29 -137h-428zM140 0l1292 1602h176l-1292 -1602h-176zM1010 -10l14 70q24 115 87 211.5t161 191.5q8 8 48.5 43.5t68 61.5t52.5 60t25 54q0 18 -9 30t-24 17.5t-30 8t-31 2.5q-28 0 -68 -11 l-30 -143h-136l46 210q100 78 219 78q39 0 74 -9t65 -27.5t48 -51t18 -74.5t-19 -84t-51 -79t-72 -75t-83 -78.5t-82 -82t-73 -93.5t-52 -106q26 5 56.5 7.5t57 3.5t58.5 2l30 73h111l-45 -210h-434z" />
<glyph unicode="&#xbe;" horiz-adv-x="1935" d="M164 0l1290 1602h176l-1290 -1602h-176zM184 715l48 221h110l2 -80q44 5 80 17.5t66 33.5t46.5 56t16.5 79q0 20 -7.5 34t-22.5 22t-31 13t-38.5 6t-38 1t-38.5 -1t-31 -1l29 136l229 214h-118l-15 -72h-137l43 208h451l-25 -113l-277 -256q79 0 122.5 -41.5t43.5 -120.5 q0 -104 -55 -185.5t-151 -123.5q-66 -29 -136 -38t-166 -9zM981 223l15 139l356 510h145l-359 -514h170l62 294h138l-62 -294h74l-29 -135h-74l-47 -223h-139l49 223h-299z" />
<glyph unicode="&#xbf;" d="M58 -160q0 34 6 72q16 68 44 124.5t63 97t77 75.5t86 65.5t88.5 61.5t87 68.5t78 81.5t64 106t44.5 137h128q-38 -177 -122 -293q-58 -80 -166 -168q-36 -28 -138 -108q-42 -32 -73 -61t-59 -66.5t-42.5 -81t-14.5 -93.5q0 -35 12.5 -61.5t32.5 -43.5t48 -27.5t57 -14.5 t61 -4q66 0 182 43l41 203l151 -2l-63 -299q-214 -96 -344 -96q-64 0 -122.5 19t-105 55t-73.5 90q-28 54 -28 120zM717 887l59 283h148l-60 -283h-147z" />
<glyph unicode="&#xc0;" horiz-adv-x="1185" d="M-100 0l739 1602h258v-1602h-147v594h-414l-266 -594h-170zM398 731h352v760h-12zM576 1956h203l77 -294h-126z" />
<glyph unicode="&#xc1;" horiz-adv-x="1185" d="M-100 0l739 1602h258v-1602h-147v594h-414l-266 -594h-170zM398 731h352v760h-12zM702 1662l200 294h203l-276 -294h-127z" />
<glyph unicode="&#xc2;" horiz-adv-x="1185" d="M-100 0l739 1602h258v-1602h-147v594h-414l-266 -594h-170zM398 731h352v760h-12zM490 1670l266 294h158l141 -294h-147l-80 208l-178 -208h-160z" />
<glyph unicode="&#xc3;" horiz-adv-x="1185" d="M-100 0l739 1602h258v-1602h-147v594h-414l-266 -594h-170zM398 731h352v760h-12zM476 1688q8 38 29 78t50.5 73t68.5 54q38 21 78 21q34 0 70 -11.5t61 -25t52 -24.5t45 -11q28 0 50 26t34 58h104q-14 -36 -26.5 -64t-33 -59t-43.5 -51.5t-55.5 -34t-70.5 -13.5 q-26 0 -57.5 12t-57 26t-54 25t-48.5 11q-28 0 -61 -31t-33 -59h-102z" />
<glyph unicode="&#xc4;" horiz-adv-x="1185" d="M-100 0l739 1602h258v-1602h-147v594h-414l-266 -594h-170zM398 731h352v760h-12zM555 1661l62 295h139l-61 -295h-140zM858 1661l61 295h140l-62 -295h-139z" />
<glyph unicode="&#xc5;" horiz-adv-x="1185" d="M-100 0l739 1602h258v-1602h-147v594h-414l-266 -594h-170zM398 731h352v760h-12zM592 1839q17 83 87 141q71 58 155 58q59 0 103.5 -30.5t63.5 -81t7 -108.5q-19 -83 -89.5 -140.5t-154.5 -57.5q-59 0 -103.5 30t-63 81t-5.5 108zM688 1818q-10 -44 12 -72t64 -28 q49 0 93 36t55 85q9 44 -13.5 72t-64.5 28q-50 0 -93 -35.5t-53 -85.5z" />
<glyph unicode="&#xc6;" horiz-adv-x="1779" d="M-100 0l921 1602h947l-34 -154h-594l-118 -564h440l-32 -153h-441l-123 -577h721l-33 -154h-872l156 731h-348l-420 -731h-170zM578 882h290l121 566h-86z" />
<glyph unicode="&#xc7;" horiz-adv-x="1128" d="M-0.5 384.5q-15.5 181.5 35.5 420.5q26 120 60 222.5t71 178.5t80 139t84.5 106t86.5 75t84 50t79 29.5t69 15t57 3.5q146 0 396 -30l-76 -344h-104l12 208l-228 12q-26 2 -55.5 -3t-71 -22.5t-81.5 -47t-85 -83.5t-84 -125t-77 -178t-66 -237q-26 -122 -33 -223 t2 -168.5t25 -112t39 -72.5q54 -70 161.5 -69.5t200.5 55.5q93 54 181 170l125 -94q-112 -145 -237 -215.5t-269 -70.5q-88 0 -160 33q-73 33 -123 95q-83 101 -98.5 282.5zM49 -404l41 68q25 -12 63 -19t66 -7q27 0 52.5 7t48 26t28.5 47q9 42 -12.5 63t-65.5 21 q-54 0 -84 -15l-22 37l156 176h90l-113 -127q37 6 73 6q45 0 78.5 -22.5t46.5 -55.5t7 -65q-6 -38 -27.5 -69t-50 -50t-63 -33t-67 -19t-62.5 -5q-52 0 -103 9t-80 27z" />
<glyph unicode="&#xc8;" horiz-adv-x="1120" d="M0 0l350 1602h758l-35 -154h-606l-123 -564h454l-30 -153h-456l-128 -577h758l-32 -154h-910zM563 1956h203l77 -294h-126z" />
<glyph unicode="&#xc9;" horiz-adv-x="1120" d="M0 0l350 1602h758l-35 -154h-606l-123 -564h454l-30 -153h-456l-128 -577h758l-32 -154h-910zM600 1662l200 294h203l-276 -294h-127z" />
<glyph unicode="&#xca;" horiz-adv-x="1120" d="M0 0l350 1602h758l-35 -154h-606l-123 -564h454l-30 -153h-456l-128 -577h758l-32 -154h-910zM490 1670l266 294h158l141 -294h-147l-80 208l-178 -208h-160z" />
<glyph unicode="&#xcb;" horiz-adv-x="1120" d="M0 0l350 1602h758l-35 -154h-606l-123 -564h454l-30 -153h-456l-128 -577h758l-32 -154h-910zM534 1661l62 295h139l-61 -295h-140zM837 1661l61 295h140l-62 -295h-139z" />
<glyph unicode="&#xcc;" horiz-adv-x="630" d="M0 0l340 1602h154l-340 -1602h-154zM286 1956h204l78 -293h-128z" />
<glyph unicode="&#xcd;" horiz-adv-x="630" d="M0 0l340 1602h154l-340 -1602h-154zM348 1663l201 293h203l-277 -293h-127z" />
<glyph unicode="&#xce;" horiz-adv-x="630" d="M0 0l340 1602h154l-340 -1602h-154zM148 1671l266 293h158l140 -293h-147l-79 205l-179 -205h-159z" />
<glyph unicode="&#xcf;" horiz-adv-x="630" d="M0 0l340 1602h154l-340 -1602h-154zM198 1661l64 295h140l-64 -295h-140zM502 1661l63 295h139l-63 -295h-139z" />
<glyph unicode="&#xd0;" horiz-adv-x="1236" d="M18 10l160 725h-137l29 139h137l159 728h361q70 0 129.5 -20t100.5 -56.5t72 -84t49 -105t27 -117t9 -123.5q0 -154 -41 -344q-171 -768 -673 -768q-212 0 -382 26zM198 144q74 -6 230 -7q62 0 120 23.5t104 64.5t86 97t71 120t56.5 135.5t43 143t29.5 141.5t17 130 t5 112q0 50 -6 96t-23 93t-43.5 81t-70 56t-98.5 22h-233l-128 -578h2h277l-29 -139h-278z" />
<glyph unicode="&#xd1;" horiz-adv-x="1476" d="M0 0l350 1602h160l416 -1350l294 1350h152l-350 -1602h-162l-414 1348l-294 -1348h-152zM570 1685q8 38 29 78t50.5 73t68.5 54q38 21 78 21q34 0 70 -11.5t61 -25t52 -24.5t45 -11q28 0 50 26t34 58h104q-14 -36 -26.5 -64t-33 -59t-43.5 -51.5t-55.5 -34t-70.5 -13.5 q-26 0 -57.5 12t-57 26t-54 25t-48.5 11q-28 0 -61 -31t-33 -59h-102z" />
<glyph unicode="&#xd2;" horiz-adv-x="1263" d="M41 490q0 62 8 136t25 156t41.5 166t58.5 167.5t75 159t93.5 140.5t110 112t128.5 74t146 27h45q60 0 111 -17t87.5 -46t65 -69.5t47 -86t30.5 -98.5t16.5 -103.5t4.5 -103.5q0 -68 -7 -143t-23.5 -158.5t-40 -167t-57.5 -165t-75 -154.5t-95 -135.5t-114 -108 t-134.5 -71t-155.5 -25.5q-86 0 -154 29t-111.5 78t-72.5 117t-41 139t-12 151zM198 492q0 -36 3 -70t9.5 -70.5t17 -67t29 -59.5t42 -49t57.5 -31.5t76 -11.5q62 0 120 23.5t105 64.5t89 97.5t74 122t58.5 137t45 143t31 141.5t18.5 131.5t6 112.5q0 33 -1.5 63.5 t-7.5 68.5t-15 69.5t-25 62.5t-37 52.5t-52 34.5t-69 13h-45q-56 0 -110 -24t-98 -67t-84.5 -101.5t-72.5 -125.5t-58.5 -140t-46 -145.5t-32.5 -141.5t-20 -128t-7 -105zM580 1956h203l77 -294h-126z" />
<glyph unicode="&#xd3;" horiz-adv-x="1263" d="M41 490q0 62 8 136t25 156t41.5 166t58.5 167.5t75 159t93.5 140.5t110 112t128.5 74t146 27h45q60 0 111 -17t87.5 -46t65 -69.5t47 -86t30.5 -98.5t16.5 -103.5t4.5 -103.5q0 -68 -7 -143t-23.5 -158.5t-40 -167t-57.5 -165t-75 -154.5t-95 -135.5t-114 -108 t-134.5 -71t-155.5 -25.5q-86 0 -154 29t-111.5 78t-72.5 117t-41 139t-12 151zM198 492q0 -36 3 -70t9.5 -70.5t17 -67t29 -59.5t42 -49t57.5 -31.5t76 -11.5q62 0 120 23.5t105 64.5t89 97.5t74 122t58.5 137t45 143t31 141.5t18.5 131.5t6 112.5q0 33 -1.5 63.5 t-7.5 68.5t-15 69.5t-25 62.5t-37 52.5t-52 34.5t-69 13h-45q-56 0 -110 -24t-98 -67t-84.5 -101.5t-72.5 -125.5t-58.5 -140t-46 -145.5t-32.5 -141.5t-20 -128t-7 -105zM715 1662l200 294h203l-276 -294h-127z" />
<glyph unicode="&#xd4;" horiz-adv-x="1263" d="M41 490q0 62 8 136t25 156t41.5 166t58.5 167.5t75 159t93.5 140.5t110 112t128.5 74t146 27h45q60 0 111 -17t87.5 -46t65 -69.5t47 -86t30.5 -98.5t16.5 -103.5t4.5 -103.5q0 -68 -7 -143t-23.5 -158.5t-40 -167t-57.5 -165t-75 -154.5t-95 -135.5t-114 -108 t-134.5 -71t-155.5 -25.5q-86 0 -154 29t-111.5 78t-72.5 117t-41 139t-12 151zM198 492q0 -36 3 -70t9.5 -70.5t17 -67t29 -59.5t42 -49t57.5 -31.5t76 -11.5q62 0 120 23.5t105 64.5t89 97.5t74 122t58.5 137t45 143t31 141.5t18.5 131.5t6 112.5q0 33 -1.5 63.5 t-7.5 68.5t-15 69.5t-25 62.5t-37 52.5t-52 34.5t-69 13h-45q-56 0 -110 -24t-98 -67t-84.5 -101.5t-72.5 -125.5t-58.5 -140t-46 -145.5t-32.5 -141.5t-20 -128t-7 -105zM490 1670l266 294h158l141 -294h-147l-80 208l-178 -208h-160z" />
<glyph unicode="&#xd5;" horiz-adv-x="1263" d="M41 490q0 62 8 136t25 156t41.5 166t58.5 167.5t75 159t93.5 140.5t110 112t128.5 74t146 27h45q60 0 111 -17t87.5 -46t65 -69.5t47 -86t30.5 -98.5t16.5 -103.5t4.5 -103.5q0 -68 -7 -143t-23.5 -158.5t-40 -167t-57.5 -165t-75 -154.5t-95 -135.5t-114 -108 t-134.5 -71t-155.5 -25.5q-86 0 -154 29t-111.5 78t-72.5 117t-41 139t-12 151zM198 492q0 -36 3 -70t9.5 -70.5t17 -67t29 -59.5t42 -49t57.5 -31.5t76 -11.5q62 0 120 23.5t105 64.5t89 97.5t74 122t58.5 137t45 143t31 141.5t18.5 131.5t6 112.5q0 33 -1.5 63.5 t-7.5 68.5t-15 69.5t-25 62.5t-37 52.5t-52 34.5t-69 13h-45q-56 0 -110 -24t-98 -67t-84.5 -101.5t-72.5 -125.5t-58.5 -140t-46 -145.5t-32.5 -141.5t-20 -128t-7 -105zM484 1692q8 38 29 78t50.5 73t68.5 54q38 21 78 21q34 0 70 -11.5t61 -25t52 -24.5t45 -11 q28 0 50 26t34 58h104q-14 -36 -26.5 -64t-33 -59t-43.5 -51.5t-55.5 -34t-70.5 -13.5q-26 0 -57.5 12t-57 26t-54 25t-48.5 11q-28 0 -61 -31t-33 -59h-102z" />
<glyph unicode="&#xd6;" horiz-adv-x="1263" d="M41 490q0 62 8 136t25 156t41.5 166t58.5 167.5t75 159t93.5 140.5t110 112t128.5 74t146 27h45q60 0 111 -17t87.5 -46t65 -69.5t47 -86t30.5 -98.5t16.5 -103.5t4.5 -103.5q0 -68 -7 -143t-23.5 -158.5t-40 -167t-57.5 -165t-75 -154.5t-95 -135.5t-114 -108 t-134.5 -71t-155.5 -25.5q-86 0 -154 29t-111.5 78t-72.5 117t-41 139t-12 151zM198 492q0 -36 3 -70t9.5 -70.5t17 -67t29 -59.5t42 -49t57.5 -31.5t76 -11.5q62 0 120 23.5t105 64.5t89 97.5t74 122t58.5 137t45 143t31 141.5t18.5 131.5t6 112.5q0 33 -1.5 63.5 t-7.5 68.5t-15 69.5t-25 62.5t-37 52.5t-52 34.5t-69 13h-45q-56 0 -110 -24t-98 -67t-84.5 -101.5t-72.5 -125.5t-58.5 -140t-46 -145.5t-32.5 -141.5t-20 -128t-7 -105zM555 1661l62 295h139l-61 -295h-140zM858 1661l61 295h140l-62 -295h-139z" />
<glyph unicode="&#xd7;" horiz-adv-x="1193" d="M108 426l378 314l-240 300l112 90l238 -298l372 308l93 -108l-377 -313l240 -301l-113 -90l-237 298l-376 -308z" />
<glyph unicode="&#xd8;" horiz-adv-x="1263" d="M41 -154l223 326q-57 122 -57 307q0 70 8.5 147.5t25.5 162.5t42 169t61 167t79 157t98 136.5t116 108t136.5 71.5t156.5 26q164 0 254 -102l160 233l141 -2l-231 -340q48 -121 48 -291q0 -70 -8 -147t-25 -162t-42.5 -169.5t-61 -167t-78.5 -156.5t-98 -137 t-116.5 -108.5t-137 -71t-155.5 -25.5q-150 0 -244 90l-152 -222h-143zM362 506q0 -94 17 -164l707 1036q-63 96 -189 96q-66 0 -127 -29t-109.5 -80t-91.5 -118t-75 -144.5t-57.5 -158.5t-41.5 -160.5t-24.5 -150t-8.5 -127.5zM436 215q62 -80 176 -80q58 0 112.5 23.5 t99.5 64.5t85.5 97t73 121t60 136t46.5 143t33 141t20.5 131t6.5 112q-1 73 -13 139z" />
<glyph unicode="&#xd9;" horiz-adv-x="1284" d="M6 498q0 82 9 154q9 70 24 140l176 810h151l-182 -842q-8 -36 -14 -74t-11 -85.5t-6 -93t3.5 -92.5t14.5 -88t29 -78t45.5 -63t66.5 -42q40 -15 88 -15q64 0 123.5 24t106 64t88.5 95.5t73 114.5t57 126t44 125q18 56 30 114l178 810h152l-185 -842q-16 -74 -38.5 -146.5 t-56 -151t-74 -148t-93.5 -132.5t-113 -108.5t-135 -71.5t-157 -26q-90 0 -160 29.5t-113 79t-71 117.5t-39 141t-11 155zM622 1956h203l77 -294h-126z" />
<glyph unicode="&#xda;" horiz-adv-x="1284" d="M6 498q0 82 9 154q9 70 24 140l176 810h151l-182 -842q-8 -36 -14 -74t-11 -85.5t-6 -93t3.5 -92.5t14.5 -88t29 -78t45.5 -63t66.5 -42q40 -15 88 -15q64 0 123.5 24t106 64t88.5 95.5t73 114.5t57 126t44 125q18 56 30 114l178 810h152l-185 -842q-16 -74 -38.5 -146.5 t-56 -151t-74 -148t-93.5 -132.5t-113 -108.5t-135 -71.5t-157 -26q-90 0 -160 29.5t-113 79t-71 117.5t-39 141t-11 155zM684 1662l200 294h203l-276 -294h-127z" />
<glyph unicode="&#xdb;" horiz-adv-x="1284" d="M6 498q0 82 9 154q9 70 24 140l176 810h151l-182 -842q-8 -36 -14 -74t-11 -85.5t-6 -93t3.5 -92.5t14.5 -88t29 -78t45.5 -63t66.5 -42q40 -15 88 -15q64 0 123.5 24t106 64t88.5 95.5t73 114.5t57 126t44 125q18 56 30 114l178 810h152l-185 -842q-16 -74 -38.5 -146.5 t-56 -151t-74 -148t-93.5 -132.5t-113 -108.5t-135 -71.5t-157 -26q-90 0 -160 29.5t-113 79t-71 117.5t-39 141t-11 155zM474 1670l266 294h158l141 -294h-147l-80 208l-178 -208h-160z" />
<glyph unicode="&#xdc;" horiz-adv-x="1284" d="M6 498q0 82 9 154q9 70 24 140l176 810h151l-182 -842q-8 -36 -14 -74t-11 -85.5t-6 -93t3.5 -92.5t14.5 -88t29 -78t45.5 -63t66.5 -42q40 -15 88 -15q64 0 123.5 24t106 64t88.5 95.5t73 114.5t57 126t44 125q18 56 30 114l178 810h152l-185 -842q-16 -74 -38.5 -146.5 t-56 -151t-74 -148t-93.5 -132.5t-113 -108.5t-135 -71.5t-157 -26q-90 0 -160 29.5t-113 79t-71 117.5t-39 141t-11 155zM520 1661l62 295h139l-61 -295h-140zM823 1661l61 295h140l-62 -295h-139z" />
<glyph unicode="&#xdd;" d="M49 1602h160l187 -804l524 804h184l-664 -976l-137 -626h-151l143 652zM484 1753l200 293h203l-277 -293h-126z" />
<glyph unicode="&#xde;" horiz-adv-x="1144" d="M0 0l340 1602h152l-62 -289q104 6 209 6q72 0 133.5 -11t115 -36.5t91 -65t59 -98.5t21.5 -135q-1 -67 -17 -145q-58 -271 -245 -420.5t-465 -149.5q-68 0 -123 8l-57 -266h-152zM242 420q66 -10 124 -10q197 0 334 112t189 306q19 76 19 124q0 52 -17 92t-44 64t-67 39 t-81 21t-91 6q-116 0 -208 -8z" />
<glyph unicode="&#xdf;" horiz-adv-x="1253" d="M6 0l222 1042q18 82 52 162.5t86 154t116 130t146 89.5q80 34 168 34q382 0 382 -248q0 -100 -48 -179t-129.5 -122t-181.5 -43q-82 0 -143.5 -61t-61.5 -142q0 -42 20.5 -75.5t53 -56.5t71.5 -44t78 -43.5t71 -49t52.5 -66t20.5 -89.5q0 -82 -33.5 -157.5t-90 -128.5 t-132.5 -85q-75 -32 -157 -32q-55 0 -103 20t-83.5 55t-61.5 79t-44 96l148 74q7 -26 13.5 -45t17.5 -43t24 -41t29.5 -32.5t39 -23.5t48.5 -8q46 0 88 22.5t72 58.5t47.5 81t17.5 89q0 30 -12.5 55.5t-33.5 44t-48.5 35.5t-57.5 32t-60.5 31.5t-57.5 37t-48 44.5t-34 58 t-13 74q0 68 28 130t74 107t107 75t127 38q94 13 133 29q61 25 83 83q14 38 14 92q0 40 -16 69t-40 46.5t-58 28t-66 14t-68 3.5q-61 0 -118.5 -30.5t-101.5 -78.5t-80 -109t-59 -121q-23 -62 -36 -118l-221 -1042h-152z" />
<glyph unicode="&#xe0;" d="M0 297q0 54 8 118.5t24 136t41.5 144t57 141.5t74 129t90 105t107.5 71q58 26 122 26q172 0 348 -156l29 20l-137 -622q-14 -63 -20.5 -140t-7.5 -127.5t-1 -142.5h-151l16 246q-26 -54 -63 -101.5t-83.5 -86t-103.5 -60.5q-56 -22 -116 -22q-52 0 -93.5 19t-67 50 t-42.5 74t-24 87t-7 91zM160 332q0 -20 1 -39t4 -47t10 -51t17 -44.5t27 -34t39 -12.5q38 0 78 19.5t72 48.5t64 68.5t54 73.5t42 69l56 101l99 452q-11 8 -34 27t-40 31t-39 26t-44 21t-42 7q-42 0 -81.5 -23t-72 -64t-62.5 -93.5t-52.5 -112t-41 -120.5t-30.5 -118 t-18 -104.5t-6 -80.5zM412 1602h203l77 -294h-126z" />
<glyph unicode="&#xe1;" d="M0 297q0 54 8 118.5t24 136t41.5 144t57 141.5t74 129t90 105t107.5 71q58 26 122 26q172 0 348 -156l29 20l-137 -622q-14 -63 -20.5 -140t-7.5 -127.5t-1 -142.5h-151l16 246q-26 -54 -63 -101.5t-83.5 -86t-103.5 -60.5q-56 -22 -116 -22q-52 0 -93.5 19t-67 50 t-42.5 74t-24 87t-7 91zM160 332q0 -20 1 -39t4 -47t10 -51t17 -44.5t27 -34t39 -12.5q38 0 78 19.5t72 48.5t64 68.5t54 73.5t42 69l56 101l99 452q-11 8 -34 27t-40 31t-39 26t-44 21t-42 7q-42 0 -81.5 -23t-72 -64t-62.5 -93.5t-52.5 -112t-41 -120.5t-30.5 -118 t-18 -104.5t-6 -80.5zM530 1308l200 294h203l-276 -294h-127z" />
<glyph unicode="&#xe2;" d="M0 297q0 54 8 118.5t24 136t41.5 144t57 141.5t74 129t90 105t107.5 71q58 26 122 26q172 0 348 -156l29 20l-137 -622q-14 -63 -20.5 -140t-7.5 -127.5t-1 -142.5h-151l16 246q-26 -54 -63 -101.5t-83.5 -86t-103.5 -60.5q-56 -22 -116 -22q-52 0 -93.5 19t-67 50 t-42.5 74t-24 87t-7 91zM160 332q0 -20 1 -39t4 -47t10 -51t17 -44.5t27 -34t39 -12.5q38 0 78 19.5t72 48.5t64 68.5t54 73.5t42 69l56 101l99 452q-11 8 -34 27t-40 31t-39 26t-44 21t-42 7q-42 0 -81.5 -23t-72 -64t-62.5 -93.5t-52.5 -112t-41 -120.5t-30.5 -118 t-18 -104.5t-6 -80.5zM332 1308l266 294h158l141 -294h-147l-80 208l-178 -208h-160z" />
<glyph unicode="&#xe3;" d="M0 297q0 54 8 118.5t24 136t41.5 144t57 141.5t74 129t90 105t107.5 71q58 26 122 26q172 0 348 -156l29 20l-137 -622q-14 -63 -20.5 -140t-7.5 -127.5t-1 -142.5h-151l16 246q-26 -54 -63 -101.5t-83.5 -86t-103.5 -60.5q-56 -22 -116 -22q-52 0 -93.5 19t-67 50 t-42.5 74t-24 87t-7 91zM160 332q0 -20 1 -39t4 -47t10 -51t17 -44.5t27 -34t39 -12.5q38 0 78 19.5t72 48.5t64 68.5t54 73.5t42 69l56 101l99 452q-11 8 -34 27t-40 31t-39 26t-44 21t-42 7q-42 0 -81.5 -23t-72 -64t-62.5 -93.5t-52.5 -112t-41 -120.5t-30.5 -118 t-18 -104.5t-6 -80.5zM306 1376q8 38 29 78t50.5 73t68.5 54q38 21 78 21q34 0 70 -11.5t61 -25t52 -24.5t45 -11q28 0 50 26t34 58h104q-14 -36 -26.5 -64t-33 -59t-43.5 -51.5t-55.5 -34t-70.5 -13.5q-26 0 -57.5 12t-57 26t-54 25t-48.5 11q-28 0 -61 -31t-33 -59h-102z " />
<glyph unicode="&#xe4;" d="M0 297q0 54 8 118.5t24 136t41.5 144t57 141.5t74 129t90 105t107.5 71q58 26 122 26q172 0 348 -156l29 20l-137 -622q-14 -63 -20.5 -140t-7.5 -127.5t-1 -142.5h-151l16 246q-26 -54 -63 -101.5t-83.5 -86t-103.5 -60.5q-56 -22 -116 -22q-52 0 -93.5 19t-67 50 t-42.5 74t-24 87t-7 91zM160 332q0 -20 1 -39t4 -47t10 -51t17 -44.5t27 -34t39 -12.5q38 0 78 19.5t72 48.5t64 68.5t54 73.5t42 69l56 101l99 452q-11 8 -34 27t-40 31t-39 26t-44 21t-42 7q-42 0 -81.5 -23t-72 -64t-62.5 -93.5t-52.5 -112t-41 -120.5t-30.5 -118 t-18 -104.5t-6 -80.5zM364 1313l62 295h139l-61 -295h-140zM667 1313l61 295h140l-62 -295h-139z" />
<glyph unicode="&#xe5;" d="M0 297q0 54 8 118.5t24 136t41.5 144t57 141.5t74 129t90 105t107.5 71q58 26 122 26q172 0 348 -156l29 20l-137 -622q-14 -63 -20.5 -140t-7.5 -127.5t-1 -142.5h-151l16 246q-26 -54 -63 -101.5t-83.5 -86t-103.5 -60.5q-56 -22 -116 -22q-52 0 -93.5 19t-67 50 t-42.5 74t-24 87t-7 91zM160 332q0 -20 1 -39t4 -47t10 -51t17 -44.5t27 -34t39 -12.5q38 0 78 19.5t72 48.5t64 68.5t54 73.5t42 69l56 101l99 452q-11 8 -34 27t-40 31t-39 26t-44 21t-42 7q-42 0 -81.5 -23t-72 -64t-62.5 -93.5t-52.5 -112t-41 -120.5t-30.5 -118 t-18 -104.5t-6 -80.5zM383 1403q17 83 87 141q71 58 155 58q59 0 103.5 -30.5t63.5 -81t7 -108.5q-19 -83 -89.5 -140.5t-154.5 -57.5q-59 0 -103.5 30t-63 81t-5.5 108zM479 1382q-10 -44 12 -72t64 -28q49 0 93 36t55 85q9 44 -13.5 72t-64.5 28q-50 0 -93 -35.5 t-53 -85.5z" />
<glyph unicode="&#xe6;" horiz-adv-x="1554" d="M0 297q0 54 8 118.5t24 136t41.5 144t57 141.5t74 129t90 105t107.5 71q58 26 122 26q58 0 150.5 -11t155.5 -22l63 -11q-7 -28 -19 -80q-12 -54 -18 -78q75 93 165 147.5t169 54.5q124 0 194 -71t70 -196q0 -59 -25.5 -114t-68 -98.5t-99.5 -81.5t-119.5 -65.5 t-127 -47.5t-122.5 -31t-108 -13q-4 -24 -4 -69q0 -40 3 -72.5t9 -67.5t18 -60t29.5 -46t44.5 -32t62 -11q44 0 87 22t76 58t59 79q24 43 38 87l146 -52q-30 -88 -92 -158t-148 -111t-178 -41q-54 0 -100 16t-79 44.5t-59 68t-42 83.5q-16 42 -26 92q-74 -134 -180 -219 t-214 -85q-52 0 -93.5 19t-67 50t-42.5 74t-24 87t-7 91zM160 332q0 -20 1 -39t4 -47t10 -51t17 -44.5t27 -34t39 -12.5q38 0 78 19.5t72 48.5t64 68.5t54 73.5t42 69l56 101l7 26l117 538h-224q-42 0 -81.5 -23t-72 -64t-62.5 -93.5t-52.5 -112t-41 -120.5t-30.5 -118 t-18 -104.5t-6 -80.5zM798 551q58 8 126 30.5t134 56t120 73.5t87 89.5t33 98.5q0 72 -31 108.5t-81 36.5q-54 0 -107.5 -29.5t-97 -79t-80.5 -113.5t-63 -133t-40 -138z" />
<glyph unicode="&#xe7;" horiz-adv-x="864" d="M20 -404l42 68q25 -12 62.5 -19t65.5 -7q20 0 39.5 4t38 13t32.5 25t20 38q9 42 -12.5 63t-65.5 21q-52 0 -84 -15l-23 37l156 176h90l-113 -127q36 6 74 6q44 0 77.5 -22.5t46.5 -55.5t7 -65q-8 -46 -37.5 -82t-70.5 -56t-82 -29t-80 -9q-52 0 -103 9q-52 9 -80 27z M24 372q0 60 8.5 130t27 147t45.5 150.5t67 141t89 117.5t113.5 80t137.5 30q94 0 295 -25l-59 -297h-103l-2 162q-70 6 -131 6q-42 0 -81.5 -20.5t-70 -56t-57.5 -82t-46.5 -99.5t-35 -107t-24.5 -106.5t-14 -95.5t-5 -77t8 -76t23.5 -86t46 -74t70.5 -30q28 0 55.5 11 t48 26.5t43.5 41t37 44.5t32 47l128 -86q-64 -98 -150 -155t-194 -57q-62 0 -114 24t-86 63.5t-57 92t-34 106.5t-11 110z" />
<glyph unicode="&#xe8;" horiz-adv-x="942" d="M16 383q0 68 12 142.5t37 150.5t60 147.5t83 134t104 109.5t127 74t147 27q124 0 194 -71.5t70 -195.5q0 -59 -25.5 -114t-68 -98.5t-99.5 -81.5t-119.5 -65.5t-127 -47.5t-123 -31t-107.5 -13q-4 -24 -4 -69q0 -49 3 -87t14 -78t28.5 -65.5t48 -42t72.5 -16.5 q44 0 87 22t76 58t58.5 79t38.5 87l146 -52q-30 -88 -92.5 -158t-148 -111t-177.5 -41q-54 0 -101 16.5t-80 46t-59 68.5t-42 85.5t-24 94t-8 96.5zM194 551q58 8 126 30.5t134 56t120 73.5t87 89.5t33 98.5q0 72 -31 108.5t-81 36.5q-62 0 -118 -30t-98 -78t-77 -114 t-57 -133t-38 -138zM420 1602h202l76 -294h-126z" />
<glyph unicode="&#xe9;" horiz-adv-x="942" d="M16 383q0 68 12 142.5t37 150.5t60 147.5t83 134t104 109.5t127 74t147 27q124 0 194 -71.5t70 -195.5q0 -59 -25.5 -114t-68 -98.5t-99.5 -81.5t-119.5 -65.5t-127 -47.5t-123 -31t-107.5 -13q-4 -24 -4 -69q0 -49 3 -87t14 -78t28.5 -65.5t48 -42t72.5 -16.5 q44 0 87 22t76 58t58.5 79t38.5 87l146 -52q-30 -88 -92.5 -158t-148 -111t-177.5 -41q-54 0 -101 16.5t-80 46t-59 68.5t-42 85.5t-24 94t-8 96.5zM194 551q58 8 126 30.5t134 56t120 73.5t87 89.5t33 98.5q0 72 -31 108.5t-81 36.5q-62 0 -118 -30t-98 -78t-77 -114 t-57 -133t-38 -138zM498 1308l202 294h203l-279 -294h-126z" />
<glyph unicode="&#xea;" horiz-adv-x="942" d="M16 383q0 68 12 142.5t37 150.5t60 147.5t83 134t104 109.5t127 74t147 27q124 0 194 -71.5t70 -195.5q0 -59 -25.5 -114t-68 -98.5t-99.5 -81.5t-119.5 -65.5t-127 -47.5t-123 -31t-107.5 -13q-4 -24 -4 -69q0 -49 3 -87t14 -78t28.5 -65.5t48 -42t72.5 -16.5 q44 0 87 22t76 58t58.5 79t38.5 87l146 -52q-30 -88 -92.5 -158t-148 -111t-177.5 -41q-54 0 -101 16.5t-80 46t-59 68.5t-42 85.5t-24 94t-8 96.5zM194 551q58 8 126 30.5t134 56t120 73.5t87 89.5t33 98.5q0 72 -31 108.5t-81 36.5q-62 0 -118 -30t-98 -78t-77 -114 t-57 -133t-38 -138zM360 1308l266 294h158l142 -294h-148l-80 208l-178 -208h-160z" />
<glyph unicode="&#xeb;" horiz-adv-x="942" d="M16 383q0 68 12 142.5t37 150.5t60 147.5t83 134t104 109.5t127 74t147 27q124 0 194 -71.5t70 -195.5q0 -59 -25.5 -114t-68 -98.5t-99.5 -81.5t-119.5 -65.5t-127 -47.5t-123 -31t-107.5 -13q-4 -24 -4 -69q0 -49 3 -87t14 -78t28.5 -65.5t48 -42t72.5 -16.5 q44 0 87 22t76 58t58.5 79t38.5 87l146 -52q-30 -88 -92.5 -158t-148 -111t-177.5 -41q-54 0 -101 16.5t-80 46t-59 68.5t-42 85.5t-24 94t-8 96.5zM194 551q58 8 126 30.5t134 56t120 73.5t87 89.5t33 98.5q0 72 -31 108.5t-81 36.5q-62 0 -118 -30t-98 -78t-77 -114 t-57 -133t-38 -138zM352 1313l64 295h139l-63 -295h-140zM656 1313l63 295h139l-64 -295h-138z" />
<glyph unicode="&#xec;" horiz-adv-x="542" d="M0 0l250 1145h152l-250 -1145h-152zM188 1602h203l77 -294h-126z" />
<glyph unicode="&#xed;" horiz-adv-x="542" d="M0 0l250 1145h152l-250 -1145h-152zM262 1308l200 294h203l-276 -294h-127z" />
<glyph unicode="&#xee;" horiz-adv-x="542" d="M0 0l250 1145h152l-250 -1145h-152zM72 1308l266 294h158l141 -294h-147l-80 208l-178 -208h-160z" />
<glyph unicode="&#xef;" horiz-adv-x="542" d="M0 0l250 1145h152l-250 -1145h-152zM137 1313l62 295h139l-61 -295h-140zM440 1313l61 295h140l-62 -295h-139z" />
<glyph unicode="&#xf0;" horiz-adv-x="1185" d="M70 375q0 72 12 149.5t37.5 154.5t61 149t86 133.5t109.5 107.5t133.5 72.5t156.5 26.5q124 0 210 -64q-18 152 -86 248l-225 -86l-39 88l191 72q-103 74 -265 73l11 103q54 0 106 -6t105.5 -19t102.5 -37t87 -57l314 127l28 -96l-286 -107q52 -57 85 -163t33 -244 q0 -66 -5 -136t-17 -147.5t-31 -152t-47 -148.5t-63 -139t-83 -121t-104 -95.5t-126 -62.5q-70 -22 -150 -22q-72 0 -130 20t-97 56t-65.5 86t-38 109t-11.5 128zM221 364q0 -44 6.5 -81t21.5 -71t39 -57t60.5 -37t83.5 -14q60 0 114.5 24t96 65t76.5 95t59 114t41 124 t25 123t8 111q0 44 -5 81.5t-19 75t-36 63.5t-58 42t-82 16q-62 0 -118 -24.5t-99 -66.5t-78.5 -97.5t-60 -118t-42 -128t-25.5 -125.5t-8 -114z" />
<glyph unicode="&#xf1;" d="M-16 0l252 1145h114l-45 -361q32 62 62.5 112t71 103t81 88t90.5 58t102 23q50 0 88 -20t60 -54t32.5 -75.5t10.5 -88.5q-1 -82 -21 -176l-102 -459q-26 -113 -38 -295h-156q6 120 42 282l112 504q18 87 18 144q0 12 -2 25t-7 27t-15 23q-12 9 -26 9q-34 0 -71.5 -17 t-72 -44.5t-72 -67t-68 -78.5t-63 -85t-55 -81t-44.5 -73l-127 -568h-151zM330 1376q9 38 30 77.5t50.5 73t68.5 54.5t78 21q34 0 69.5 -11.5t59.5 -25t51 -24.5t45 -11q28 0 52 26q22 27 34 58h105q-14 -36 -26.5 -64t-33.5 -59t-44 -51.5t-55 -34t-70 -13.5q-26 0 -58 12 t-57 26t-54 25t-49 11q-28 0 -61 -31t-33 -59h-102z" />
<glyph unicode="&#xf2;" horiz-adv-x="948" d="M-16 362q0 66 10 140t32 152.5t53 152t76 139.5t97 115t120 78t142 29q66 0 119.5 -22t89 -59.5t59.5 -89t35 -109.5t11 -122q0 -68 -11 -141.5t-33 -150.5t-53 -149t-76 -135.5t-97 -111.5t-119.5 -75t-141.5 -27q-66 0 -119 20.5t-89 56t-60 85.5t-34.5 106t-10.5 118z M123 364q0 -38 3.5 -70.5t15.5 -69t30 -61.5t50 -42t75 -17q49 0 94 20t81 54t67.5 80t54.5 98.5t41.5 107.5t29.5 109.5t17 103.5t6 89q0 32 -3 61t-9 62t-19 60t-31 50t-47 35t-65 12q-56 0 -107 -27t-89 -72t-71 -104t-55.5 -123t-38 -130t-23 -123t-7.5 -103zM404 1602 h202l76 -294h-127z" />
<glyph unicode="&#xf3;" horiz-adv-x="948" d="M-16 362q0 66 10 140t32 152.5t53 152t76 139.5t97 115t120 78t142 29q66 0 119.5 -22t89 -59.5t59.5 -89t35 -109.5t11 -122q0 -68 -11 -141.5t-33 -150.5t-53 -149t-76 -135.5t-97 -111.5t-119.5 -75t-141.5 -27q-66 0 -119 20.5t-89 56t-60 85.5t-34.5 106t-10.5 118z M123 364q0 -38 3.5 -70.5t15.5 -69t30 -61.5t50 -42t75 -17q49 0 94 20t81 54t67.5 80t54.5 98.5t41.5 107.5t29.5 109.5t17 103.5t6 89q0 32 -3 61t-9 62t-19 60t-31 50t-47 35t-65 12q-56 0 -107 -27t-89 -72t-71 -104t-55.5 -123t-38 -130t-23 -123t-7.5 -103zM482 1308 l202 294h203l-279 -294h-126z" />
<glyph unicode="&#xf4;" horiz-adv-x="948" d="M-16 362q0 66 10 140t32 152.5t53 152t76 139.5t97 115t120 78t142 29q66 0 119.5 -22t89 -59.5t59.5 -89t35 -109.5t11 -122q0 -68 -11 -141.5t-33 -150.5t-53 -149t-76 -135.5t-97 -111.5t-119.5 -75t-141.5 -27q-66 0 -119 20.5t-89 56t-60 85.5t-34.5 106t-10.5 118z M123 364q0 -38 3.5 -70.5t15.5 -69t30 -61.5t50 -42t75 -17q49 0 94 20t81 54t67.5 80t54.5 98.5t41.5 107.5t29.5 109.5t17 103.5t6 89q0 32 -3 61t-9 62t-19 60t-31 50t-47 35t-65 12q-56 0 -107 -27t-89 -72t-71 -104t-55.5 -123t-38 -130t-23 -123t-7.5 -103zM282 1308 l269 294h157l140 -294h-148l-78 208l-180 -208h-160z" />
<glyph unicode="&#xf5;" horiz-adv-x="948" d="M-16 362q0 66 10 140t32 152.5t53 152t76 139.5t97 115t120 78t142 29q66 0 119.5 -22t89 -59.5t59.5 -89t35 -109.5t11 -122q0 -68 -11 -141.5t-33 -150.5t-53 -149t-76 -135.5t-97 -111.5t-119.5 -75t-141.5 -27q-66 0 -119 20.5t-89 56t-60 85.5t-34.5 106t-10.5 118z M123 364q0 -38 3.5 -70.5t15.5 -69t30 -61.5t50 -42t75 -17q49 0 94 20t81 54t67.5 80t54.5 98.5t41.5 107.5t29.5 109.5t17 103.5t6 89q0 32 -3 61t-9 62t-19 60t-31 50t-47 35t-65 12q-56 0 -107 -27t-89 -72t-71 -104t-55.5 -123t-38 -130t-23 -123t-7.5 -103zM307 1376 q13 52 45 103t82 87t102 36q34 0 69.5 -11.5t60 -25t51.5 -24.5t45 -11q28 0 50 26t36 58h104q-14 -36 -26.5 -64t-33 -59t-43.5 -51.5t-55.5 -34t-70.5 -13.5q-26 0 -58.5 12t-57.5 26t-54 25t-49 11q-28 0 -60 -31t-34 -59h-103z" />
<glyph unicode="&#xf6;" horiz-adv-x="948" d="M-16 362q0 66 10 140t32 152.5t53 152t76 139.5t97 115t120 78t142 29q66 0 119.5 -22t89 -59.5t59.5 -89t35 -109.5t11 -122q0 -68 -11 -141.5t-33 -150.5t-53 -149t-76 -135.5t-97 -111.5t-119.5 -75t-141.5 -27q-66 0 -119 20.5t-89 56t-60 85.5t-34.5 106t-10.5 118z M123 364q0 -38 3.5 -70.5t15.5 -69t30 -61.5t50 -42t75 -17q49 0 94 20t81 54t67.5 80t54.5 98.5t41.5 107.5t29.5 109.5t17 103.5t6 89q0 32 -3 61t-9 62t-19 60t-31 50t-47 35t-65 12q-56 0 -107 -27t-89 -72t-71 -104t-55.5 -123t-38 -130t-23 -123t-7.5 -103zM336 1313 l64 295h138l-63 -295h-139zM639 1313l63 295h140l-64 -295h-139z" />
<glyph unicode="&#xf7;" horiz-adv-x="1185" d="M131 586l29 141h882l-28 -141h-883zM410 168l55 254h145l-55 -254h-145zM563 891l55 254h146l-56 -254h-145z" />
<glyph unicode="&#xf8;" horiz-adv-x="948" d="M-8 -154l198 277q-54 97 -53 239q0 66 10.5 140t32.5 152.5t53 152t75.5 139.5t97 115t120.5 78t142 29q130 0 208 -82l162 227h136l-232 -326q39 -96 39 -221q0 -68 -10.5 -141.5t-32.5 -150.5t-53 -149t-76 -135.5t-97 -111.5t-120 -75t-142 -27q-113 0 -188 59 l-135 -189h-135zM276 364q0 -62 10 -106l510 717q-44 71 -128 71q-56 0 -107 -27t-89.5 -72t-71 -104t-55 -123t-38.5 -130t-23.5 -123t-7.5 -103zM340 146q44 -42 110 -42q49 0 94.5 20t81.5 54t67 80t54 98.5t42 107.5t30 109.5t17 103.5t6 89q0 22 -4 76z" />
<glyph unicode="&#xf9;" d="M0 295q0 97 22 199l144 651h152l-150 -682q-16 -84 -16 -166q0 -19 2 -39t8 -44t16 -42t27 -30.5t39 -12.5q31 0 65.5 15.5t66.5 40t66.5 59t62 68.5t56.5 73t47.5 67t36.5 56l139 637h152l-172 -785l-41 -360h-153l30 260q-32 -52 -63 -93.5t-66.5 -78t-72 -60.5 t-77.5 -38t-85 -14q-52 0 -93 19t-67 50t-44 73t-25 86t-7 91zM412 1602h203l77 -294h-126z" />
<glyph unicode="&#xfa;" d="M0 295q0 97 22 199l144 651h152l-150 -682q-16 -84 -16 -166q0 -19 2 -39t8 -44t16 -42t27 -30.5t39 -12.5q31 0 65.5 15.5t66.5 40t66.5 59t62 68.5t56.5 73t47.5 67t36.5 56l139 637h152l-172 -785l-41 -360h-153l30 260q-32 -52 -63 -93.5t-66.5 -78t-72 -60.5 t-77.5 -38t-85 -14q-52 0 -93 19t-67 50t-44 73t-25 86t-7 91zM490 1308l200 294h203l-276 -294h-127z" />
<glyph unicode="&#xfb;" d="M0 295q0 97 22 199l144 651h152l-150 -682q-16 -84 -16 -166q0 -19 2 -39t8 -44t16 -42t27 -30.5t39 -12.5q31 0 65.5 15.5t66.5 40t66.5 59t62 68.5t56.5 73t47.5 67t36.5 56l139 637h152l-172 -785l-41 -360h-153l30 260q-32 -52 -63 -93.5t-66.5 -78t-72 -60.5 t-77.5 -38t-85 -14q-52 0 -93 19t-67 50t-44 73t-25 86t-7 91zM300 1308l266 294h158l141 -294h-147l-80 208l-178 -208h-160z" />
<glyph unicode="&#xfc;" d="M0 295q0 97 22 199l144 651h152l-150 -682q-16 -84 -16 -166q0 -19 2 -39t8 -44t16 -42t27 -30.5t39 -12.5q31 0 65.5 15.5t66.5 40t66.5 59t62 68.5t56.5 73t47.5 67t36.5 56l139 637h152l-172 -785l-41 -360h-153l30 260q-32 -52 -63 -93.5t-66.5 -78t-72 -60.5 t-77.5 -38t-85 -14q-52 0 -93 19t-67 50t-44 73t-25 86t-7 91zM344 1313l62 295h139l-61 -295h-140zM647 1313l61 295h140l-62 -295h-139z" />
<glyph unicode="&#xfd;" horiz-adv-x="937" d="M-342 -291q116 0 240 64q126 64 244 182v1190h138v-1018h21q204 268 307.5 512.5t103.5 505.5h154v-33q0 -103 -28 -226.5t-79 -251.5t-124 -259t-158 -250t-185 -224t-203 -181t-215 -120t-216 -44v153zM416 1306l200 294h203l-277 -294h-126z" />
<glyph unicode="&#xfe;" horiz-adv-x="1116" d="M-98 -444l450 2046h152l-148 -662q238 228 398 228q224 0 223 -286q0 -114 -33 -274q-12 -61 -26 -116t-36 -120.5t-49 -120t-65 -107t-82.5 -88.5t-103.5 -58q-60 -22 -126 -22q-153 0 -280 136l-120 -556h-154zM209 258q28 -34 52 -57t53.5 -44t63.5 -32t70 -11 q62 0 115.5 33t90 85.5t66 123t47 142.5t28.5 147.5t15.5 133t4.5 105.5q0 22 -1.5 40t-6.5 39t-14.5 35t-27 24t-40.5 10q-72 0 -185 -80q-112 -80 -224 -202l-97 -445z" />
<glyph unicode="&#xff;" horiz-adv-x="937" d="M-342 -291q116 0 240 64q126 64 244 182v1190h138v-1018h21q204 268 307.5 512.5t103.5 505.5h154v-33q0 -103 -28 -226.5t-79 -251.5t-124 -259t-158 -250t-185 -224t-203 -181t-215 -120t-216 -44v153zM312 1313l60 295h140l-62 -295h-138zM614 1313l62 295h139 l-61 -295h-140z" />
<glyph unicode="&#x152;" horiz-adv-x="1769" d="M41 514q0 62 8 134t25 152t41.5 160t58.5 159t75 150t93.5 132t110 105.5t128.5 70t146 25.5h45h2h983l-33 -154h-594l-118 -564h440l-32 -153h-441l-123 -577h721l-33 -154h-1110h-2q-86 0 -154 29.5t-111.5 78.5t-72.5 116.5t-41 139t-12 150.5zM207 524q0 -38 2 -72 t8.5 -76t16.5 -76t27 -67t40 -55t57 -34t74 -9l272 19l275 1294q-82 10 -139 16t-78 8t-28 2h-7q-56 6 -109.5 -14t-96.5 -59.5t-83 -95.5t-71 -122t-57.5 -138.5t-45 -144.5t-31.5 -141.5t-19.5 -129t-6.5 -105.5z" />
<glyph unicode="&#x153;" horiz-adv-x="1570" d="M-8 362q0 66 10 140t32 152t53.5 152t76 140t96.5 115t120 78t142 29q59 0 108 -17t84 -48.5t59.5 -72t39.5 -92.5q78 106 176.5 168t216.5 62q124 0 194 -71.5t70 -195.5q0 -59 -25 -114t-68 -98.5t-100 -81.5t-119.5 -65.5t-127 -47.5t-123.5 -31t-109 -13 q-2 -24 -2 -69q0 -49 3.5 -87t14 -78t28.5 -65.5t48 -42.5q30 -16 72 -16q44 0 87 22t76 58t59 79t38 87l146 -52q-46 -134 -162 -222t-256 -88q-54 0 -100.5 16.5t-81 47t-59.5 68.5t-41 86q-68 -102 -159.5 -160t-203.5 -58q-66 0 -119 20.5t-88.5 56t-59.5 85.5t-35 106 t-11 118zM131 364q0 -38 3.5 -70.5t15.5 -69t30 -61.5t50 -42t75 -17q56 0 106.5 26t89.5 69t72 99.5t55 118.5t38 125.5t23 120.5t7 103q0 39 -3 73.5t-15 74t-30 67.5t-50.5 46.5t-75.5 18.5q-56 0 -106.5 -27t-89 -72t-71.5 -104t-55 -123t-38 -130t-23.5 -123t-7.5 -103 zM815 551q58 8 125.5 30.5t133.5 56t120 73.5t87.5 89.5t33.5 98.5q0 72 -31.5 108.5t-81.5 36.5q-62 0 -118 -30t-98 -78t-76.5 -114t-57 -133t-37.5 -138z" />
<glyph unicode="&#x178;" d="M49 1602h160l187 -804l524 804h184l-664 -976l-137 -626h-151l143 652zM377 1661l63 295h140l-64 -295h-139zM680 1661l64 295h138l-63 -295h-139z" />
<glyph unicode="&#x2c6;" horiz-adv-x="456" d="M-104 1308l266 294h158l141 -294h-147l-80 208l-178 -208h-160z" />
<glyph unicode="&#x2dc;" horiz-adv-x="456" d="M-112 1376q8 38 29 78t50.5 73t68.5 54q38 21 78 21q34 0 70 -11.5t61 -25t52 -24.5t45 -11q28 0 50 26t34 58h104q-14 -36 -26.5 -64t-33 -59t-43.5 -51.5t-55.5 -34t-70.5 -13.5q-26 0 -57.5 12t-57 26t-54 25t-48.5 11q-28 0 -61 -31t-33 -59h-102z" />
<glyph unicode="&#x2000;" horiz-adv-x="1023" />
<glyph unicode="&#x2001;" horiz-adv-x="2046" />
<glyph unicode="&#x2002;" horiz-adv-x="1023" />
<glyph unicode="&#x2003;" horiz-adv-x="2046" />
<glyph unicode="&#x2004;" horiz-adv-x="682" />
<glyph unicode="&#x2005;" horiz-adv-x="511" />
<glyph unicode="&#x2006;" horiz-adv-x="341" />
<glyph unicode="&#x2007;" horiz-adv-x="341" />
<glyph unicode="&#x2008;" horiz-adv-x="255" />
<glyph unicode="&#x2009;" horiz-adv-x="409" />
<glyph unicode="&#x200a;" horiz-adv-x="113" />
<glyph unicode="&#x2010;" d="M198 588l32 141h442l-31 -141h-443z" />
<glyph unicode="&#x2011;" d="M198 588l32 141h442l-31 -141h-443z" />
<glyph unicode="&#x2012;" d="M198 588l32 141h442l-31 -141h-443z" />
<glyph unicode="&#x2013;" horiz-adv-x="894" d="M0 590l30 141h586l-30 -141h-586z" />
<glyph unicode="&#x2014;" horiz-adv-x="1476" d="M129 588l31 141h1178l-30 -141h-1179z" />
<glyph unicode="&#x2018;" horiz-adv-x="604" d="M100 1170l40 188q8 36 41 83.5t69 84t65 62.5l29 26h104l-22 -26q-22 -26 -50.5 -62.5t-56 -84t-35.5 -83.5l-38 -188h-146z" />
<glyph unicode="&#x2019;" horiz-adv-x="604" d="M140 1166l22 25q22 26 50.5 62.5t56 84.5t34.5 84l39 188h146l-40 -188q-8 -36 -41 -84t-69 -84.5t-66 -62.5l-28 -25h-104z" />
<glyph unicode="&#x201a;" horiz-adv-x="604" d="M140 -148l22 26q22 26 50.5 63t56 84t34.5 83l39 189h146l-40 -189q-8 -36 -41 -83t-69 -84t-66 -63l-28 -26h-104z" />
<glyph unicode="&#x201c;" horiz-adv-x="894" d="M100 1170l40 188q8 36 41 83.5t69 84t65 62.5l29 26h104l-22 -26q-22 -26 -50.5 -62.5t-56 -84t-35.5 -83.5l-38 -188h-146zM393 1170l39 188q8 36 41.5 83.5t69.5 84t65 62.5l29 26h105l-23 -26q-22 -26 -50.5 -62.5t-56.5 -83.5q-26 -48 -34 -84l-40 -188h-145z" />
<glyph unicode="&#x201d;" horiz-adv-x="894" d="M140 1166l22 25q22 26 50.5 62.5t56 84.5t34.5 84l39 188h146l-40 -188q-8 -36 -41 -84t-69 -84.5t-66 -62.5l-28 -25h-104zM432 1166l22 25q22 26 51 62.5t56 84.5t35 84l39 188h145l-38 -188q-8 -36 -42 -84t-70 -84.5t-64 -62.5l-30 -25h-104z" />
<glyph unicode="&#x201e;" horiz-adv-x="894" d="M140 -148l22 26q22 26 50.5 63t56 84t34.5 83l39 189h146l-40 -189q-8 -36 -41 -83t-69 -84t-66 -63l-28 -26h-104zM432 -148l22 26q22 26 51 63t56 84t35 83l39 189h145l-38 -189q-8 -36 -42 -83t-70 -84t-64 -63l-30 -26h-104z" />
<glyph unicode="&#x2022;" horiz-adv-x="749" d="M119 568q0 32 8 73t21.5 91.5t17.5 74.5q17 80 86 137q70 58 152 58h50q67 0 112.5 -44t45.5 -110q0 -34 -8 -76t-21 -92t-18 -74q-17 -79 -86 -136.5t-151 -57.5h-52q-67 0 -112 44t-45 112z" />
<glyph unicode="&#x2026;" d="M116 0l62 295h146l-62 -295h-146zM410 0l61 295h145l-61 -295h-145zM702 0l62 295h148l-62 -295h-148z" />
<glyph unicode="&#x202f;" horiz-adv-x="409" />
<glyph unicode="&#x2039;" horiz-adv-x="894" d="M104 654l494 514h174l-516 -529l356 -499h-166z" />
<glyph unicode="&#x203a;" horiz-adv-x="894" d="M18 140l556 528l-357 500h166l342 -506l-529 -522h-178z" />
<glyph unicode="&#x205f;" horiz-adv-x="511" />
<glyph unicode="&#x2122;" horiz-adv-x="1624" d="M209 1485l25 117h446l-24 -117h-160l-156 -733h-119l156 733h-168zM674 752l180 850h106l130 -375l288 375h121l-180 -850h-119l131 622l-223 -276h-78l-106 276l-132 -622h-118z" />
<glyph unicode="&#x25fc;" horiz-adv-x="1145" d="M0 0v1145h1145v-1145h-1145z" />
</font>
</defs>
</svg>
