<?xml version="1.0" standalone="no"?>
<!DOCTYPE svg PUBLIC "-//W3C//DTD SVG 1.1//EN" "http://www.w3.org/Graphics/SVG/1.1/DTD/svg11.dtd" >
<svg xmlns="http://www.w3.org/2000/svg">
<metadata></metadata>
<defs>
<font id="discreetbolditalic" horiz-adv-x="1042" >
<font-face units-per-em="2048" ascent="2048" descent="0" />
<missing-glyph horiz-adv-x="604" />
<glyph unicode="&#xfb01;" horiz-adv-x="1150" d="M-131 -444l305 1376h-133l45 204h133q29 134 83 229t134 151.5t181 82t233 25.5q51 0 168 -13.5t146 -25.5l-44 -199l-354 52q-55 0 -102.5 -21.5t-79.5 -53.5t-57 -74t-39 -79.5t-21 -73.5h617l-254 -1136h-246l204 932h-362l-305 -1376h-252z" />
<glyph unicode="&#xfb02;" horiz-adv-x="1331" d="M-131 -444l301 1376h-125l43 204h129q32 155 122.5 266t222.5 166.5t292 55.5q86 0 176 -12t147.5 -24.5t63.5 -12.5l-245 -1137q-4 -21 -7.5 -34.5t-6 -31.5t-2.5 -30t0.5 -26.5t5 -24t10.5 -20.5t16 -18.5t23 -14.5t31 -12.5t40 -8.5l-96 -221q-32 0 -62 3l-30 3 q-44 3 -84 30t-70 78.5t-37 125.5t13 172l216 988l-178 42q-54 0 -102.5 -21.5t-83 -54t-61.5 -74t-43 -79.5q-16 -39 -23 -73h250l-43 -204h-250l-306 -1376h-247z" />
<glyph horiz-adv-x="0" />
<glyph unicode="&#xd;" horiz-adv-x="682" />
<glyph unicode=" "  horiz-adv-x="604" />
<glyph unicode="&#x09;" horiz-adv-x="604" />
<glyph unicode="&#xa0;" horiz-adv-x="604" />
<glyph unicode="!" horiz-adv-x="749" d="M64 0l76 340h218l-76 -340h-218zM180 465l197 1137h270l-283 -1137h-184z" />
<glyph unicode="&#x22;" horiz-adv-x="749" d="M64 1145l96 457h188l-98 -457h-186zM381 1145l96 457h191l-98 -457h-189z" />
<glyph unicode="#" horiz-adv-x="1331" d="M-96 420l40 200h292l168 361h-238l41 201h291l196 420h224l-197 -420h211l196 420h224l-197 -420h273l-42 -201h-325l-168 -361h266l-41 -200h-320l-196 -420h-221l195 420h-212l-196 -420h-221l195 420h-238zM459 620h211l168 361h-212z" />
<glyph unicode="$" d="M-51 240l65 268h207l-18 -203q45 -94 153 -94q46 0 88 19.5t72.5 52.5t53.5 76t34 89q12 46 12 92q0 40 -14.5 75t-39 61t-57 50t-68 46t-71.5 46t-68 53t-57 62t-40 79t-15 100q0 114 45 211t133 163q88 67 206 87l50 321h267l-89 -323q52 -12 91 -27.5t70 -33.5t79 -44 l-82 -346h-216l26 262q-52 20 -98 21q-46 0 -84 -13.5t-64 -36.5t-44 -55t-26 -66.5t-8 -72.5q0 -39 15 -72.5t40 -59t57.5 -49.5t68 -46.5t71.5 -47t68.5 -55.5t57.5 -66.5t39.5 -85t14.5 -107.5q0 -96 -24 -180t-74 -153.5t-131 -121t-189 -78.5l-44 -317h-270l84 310 q-84 22 -161 80t-116 130z" />
<glyph unicode="%" horiz-adv-x="1185" d="M-190 0l1292 1602h274l-1292 -1602h-274zM124 1217q0 43 9 89q10 44 27.5 88t46 85.5t63.5 73t82.5 50.5t99.5 19q41 0 74.5 -13.5t56.5 -37t38 -54t22 -66t6.5 -73t-8.5 -74.5q-10 -46 -27 -89t-44.5 -84t-62.5 -72t-84 -49.5t-103 -18.5q-52 0 -91.5 18.5t-61.5 49.5 t-33 72.5t-10 85.5zM305 1184q11 -39 47 -39q35 0 65 41.5t46 119.5q16 76 0.5 119t-43.5 43q-32 0 -63 -42t-48 -120q-16 -82 -4 -122zM584 200q0 44 10 89q10 44 28 87.5t46 85t64 73t84 50.5t100 19q41 0 74.5 -13t55.5 -36t38 -54t22 -66t6 -72.5t-8 -73.5 q-10 -46 -27 -89.5t-45.5 -85t-64 -72.5t-83.5 -49.5t-104 -18.5q-52 0 -91 18.5t-61 49.5t-33 72.5t-11 85.5zM766 167q12 -40 47 -40t66 42t47 120q16 76 0 119q-16 42 -44 42q-33 0 -64.5 -42t-47.5 -119q-16 -82 -4 -122z" />
<glyph unicode="&#x26;" horiz-adv-x="1331" d="M-62 456q0 131 52.5 246.5t152.5 199.5t234 120q-23 42 -38 105.5t-15 113.5q0 68 19 125.5t54 98.5t81 72t101 50t112 28t118 9q94 0 214.5 -22t196.5 -56l-61 -278h-254l35 120q-22 11 -70 22q-48 10 -74 10q-236 0 -235 -179q0 -19 5.5 -53t13.5 -48l262 -514 q122 202 280 220q13 2 29.5 2h30.5h44.5h53.5v-224q-32 0 -67 2t-47 0q-22 -2 -45 -16t-43 -39t-37.5 -49t-34 -54.5t-24.5 -47t-16 -33.5l204 -389h-260l-84 162q-80 -86 -184 -135t-226 -49q-91 0 -177.5 36t-152.5 98t-107 153t-41 193zM172 456q0 -55 21 -103.5t55 -82 t78 -53t90 -19.5q86 0 162 48.5t132 136.5l-226 434q-144 -24 -228 -123.5t-84 -237.5z" />
<glyph unicode="'" horiz-adv-x="749" d="M234 1147l98 455h184l-98 -455h-184z" />
<glyph unicode="(" horiz-adv-x="749" d="M73.5 322q-35.5 250 12.5 483q50 236 189 482.5t347 469.5h202l-17 -73q-200 -224 -309.5 -432t-159.5 -447q-36 -164 -37.5 -322t28 -297.5t87.5 -263.5l-14 -74h-181q-112 224 -147.5 474z" />
<glyph unicode=")" horiz-adv-x="749" d="M-98 -152l16 74q183 205 308 430q126 226 174 444q26 122 36.5 226t5 213t-32.5 219t-77 230l16 73h172q110 -218 146 -470t-14 -491q-50 -237 -184 -483.5t-337 -464.5h-229z" />
<glyph unicode="*" d="M70 1266l98 182l276 -98l52 326h229l-88 -316l305 106l33 -204l-315 -74l174 -238l-189 -118l-145 266l-256 -266l-164 126l268 238z" />
<glyph unicode="+" horiz-adv-x="1331" d="M74 545l47 223h432l86 393h250l-86 -393h436l-49 -223h-434l-86 -395h-250l84 395h-430z" />
<glyph unicode="," horiz-adv-x="604" d="M-70 -166q64 64 109 139t61 150l50 219h222l-48 -219q-9 -42 -44 -95.5t-71.5 -94.5t-64.5 -70l-30 -29h-184z" />
<glyph unicode="-" d="M158 582l42 198h546l-44 -198h-544z" />
<glyph unicode="." horiz-adv-x="604" d="M51 0l68 320h213l-68 -320h-213z" />
<glyph unicode="/" horiz-adv-x="894" d="M-100 -194l884 1964h228l-887 -1964h-225z" />
<glyph unicode="0" horiz-adv-x="1165" d="M35 561q1 140 35 295q13 58 35 124t56.5 141.5t76.5 146t97.5 136t117 114t136.5 77.5t155 29q66 0 121 -19t95 -50.5t71 -76.5t50 -94.5t31.5 -106.5t17 -109.5t4.5 -108.5q0 -148 -32 -281q-16 -70 -39 -142t-58 -152t-76 -152t-96 -138t-116 -114t-138 -76t-159 -28 q-62 0 -116 21t-92 56t-69 84t-51 101.5t-33 111t-18.5 110.5t-5.5 101zM293.5 500q2.5 -36 6.5 -75t15.5 -78t26 -70t37.5 -50.5t51 -19.5q40 0 78 17.5t71 48.5t61 66t52 78t41 76.5t31 67.5q112 273 112 496q0 10 0.5 27t-1 39.5t-2.5 47.5t-6 51t-11 51t-17 47 t-24.5 38.5t-33 26t-41.5 9.5q-32 0 -65 -13t-61 -34t-55 -50t-50 -60t-43 -64t-34 -61q-14 -29 -26 -55q-52 -118 -76 -232t-35 -264q-4 -25 -1.5 -61z" />
<glyph unicode="1" horiz-adv-x="1165" d="M133 0v217h309l222 1018l-216 -105l-100 191l666 361l-318 -1465h334v-217h-897z" />
<glyph unicode="2" horiz-adv-x="1165" d="M26 0l36 146q62 256 214 460q100 133 274 291q58 52 188 164q28 24 53 51t51 60.5t41.5 68.5t15.5 65q0 27 -14.5 48.5t-37.5 33.5t-49 18.5t-52 6.5q-45 0 -92 -9q-48 -10 -78 -26l-48 -252h-242l82 375q86 67 179 95t199 28q59 0 114 -11.5t104.5 -37t87 -61.5t59 -90 t21.5 -118q0 -68 -24 -139t-62 -119q-100 -124 -260 -260q-318 -271 -440 -575l324 6l70 160h202q-56 -238 -84 -379h-832z" />
<glyph unicode="3" horiz-adv-x="1165" d="M4 -24l88 394h199l6 -170q66 10 124.5 31t110.5 54t89.5 75t58.5 100q22 58 22 124q0 35 -18 62t-44 42t-57 24.5t-55 12.5t-42 2q-20 -2 -92 -1l-70 1l57 246l465 442q-23 4 -152 2l-129 -2l-43 -176h-242l82 363h844l-32 -187l-522 -477v-33q44 -4 85 -16t83 -35.5 t72 -55.5t49 -81t19 -109q0 -96 -24 -179t-66.5 -146t-102 -115t-129.5 -87.5t-149.5 -59t-161 -34.5t-165.5 -11h-158z" />
<glyph unicode="4" horiz-adv-x="1165" d="M-56 420q156 244 280 438t265.5 409t276.5 409l180 -132l-580 -909h310l112 510h250l-108 -510h170l-52 -215h-166l-94 -420h-250l93 420h-687z" />
<glyph unicode="5" horiz-adv-x="1165" d="M4 -24l84 370h182v-154q170 22 281 126.5t151 277.5q6 30 6 63t-11 60t-31 44t-44 29t-54 18t-57 8.5t-57 2.5q-68 0 -170 -10l-73 88l153 703h818l-60 -218h-559l-77 -356h42q70 -2 131 -13t118 -38t98 -67.5t65 -104.5q24 -63 24 -145q0 -47 -14 -115 q-28 -118 -82 -212t-127.5 -160.5t-167.5 -111t-200.5 -65t-226.5 -20.5h-142z" />
<glyph unicode="6" horiz-adv-x="1165" d="M14 465q-2 58 9.5 147.5t29.5 165.5q18 80 44.5 159t66.5 164t88 159t111.5 142t135.5 116.5t163 77t190 28.5q92 0 246 -49l-76 -346h-190v197q-64 -4 -124 -29t-108 -67t-91 -97t-75.5 -119t-60 -134t-46.5 -139.5t-32 -138t-19 -127.5t-6 -110q0 -42 5.5 -81t18 -76.5 t31.5 -65.5t49 -45q28 -17 66 -17q42 0 84 22.5t76 60t63.5 87t49.5 103t31.5 108.5t11.5 103q0 158 -86 157q-54 0 -103 -42.5t-96 -133.5l-101 65q142 310 338 310q55 0 102.5 -20t80.5 -55t57 -81t36 -97t12 -103q0 -50 -10 -106t-28 -113.5t-46 -115t-63 -109.5 t-80 -96.5t-95 -77.5t-110 -51.5t-124 -18.5q-66 0 -123 15t-99 41t-76 64t-57 80t-39 91.5t-23 98t-9 99.5z" />
<glyph unicode="7" horiz-adv-x="1165" d="M49 1229l84 373h995q-10 -45 -28 -136q-18 -90 -29 -126q-94 -110 -165.5 -198.5t-144.5 -186t-128 -185.5t-103.5 -182t-84 -190t-58.5 -195l-47 -203h-268l57 254q25 112 72 230t106.5 227t140 228t162.5 225t184 228h-464l-33 -163h-248z" />
<glyph unicode="8" horiz-adv-x="1165" d="M16 387q0 75 27 150t72.5 138.5t98 115t112.5 91.5q-50 48 -80.5 118t-30.5 140q0 110 39 201t107.5 153t163 96t204.5 34q114 0 203.5 -44t138.5 -124.5t49 -183.5q0 -70 -24 -137t-67.5 -124t-94 -105t-110.5 -89q28 -24 48 -44.5t42.5 -49.5t36 -57.5t23 -66 t9.5 -77.5q0 -112 -42.5 -213t-116.5 -174t-179 -116t-225 -43q-80 0 -147 22.5t-114 61.5t-79.5 91.5t-48 112.5t-15.5 123zM272 387q0 -82 44 -140.5t108 -58.5q60 0 114 20t96.5 59t67.5 102.5t25 144.5q0 18 -5 37.5t-19.5 44.5t-37 48.5t-61 49.5t-88.5 48 q-8 3 -15 5.5t-9 4.5h2l-6 2l-23 10q-84 -64 -138.5 -172t-54.5 -205zM465 1147q0 -35 14.5 -67.5t36 -55.5t49 -42.5t49.5 -31.5q24 -11 44 -18q93 60 150.5 154t57.5 186q0 56 -40 102t-97 46q-118 0 -191 -73.5t-73 -199.5z" />
<glyph unicode="9" horiz-adv-x="1165" d="M22 24l78 357h189l-3 -199q64 4 124 29t109 66t93 96t77.5 118t62 132t48.5 138t33.5 136.5t20 127t6.5 109.5q0 34 -1.5 63t-6 60t-12 55t-20 46t-28.5 37t-40 24t-52 9q-68 0 -131 -44t-106 -111t-69 -147t-26 -153q0 -56 10 -99.5t33 -71.5t56 -28q51 0 97.5 39 t82.5 103l103 -48q-64 -146 -147 -213t-195 -67q-58 0 -104 24t-75.5 62t-49 89t-27.5 103t-8 107q0 48 12 105.5t37 120t60 123.5t82.5 115.5t102 96t122.5 66t140 24.5q70 0 128 -15t100 -41t75 -63t53.5 -79t34 -92t18.5 -99t5 -101q0 -162 -37 -313q-19 -84 -44 -162.5 t-63 -164.5t-84 -159t-109 -141t-135 -115t-166 -75t-198 -28q-49 0 -112.5 12t-103.5 24z" />
<glyph unicode=":" horiz-adv-x="604" d="M41 0l69 320h210l-70 -320h-209zM223 826l72 319h209l-74 -319h-207z" />
<glyph unicode=";" horiz-adv-x="604" d="M-100 -170q62 64 113 145t67 152l47 211h209l-47 -211q-13 -57 -71 -144t-118 -153h-200zM236 826l69 319h209l-72 -319h-206z" />
<glyph unicode="&#x3c;" horiz-adv-x="1486" d="M84 559l45 195l1175 454l-65 -264l-817 -292l686 -312l-58 -234z" />
<glyph unicode="=" horiz-adv-x="1193" d="M41 381l43 189h962l-40 -189h-965zM123 731l39 189h964l-38 -189h-965z" />
<glyph unicode="&#x3e;" horiz-adv-x="1486" d="M156 98l65 264l817 304l-686 300l58 234l966 -452l-45 -195z" />
<glyph unicode="?" horiz-adv-x="1185" d="M84 0l72 340h242l-72 -340h-242zM186 444q16 71 32.5 124.5t41.5 102.5t53.5 88t73 82.5t94 83t123.5 93.5q18 14 31 24t37 33t40 45t32.5 55t23.5 66q4 20 6 34.5t1 32t-7 30t-18 25.5t-30 21t-47 12.5t-67 4.5l-131 -31l-47 -217h-240l80 365l34 13q33 13 80.5 28.5 t113.5 28.5q64 14 118 14q32 0 62.5 -2t64 -7t62.5 -12.5t59 -18.5t54 -27t45.5 -36t36 -46.5t22.5 -57.5t8 -70.5t-10 -83.5q-15 -70 -53.5 -137.5t-88.5 -116.5q-40 -40 -87 -79t-84.5 -66t-77 -57.5t-70.5 -61.5t-60 -70t-50 -91t-35 -118h-226z" />
<glyph unicode="@" horiz-adv-x="1935" d="M156.5 552q-11.5 128 19.5 280q36 166 119 307.5t202 244t275 160.5t330 58q104 0 198 -25.5t169.5 -73t133 -115.5t89 -154t38 -188t-19.5 -218q-82 -378 -402 -378q-45 0 -84 14t-65.5 35.5t-46.5 48t-29.5 51.5t-11.5 46q-23 -34 -54 -67.5t-69 -64t-82 -50t-84 -19.5 q-39 0 -71.5 10t-55.5 26t-41 38t-28 47t-15 51.5t-5 52.5t6 50q18 95 53 177.5t84 146t113 100.5t136 37h332l-84 -398q-9 -48 -3.5 -82t23.5 -56t40.5 -33t46.5 -11q145 0 193 248q12 70 13 133t-11 120t-35.5 105t-62 87t-88.5 66t-116 41.5t-145 14.5q-114 0 -225.5 -48 t-199.5 -127.5t-152 -186.5t-88 -221q-19 -88 -19.5 -170t17.5 -152t54 -127.5t88 -98t123 -63.5t156 -23q112 0 226.5 33t244.5 119l86 -180q-54 -35 -106 -62.5t-95 -45t-91 -30t-82 -18.5t-79.5 -9.5t-72 -4t-70.5 -0.5q-124 0 -232 38t-189.5 110t-134 174t-64 230z M768 760q-10 -55 3 -97.5t42 -42.5q45 0 95 32t88 88l61 296h-111q-21 0 -46.5 -19t-50.5 -53.5t-47 -88t-34 -115.5z" />
<glyph unicode="A" horiz-adv-x="1185" d="M-144 0l744 1602h391v-1602h-233v522h-396l-231 -522h-275zM461 748h297v596h-35z" />
<glyph unicode="B" horiz-adv-x="1263" d="M-35 33l344 1569h521q64 0 120 -18t98 -50t72.5 -74t46 -91t15.5 -101q0 -86 -44 -170t-114 -156q66 -54 106 -134.5t40 -164.5q0 -162 -74.5 -297.5t-209 -226.5t-312.5 -127q-40 -8 -109 -12t-115 -4q-68 0 -169.5 17t-215.5 40zM258 213q86 -10 142 -10q66 0 124 10 q75 14 145.5 56.5t121.5 100.5t81.5 130t30.5 143q0 82 -49.5 131.5t-138.5 49.5h-326zM434 1034h287q43 0 81 22t62 57t38 76t14 79q0 48 -30.5 90.5t-76.5 42.5h-295z" />
<glyph unicode="C" horiz-adv-x="1128" d="M12 410q-6 54 -7 111q0 141 38 303q26 116 60.5 215t72 173.5t81 136t85.5 103.5t88 73.5t87 50t83.5 29.5t75 15t66.5 4q248 0 460 -35l-96 -415h-201l17 212l-176 15q-8 1 -17 1q-45 0 -87 -19q-50 -22 -92 -66.5t-80 -104t-68 -133t-53 -151t-40 -160.5 q-22 -110 -30 -210q-3 -42 -4 -81q0 -54 7 -103q12 -84 44 -122q40 -47 120 -47q48 0 87 12.5t80 44.5t79 74q38 40 96 112l210 -147q-144 -174 -270 -249q-128 -76 -282 -76q-98 0 -183 36t-138 100q-91 112 -113 298z" />
<glyph unicode="D" horiz-adv-x="1236" d="M-26 20l348 1582h401q74 0 135.5 -17t106 -45t79 -68t56.5 -85t36 -97.5t19.5 -102t5.5 -103.5q0 -65 -11 -172q-12 -106 -26 -168q-17 -76 -38.5 -147.5t-56 -150t-76 -145t-98.5 -128t-123.5 -104.5t-153 -68t-182.5 -25q-62 0 -127.5 5.5t-132.5 15.5q-68 9 -162 23z M262 207q56 -2 170 -2q56 0 108 22.5t93 61.5t77 92t63 113.5t50 127t38 131.5t25 128t14.5 115t4.5 94q0 48 -4.5 89t-18 82t-34 70t-54.5 47t-79 18h-189z" />
<glyph unicode="E" horiz-adv-x="1120" d="M-49 0l354 1602h819l-53 -228h-569l-100 -462h430l-56 -224h-422l-100 -456h717l-55 -232h-965z" />
<glyph unicode="F" d="M-14 0l352 1602h776l-55 -232h-517l-104 -467h408l-56 -227h-401l-147 -676h-256z" />
<glyph unicode="G" horiz-adv-x="1185" d="M7 428q-1 24 -1 49q0 72 7 145q9 98 30 193q26 116 60.5 216.5t72.5 175.5t82.5 136.5t87.5 104t90.5 75t88.5 51t84.5 30.5t76.5 16q34 4 66 4q70 0 180 -13t186 -25l76 -13l-88 -399h-240l52 222l-164 5h-9q-43 0 -84 -17q-45 -18 -83 -50t-73 -79t-64 -101.5t-54 -119 t-44.5 -129.5t-35.5 -135q-23 -102 -35 -189q-10 -75 -10 -144v-23q2 -81 24 -125q18 -35 54 -59.5t76 -24.5h3q142 0 243 81l59 273l-239 51l28 162h510l-172 -772h-133l-21 98q-68 -54 -149 -88t-143 -34q-96 0 -166 32t-130 102q-46 52 -71 136.5t-28 181.5z" />
<glyph unicode="H" horiz-adv-x="1492" d="M-14 0l348 1602h258l-154 -699h662l156 699h256l-353 -1602h-256l147 676h-663l-147 -676h-254z" />
<glyph unicode="I" horiz-adv-x="630" d="M4 0l352 1602h254l-348 -1602h-258z" />
<glyph unicode="J" horiz-adv-x="698" d="M-432 -62q233 0 368.5 93t171.5 260l292 1311h249l-295 -1362q-56 -257 -260 -397t-526 -140v235z" />
<glyph unicode="K" horiz-adv-x="1275" d="M-12 0l348 1602h256l-174 -797l729 860l172 -153l-633 -738l213 -542h170v-232h-329l-222 574l-204 -236l-74 -338h-252z" />
<glyph unicode="L" horiz-adv-x="978" d="M-18 0l352 1602h250l-302 -1376h542l-50 -226h-792z" />
<glyph unicode="M" horiz-adv-x="1589" d="M-28 0l356 1602h231l221 -752l560 752h258l-353 -1602h-256l233 1065l-407 -527h-176l-172 570l-239 -1108h-256z" />
<glyph unicode="N" horiz-adv-x="1476" d="M0 0l348 1602h244l376 -1125l246 1125h256l-352 -1602h-244l-374 1120l-248 -1120h-252z" />
<glyph unicode="O" horiz-adv-x="1263" d="M14 512q0 68 10.5 146t31.5 160t50.5 164.5t71 162t90 150.5t109.5 131.5t127 104t145.5 68.5t163.5 25q23 0 59 -4q58 -8 108 -30t87 -55t66 -76t48 -89t31 -97t17.5 -98t5.5 -93q0 -62 -8.5 -134t-26.5 -153t-44 -162.5t-64.5 -162t-84 -153.5t-105.5 -136t-127 -108 t-150 -71t-173 -26q-69 0 -128.5 17t-103.5 47t-79 72t-58.5 89t-39 101t-22.5 106t-7 104zM282 512q0 -32 3 -63t9.5 -66.5t19 -65t30.5 -54.5t46 -39.5t62 -14.5q58 0 113.5 24.5t102 68t88 102t74 125.5t59.5 140t44 145.5t26 141t9 126.5q0 41 -3 78.5t-12 78t-24 72 t-39 55.5t-56 33q-24 6 -38 6q-54 0 -106 -21.5t-95 -59.5t-82 -89t-70 -111t-57 -126t-45 -132t-32 -130t-20 -121t-7 -103z" />
<glyph unicode="P" horiz-adv-x="1144" d="M-22 0l346 1583q90 16 200 28.5t176 12.5q230 0 351 -95.5t123 -283.5q0 -74 -13 -143q-50 -268 -234.5 -419t-474.5 -151q-38 0 -104 4l-114 -536h-256zM400 760q8 0 25 -1t25 -1q98 0 178 29t137 81t94 123t55 160q10 51 10 94q0 52 -17 86.5t-51 52.5t-76 25.5 t-100 7.5q-44 0 -146 -16z" />
<glyph unicode="Q" horiz-adv-x="1331" d="M6 512q0 62 8.5 131t24 142.5t40.5 148t56 147.5t71.5 141t87 129t103.5 111t119 86t135 56t150 20h25t34 -4q80 -12 143 -51t103.5 -92t67 -121.5t37.5 -136t11 -137.5q0 -72 -10 -155t-33.5 -177t-57.5 -185t-84.5 -180.5t-111.5 -163.5t-143 -132.5t-174 -88.5 l184 -152l-196 -202l-246 338q-90 20 -158.5 71t-108 124t-59.5 157q-18 80 -18 167v9zM270 512q0 -27 2 -52t6 -56.5t11 -57.5t20 -52t30 -44t42 -29.5t55 -11.5q58 0 114 24.5t102 68t89 102t76.5 125.5t61 140t45 145.5t27 141t9.5 126.5q0 52 -6 99t-20 94t-40 80 t-64 44q-26 6 -38 6q-62 0 -120 -27.5t-105 -74.5t-89 -109t-74 -134t-58 -147t-42 -148t-25 -137t-9 -116z" />
<glyph unicode="R" horiz-adv-x="1228" d="M-12 0l346 1579q192 45 374 45q50 0 98 -5t96.5 -17.5t91 -31t79.5 -46.5t64 -64t42 -84t15 -104t-14 -119q-28 -128 -107 -230.5t-195 -158.5q58 -98 89 -225t31 -253v-286h-252v286q0 116 -30 223t-81 179q-77 -12 -149 -12q-60 0 -86 2l-154 -678h-258zM442 889h82 q53 0 103.5 11t99.5 35.5t88.5 60.5t70 89t44.5 119q8 41 8 80q0 63 -61 99.5t-169 36.5q-84 0 -161 -15z" />
<glyph unicode="S" horiz-adv-x="1155" d="M-51 282l61 288h250l-55 -254q36 -46 105.5 -83t113.5 -37q64 0 120 26t95 70t61.5 103t22.5 125q0 44 -18 82t-48.5 66t-70 54.5t-83 51.5t-87.5 51.5t-83 59.5t-70 71t-49 90.5t-18 114.5q0 66 17 125.5t46.5 106t70 85t88.5 65.5t101 45t106.5 27t107.5 9 q114 0 221.5 -23t225.5 -69l-88 -377h-248l55 241q-86 16 -174 17q-114 0 -189 -68.5t-75 -176.5q-1 -60 71 -120q35 -28 132 -88q110 -68 163 -110q127 -104 155 -234q8 -40 9 -84q0 -121 -43 -224.5t-117.5 -176.5t-179 -114t-223.5 -41q-78 0 -149 22.5t-131 65 t-109 96.5t-90 122z" />
<glyph unicode="T" horiz-adv-x="942" d="M129 1374l57 228h930l-59 -228h-347l-317 -1374h-256l317 1374h-325z" />
<glyph unicode="U" horiz-adv-x="1284" d="M56 503q0 83 10 156t26 144l184 799h256l-196 -850q-8 -34 -14 -63t-13 -72.5t-10 -80t-3 -79.5t5.5 -77.5t19 -68t34 -55.5t53 -35.5t74.5 -13.5q53 0 102.5 20.5t89 54.5t75.5 83t63.5 101t51.5 112t40.5 114.5t29.5 110.5l186 799h258l-198 -850q-16 -70 -37.5 -138 t-55 -147t-73.5 -147.5t-95 -133t-118.5 -110.5t-146 -73t-172.5 -27q-98 0 -174 29.5t-123 79t-77 118.5t-42 143q-11 71 -11 150q1 4 1 7z" />
<glyph unicode="V" horiz-adv-x="1046" d="M131 0v1602h254v-1244h17l308 699q28 64 48.5 116.5t42 123.5t32.5 148t11 157h254q0 -82 -11 -163t-25 -143.5t-39.5 -134t-45 -118.5t-49.5 -113l-426 -930h-371z" />
<glyph unicode="W" horiz-adv-x="1763" d="M174 0v1602h254v-1238l444 922v316h252v-1225q23 47 65.5 131t73.5 145t73 150t72.5 160t63 159t53.5 164t35.5 159t16.5 157h254q-2 -94 -23 -202t-52.5 -209.5t-77 -217t-91 -214.5t-101.5 -212t-101 -199t-97 -186t-82 -162h-334v801l-378 -801h-320z" />
<glyph unicode="X" horiz-adv-x="1159" d="M-123 0l555 834l-158 768h266l74 -539l316 539h311l-541 -814l164 -788h-266l-76 570l-334 -570h-311z" />
<glyph unicode="Y" d="M106 1602h262l116 -694l417 694h305l-666 -982l-134 -620h-252l155 664z" />
<glyph unicode="Z" horiz-adv-x="1099" d="M-6 0l53 228q16 68 38.5 134.5t47.5 125t59 122.5t64 115t74 114t76.5 108t83 109.5t84 105.5t89 108.5t87.5 107.5h-535l51 224h854l-49 -224l-69 -86q-70 -86 -176 -222q-105 -134 -177 -232q-54 -72 -97 -138t-88.5 -145t-80.5 -163q-35 -82 -55 -164h618l-53 -228 h-899z" />
<glyph unicode="[" horiz-adv-x="749" d="M-125 -152l418 1907h528l-29 -139h-292l-363 -1630h293l-26 -138h-529z" />
<glyph unicode="\" horiz-adv-x="894" d="M223 1730h221l205 -1884h-221z" />
<glyph unicode="]" horiz-adv-x="749" d="M-211 -152l27 138h292l361 1630h-293l29 139h526l-415 -1907h-527z" />
<glyph unicode="^" horiz-adv-x="456" d="M-172 1306l342 294h200l160 -294h-239l-47 142l-146 -142h-270z" />
<glyph unicode="_" horiz-adv-x="1341" d="M-14 0h1356v-200h-1356v200z" />
<glyph unicode="`" horiz-adv-x="438" d="M-6 1602h252l57 -294h-159z" />
<glyph unicode="a" d="M-2 332q0 53 5.5 110.5t17.5 120.5t29.5 124t43.5 121t57 113t72 99t88 78t105 51q56 19 120 19q50 0 102.5 -13t96 -33t90.5 -43t85 -45l100 43q-10 -36 -76 -347l-66 -312q-14 -62 -18 -166q-4 -86 -3 -150v-28l1 -74h-252l16 203q-22 -36 -58 -74.5t-81 -73.5t-98 -57 t-101 -22q-86 0 -149 46t-95 126.5t-32 183.5zM242 370q-1 -17 -1 -34q1 -61 15 -106q18 -58 56 -58q22 0 45 7t42 18t40 30.5t37 36t35.5 44.5t32 46t30 49t26 47t24.5 46l84 397q-21 16 -37 27.5t-43.5 28t-54.5 25.5t-53 9q-40 0 -76 -24.5t-63 -65t-50 -95t-38 -111 t-26 -117t-17 -109.5t-8 -91z" />
<glyph unicode="b" d="M-2 254l286 1348h246l-126 -594q38 36 66.5 59t68.5 49t82.5 39t86.5 13q61 0 108 -15t78 -41t50.5 -66t28 -86t8.5 -104q-1 -140 -27 -266q-12 -60 -27.5 -114t-40 -117.5t-54.5 -116.5t-72 -103.5t-90.5 -85.5t-113 -56t-136.5 -21q-59 0 -115.5 16.5t-101.5 44 t-85 64.5t-69 74.5t-51 78.5zM244 262q89 -88 180 -88q47 0 90 33t75.5 89t59.5 128t44 150t26.5 154.5t9.5 143.5q0 20 -5.5 39.5t-20.5 35t-35 15.5q-35 0 -80.5 -25t-90.5 -66t-88 -93t-77 -106z" />
<glyph unicode="c" horiz-adv-x="864" d="M2 389q0 92 17 185.5t48.5 180.5t79 162t104.5 131t130 88t151 32q45 0 152.5 -13.5t195.5 -28.5l-75 -350h-183v190h-102q-56 0 -107.5 -58.5t-86 -145t-55.5 -183.5t-21 -175q0 -32 3 -65t10.5 -75t26 -68t44.5 -26q28 0 53.5 11.5t44 28t35.5 43t28.5 49t24.5 52.5 l199 -106q-28 -44 -54.5 -78.5t-65.5 -72.5t-79 -63.5t-92 -41.5t-110 -16q-316 0 -316 413z" />
<glyph unicode="d" horiz-adv-x="1083" d="M14 336q0 46 5 99t15 114t26 122t40 122t54 116t71 102.5t88 82t107 54.5t127 20q123 0 256 -70l111 504h243l-344 -1602h-243l40 188q-20 -28 -53 -62t-77 -69t-95 -58t-96 -23q-275 0 -275 360zM256 340q1 -40 8 -73t22 -55q16 -22 36 -22q42 0 90.5 26.5t94 70 t86.5 95.5q41 54 75 110l88 397q-21 22 -90.5 58t-120.5 36q-46 0 -86.5 -27.5t-69.5 -72.5t-53 -104t-38.5 -120t-24 -123t-13.5 -111t-4 -85z" />
<glyph unicode="e" horiz-adv-x="942" d="M20 383q0 83 12 164t36 159t58.5 147t83 126.5t106.5 99.5t132 65.5t156 23.5q86 0 151 -22.5t103.5 -62.5t57 -91t18.5 -112q0 -54 -24 -104.5t-63.5 -91.5t-94.5 -78.5t-114.5 -66.5t-125.5 -53.5t-124 -41t-116 -28.5q-2 -34 -2 -69t7 -67t18.5 -57t32.5 -40t49 -15 q81 0 134 53.5t87 155.5l228 -76q-75 -150 -196.5 -237.5t-273.5 -87.5q-170 0 -253 105t-83 302zM297 602q61 14 125 39t120 57t95 72t45 78q4 19 4 37v15q-2 24 -11 42.5t-27 29.5t-44 11q-48 0 -92.5 -21.5t-79 -58.5t-62.5 -86t-46 -104t-27 -111z" />
<glyph unicode="f" horiz-adv-x="733" d="M-131 -444l301 1382h-117v207h164q20 90 49.5 159.5t77.5 131.5t112 102t155 63t206 23q31 0 119 -13l88 -13l-62 -232l-258 45q-42 0 -77 -14.5t-60 -39t-45 -60t-32.5 -72t-22.5 -80.5h287v-207h-334l-304 -1382h-247z" />
<glyph unicode="g" horiz-adv-x="1083" d="M10 -207h27q98 0 181 13q93 14 164.5 44t118.5 79t64 114l23 84q-152 -151 -297 -151q-51 0 -96 21t-77 57t-55.5 81.5t-35 94t-11.5 94.5q0 60 9 130.5t30 153t51 160.5t76 151t103 128t135 88t166 33q78 0 145 -26t135 -71l92 117l150 -123l-119 -174l-195 -891 q-16 -76 -49 -139t-76 -108.5t-100 -80t-119 -56.5t-136.5 -36t-147 -19t-156.5 -5v237zM260 326q0 -22 3 -44t9.5 -45t21 -37t34.5 -14q35 0 70.5 16t66.5 40t65.5 62t62 75.5t61.5 87.5l94 436q-34 31 -88 53q-52 23 -92 23q-48 0 -92 -35t-77 -92.5t-60 -128t-44 -144 t-26 -139.5t-9 -114z" />
<glyph unicode="h" horiz-adv-x="1185" d="M0 0l350 1602h248l-146 -672q34 36 62 63.5t70.5 62.5t82 57.5t89 38.5t98.5 16q38 0 70.5 -10t56.5 -27.5t43.5 -41t30.5 -52t18 -59.5q7 -29 7 -58q0 -31 -5 -68q-9 -43 -27 -131l-159 -721h-250l191 852q5 21 6 39t-1 33.5t-10.5 24.5t-23.5 9q-41 0 -100 -32 t-116 -80t-108 -101t-84 -98l-143 -647h-250z" />
<glyph unicode="i" horiz-adv-x="542" d="M-24 0l250 1145h249l-252 -1145h-247zM248 1250l78 352h250l-80 -352h-248z" />
<glyph unicode="j" horiz-adv-x="585" d="M-258 -295q266 189 330 489l206 951h248l-217 -999q-40 -186 -136 -336q-95 -150 -269 -294zM301 1250l78 352h247l-77 -352h-248z" />
<glyph unicode="k" horiz-adv-x="1013" d="M-47 0l350 1602h248l-213 -967q78 59 140 118t112 123t89 127t79 142h268q-16 -63 -63.5 -143.5t-105 -152.5t-116.5 -132.5t-104 -94.5q34 -152 111 -302q76 -148 174 -254l-180 -146q-54 50 -116 151t-111 213t-67 198q-20 -14 -77 -62t-93 -66l-78 -354h-247z" />
<glyph unicode="l" horiz-adv-x="538" d="M43 383l23 107l239 1112h246l-250 -1137q-10 -49 -13 -83t1 -59t18.5 -41.5t33.5 -28t50 -21.5l-21 -82q-22 -81 -42 -150q-22 0 -47 4t-39 8l-14 4q-108 30 -161 129q-34 64 -34 145q0 44 10 93z" />
<glyph unicode="m" horiz-adv-x="1624" d="M-43 0l254 1145h197l-31 -252q38 52 68.5 88.5t69.5 74t74 60t79 37.5t90 15q36 0 67 -12.5t51 -31t36 -44.5t24.5 -51t14 -51.5t7.5 -43t2 -31.5q47 60 90.5 104.5t92.5 82.5t101 58t104 20q55 0 99.5 -27t70.5 -70q28 -43 38 -99q6 -32 5 -65q0 -25 -3 -51 q-4 -24 -26 -135l-80 -357q-19 -84 -32 -191t-13 -173h-258q0 57 17 168q16 110 36 196l115 490q3 13 5 28t2 33.5t-7 30.5t-21 12q-23 0 -54 -15.5t-67.5 -45t-68.5 -59.5t-71 -71.5t-61 -66t-50 -57.5l-138 -643h-248l189 854q2 13 3.5 28.5t1.5 33.5t-6 30q-8 12 -20 12 q-22 0 -49.5 -13t-53 -31t-57.5 -48.5t-55 -54.5t-55 -61.5t-47 -56t-41 -50.5l-143 -643h-248z" />
<glyph unicode="n" d="M-39 0l252 1145h221l-20 -213q28 38 53 68t59.5 63t68.5 54.5t76.5 36t86.5 14.5q42 0 78.5 -13.5t63 -36t47 -53t30 -65t13.5 -70.5q2 -13 3 -26q0 -23 -6 -44q-17 -94 -25 -129q-58 -245 -84 -388q-24 -143 -42 -343h-250q4 74 13 152.5t26 165.5t30 149.5t36 164.5 t34 150q4 22 10.5 45t8.5 33q1 6 2 12.5t1.5 14t1.5 14.5t0.5 14t-1.5 13t-3.5 11t-6.5 9t-10 6t-13 2q-38 0 -91.5 -33t-104.5 -83.5t-95 -102t-72 -94.5l-143 -643h-248z" />
<glyph unicode="o" horiz-adv-x="948" d="M-14 379q0 47 6 100t18.5 111t31.5 116t46.5 115t60.5 108.5t76.5 95t92.5 75.5t109.5 50t127.5 18q79 0 141 -25t101 -65t64.5 -95t36 -112t10.5 -121q0 -48 -6 -101.5t-19 -111t-32 -114.5t-47 -113t-61 -105.5t-76 -91.5t-92 -72.5t-110 -47.5t-127 -17q-79 0 -141 23 t-101 61.5t-64.5 92t-35.5 109t-10 117.5zM228 341.5q0 -13.5 2 -40t6 -43t13 -37.5t20.5 -33t30 -20t42.5 -8q51 0 95.5 23t76.5 62t58.5 91t43 107t28.5 112t17 106t5 89q0 30 -2 57t-7 55t-14 50t-21 40t-30 27.5t-41 9.5q-50 0 -94.5 -24.5t-77 -65.5t-59 -95 t-43.5 -111.5t-28.5 -116.5t-16 -108.5t-4.5 -88.5v-37.5z" />
<glyph unicode="p" horiz-adv-x="1116" d="M-114 -444l354 1589h200l-2 -162q74 78 171 131.5t181 53.5q58 0 104 -19t74 -50t46 -73.5t25 -85.5t7 -90q0 -118 -30 -266q-8 -38 -17 -75t-24 -84t-33 -89.5t-42.5 -89t-53 -84.5t-65.5 -73.5t-79 -60t-94 -38.5t-108 -14q-58 0 -131.5 28t-114.5 72l-114 -520h-254z M291 244q71 -76 197 -76q49 0 92.5 33t75.5 89.5t57.5 126.5t41.5 147.5t24.5 149t10.5 134.5v21v27q-2 20 -8 37.5t-17.5 26t-29.5 8.5q-56 0 -157.5 -75t-186.5 -183q-2 -7 -5.5 -29.5t-10.5 -57t-29 -134t-55 -245.5z" />
<glyph unicode="q" horiz-adv-x="1185" d="M90 324q0 67 8.5 141.5t28 157t48.5 160t73 147.5t97 123t125 84t154 31q22 0 44 -3.5t42 -9.5t40.5 -14t39 -17t37.5 -19q19 -9 37 -19l18 59h250l-352 -1589h-256l146 612q-8 -8 -28 -27.5t-29 -28t-28 -26t-30 -26t-30 -22.5t-33 -21t-34 -16.5t-38 -14t-40 -7.5 t-44 -3q-58 0 -102.5 21.5t-71 55.5t-43.5 81.5t-23 92.5t-6 97zM336 316q0 -19 3 -39.5t9 -41t18 -34t30 -13.5q42 0 91 30t95 78.5t84 98.5q38 51 69 101l84 372q-5 4 -14 12.5t-15 12.5q-38 30 -89 56t-89 26q-41 0 -76.5 -20.5t-61.5 -56.5t-48 -83t-36.5 -101 t-25 -108.5t-16.5 -109.5t-9 -99q-3 -43 -3 -81z" />
<glyph unicode="r" horiz-adv-x="878" d="M-45 0l250 1145h203l-2 -237q150 260 296 260q56 0 98 -21t67 -59t37 -87t12 -112v-78l-206 35v43q0 55 -38 55q-101 0 -365 -475l-104 -469h-248z" />
<glyph unicode="s" horiz-adv-x="790" d="M-22 47l46 299h179v-160l94 -42q32 0 55.5 14t35.5 38t18 52t6 61q0 40 -16 76.5t-41 66.5t-55 60t-61 64t-56 71t-40.5 88t-15.5 109q0 43 14.5 87.5t45.5 86.5t75 75.5t108.5 54t139.5 20.5q60 0 148.5 -21t131.5 -43l-44 -299h-172v159l-99 34q-31 2 -57 -21t-40 -57 t-14 -70t17 -70t43 -61t57.5 -55t63 -61t57.5 -70.5t43 -90.5q17 -52 17 -114q0 -103 -48 -183.5t-135 -124.5t-199 -44q-62 0 -146 21t-156 50z" />
<glyph unicode="t" horiz-adv-x="784" d="M98 268q2 28 12 82l126 584h-136v211h182l60 262l268 53l-72 -315h275v-211h-321l-136 -606q-5 -22 -7.5 -37t-4.5 -33t-1 -29.5t5 -22t12 -15.5t21 -5q45 0 79 39t58 105l142 -84q-14 -36 -34 -72t-50 -72t-64 -64t-79 -45t-93 -17q-57 0 -101 15t-72.5 41t-45.5 64 t-22 80q-3 24 -3 49q0 21 2 43z" />
<glyph unicode="u" d="M28 316q0 76 28 194l140 635h252l-155 -684q-9 -37 -23 -145q-4 -14 -2 -35t5 -40t15 -33t28 -14q19 0 39 8t38.5 18t39.5 30t37.5 36.5t38 44t35 45.5t34.5 49t30.5 46t28.5 45.5t25 38.5l124 590h250l-166 -749l-51 -396h-256l33 219q-2 -2 -16 -23.5t-20 -29.5 t-22.5 -30.5t-26.5 -34t-28.5 -31t-32.5 -30.5t-34 -25t-38 -21.5t-40 -12.5t-43 -5q-46 0 -84.5 11t-66 30t-48 46t-33.5 56.5t-21 64t-11 66.5t-3 66z" />
<glyph unicode="v" horiz-adv-x="890" d="M108 0v1145h234v-863h28q24 34 65.5 129t70.5 171l28 78q45 102 76.5 235t36.5 250h252q0 -138 -45 -305q-44 -166 -116 -302l-284 -538h-346z" />
<glyph unicode="w" horiz-adv-x="1456" d="M88 0v1145h242v-764l328 483v281h237v-764l193 250q74 97 104 241q18 89 19 173q0 51 -7 100h242q6 -37 7 -59q0 -11 1 -21q0 -9 -1 -19q-1 -18 -1 -22q0 -336 -180 -545q-20 -22 -109.5 -123.5t-156 -181.5t-138.5 -174h-202v522l-375 -522h-203z" />
<glyph unicode="x" horiz-adv-x="1067" d="M-66 0l412 596l-209 549h279l96 -363l205 363h311l-397 -577l217 -568h-278l-107 381l-215 -381h-314z" />
<glyph unicode="y" horiz-adv-x="937" d="M-344 -205q134 0 252 51.5t232 153.5v1145h241v-885q82 108 141 209t102.5 210t64.5 225t21 241h256v-80q0 -99 -29 -218t-81 -243t-128 -251t-166 -243t-198 -218t-221 -176t-239 -117t-248 -43v239z" />
<glyph unicode="z" horiz-adv-x="894" d="M-37 162l577 776l-403 -12l59 219h586l88 -162l-561 -768l408 19l-61 -234h-600z" />
<glyph unicode="{" horiz-adv-x="749" d="M160 731l30 145q32 0 62 17t53.5 45.5t44 67.5t34.5 82q16 44 26 94l67 317q24 117 92.5 186.5t155.5 69.5h256l-29 -139h-120q-19 0 -32 -3t-29.5 -15.5t-29.5 -35.5t-27 -65.5t-26 -102.5l-55 -268q-25 -119 -88 -213.5t-131 -130.5l-2 -6q34 -23 57 -72.5t29 -119.5 t-12 -152l-50 -221q-13 -60 -17 -102t-1.5 -64.5t13.5 -34.5t22 -15t31 -3h120l-28 -140h-254q-44 0 -77 22t-49 59t-20 85.5t8 102.5l64 303q12 62 15 115t-5 97t-33 69t-65 26z" />
<glyph unicode="|" horiz-adv-x="749" d="M84 -152l406 1907h222l-405 -1907h-223z" />
<glyph unicode="}" horiz-adv-x="749" d="M-217 -148l27 140h120q19 0 32.5 3t30.5 15t30.5 34.5t28.5 64.5t28 102l57 266q26 120 86.5 214.5t128.5 129.5l2 7q-54 36 -76 127t2 217l48 222q10 50 15 88t3 62t-6 39t-14 22t-20 9t-26 2h-120l26 139h256q86 0 125 -69.5t15 -186.5l-66 -317q-12 -62 -15 -115 t5 -96.5t33 -69t65 -25.5l-30 -145q-40 0 -76 -25.5t-63 -69.5t-47 -97t-34 -115l-65 -303q-26 -120 -94.5 -194.5t-155.5 -74.5h-256z" />
<glyph unicode="~" horiz-adv-x="1185" d="M8 534q38 51 81 94.5t92 79.5t102.5 56t105.5 20q44 0 111.5 -22t124.5 -49t117 -49.5t92 -22.5q54 0 112 37.5t100 107.5l134 -104q-32 -41 -63 -73.5t-71 -66.5t-81 -56.5t-91 -37t-102 -14.5q-37 0 -76.5 10t-71.5 26t-70 34t-71.5 33.5t-76 26t-82.5 10.5 q-28 0 -56 -12.5t-55 -36t-48 -46t-46 -53.5z" />
<glyph unicode="&#xa1;" horiz-adv-x="604" d="M-86 -434l282 1136h185l-197 -1136h-270zM203 828l75 340h220l-76 -340h-219z" />
<glyph unicode="&#xa2;" horiz-adv-x="864" d="M-2 406q0 46 6.5 101t22 120.5t38.5 129t58.5 124.5t79 110t103.5 84t128 45l50 308h266l-86 -312q18 -1 37 -3t61 -7q42 -4 76 -8l-78 -354h-182l10 172l-90 28q-42 0 -79 -31t-62 -80.5t-44.5 -109t-30.5 -121.5t-16.5 -112t-5.5 -84q0 -32 1 -57t5 -54t11 -48.5 t21 -32.5q14 -14 32 -14q94 0 180 204l215 -136q-74 -104 -149.5 -164t-163.5 -78l-44 -290h-270l86 315q-50 25 -87 67t-58 91.5t-31 99t-10 97.5z" />
<glyph unicode="&#xa3;" horiz-adv-x="1185" d="M-94 78q38 74 112 144t158 100q78 214 94 284q14 60 14 98l-190 -22l43 198l111 -4q-2 11 -10.5 41.5t-15 55.5t-13.5 61t-10 67t-3 66t7 64q15 70 43.5 128.5t63.5 97.5t78 70t83.5 49t84.5 29t76 15t62 4q103 0 198.5 -21t205.5 -75l-88 -406h-186l18 281 q-102 27 -188 27q-28 0 -57 -11t-58 -32.5t-52 -62t-35 -93.5q-4 -22 -4 -51t3 -56.5t9 -62.5t11 -61t12 -58t11 -49l296 31l-48 -207l-242 -2q0 -35 -6 -63q-10 -47 -45 -142t-70 -176q34 -8 99.5 -40.5t124.5 -60.5t85 -28q19 0 34.5 2.5t37.5 10.5t43 22t48 41t54 63 l70 -168q-25 -26 -39 -40.5t-41 -39t-46.5 -38.5t-49 -32t-56 -27.5t-60 -16t-69.5 -6.5q-39 0 -82.5 14t-83 34l-79 40t-84.5 34t-85 14q-39 0 -90.5 -36t-103.5 -100z" />
<glyph unicode="&#xa4;" horiz-adv-x="1185" d="M39 555l39 187l133 -7l25 119l-134 -2l44 202l140 -8q30 88 71.5 169.5t97.5 157t119.5 130.5t142.5 88t161 33q136 0 226.5 -79.5t126.5 -227.5l-260 -95q-16 96 -53.5 140.5t-85.5 44.5q-80 0 -161 -93.5t-143 -271.5l424 15l-44 -207l-431 8l-27 -127l298 13l-42 -191 l-282 10q-15 -170 28.5 -270.5t121.5 -100.5q70 0 132 59t90 145l224 -97q-43 -70 -96.5 -127.5t-115.5 -102t-134 -69t-146 -24.5q-54 0 -100 13.5t-80 38t-63 59t-47 76t-32 89.5t-19 98.5t-7 103.5t2 105z" />
<glyph unicode="&#xa5;" d="M106 410l44 202h248l12 60l-21 76h-215l45 206h125l-146 648h263l123 -692h2l424 692h305l-445 -648h124l-48 -206h-221l-67 -99l-17 -37h279l-44 -202h-276l-94 -410h-250l94 410h-244z" />
<glyph unicode="&#xa6;" horiz-adv-x="460" d="M-84 -152l168 783h221l-165 -783h-224zM156 975l166 780h223l-166 -780h-223z" />
<glyph unicode="&#xa7;" horiz-adv-x="1185" d="M-98 -96l92 326h164v-179q48 -10 108 -10q26 0 50 7t49 23t44 48.5t27 78.5q5 28 -9.5 70t-42 89t-61 99t-66.5 107.5t-58 109t-37 107.5t-2 100q7 34 20 67t28.5 60t43.5 63t50 63t64 73q0 40 4 74q36 282 278 332q60 12 163 12q59 0 153 -17.5t162 -37.5l-72 -324h-176 v175q-48 10 -108 10q-29 0 -52.5 -6.5t-45.5 -22t-38 -45t-24 -72.5q-6 -38 4 -80.5t32 -83t50 -85.5t58 -88t57 -92t46 -96t26 -99t-5 -103q-9 -42 -24.5 -79.5t-43.5 -76.5t-56 -71t-76 -82q0 -42 -4 -58q-52 -248 -259 -316q-77 -26 -187 -26q-52 0 -115 9.5t-105 19 t-106 27.5zM377.5 868q1.5 -37 10.5 -70.5t27.5 -71.5t38.5 -71t44 -68t44 -63t38 -57t28 -49l41 106q12 30 12 63t-8.5 63t-24.5 64t-36 64.5t-43.5 65t-45 63.5t-43.5 62.5t-36 60.5l-35 -94q-13 -31 -11.5 -68z" />
<glyph unicode="&#xa8;" d="M221 1294l63 308h202l-64 -308h-201zM549 1294l63 308h201l-63 -308h-201z" />
<glyph unicode="&#xa9;" horiz-adv-x="1935" d="M160 671.5q0 71.5 14 143.5q20 106 66.5 207.5t112 188.5t149.5 159.5t178.5 123t201 79.5t214.5 29q89 0 170 -17t149 -49t125.5 -77t101.5 -101t74.5 -122.5t46 -139t15.5 -153.5t-16 -163q-22 -110 -68 -212t-111 -188t-149 -157t-179 -120t-205 -76 q-108 -27 -222 -27q-74 0 -144 13.5t-130 39t-114 61.5t-97.5 82t-78 99t-57.5 114t-35 126t-12 136.5zM355 646.5q1 -64.5 18 -123.5t45 -109t70 -91t93 -70t114 -45t133 -16q86 0 171 22t161 62t144 97t120.5 125.5t90 149.5t54.5 167q13 72 13 139t-16 127t-44 111.5 t-71 92.5t-95.5 70t-119 44.5t-140.5 15.5q-100 0 -200 -32.5t-186 -91.5t-156.5 -137t-119 -174t-68.5 -200q-12 -69 -11 -133.5zM598 710q0 70 18 136t56 124.5t90 102t124 69.5t156 26q134 0 281 -13l-63 -273h-162v132q-26 2 -78 2q-40 0 -74.5 -17t-59 -46t-42.5 -66.5 t-26.5 -79t-8.5 -82.5q0 -52 23 -87.5t67 -35.5q52 0 99 38q46 40 84 102l178 -64q-166 -242 -392 -242q-55 0 -103.5 18.5t-85.5 52.5t-59 86.5t-22 116.5z" />
<glyph unicode="&#xaa;" horiz-adv-x="894" d="M84 975q0 64 10 129.5t30 130.5t49.5 124t71 109.5t91.5 87t114 57.5t136 21q78 0 168.5 -5t132.5 -19l-203 -875h-180l14 137q-130 -140 -238 -139q-43 0 -76.5 13t-55.5 35t-37 53.5t-21 66t-6 74.5zM272 983q0 -32 12 -50.5t32 -18.5q32 0 77.5 42t85 97.5t69.5 108.5 q32 52 38 75q14 53 51 215q-24 2 -76 2q-46 0 -85.5 -17.5t-68 -47t-52 -69.5t-38.5 -83t-25.5 -89t-15 -87t-4.5 -78z" />
<glyph unicode="&#xab;" d="M-96 628l520 538h272l-544 -542l325 -484h-247zM314 616l540 552h280l-569 -556l338 -472h-264z" />
<glyph unicode="&#xac;" horiz-adv-x="894" d="M96 436l37 195h665l-104 -502h-198l63 307h-463z" />
<glyph unicode="&#xad;" d="M158 582l42 198h546l-44 -198h-544z" />
<glyph unicode="&#xae;" horiz-adv-x="1935" d="M159.5 671.5q0.5 71.5 14.5 143.5q20 106 66.5 207.5t112 188.5t149.5 159.5t178.5 123t201 79.5t214.5 29q89 0 170 -17t149 -49t125.5 -77t101.5 -101t74.5 -122.5t46 -139t15.5 -153.5t-16 -163q-22 -110 -68.5 -212t-111.5 -188t-149 -157t-179.5 -120t-205.5 -76 q-108 -27 -222 -27q-74 0 -144 13.5t-130 39t-114 61.5t-97 82t-77.5 99t-57 114t-35 126t-12 136.5zM353 646.5q1 -64.5 18 -123.5t45 -109t70 -91t93 -70t114 -45t133 -16q129 0 253.5 49t223.5 132t170 198.5t96 243.5q12 62 12.5 122t-10 113.5t-32 102t-52 89t-72 72.5 t-90 54.5t-107 34.5t-122.5 12q-100 0 -200 -32.5t-186 -91.5t-157 -137t-120 -174t-69 -200q-12 -69 -11 -133.5zM588 428l160 725q120 35 280 35q45 0 89.5 -8t85.5 -25t72 -40.5t50 -57.5t19 -74q0 -74 -50 -135q-50 -60 -122 -92q41 -52 66 -112q26 -60 26 -102v-29 t-2 -39q-2 -23 -8 -46h-220q16 77 16 135q0 100 -32 152l-168 -11l-62 -276h-200zM882 842q26 0 58 2.5t68 12t65 23.5t48 38.5t19 54.5q0 61 -153 61q-39 0 -61 -2z" />
<glyph unicode="&#xaf;" horiz-adv-x="456" d="M-84 1407l39 193h585l-38 -193h-586z" />
<glyph unicode="&#xb0;" horiz-adv-x="894" d="M84 1159q0 62 20 125.5t58 120.5t90 101t121 70t145 26q133 0 203.5 -70t70.5 -192q0 -82 -31.5 -162t-87 -143.5t-138.5 -102.5t-177 -39q-130 0 -202 72.5t-72 193.5zM291 1157q0 -37 22.5 -64.5t52.5 -27.5q46 0 88 26t70 66.5t45 89.5t17 95q0 40 -21 66t-51 26 q-45 0 -87.5 -26t-71.5 -66t-46.5 -89t-17.5 -96z" />
<glyph unicode="&#xb1;" horiz-adv-x="1331" d="M22 144l44 184h1102l-44 -184h-1102zM140 692l40 195h453l61 281h193l-61 -281h458l-43 -195h-457l-59 -280h-193l60 280h-452z" />
<glyph unicode="&#xb2;" horiz-adv-x="894" d="M166 738l22 106q20 98 91 196.5t171 188.5q6 5 32 26t48 40t47 42t39.5 43t14.5 33q0 24 -21 34.5t-45 10.5q-15 0 -63 -8l-27 -123h-170l49 221q52 36 123 56t121 20q33 0 65.5 -6.5t63.5 -21t54.5 -36t38 -53t14.5 -69.5q0 -23 -7 -46.5t-15 -42t-25.5 -42t-29.5 -37.5 t-37.5 -38t-37.5 -35t-41 -36q-80 -70 -139.5 -132.5t-93.5 -127.5q10 0 42 2.5t60 4.5t43 2l35 84h133l-57 -256h-498z" />
<glyph unicode="&#xb3;" horiz-adv-x="894" d="M125 715l57 264h148v-88q38 6 71 19.5t61 32.5t44 46t16 59q0 19 -9.5 32t-27 18.5t-33.5 7.5t-38 2q-8 0 -18 -1q-12 -1 -42 -1l35 156l211 188h-141l-17 -70h-166l50 222h540l-38 -156l-248 -226q70 -3 111.5 -41.5t41.5 -109.5q0 -70 -32.5 -132.5t-84.5 -106.5 t-118 -70q-70 -28 -156 -36.5t-217 -8.5z" />
<glyph unicode="&#xb4;" horiz-adv-x="456" d="M56 1308l176 294h272l-272 -294h-176z" />
<glyph unicode="&#xb6;" horiz-adv-x="1476" d="M56 948q-6 68 12 138q26 110 96.5 207t168 164t218.5 106t247 39h622l-42 -185l-149 -43l-289 -1331q-14 -62 -32.5 -113.5t-49 -102.5t-71.5 -91t-99 -74.5t-131 -57t-170 -35.5t-213 -13q8 104 22 186q70 0 146 10l174 793q-74 4 -143 26t-123 58.5t-97 85.5t-66.5 108 t-30.5 125zM312 1010.5q2 -37.5 11 -72t30.5 -64t51 -52t71.5 -37t92 -17.5l136 606q-74 -6 -140.5 -32t-115.5 -65t-82.5 -89t-45.5 -102q-10 -38 -8 -75.5zM582 -172q14 8 17 9t16 9.5t17.5 13t16 16.5t17.5 22t15.5 27.5t16 36t13.5 44.5t14 56l281 1312h-86z" />
<glyph unicode="&#xb7;" horiz-adv-x="456" d="M82 555l72 334h210l-71 -334h-211z" />
<glyph unicode="&#xb8;" horiz-adv-x="456" d="M-102 -385l80 111q76 -30 145 -31q54 0 92.5 18.5t38.5 46.5q3 14 -12 28t-38.5 22t-45.5 8q-8 0 -18 -0.5t-20 -1.5t-25 -5q-15 -3 -33 -11l-21 52l164 148h180l-117 -110q30 0 55 -4t48.5 -13t39.5 -24t25.5 -40t9.5 -57q0 -38 -21.5 -71t-55 -55.5t-73.5 -39 t-76 -23.5t-64 -7q-59 0 -129.5 13.5t-128.5 45.5z" />
<glyph unicode="&#xb9;" horiz-adv-x="894" d="M106 729l40 170h136l90 409l-83 -44l-70 141l424 233l-161 -739h146l-34 -170h-488z" />
<glyph unicode="&#xba;" horiz-adv-x="894" d="M45 1067q0 68 16 136.5t45.5 131.5t73 117.5t96 95t118.5 63.5t138 23q92 0 160 -45.5t102 -122.5t34 -174q0 -80 -21.5 -160t-64 -152t-99.5 -127t-135 -87.5t-166 -32.5q-65 0 -121.5 26.5t-94.5 72t-59.5 106.5t-21.5 129zM258 1067q0 -29 5 -54.5t17 -49t34 -36.5 t52 -13q40 0 76.5 19t63 50.5t47.5 72t34.5 83.5t20 84t6.5 75q0 29 -4.5 54.5t-16 49.5t-33.5 38t-52 14q-40 0 -75.5 -19t-62 -51t-48.5 -72.5t-36 -84t-21 -84.5t-7 -76z" />
<glyph unicode="&#xbb;" d="M-203 140l586 534l-342 494h239l346 -502l-548 -526h-281zM236 140l552 526l-346 500h244l350 -508l-524 -518h-276z" />
<glyph unicode="&#xbc;" horiz-adv-x="1935" d="M74 729l38 170h138l90 409l-84 -44l-70 141l424 233l-162 -739h148l-35 -170h-487zM102 0l1290 1602h288l-1291 -1602h-287zM944 213l18 166l369 493h233l-235 -315l-121 -172h166l50 231h198l-47 -231h71l-36 -172h-76l-45 -213h-201l48 213h-392z" />
<glyph unicode="&#xbd;" horiz-adv-x="1935" d="M74 729l38 170h138l90 409l-84 -44l-70 141l424 233l-162 -739h148l-35 -170h-487zM102 0l1292 1602h288l-1293 -1602h-287zM1000 -2l22 106q22 98 92 197t170 189q4 3 42 34t63 53.5t50 51.5t25 45q0 23 -21 34t-44 11q-11 -1 -63 -9l-28 -122h-170l50 221 q52 36 123 55.5t121 19.5q33 0 65.5 -6t63.5 -21t54 -36t37.5 -53t14.5 -70q0 -23 -6.5 -46t-14.5 -41.5t-25.5 -41.5t-30 -38t-37.5 -38t-38 -35t-41 -36q-38 -33 -65 -59t-61 -60.5t-61 -70.5t-46 -70l145 8l36 84h132l-57 -256h-497z" />
<glyph unicode="&#xbe;" horiz-adv-x="1935" d="M114 715l58 264h148v-88q38 6 71 19.5t61 32.5t44 47q16 26 16 58q0 19 -9.5 32t-27 18.5t-33.5 7.5t-38 2q-7 0 -17.5 -1t-42.5 -1l35 156l211 188h-142l-16 -70h-166l50 222h540l-39 -156l-247 -226q70 -3 111.5 -41.5t41.5 -109.5q0 -70 -32.5 -132.5t-84.5 -106.5 t-118 -70q-70 -28 -156 -36.5t-218 -8.5zM127 0l1290 1602h283l-1290 -1602h-283zM968 213l19 166l371 493h231l-235 -315l-121 -172h166l49 231h198l-46 -231h71l-37 -172h-74l-46 -213h-199l45 213h-392z" />
<glyph unicode="&#xbf;" d="M45 -168q-3 40 6 88q14 70 52.5 138t88.5 118q40 40 88 79t85 66t76.5 57t71 61t59.5 69.5t50 91t36 117.5h224q-11 -52 -23 -94.5t-29.5 -82t-34 -69t-45 -64.5t-51.5 -60t-65.5 -62.5t-75.5 -65.5q-34 -27 -93 -75q-12 -8 -27.5 -21.5t-31.5 -27t-33 -33t-32 -40 t-26.5 -47.5t-17.5 -55q-4 -22 -5 -40t2.5 -37t15 -33t30 -26t48.5 -18t71 -6l135 33l47 215h239l-77 -340l-29 -17q-30 -18 -76 -38.5t-115 -37.5t-135 -17q-36 0 -69 3t-69 10t-67 17.5t-61 26.5t-53.5 36.5t-43 47.5t-28.5 60t-12 73zM672 828l72 340h241l-71 -340h-242z " />
<glyph unicode="&#xc0;" horiz-adv-x="1185" d="M-144 0l744 1602h391v-1602h-233v522h-396l-231 -522h-275zM461 748h297v596h-35zM604 1956h252l57 -294h-159z" />
<glyph unicode="&#xc1;" horiz-adv-x="1185" d="M-144 0l744 1602h391v-1602h-233v522h-396l-231 -522h-275zM461 748h297v596h-35zM662 1662l176 294h272l-272 -294h-176z" />
<glyph unicode="&#xc2;" horiz-adv-x="1185" d="M-144 0l744 1602h391v-1602h-233v522h-396l-231 -522h-275zM426 1670l338 294h200l156 -294h-240l-40 132l-144 -132h-270zM461 748h297v596h-35z" />
<glyph unicode="&#xc3;" horiz-adv-x="1185" d="M-144 0l744 1602h391v-1602h-233v522h-396l-231 -522h-275zM440 1688q14 44 40.5 85t62 73.5t81.5 52t97 19.5q44 0 91.5 -13.5t83.5 -26.5q34 -14 50 -14q18 0 30 15q14 15 30 47h190q-17 -34 -31 -58.5t-33.5 -52.5t-41.5 -46.5t-49 -35.5t-61 -25q-32 -8 -72 -8 q-29 0 -63.5 9t-60 19t-52 19t-42.5 9q-14 0 -34 -20t-21 -48h-195zM461 748h297v596h-35z" />
<glyph unicode="&#xc4;" horiz-adv-x="1185" d="M-144 0l744 1602h391v-1602h-233v522h-396l-231 -522h-275zM461 748h297v596h-35zM520 1642l63 308h202l-64 -308h-201zM848 1642l63 308h201l-63 -308h-201z" />
<glyph unicode="&#xc5;" horiz-adv-x="1185" d="M-144 0l744 1602h391v-1602h-233v522h-396l-231 -522h-275zM461 748h297v596h-35zM621.5 1796q-1.5 32 6.5 66q24 84 88 138t152 54q63 0 108.5 -31.5t63.5 -83.5t2 -111q-20 -83 -86 -137.5t-156 -54.5q-39 0 -71.5 13t-54.5 35t-36.5 51t-16 61zM758 1843q-9 -32 6 -54 t47 -22t61.5 23t38.5 55q10 32 -6.5 54t-48.5 22t-60 -23q-28 -22 -38 -55z" />
<glyph unicode="&#xc6;" horiz-adv-x="1882" d="M-144 0l951 1602h1079l-49 -228h-585l-101 -469h447l-48 -219h-446l-96 -458h688l-48 -228h-944l150 686h-320l-403 -686h-275zM666 905h237l103 471h-60z" />
<glyph unicode="&#xc7;" horiz-adv-x="1128" d="M6 -385l80 111q76 -30 146 -31q55 0 92.5 18.5t37.5 46.5q3 14 -11.5 28t-38 22t-46.5 8q-8 0 -18 -0.5t-20 -1.5t-25 -5q-15 -3 -33 -11l-20 52l164 148h180l-117 -110q30 0 54.5 -4t48.5 -13t40 -24t25.5 -40t9.5 -57q0 -38 -21.5 -71t-55.5 -55.5t-74 -39t-76 -23.5 t-64 -7q-59 0 -129.5 13.5t-128.5 45.5zM24.5 410q-20.5 186 31.5 414q34 148 80.5 269t96.5 202t109.5 143t112.5 96t111 55.5t101 28t87 6.5q248 0 460 -35l-96 -415h-200l16 212l-176 15q-54 4 -104 -18t-92 -66.5t-79.5 -104t-67.5 -133t-53.5 -151t-39.5 -160.5 q-22 -110 -30 -210t3 -184t43 -122q40 -47 121 -47q48 0 86.5 12.5t79.5 44.5t80 74t96 112l209 -147q-144 -174 -270.5 -249.5t-280.5 -75.5q-98 0 -183 36t-139 100q-92 112 -112.5 298z" />
<glyph unicode="&#xc8;" horiz-adv-x="1120" d="M-49 0l354 1602h819l-53 -228h-569l-100 -462h430l-56 -224h-422l-100 -456h717l-55 -232h-965zM557 1956h252l57 -294h-159z" />
<glyph unicode="&#xc9;" horiz-adv-x="1120" d="M-49 0l354 1602h819l-53 -228h-569l-100 -462h430l-56 -224h-422l-100 -456h717l-55 -232h-965zM580 1662l176 294h272l-272 -294h-176z" />
<glyph unicode="&#xca;" horiz-adv-x="1120" d="M-49 0l354 1602h819l-53 -228h-569l-100 -462h430l-56 -224h-422l-100 -456h717l-55 -232h-965zM410 1670l338 294h200l156 -294h-240l-40 132l-144 -132h-270z" />
<glyph unicode="&#xcb;" horiz-adv-x="1120" d="M-49 0l354 1602h819l-53 -228h-569l-100 -462h430l-56 -224h-422l-100 -456h717l-55 -232h-965zM483 1642l63 308h202l-64 -308h-201zM811 1642l63 308h201l-63 -308h-201z" />
<glyph unicode="&#xcc;" horiz-adv-x="630" d="M4 0l352 1602h254l-348 -1602h-258zM295 1956h252l57 -294h-159z" />
<glyph unicode="&#xcd;" horiz-adv-x="630" d="M4 0l352 1602h254l-348 -1602h-258zM370 1662l176 294h272l-272 -294h-176z" />
<glyph unicode="&#xce;" horiz-adv-x="630" d="M4 0l352 1602h254l-348 -1602h-258zM134 1670l338 294h200l156 -294h-240l-40 132l-144 -132h-270z" />
<glyph unicode="&#xcf;" horiz-adv-x="630" d="M4 0l352 1602h254l-348 -1602h-258zM225 1642l63 308h202l-64 -308h-201zM553 1642l63 308h201l-63 -308h-201z" />
<glyph unicode="&#xd0;" horiz-adv-x="1236" d="M-26 16l147 682h-133l40 210h140l154 694h405q74 0 136.5 -17t106.5 -45t79 -68t56.5 -85t35 -97.5t19.5 -102t6 -103.5q0 -64 -11 -170t-27 -170q-17 -76 -38.5 -147.5t-56 -150t-76 -145t-98.5 -128t-123.5 -104.5t-153 -68t-182.5 -25q-91 0 -180.5 9t-245.5 31z M266 207q56 -2 170 -2q56 0 108 22.5t93 61.5t77 92t63.5 113.5t50 127t37.5 131.5t25 128t15 115t5 94q0 39 -4 73.5t-12 70.5t-22.5 64.5t-35 51t-50.5 34.5t-67 12h-189l-108 -488h215l-41 -210h-219z" />
<glyph unicode="&#xd1;" horiz-adv-x="1476" d="M0 0l348 1602h244l376 -1125l246 1125h256l-352 -1602h-244l-374 1120l-248 -1120h-252zM532 1685q14 44 40.5 85t62 73.5t81.5 52t97 19.5q44 0 91.5 -13.5t83.5 -26.5q34 -14 50 -14q18 0 30 15q14 15 30 47h190q-17 -34 -31 -58.5t-33.5 -52.5t-41.5 -46.5t-49 -35.5 t-61 -25q-32 -8 -72 -8q-29 0 -63.5 9t-60 19t-52 19t-42.5 9q-14 0 -34 -20t-21 -48h-195z" />
<glyph unicode="&#xd2;" horiz-adv-x="1263" d="M14 512q0 68 10.5 146t31.5 160t50.5 164.5t71 162t90 150.5t109.5 131.5t127 104t145.5 68.5t163.5 25q23 0 59 -4q58 -8 108 -30t87 -55t66 -76t48 -89t31 -97t17.5 -98t5.5 -93q0 -62 -8.5 -134t-26.5 -153t-44 -162.5t-64.5 -162t-84 -153.5t-105.5 -136t-127 -108 t-150 -71t-173 -26q-69 0 -128.5 17t-103.5 47t-79 72t-58.5 89t-39 101t-22.5 106t-7 104zM282 512q0 -32 3 -63t9.5 -66.5t19 -65t30.5 -54.5t46 -39.5t62 -14.5q58 0 113.5 24.5t102 68t88 102t74 125.5t59.5 140t44 145.5t26 141t9 126.5q0 41 -3 78.5t-12 78t-24 72 t-39 55.5t-56 33q-24 6 -38 6q-54 0 -106 -21.5t-95 -59.5t-82 -89t-70 -111t-57 -126t-45 -132t-32 -130t-20 -121t-7 -103zM572 1956h252l57 -294h-159z" />
<glyph unicode="&#xd3;" horiz-adv-x="1263" d="M14 512q0 68 10.5 146t31.5 160t50.5 164.5t71 162t90 150.5t109.5 131.5t127 104t145.5 68.5t163.5 25q23 0 59 -4q58 -8 108 -30t87 -55t66 -76t48 -89t31 -97t17.5 -98t5.5 -93q0 -62 -8.5 -134t-26.5 -153t-44 -162.5t-64.5 -162t-84 -153.5t-105.5 -136t-127 -108 t-150 -71t-173 -26q-69 0 -128.5 17t-103.5 47t-79 72t-58.5 89t-39 101t-22.5 106t-7 104zM282 512q0 -32 3 -63t9.5 -66.5t19 -65t30.5 -54.5t46 -39.5t62 -14.5q58 0 113.5 24.5t102 68t88 102t74 125.5t59.5 140t44 145.5t26 141t9 126.5q0 41 -3 78.5t-12 78t-24 72 t-39 55.5t-56 33q-24 6 -38 6q-54 0 -106 -21.5t-95 -59.5t-82 -89t-70 -111t-57 -126t-45 -132t-32 -130t-20 -121t-7 -103zM716 1662l176 294h272l-272 -294h-176z" />
<glyph unicode="&#xd4;" horiz-adv-x="1263" d="M14 512q0 68 10.5 146t31.5 160t50.5 164.5t71 162t90 150.5t109.5 131.5t127 104t145.5 68.5t163.5 25q23 0 59 -4q58 -8 108 -30t87 -55t66 -76t48 -89t31 -97t17.5 -98t5.5 -93q0 -62 -8.5 -134t-26.5 -153t-44 -162.5t-64.5 -162t-84 -153.5t-105.5 -136t-127 -108 t-150 -71t-173 -26q-69 0 -128.5 17t-103.5 47t-79 72t-58.5 89t-39 101t-22.5 106t-7 104zM282 512q0 -32 3 -63t9.5 -66.5t19 -65t30.5 -54.5t46 -39.5t62 -14.5q58 0 113.5 24.5t102 68t88 102t74 125.5t59.5 140t44 145.5t26 141t9 126.5q0 41 -3 78.5t-12 78t-24 72 t-39 55.5t-56 33q-24 6 -38 6q-54 0 -106 -21.5t-95 -59.5t-82 -89t-70 -111t-57 -126t-45 -132t-32 -130t-20 -121t-7 -103zM468 1670l338 294h200l156 -294h-240l-40 132l-144 -132h-270z" />
<glyph unicode="&#xd5;" horiz-adv-x="1263" d="M14 512q0 68 10.5 146t31.5 160t50.5 164.5t71 162t90 150.5t109.5 131.5t127 104t145.5 68.5t163.5 25q23 0 59 -4q58 -8 108 -30t87 -55t66 -76t48 -89t31 -97t17.5 -98t5.5 -93q0 -62 -8.5 -134t-26.5 -153t-44 -162.5t-64.5 -162t-84 -153.5t-105.5 -136t-127 -108 t-150 -71t-173 -26q-69 0 -128.5 17t-103.5 47t-79 72t-58.5 89t-39 101t-22.5 106t-7 104zM282 512q0 -32 3 -63t9.5 -66.5t19 -65t30.5 -54.5t46 -39.5t62 -14.5q58 0 113.5 24.5t102 68t88 102t74 125.5t59.5 140t44 145.5t26 141t9 126.5q0 41 -3 78.5t-12 78t-24 72 t-39 55.5t-56 33q-24 6 -38 6q-54 0 -106 -21.5t-95 -59.5t-82 -89t-70 -111t-57 -126t-45 -132t-32 -130t-20 -121t-7 -103zM466 1692q14 44 40.5 85t62 73.5t81.5 52t97 19.5q44 0 91.5 -13.5t83.5 -26.5q34 -14 50 -14q18 0 30 15q14 15 30 47h190q-17 -34 -31 -58.5 t-33.5 -52.5t-41.5 -46.5t-49 -35.5t-61 -25q-32 -8 -72 -8q-29 0 -63.5 9t-60 19t-52 19t-42.5 9q-14 0 -34 -20t-21 -48h-195z" />
<glyph unicode="&#xd6;" horiz-adv-x="1263" d="M14 512q0 68 10.5 146t31.5 160t50.5 164.5t71 162t90 150.5t109.5 131.5t127 104t145.5 68.5t163.5 25q23 0 59 -4q58 -8 108 -30t87 -55t66 -76t48 -89t31 -97t17.5 -98t5.5 -93q0 -62 -8.5 -134t-26.5 -153t-44 -162.5t-64.5 -162t-84 -153.5t-105.5 -136t-127 -108 t-150 -71t-173 -26q-69 0 -128.5 17t-103.5 47t-79 72t-58.5 89t-39 101t-22.5 106t-7 104zM282 512q0 -32 3 -63t9.5 -66.5t19 -65t30.5 -54.5t46 -39.5t62 -14.5q58 0 113.5 24.5t102 68t88 102t74 125.5t59.5 140t44 145.5t26 141t9 126.5q0 41 -3 78.5t-12 78t-24 72 t-39 55.5t-56 33q-24 6 -38 6q-54 0 -106 -21.5t-95 -59.5t-82 -89t-70 -111t-57 -126t-45 -132t-32 -130t-20 -121t-7 -103zM561 1642l63 308h202l-64 -308h-201zM889 1642l63 308h201l-63 -308h-201z" />
<glyph unicode="&#xd7;" horiz-adv-x="1193" d="M56 454l376 281l-240 273l185 132l237 -268l373 279l151 -164l-376 -281l240 -272l-185 -133l-237 269l-373 -279z" />
<glyph unicode="&#xd8;" horiz-adv-x="1263" d="M14 -156l234 342q-70 133 -70 326q0 62 8 131t23 142t38 148t53 148t69.5 141t84.5 128.5t100.5 111t115.5 86.5t131 56t147 20q26 0 60 -4q102 -16 172 -68l135 199h239l-248 -363q60 -132 60 -306q0 -62 -8 -134t-24.5 -153t-41 -162t-60.5 -162t-80 -154t-102 -136 t-123 -108t-147 -71t-172 -26q-130 0 -225 59l-129 -191h-240zM442 473l600 881q-24 33 -65 45q-26 6 -37 6q-62 0 -118.5 -27t-102 -73.5t-85 -108.5t-69 -134t-53.5 -146t-39 -148t-23 -138q-8 -65 -8 -118v-39zM520 236q34 -30 88 -31q58 0 112.5 25t99 68.5t84.5 102.5 t71 126.5t56 140.5t40.5 146t24 141.5t8.5 126.5v8z" />
<glyph unicode="&#xd9;" horiz-adv-x="1284" d="M55.5 503q0.5 83 10.5 156t26 144l184 799h256l-196 -850q-8 -34 -14 -63t-13 -72.5t-10 -80t-3 -79.5t5.5 -77.5t19 -68t34 -55.5t53 -35.5t74.5 -13.5q53 0 102.5 20.5t89 54.5t75.5 83t63.5 101t51.5 112t40.5 114.5t29.5 110.5l186 799h258l-198 -850 q-16 -70 -37.5 -138t-55 -147t-73.5 -147.5t-95 -133t-118.5 -110.5t-146 -73t-172.5 -27q-98 0 -174 29.5t-123 79t-77 118.5t-41.5 143t-11 157zM616 1956h252l58 -293h-160z" />
<glyph unicode="&#xda;" horiz-adv-x="1284" d="M55.5 503q0.5 83 10.5 156t26 144l184 799h256l-196 -850q-8 -34 -14 -63t-13 -72.5t-10 -80t-3 -79.5t5.5 -77.5t19 -68t34 -55.5t53 -35.5t74.5 -13.5q53 0 102.5 20.5t89 54.5t75.5 83t63.5 101t51.5 112t40.5 114.5t29.5 110.5l186 799h258l-198 -850 q-16 -70 -37.5 -138t-55 -147t-73.5 -147.5t-95 -133t-118.5 -110.5t-146 -73t-172.5 -27q-98 0 -174 29.5t-123 79t-77 118.5t-41.5 143t-11 157zM664 1663l176 293h272l-272 -293h-176z" />
<glyph unicode="&#xdb;" horiz-adv-x="1284" d="M55.5 503q0.5 83 10.5 156t26 144l184 799h256l-196 -850q-8 -34 -14 -63t-13 -72.5t-10 -80t-3 -79.5t5.5 -77.5t19 -68t34 -55.5t53 -35.5t74.5 -13.5q53 0 102.5 20.5t89 54.5t75.5 83t63.5 101t51.5 112t40.5 114.5t29.5 110.5l186 799h258l-198 -850 q-16 -70 -37.5 -138t-55 -147t-73.5 -147.5t-95 -133t-118.5 -110.5t-146 -73t-172.5 -27q-98 0 -174 29.5t-123 79t-77 118.5t-41.5 143t-11 157zM446 1671l338 293h201l155 -293h-239l-41 131l-143 -131h-271z" />
<glyph unicode="&#xdc;" horiz-adv-x="1284" d="M55.5 503q0.5 83 10.5 156t26 144l184 799h256l-196 -850q-8 -34 -14 -63t-13 -72.5t-10 -80t-3 -79.5t5.5 -77.5t19 -68t34 -55.5t53 -35.5t74.5 -13.5q53 0 102.5 20.5t89 54.5t75.5 83t63.5 101t51.5 112t40.5 114.5t29.5 110.5l186 799h258l-198 -850 q-16 -70 -37.5 -138t-55 -147t-73.5 -147.5t-95 -133t-118.5 -110.5t-146 -73t-172.5 -27q-98 0 -174 29.5t-123 79t-77 118.5t-41.5 143t-11 157zM576 1642l63 308h201l-64 -308h-200zM903 1642l63 308h202l-64 -308h-201z" />
<glyph unicode="&#xdd;" d="M106 1602h262l116 -694l417 694h305l-666 -982l-134 -620h-252l155 664zM462 1752l176 294h272l-272 -294h-176z" />
<glyph unicode="&#xde;" horiz-adv-x="1144" d="M-22 0l348 1602h250l-58 -273q52 2 136 2q75 0 139 -13.5t113.5 -38.5t87.5 -60t62 -79.5t36 -96.5t12 -110t-12 -120q-112 -567 -746 -567q-42 0 -66 2l-52 -248h-250zM330 465q50 -4 68 -4q64 0 121 12.5t109.5 39.5t94 68t73.5 99.5t48 132.5q34 157 -25.5 235 t-220.5 78q-42 0 -125 -6z" />
<glyph unicode="&#xdf;" horiz-adv-x="1253" d="M16 0l220 1028q20 95 58 180t94.5 157.5t127 124.5t160.5 82q88 30 188 30q53 0 107.5 -10t109.5 -33.5t97 -56.5t68 -83.5t26 -110.5q0 -240 -299 -354q-24 -10 -45.5 -19.5t-46.5 -25.5t-43.5 -32.5t-31.5 -38.5q-12 -22 -12 -44q0 -24 13.5 -48.5t35 -45.5t49.5 -44.5 t57 -46.5t57 -50.5t50 -56t35 -65.5t13 -77q0 -74 -22 -137t-60 -108t-90 -77t-112 -47t-126 -15q-58 0 -113.5 24t-97.5 62t-71.5 84t-41.5 92l185 98q3 -33 25 -71t57 -65.5t69 -27.5q80 0 130.5 53t50.5 135q0 22 -16.5 49t-43.5 53.5t-59 56t-64 61.5t-58.5 65t-43 72 t-16.5 77q0 42 11 80t27 65t38.5 50t42.5 37q21 14 41 24q26 13 67 30.5t69 29t60 30t52 37t33 46t13 61.5q0 52 -55 86.5t-147 34.5q-57 0 -109.5 -24.5t-91.5 -64.5t-71 -93t-52 -105t-32 -106l-228 -1012h-238z" />
<glyph unicode="&#xe0;" d="M-2 332q0 53 5.5 110.5t17.5 120.5t29.5 124t43.5 121t57 113t72 99t88 78t105 51q56 19 120 19q50 0 102.5 -13t96 -33t90.5 -43t85 -45l100 43q-10 -36 -76 -347l-66 -312q-13 -61 -17.5 -165.5t-3.5 -178.5l1 -74h-252l16 203q-22 -36 -58 -74.5t-81 -73.5t-98 -57 t-101 -22q-86 0 -149 46t-95 126.5t-32 183.5zM242 370q-5 -82 13.5 -140t56.5 -58q22 0 45 7t42 18t40 30.5t37 36t35.5 44.5t32 46t30 49t26 47t24.5 46l84 397q-21 16 -37 27.5t-43.5 28t-54.5 25.5t-53 9q-40 0 -76 -24.5t-63 -65t-50 -95t-38 -111t-26 -117t-17 -109.5 t-8 -91zM364 1602h252l57 -294h-159z" />
<glyph unicode="&#xe1;" d="M-2 332q0 53 5.5 110.5t17.5 120.5t29.5 124t43.5 121t57 113t72 99t88 78t105 51q56 19 120 19q50 0 102.5 -13t96 -33t90.5 -43t85 -45l100 43q-10 -36 -76 -347l-66 -312q-13 -61 -17.5 -165.5t-3.5 -178.5l1 -74h-252l16 203q-22 -36 -58 -74.5t-81 -73.5t-98 -57 t-101 -22q-86 0 -149 46t-95 126.5t-32 183.5zM242 370q-5 -82 13.5 -140t56.5 -58q22 0 45 7t42 18t40 30.5t37 36t35.5 44.5t32 46t30 49t26 47t24.5 46l84 397q-21 16 -37 27.5t-43.5 28t-54.5 25.5t-53 9q-40 0 -76 -24.5t-63 -65t-50 -95t-38 -111t-26 -117t-17 -109.5 t-8 -91zM510 1308l176 294h272l-272 -294h-176z" />
<glyph unicode="&#xe2;" d="M-2 332q0 53 5.5 110.5t17.5 120.5t29.5 124t43.5 121t57 113t72 99t88 78t105 51q56 19 120 19q50 0 102.5 -13t96 -33t90.5 -43t85 -45l100 43q-10 -36 -76 -347l-66 -312q-13 -61 -17.5 -165.5t-3.5 -178.5l1 -74h-252l16 203q-22 -36 -58 -74.5t-81 -73.5t-98 -57 t-101 -22q-86 0 -149 46t-95 126.5t-32 183.5zM242 370q-5 -82 13.5 -140t56.5 -58q22 0 45 7t42 18t40 30.5t37 36t35.5 44.5t32 46t30 49t26 47t24.5 46l84 397q-21 16 -37 27.5t-43.5 28t-54.5 25.5t-53 9q-40 0 -76 -24.5t-63 -65t-50 -95t-38 -111t-26 -117t-17 -109.5 t-8 -91zM268 1308l338 294h200l156 -294h-240l-40 132l-144 -132h-270z" />
<glyph unicode="&#xe3;" d="M-2 332q0 53 5.5 110.5t17.5 120.5t29.5 124t43.5 121t57 113t72 99t88 78t105 51q56 19 120 19q50 0 102.5 -13t96 -33t90.5 -43t85 -45l100 43q-10 -36 -76 -347l-66 -312q-13 -61 -17.5 -165.5t-3.5 -178.5l1 -74h-252l16 203q-22 -36 -58 -74.5t-81 -73.5t-98 -57 t-101 -22q-86 0 -149 46t-95 126.5t-32 183.5zM242 370q-5 -82 13.5 -140t56.5 -58q22 0 45 7t42 18t40 30.5t37 36t35.5 44.5t32 46t30 49t26 47t24.5 46l84 397q-21 16 -37 27.5t-43.5 28t-54.5 25.5t-53 9q-40 0 -76 -24.5t-63 -65t-50 -95t-38 -111t-26 -117t-17 -109.5 t-8 -91zM292 1376q14 44 40.5 85t62 73.5t81.5 52t97 19.5q44 0 91.5 -13.5t83.5 -26.5q34 -14 50 -14q18 0 30 15q14 15 30 47h190q-17 -34 -31 -58.5t-33.5 -52.5t-41.5 -46.5t-49 -35.5t-61 -25q-32 -8 -72 -8q-29 0 -63.5 9t-60 19t-52 19t-42.5 9q-14 0 -34 -20 t-21 -48h-195z" />
<glyph unicode="&#xe4;" d="M-2 332q0 53 5.5 110.5t17.5 120.5t29.5 124t43.5 121t57 113t72 99t88 78t105 51q56 19 120 19q50 0 102.5 -13t96 -33t90.5 -43t85 -45l100 43q-10 -36 -76 -347l-66 -312q-13 -61 -17.5 -165.5t-3.5 -178.5l1 -74h-252l16 203q-22 -36 -58 -74.5t-81 -73.5t-98 -57 t-101 -22q-86 0 -149 46t-95 126.5t-32 183.5zM242 370q-5 -82 13.5 -140t56.5 -58q22 0 45 7t42 18t40 30.5t37 36t35.5 44.5t32 46t30 49t26 47t24.5 46l84 397q-21 16 -37 27.5t-43.5 28t-54.5 25.5t-53 9q-40 0 -76 -24.5t-63 -65t-50 -95t-38 -111t-26 -117t-17 -109.5 t-8 -91zM387 1294l63 308h202l-64 -308h-201zM715 1294l63 308h201l-63 -308h-201z" />
<glyph unicode="&#xe5;" d="M-2 332q0 53 5.5 110.5t17.5 120.5t29.5 124t43.5 121t57 113t72 99t88 78t105 51q56 19 120 19q50 0 102.5 -13t96 -33t90.5 -43t85 -45l100 43q-10 -36 -76 -347l-66 -312q-13 -61 -17.5 -165.5t-3.5 -178.5l1 -74h-252l16 203q-22 -36 -58 -74.5t-81 -73.5t-98 -57 t-101 -22q-86 0 -149 46t-95 126.5t-32 183.5zM242 370q-5 -82 13.5 -140t56.5 -58q22 0 45 7t42 18t40 30.5t37 36t35.5 44.5t32 46t30 49t26 47t24.5 46l84 397q-21 16 -37 27.5t-43.5 28t-54.5 25.5t-53 9q-40 0 -76 -24.5t-63 -65t-50 -95t-38 -111t-26 -117t-17 -109.5 t-8 -91zM433.5 1360q-1.5 32 6.5 66q24 84 88 138t152 54q63 0 108.5 -31.5t63.5 -83.5t2 -111q-20 -83 -86 -137.5t-156 -54.5q-39 0 -71.5 13t-54.5 35t-36.5 51t-16 61zM570 1407q-9 -32 6 -54t47 -22t61.5 23t38.5 55q10 32 -6.5 54t-48.5 22t-60 -23q-28 -22 -38 -55z " />
<glyph unicode="&#xe6;" horiz-adv-x="1570" d="M-2 316q0 66 8.5 140t28 158t48.5 162t74 150t99 125t127 85t157 32q88 0 236 -12l148 -11l-25 -123q74 68 154.5 107t177.5 39q86 0 151.5 -22.5t104 -62.5t57 -91t18.5 -112q0 -54 -23.5 -104.5t-63.5 -91.5t-95.5 -78.5t-114.5 -66.5t-125 -53.5t-125 -41t-116 -28.5 q-2 -34 -1.5 -69t8.5 -67t20 -57t33 -40t49 -15q64 0 126 61t93 148l227 -76q-32 -70 -77.5 -128.5t-104.5 -103t-133.5 -69t-155.5 -24.5q-122 0 -201.5 73t-105.5 199l-18 -20q-18 -20 -48 -50.5t-72 -66t-85 -65.5t-91 -50t-88 -20q-70 0 -123 24.5t-86 70t-50 107.5 t-17 138zM242 358q-8 -186 70 -186q29 0 58 12t53.5 30.5t51.5 48t47 56t43 64t37 62t33 59.5l105 477h-200q-42 0 -80 -25.5t-66.5 -68t-53.5 -98t-42 -114.5t-29.5 -119t-18.5 -110t-8 -88zM922 602q83 18 167.5 55t150 89t75.5 102q11 57 -11 95t-77 38 q-46 0 -88.5 -20.5t-75.5 -55.5t-61 -83t-48 -103t-32 -117z" />
<glyph unicode="&#xe7;" horiz-adv-x="864" d="M2 -385l80 111q76 -30 146 -31q54 0 92 18.5t38 46.5q3 14 -11.5 28t-38.5 22t-46 8q-8 0 -18 -0.5t-20 -1.5t-25 -5q-15 -3 -33 -11l-20 52l163 148h181l-118 -110q38 0 68 -6.5t56 -21t40.5 -42.5t14.5 -68q0 -38 -21.5 -71t-55.5 -55.5t-74 -39t-76 -23.5t-64 -7 q-59 0 -129.5 13.5t-128.5 45.5zM47 389q0 92 17 185.5t48.5 180.5t78.5 162t105 131t130 88q74 32 152 32q45 0 152.5 -13.5t195.5 -28.5l-76 -350h-182v190h-103q-56 0 -107.5 -58.5t-86.5 -145t-55.5 -183.5t-20.5 -175q0 -32 2.5 -65t10.5 -75t26 -68t45 -26 q28 0 53.5 11.5t43.5 28t36 43t29 49t24 52.5l199 -106q-28 -44 -55 -78.5t-65.5 -72.5t-78 -63.5t-92.5 -41.5t-111 -16q-316 0 -315 413z" />
<glyph unicode="&#xe8;" horiz-adv-x="942" d="M20 383q0 83 12 164t36 159t58.5 147t83 126.5t106.5 99.5t132 65.5t156 23.5q86 0 151 -22.5t103.5 -62.5t57 -91t18.5 -112q0 -54 -24 -104.5t-63.5 -91.5t-94.5 -78.5t-114.5 -66.5t-125.5 -53.5t-124 -41t-116 -28.5q-2 -34 -2 -69t7 -67t18.5 -57t32.5 -40t49 -15 q81 0 134 53.5t87 155.5l228 -76q-75 -150 -196.5 -237.5t-273.5 -87.5q-170 0 -253 105t-83 302zM297 602q61 14 125 39t120 57t95 72t45 78q6 27 3.5 51.5t-11 43t-26.5 29.5t-44 11q-48 0 -92.5 -21.5t-79 -58.5t-62.5 -86t-46 -104t-27 -111zM406 1602h252l57 -294h-159 z" />
<glyph unicode="&#xe9;" horiz-adv-x="942" d="M20 383q0 83 12 164t36 159t58.5 147t83 126.5t106.5 99.5t132 65.5t156 23.5q86 0 151 -22.5t103.5 -62.5t57 -91t18.5 -112q0 -54 -24 -104.5t-63.5 -91.5t-94.5 -78.5t-114.5 -66.5t-125.5 -53.5t-124 -41t-116 -28.5q-2 -34 -2 -69t7 -67t18.5 -57t32.5 -40t49 -15 q81 0 134 53.5t87 155.5l228 -76q-75 -150 -196.5 -237.5t-273.5 -87.5q-170 0 -253 105t-83 302zM297 602q61 14 125 39t120 57t95 72t45 78q6 27 3.5 51.5t-11 43t-26.5 29.5t-44 11q-48 0 -92.5 -21.5t-79 -58.5t-62.5 -86t-46 -104t-27 -111zM470 1308l176 294h272 l-272 -294h-176z" />
<glyph unicode="&#xea;" horiz-adv-x="942" d="M20 383q0 83 12 164t36 159t58.5 147t83 126.5t106.5 99.5t132 65.5t156 23.5q86 0 151 -22.5t103.5 -62.5t57 -91t18.5 -112q0 -54 -24 -104.5t-63.5 -91.5t-94.5 -78.5t-114.5 -66.5t-125.5 -53.5t-124 -41t-116 -28.5q-2 -34 -2 -69t7 -67t18.5 -57t32.5 -40t49 -15 q81 0 134 53.5t87 155.5l228 -76q-75 -150 -196.5 -237.5t-273.5 -87.5q-170 0 -253 105t-83 302zM264 1308l338 294h200l156 -294h-240l-40 132l-144 -132h-270zM297 602q61 14 125 39t120 57t95 72t45 78q6 27 3.5 51.5t-11 43t-26.5 29.5t-44 11q-48 0 -92.5 -21.5 t-79 -58.5t-62.5 -86t-46 -104t-27 -111z" />
<glyph unicode="&#xeb;" horiz-adv-x="942" d="M20 383q0 83 12 164t36 159t58.5 147t83 126.5t106.5 99.5t132 65.5t156 23.5q86 0 151 -22.5t103.5 -62.5t57 -91t18.5 -112q0 -54 -24 -104.5t-63.5 -91.5t-94.5 -78.5t-114.5 -66.5t-125.5 -53.5t-124 -41t-116 -28.5q-2 -34 -2 -69t7 -67t18.5 -57t32.5 -40t49 -15 q81 0 134 53.5t87 155.5l228 -76q-75 -150 -196.5 -237.5t-273.5 -87.5q-170 0 -253 105t-83 302zM297 602q61 14 125 39t120 57t95 72t45 78q6 27 3.5 51.5t-11 43t-26.5 29.5t-44 11q-48 0 -92.5 -21.5t-79 -58.5t-62.5 -86t-46 -104t-27 -111zM333 1294l63 308h202 l-64 -308h-201zM661 1294l63 308h201l-63 -308h-201z" />
<glyph unicode="&#xec;" horiz-adv-x="542" d="M-24 0l250 1145h233l-252 -1145h-231zM182 1602h252l57 -294h-159z" />
<glyph unicode="&#xed;" horiz-adv-x="542" d="M-24 0l250 1145h233l-252 -1145h-231zM242 1308l176 294h272l-272 -294h-176z" />
<glyph unicode="&#xee;" horiz-adv-x="542" d="M-24 0l250 1145h233l-252 -1145h-231zM-6 1308l338 294h200l156 -294h-240l-40 132l-144 -132h-270z" />
<glyph unicode="&#xef;" horiz-adv-x="542" d="M-24 0l250 1145h233l-252 -1145h-231zM96 1294l63 308h202l-64 -308h-201zM424 1294l63 308h201l-63 -308h-201z" />
<glyph unicode="&#xf0;" horiz-adv-x="1185" d="M76 418q0 64 12 135t38 144t63 141t89 128t114 105t142 71q78 26 166 26q36 0 83 -14t65 -30q-7 48 -26 101q-20 53 -40 71l-208 -80l-62 142l121 45q-42 18 -97.5 26.5t-95.5 8.5l21 164q119 0 230 -24t181 -72l285 104l55 -148l-229 -96q38 -48 63.5 -131t35.5 -155 t14 -126l4 -53q0 -96 -10.5 -189.5t-34 -186.5t-58.5 -173.5t-86 -150t-115 -119.5t-148 -78t-181 -28q-88 0 -162.5 34t-124 93t-77 140t-27.5 175zM316 402q0 -105 44 -164.5t124 -59.5q47 0 92.5 24t83.5 65t70 95t54 113t35 120t13 115q0 27 -1 48.5t-5.5 50.5t-11.5 51 t-20 44t-30.5 37t-44.5 24.5t-59 9.5q-46 0 -91 -28.5t-82 -75t-70 -107t-55 -123.5t-34 -126t-12 -113z" />
<glyph unicode="&#xf1;" d="M-39 0l252 1145h221l-20 -213q28 38 53 68t59.5 63t68.5 54.5t76.5 36t86.5 14.5q42 0 78.5 -13.5t63 -36t47 -53t30 -65t14 -70.5t-3.5 -70q-17 -94 -25 -129q-58 -245 -84 -388q-24 -143 -42 -343h-250q4 74 13 152.5t26 165.5t30 149.5t36 164.5t34 150q4 22 10.5 45 t8.5 33q1 6 2 12.5t1.5 14t1.5 14.5t0.5 14t-1.5 13t-3.5 11t-6.5 9t-10 6t-13 2q-38 0 -91.5 -33t-104.5 -83.5t-95 -102t-72 -94.5l-143 -643h-248zM358 1376q14 44 40.5 85t62 73.5t81.5 52t97 19.5q44 0 91.5 -13.5t83.5 -26.5q34 -14 50 -14q18 0 30 15q14 15 30 47 h190q-17 -34 -31 -58.5t-33.5 -52.5t-41.5 -46.5t-49 -35.5t-61 -25q-32 -8 -72 -8q-29 0 -63.5 9t-60 19t-52 19t-42.5 9q-14 0 -34 -20t-21 -48h-195z" />
<glyph unicode="&#xf2;" horiz-adv-x="948" d="M-14 379q0 47 6 100t18.5 111t31.5 116t46.5 115t60.5 108.5t76.5 95t92.5 75.5t109.5 50t127.5 18q79 0 141 -25t101 -65t64.5 -95t36 -112t10.5 -121q0 -48 -6 -101.5t-19 -111t-32 -114.5t-47 -113t-61 -105.5t-76 -91.5t-92 -72.5t-110 -47.5t-127 -17q-79 0 -141 23 t-101 61.5t-64.5 92t-35.5 109t-10 117.5zM228 341.5q0 -13.5 2 -40t6 -43t13 -37.5t20.5 -33t30 -20t42.5 -8q51 0 95.5 23t76.5 62t58.5 91t43 107t28.5 112t17 106t5 89q0 30 -2 57t-7 55t-14 50t-21 40t-30 27.5t-41 9.5q-50 0 -94.5 -24.5t-77 -65.5t-59 -95 t-43.5 -111.5t-28.5 -116.5t-16 -108.5t-4.5 -88.5v-37.5zM406 1602h252l57 -294h-159z" />
<glyph unicode="&#xf3;" horiz-adv-x="948" d="M-14 379q0 47 6 100t18.5 111t31.5 116t46.5 115t60.5 108.5t76.5 95t92.5 75.5t109.5 50t127.5 18q79 0 141 -25t101 -65t64.5 -95t36 -112t10.5 -121q0 -48 -6 -101.5t-19 -111t-32 -114.5t-47 -113t-61 -105.5t-76 -91.5t-92 -72.5t-110 -47.5t-127 -17q-79 0 -141 23 t-101 61.5t-64.5 92t-35.5 109t-10 117.5zM228 341.5q0 -13.5 2 -40t6 -43t13 -37.5t20.5 -33t30 -20t42.5 -8q51 0 95.5 23t76.5 62t58.5 91t43 107t28.5 112t17 106t5 89q0 30 -2 57t-7 55t-14 50t-21 40t-30 27.5t-41 9.5q-50 0 -94.5 -24.5t-77 -65.5t-59 -95 t-43.5 -111.5t-28.5 -116.5t-16 -108.5t-4.5 -88.5v-37.5zM470 1308l176 294h272l-272 -294h-176z" />
<glyph unicode="&#xf4;" horiz-adv-x="948" d="M-14 379q0 47 6 100t18.5 111t31.5 116t46.5 115t60.5 108.5t76.5 95t92.5 75.5t109.5 50t127.5 18q79 0 141 -25t101 -65t64.5 -95t36 -112t10.5 -121q0 -48 -6 -101.5t-19 -111t-32 -114.5t-47 -113t-61 -105.5t-76 -91.5t-92 -72.5t-110 -47.5t-127 -17q-79 0 -141 23 t-101 61.5t-64.5 92t-35.5 109t-10 117.5zM228 341.5q0 -13.5 2 -40t6 -43t13 -37.5t20.5 -33t30 -20t42.5 -8q51 0 95.5 23t76.5 62t58.5 91t43 107t28.5 112t17 106t5 89q0 30 -2 57t-7 55t-14 50t-21 40t-30 27.5t-41 9.5q-50 0 -94.5 -24.5t-77 -65.5t-59 -95 t-43.5 -111.5t-28.5 -116.5t-16 -108.5t-4.5 -88.5v-37.5zM230 1308l338 294h200l156 -294h-240l-40 132l-144 -132h-270z" />
<glyph unicode="&#xf5;" horiz-adv-x="948" d="M-14 379q0 47 6 100t18.5 111t31.5 116t46.5 115t60.5 108.5t76.5 95t92.5 75.5t109.5 50t127.5 18q79 0 141 -25t101 -65t64.5 -95t36 -112t10.5 -121q0 -48 -6 -101.5t-19 -111t-32 -114.5t-47 -113t-61 -105.5t-76 -91.5t-92 -72.5t-110 -47.5t-127 -17q-79 0 -141 23 t-101 61.5t-64.5 92t-35.5 109t-10 117.5zM228 341.5q0 -13.5 2 -40t6 -43t13 -37.5t20.5 -33t30 -20t42.5 -8q51 0 95.5 23t76.5 62t58.5 91t43 107t28.5 112t17 106t5 89q0 30 -2 57t-7 55t-14 50t-21 40t-30 27.5t-41 9.5q-50 0 -94.5 -24.5t-77 -65.5t-59 -95 t-43.5 -111.5t-28.5 -116.5t-16 -108.5t-4.5 -88.5v-37.5zM266 1376q14 44 40.5 85t62 73.5t81.5 52t97 19.5q44 0 91.5 -13.5t83.5 -26.5q34 -14 50 -14q18 0 30 15q14 15 30 47h190q-17 -34 -31 -58.5t-33.5 -52.5t-41.5 -46.5t-49 -35.5t-61 -25q-32 -8 -72 -8 q-29 0 -63.5 9t-60 19t-52 19t-42.5 9q-14 0 -34 -20t-21 -48h-195z" />
<glyph unicode="&#xf6;" horiz-adv-x="948" d="M-14 379q0 47 6 100t18.5 111t31.5 116t46.5 115t60.5 108.5t76.5 95t92.5 75.5t109.5 50t127.5 18q79 0 141 -25t101 -65t64.5 -95t36 -112t10.5 -121q0 -48 -6 -101.5t-19 -111t-32 -114.5t-47 -113t-61 -105.5t-76 -91.5t-92 -72.5t-110 -47.5t-127 -17q-79 0 -141 23 t-101 61.5t-64.5 92t-35.5 109t-10 117.5zM228 341.5q0 -13.5 2 -40t6 -43t13 -37.5t20.5 -33t30 -20t42.5 -8q51 0 95.5 23t76.5 62t58.5 91t43 107t28.5 112t17 106t5 89q0 30 -2 57t-7 55t-14 50t-21 40t-30 27.5t-41 9.5q-50 0 -94.5 -24.5t-77 -65.5t-59 -95 t-43.5 -111.5t-28.5 -116.5t-16 -108.5t-4.5 -88.5v-37.5zM321 1294l63 308h202l-64 -308h-201zM649 1294l63 308h201l-63 -308h-201z" />
<glyph unicode="&#xf7;" horiz-adv-x="1185" d="M58 557l42 197h963l-43 -197h-962zM348 144l68 317h200l-67 -317h-201zM498 848l67 320h201l-68 -320h-200z" />
<glyph unicode="&#xf8;" horiz-adv-x="948" d="M-14 -156l219 306q-47 97 -47 229q0 61 10 131t32 146.5t53.5 149t79 138.5t104 115.5t132 79t160.5 29.5q98 0 176 -42l133 187h224l-232 -322q52 -99 52 -241q0 -48 -6 -101.5t-19 -111t-32 -114.5t-47 -113t-61 -105.5t-76 -91.5t-92 -72.5t-110 -47.5t-127 -17 q-102 0 -180 40l-123 -172h-223zM404 426l382 536q-26 26 -63 27q-46 0 -87.5 -21.5t-72.5 -56.5t-57 -83t-43 -99t-30 -106.5t-20 -104t-9 -92.5zM450 182q26 -22 66 -22q48 0 91 21t74 57t57 84t43 100t30 107t19 103t8 91z" />
<glyph unicode="&#xf9;" d="M43 316q1 74 27 194l141 635h252l-156 -684q-7 -29 -23 -145q-2 -22 -1 -49t13 -50t34 -23q19 0 39.5 8t38.5 18t39.5 30t38 36.5t38 44t35 45.5t34.5 49t30 46t28.5 45.5t24.5 38.5l125 590h249l-166 -749l-50 -396h-256l32 219q-3 -4 -16 -23.5t-19.5 -29.5t-22.5 -31 t-27 -33t-28.5 -31t-32 -30.5t-34.5 -25.5t-38 -21.5t-40 -12.5t-43 -5q-46 0 -84.5 11t-65.5 30t-48 46t-33.5 56.5t-20.5 64t-11 66.5t-3 66zM420 1602h252l57 -294h-159z" />
<glyph unicode="&#xfa;" d="M43 316q1 74 27 194l141 635h252l-156 -684q-7 -29 -23 -145q-2 -22 -1 -49t13 -50t34 -23q19 0 39.5 8t38.5 18t39.5 30t38 36.5t38 44t35 45.5t34.5 49t30 46t28.5 45.5t24.5 38.5l125 590h249l-166 -749l-50 -396h-256l32 219q-3 -4 -16 -23.5t-19.5 -29.5t-22.5 -31 t-27 -33t-28.5 -31t-32 -30.5t-34.5 -25.5t-38 -21.5t-40 -12.5t-43 -5q-46 0 -84.5 11t-65.5 30t-48 46t-33.5 56.5t-20.5 64t-11 66.5t-3 66zM484 1308l176 294h272l-272 -294h-176z" />
<glyph unicode="&#xfb;" d="M28 316q0 76 28 194l140 635h252l-155 -684q-9 -37 -23 -145q-4 -14 -2 -35t5 -40t15 -33t28 -14q19 0 39 8t38.5 18t39.5 30t37.5 36.5t38 44t35 45.5t34.5 49t30.5 46t28.5 45.5t25 38.5l124 590h250l-166 -749l-51 -396h-256l33 219q-2 -2 -16 -23.5t-20 -29.5 t-22.5 -30.5t-26.5 -34t-28.5 -31t-32.5 -30.5t-34 -25t-38 -21.5t-40 -12.5t-43 -5q-46 0 -84.5 11t-66 30t-48 46t-33.5 56.5t-21 64t-11 66.5t-3 66zM252 1308l338 294h200l156 -294h-240l-40 132l-144 -132h-270z" />
<glyph unicode="&#xfc;" d="M28 316q0 76 28 194l140 635h252l-155 -684q-9 -37 -23 -145q-4 -14 -2 -35t5 -40t15 -33t28 -14q19 0 39 8t38.5 18t39.5 30t37.5 36.5t38 44t35 45.5t34.5 49t30.5 46t28.5 45.5t25 38.5l124 590h250l-166 -749l-51 -396h-256l33 219q-2 -2 -16 -23.5t-20 -29.5 t-22.5 -30.5t-26.5 -34t-28.5 -31t-32.5 -30.5t-34 -25t-38 -21.5t-40 -12.5t-43 -5q-46 0 -84.5 11t-66 30t-48 46t-33.5 56.5t-21 64t-11 66.5t-3 66zM327 1294l63 308h202l-64 -308h-201zM655 1294l63 308h201l-63 -308h-201z" />
<glyph unicode="&#xfd;" horiz-adv-x="937" d="M-360 -205q134 0 252 51.5t231 153.5v1145h241v-885q110 144 181 279t110 288t39 318h256v-80q0 -99 -29 -218t-81 -243t-128 -251t-166 -243t-198.5 -218t-221 -176t-238.5 -117t-248 -43v239zM328 1306l176 294h272l-272 -294h-176z" />
<glyph unicode="&#xfe;" horiz-adv-x="1116" d="M-114 -444l452 2046h252l-134 -598q30 30 63 56.5t74 52t88 40.5t93 15q262 0 262 -314q0 -93 -10 -166q-12 -82 -29 -155.5t-43 -146t-58 -133t-76 -113t-95 -88.5t-115 -56t-137 -20q-62 0 -119.5 29t-95.5 73l-118 -522h-254zM303 295q16 -25 30 -42t36 -37t50.5 -30 t62.5 -10q44 0 84.5 28t70.5 75t55.5 108t42.5 126t29 130t17 119.5t5 95.5q0 14 -2 30.5t-8 35t-19 29.5t-30 11q-65 0 -154.5 -77t-189.5 -211z" />
<glyph unicode="&#xff;" horiz-adv-x="937" d="M-360 -205q134 0 252 51.5t231 153.5v1145h241v-885q110 144 181 279t110 288t39 318h256v-80q0 -99 -29 -218t-81 -243t-128 -251t-166 -243t-198.5 -218t-221 -176t-238.5 -117t-248 -43v239zM242 1294l63 308h201l-64 -308h-200zM570 1294l63 308h201l-64 -308h-200z " />
<glyph unicode="&#x152;" horiz-adv-x="1808" d="M14 440q-2 56 3.5 120t14 118t21.5 112q12 58 27 113t37.5 119t48 121t61 117t75.5 109t92 93t110 74t129 48t149 18h1030l-46 -228h-566l-100 -462h428l-48 -228h-428l-96 -456h668l-49 -228h-921h1q1 0 -1 -0.5t-6.5 -1t-19.5 -1t-37 -1t-61 -0.5h-90q-80 0 -144 17 t-109 46t-79 71.5t-53 90t-29 105.5t-12 114zM284 473q2 -45 9.5 -82t23 -71.5t37.5 -58t56 -38t78 -14.5q52 0 103 4.5t81 9.5l30 5l244 1146q-52 10 -115 17.5t-91 7.5q-52 0 -101 -23.5t-87 -61.5t-72 -92t-58.5 -108t-46 -116t-34.5 -111t-23 -97q-8 -34 -14 -68 t-11.5 -78.5t-8 -85t-0.5 -85.5z" />
<glyph unicode="&#x153;" horiz-adv-x="1536" d="M-14 383q0 61 9.5 130.5t31.5 146t53.5 148.5t78.5 138t104 115t132 78t160 29q190 0 289 -185q38 40 73 70t79.5 57.5t95.5 42.5t106 15q68 0 123.5 -15t93.5 -41t63.5 -62t37.5 -79t12 -91q0 -54 -24 -104.5t-64 -91.5t-95.5 -78.5t-115 -66.5t-126.5 -53.5t-125.5 -41 t-115.5 -28.5q-2 -34 -2 -70t8 -69t20 -59.5t33.5 -42t49.5 -15.5q74 0 128.5 55.5t96.5 161.5l224 -76q-76 -151 -196 -238t-274 -87q-50 0 -92 13t-73.5 39t-54.5 56t-44 70q-36 -39 -69.5 -67.5t-77 -55.5t-94.5 -41t-107 -14q-76 0 -137.5 23.5t-101 63t-65.5 92.5 t-37 110t-11 118zM228 387q0 -21 2 -44.5t9 -55t18 -56.5t32 -44t49 -23q48 -6 93 15.5t78 61t61 93.5t46 110t29 115q1 8 4 22t5 21q12 67 12 148q0 45 -6 84t-18.5 73.5t-36 55t-54.5 20.5q-46 0 -86 -18.5t-70.5 -50.5t-56 -74t-43 -90t-31.5 -97.5t-21.5 -99t-11 -90.5 t-3.5 -76zM893 602q85 19 168 55.5t146 88.5t73 102q6 24 4 48t-10 43t-28 31.5t-48 12.5q-47 0 -90.5 -21.5t-78.5 -58.5t-63 -86t-46 -104t-27 -111z" />
<glyph unicode="&#x178;" d="M106 1602h262l116 -694l417 694h305l-666 -982l-134 -620h-252l155 664zM377 1648l63 308h202l-64 -308h-201zM705 1648l63 308h201l-63 -308h-201z" />
<glyph unicode="&#x2c6;" horiz-adv-x="456" d="M-184 1308l338 294h200l156 -294h-240l-40 132l-144 -132h-270z" />
<glyph unicode="&#x2dc;" horiz-adv-x="456" d="M-150 1376q14 44 40.5 85t62 73.5t81.5 52t97 19.5q44 0 91.5 -13.5t83.5 -26.5q34 -14 50 -14q18 0 30 15q14 15 30 47h190q-17 -34 -31 -58.5t-33.5 -52.5t-41.5 -46.5t-49 -35.5t-61 -25q-32 -8 -72 -8q-29 0 -63.5 9t-60 19t-52 19t-42.5 9q-14 0 -34 -20t-21 -48 h-195z" />
<glyph unicode="&#x2000;" horiz-adv-x="1027" />
<glyph unicode="&#x2001;" horiz-adv-x="2054" />
<glyph unicode="&#x2002;" horiz-adv-x="1027" />
<glyph unicode="&#x2003;" horiz-adv-x="2054" />
<glyph unicode="&#x2004;" horiz-adv-x="684" />
<glyph unicode="&#x2005;" horiz-adv-x="513" />
<glyph unicode="&#x2006;" horiz-adv-x="342" />
<glyph unicode="&#x2007;" horiz-adv-x="342" />
<glyph unicode="&#x2008;" horiz-adv-x="256" />
<glyph unicode="&#x2009;" horiz-adv-x="410" />
<glyph unicode="&#x200a;" horiz-adv-x="114" />
<glyph unicode="&#x2010;" d="M158 582l42 198h546l-44 -198h-544z" />
<glyph unicode="&#x2011;" d="M158 582l42 198h546l-44 -198h-544z" />
<glyph unicode="&#x2012;" d="M158 582l42 198h546l-44 -198h-544z" />
<glyph unicode="&#x2013;" horiz-adv-x="894" d="M-6 588l43 198h682l-43 -198h-682z" />
<glyph unicode="&#x2014;" horiz-adv-x="1476" d="M102 588l42 196h1230l-41 -196h-1231z" />
<glyph unicode="&#x2018;" horiz-adv-x="604" d="M49 1170l51 200q8 33 46 78.5t77.5 80.5t71.5 60l33 25h214q-36 -32 -61.5 -57t-63 -64.5t-61.5 -75t-30 -61.5l-48 -186h-229z" />
<glyph unicode="&#x2019;" horiz-adv-x="604" d="M49 1170q37 34 62 57.5t63 63.5t62 75q24 36 30 62l48 186h228l-50 -201q-7 -27 -33.5 -62t-58.5 -65.5t-64 -57.5t-53 -43l-21 -15h-213z" />
<glyph unicode="&#x201a;" horiz-adv-x="604" d="M92 -100q34 34 55 57.5t55.5 64t55.5 74.5q20 36 26 62l42 186h202l-42 -200q-7 -33 -40.5 -78.5t-70 -80.5t-65.5 -61l-30 -24h-188z" />
<glyph unicode="&#x201c;" horiz-adv-x="894" d="M22 1170l46 200q7 33 40 78.5t68.5 80.5t65.5 60l28 25h189q-171 -177 -191 -258l-42 -186h-204zM406 1170l44 200q7 33 40.5 78.5t69.5 80.5t64 60l30 25h188q-34 -36 -55 -58t-56 -63t-55.5 -76t-26.5 -61l-41 -186h-202z" />
<glyph unicode="&#x201d;" horiz-adv-x="894" d="M70 1170q34 35 55 57.5t55 63.5t55 75q21 36 27 62l41 186h203l-43 -201q-7 -33 -40.5 -78t-70 -80t-65.5 -61l-29 -24h-188zM452 1170q33 34 55 57t56 63.5t55 75.5q21 36 27 62l41 186h203l-45 -201q-7 -33 -40.5 -78t-69 -80t-64.5 -61l-29 -24h-189z" />
<glyph unicode="&#x201e;" horiz-adv-x="894" d="M62 -96q32 34 54 58t56 63.5t55 75t27 61.5l41 186h203l-44 -200q-7 -33 -40.5 -78.5t-69.5 -80.5t-65 -61l-29 -24h-188zM444 -96q32 34 54.5 58t56.5 63.5t55 75t27 61.5l41 186h202l-44 -200q-7 -33 -40.5 -78.5t-69.5 -80.5t-64 -61l-29 -24h-189z" />
<glyph unicode="&#x2022;" horiz-adv-x="749" d="M98 568q0 34 7.5 73t22 94t18.5 72q17 80 85.5 137.5t149.5 57.5h51q68 0 113 -43.5t45 -110.5q0 -34 -7 -74t-22 -95.5t-19 -72.5q-17 -80 -85.5 -137t-149.5 -57h-51q-68 0 -113 44t-45 112z" />
<glyph unicode="&#x2026;" d="M66 0l71 320h211l-72 -320h-210zM379 0l71 320h212l-70 -320h-213zM696 0l72 320h211l-71 -320h-212z" />
<glyph unicode="&#x202f;" horiz-adv-x="410" />
<glyph unicode="&#x2039;" horiz-adv-x="894" d="M28 654l546 514h288l-582 -535l334 -493h-260z" />
<glyph unicode="&#x203a;" horiz-adv-x="894" d="M22 140l578 526l-318 502h248l326 -514l-540 -514h-294z" />
<glyph unicode="&#x205f;" horiz-adv-x="513" />
<glyph unicode="&#x2122;" horiz-adv-x="1624" d="M158 1424l42 178h529l-41 -178h-160l-156 -672h-202l156 672h-168zM622 752l197 850h170l115 -310l254 310h192l-198 -850h-203l107 466l-128 -151h-126l-66 166l-110 -481h-204z" />
<glyph unicode="&#x25fc;" horiz-adv-x="1145" d="M0 0v1145h1145v-1145h-1145z" />
</font>
</defs>
</svg>
