<?xml version="1.0" standalone="no"?>
<!DOCTYPE svg PUBLIC "-//W3C//DTD SVG 1.1//EN" "http://www.w3.org/Graphics/SVG/1.1/DTD/svg11.dtd" >
<svg xmlns="http://www.w3.org/2000/svg">
<metadata></metadata>
<defs>
<font id="discreetregular" horiz-adv-x="915" >
<font-face units-per-em="2048" ascent="2048" descent="0" />
<missing-glyph horiz-adv-x="622" />
<glyph unicode="&#xfb01;" horiz-adv-x="1073" d="M0 1002v143h146q0 226 118 353q118 128 344 128q188 0 383 -53l-41 -185l-305 107h-84q-46 0 -84 -10t-64.5 -27.5t-47 -43.5t-33 -55t-20.5 -65.5t-10.5 -72t-2.5 -76.5h336v-143h-336v-1002h-153v1002h-146zM821 0v1145h152v-1145h-152z" />
<glyph unicode="&#xfb02;" horiz-adv-x="1204" d="M0 1002v143h146q0 226 118 353q118 128 344 128q180 0 367 -49v-1311q0 -66 24 -88q25 -21 91 -16v-162q-75 0 -135.5 27t-96.5 81q-37 56 -37 130v1216l-176 41h-84q-46 0 -84 -10t-64.5 -27.5t-47 -43.5t-33 -55t-20.5 -65.5t-10.5 -72t-2.5 -76.5h336v-143h-336v-1002 h-153v1002h-146z" />
<glyph horiz-adv-x="0" />
<glyph unicode="&#xd;" horiz-adv-x="682" />
<glyph unicode=" "  horiz-adv-x="622" />
<glyph unicode="&#x09;" horiz-adv-x="622" />
<glyph unicode="&#xa0;" horiz-adv-x="622" />
<glyph unicode="!" horiz-adv-x="770" d="M123 1602h184l-35 -1160h-114zM144 -6v282h147v-282h-147z" />
<glyph unicode="&#x22;" horiz-adv-x="770" d="M164 1168v434h110v-434h-110zM454 1168v434h111v-434h-111z" />
<glyph unicode="#" horiz-adv-x="1351" d="M14 436v148h287l113 434h-248v148h284l113 436h152l-113 -436h282l114 436h151l-113 -436h283v-148h-321l-114 -434h280v-148h-316l-113 -436h-149l112 436h-284l-113 -436h-149l112 436h-250zM452 584h283l113 434h-285z" />
<glyph unicode="$" horiz-adv-x="1062" d="M127 223l2 233l127 -2l22 -172q50 -62 101 -90t115 -28q30 0 61 7.5t64 27t59 48.5t43 77t17 108q0 144 -90 234q-48 48 -146 104q-14 8 -40 22q-100 54 -144 88q-102 78 -138 186q-20 64 -20 146q0 72 17 131t46 97.5t68 66t79 40.5t84 17l-16 330h152l-16 -328 q62 -6 126 -31t140 -65l-2 -296h-132l-18 202q-39 33 -73.5 49.5t-82.5 16.5q-50 0 -88 -10.5t-69 -34t-47 -67.5t-16 -106q0 -114 80 -192q44 -42 138 -96q100 -56 121 -68q109 -68 163 -148q76 -110 75 -276q0 -76 -19.5 -140t-51 -108t-74 -77t-84.5 -51t-86 -27l16 -321 h-152l14 315q-94 10 -176.5 61t-148.5 127z" />
<glyph unicode="%" horiz-adv-x="1206" d="M6 0l950 1602h176l-950 -1602h-176zM135 1313q0 44 9.5 88t28.5 84.5t45 71t64 49t82 18.5t82 -18.5t65 -49t46 -71t28 -84.5t9 -88t-9 -88t-28 -84.5t-46 -71.5t-65 -49t-82 -18t-82 18t-64 49t-45 71.5t-28.5 84t-9.5 88.5zM274 1313q0 -39 7 -71t18 -51.5t23.5 -33 t23 -19.5t18.5 -6t19 6t24 19.5t23 33t17 51.5t7 71t-7 71t-17 51t-23 33t-24 19.5t-19 5.5t-18.5 -5.5t-23 -19.5t-23.5 -33t-18 -51t-7 -71zM602 289q0 44 9 88t28 84.5t46 71t65 49t82 18.5t82 -18.5t64 -49t45 -71t28.5 -84.5t9.5 -88q0 -56 -15 -110.5t-42.5 -100 t-72.5 -73t-99.5 -27.5t-99 27.5t-72.5 73t-43 99.5t-15 111zM742 289q0 -39 7 -71t17 -51.5t23 -33t24 -19.5t19 -6t18.5 6t23 19.5t23.5 33t18 51.5t7 71t-7 71t-18 51t-23.5 33t-23 19.5t-18.5 5.5t-19 -5.5t-24 -19.5t-23 -33t-17 -51t-7 -71z" />
<glyph unicode="&#x26;" horiz-adv-x="1497" d="M116 484q0 157 85 286q85 128 221 186l-60 82q-23 44 -36.5 74t-28.5 76t-15 80q0 64 15 118t39.5 90t58 64t68 44t73.5 26t69.5 13t60.5 3q78 0 166.5 -25t193.5 -67l6 -213l-152 -4l-2 113q-134 44 -212 44q-232 0 -232 -206q0 -38 58 -148l485 -674l147 244h180 l-231 -376l225 -314h-186l-125 172q-68 -92 -168.5 -145t-216.5 -53q-100 0 -190.5 40.5t-155 109t-102.5 162.5t-38 198zM268 484q0 -74 27 -141.5t72.5 -115t107 -75t127.5 -27.5q91 0 168 49t123 131l-379 523q-106 -32 -176 -126t-70 -218z" />
<glyph unicode="'" horiz-adv-x="770" d="M312 1168v434h110v-434h-110z" />
<glyph unicode="(" horiz-adv-x="770" d="M127 801q0 254 85 491q84 236 240 465h140v-33q-138 -204 -210.5 -429.5t-72.5 -493.5q0 -269 73 -495.5t210 -428.5v-31h-140q-156 228 -240.5 464t-84.5 491z" />
<glyph unicode=")" horiz-adv-x="770" d="M127 -123q137 202 210 428.5t73 495.5q0 268 -73 494q-73 225 -210 429v33h139q156 -229 241 -465.5t85 -490.5q0 -130 -23 -258t-67 -247.5t-102 -229.5t-134 -220h-139v31z" />
<glyph unicode="*" horiz-adv-x="1062" d="M112 1292l44 130l303 -107l4 2l-21 359h140l-19 -361l7 -5l298 122l44 -140l-314 -86v-4l240 -272l-109 -80l-209 297h-6l-200 -301l-114 84l232 276v4z" />
<glyph unicode="+" horiz-adv-x="1351" d="M146 586v141h434v437h141v-437h436v-141h-434v-436h-141v436h-436z" />
<glyph unicode="," horiz-adv-x="624" d="M182 -152l18 26q17 26 37 63t37 84t17 83v189h145v-189q0 -36 -23 -83t-51.5 -84t-51.5 -63l-24 -26h-104z" />
<glyph unicode="-" horiz-adv-x="1064" d="M291 588v141h442v-141h-442z" />
<glyph unicode="." horiz-adv-x="624" d="M162 0v293h145v-293h-145z" />
<glyph unicode="/" d="M121 -154l483 1884l156 2l-484 -1886h-155z" />
<glyph unicode="0" horiz-adv-x="1165" d="M148 563v475q0 90 20 176t59 160t91.5 130t122 88t147.5 32q77 0 146.5 -32t122 -88t91 -130t58.5 -160t20 -176v-475q0 -90 -20 -175.5t-58.5 -159.5t-91 -130t-122 -88t-146.5 -32q-78 0 -147.5 32t-122 88t-91.5 130t-59 160t-20 175zM299 563q0 -78 16.5 -147.5 t45.5 -120.5t66 -89t78 -57.5t83 -19.5q52 0 103 31t92 85.5t66 138t25 179.5v475q0 96 -25 179.5t-66 138t-92 85.5t-103 31q-42 0 -83 -19t-78 -57t-66 -89.5t-45.5 -121t-16.5 -147.5v-475z" />
<glyph unicode="1" horiz-adv-x="1165" d="M276 1331l464 295v-1472h286v-154h-725v154h285v1212l-240 -144z" />
<glyph unicode="2" horiz-adv-x="1165" d="M260 0v78q0 302 174 577q73 116 205 266q15 15 41 45q96 108 130 157q62 86 62 149q0 44 -15.5 79.5t-41.5 58t-62 36.5t-73.5 20t-79.5 6q-110 0 -182 -36v-264h-152v334q128 118 340 118q68 0 129.5 -13t115 -41.5t92.5 -69.5t61 -100t22 -130q0 -52 -19 -105 t-52.5 -102.5t-76.5 -101t-91.5 -105.5t-97.5 -111t-95 -123.5t-83 -136t-63 -155.5q-24 -86 -32 -176l2 -6l440 6l26 147h114v-301h-738z" />
<glyph unicode="3" horiz-adv-x="1165" d="M252 -26v319h114l38 -164q47 4 90.5 10.5t88 20t82 32t71.5 45.5t57.5 60t37 77.5t13.5 96.5q0 169 -93 235q-64 46 -193 54q-42 2 -158 2v188l428 500h-414v-140h-154v292h766v-142l-458 -524v-22q214 -14 322 -122t108 -321q0 -140 -67 -245.5t-193 -167.5 q-104 -52 -218.5 -68t-267.5 -16z" />
<glyph unicode="4" horiz-adv-x="1165" d="M121 647l459 955h158l-468 -976l4 -34h455v576h153v-576h144v-152h-144v-440h-153v440h-585z" />
<glyph unicode="5" horiz-adv-x="1165" d="M278 -22v288h118l36 -137q101 8 180 36t138.5 78.5t90.5 129.5t31 182q0 69 -20 121t-53.5 84t-83.5 52t-103 27q-52 7 -118 7q-30 0 -65 -2t-76 -6q-41 -2 -64 -4v768h717v-152h-564v-450h54q90 2 168 -12.5t145.5 -48t115 -84.5t74.5 -127.5t27 -172.5 q0 -120 -34 -218.5t-95 -167.5t-145 -115t-184 -66t-214 -14z" />
<glyph unicode="6" horiz-adv-x="1165" d="M131 754q0 86 7 167t25.5 169.5t46.5 164t74 145t105 118t141 77.5t180 29q85 0 187 -30v-284h-113l-40 160q-12 2 -36 2q-76 0 -138.5 -25.5t-105.5 -67.5t-76 -102.5t-52.5 -123t-31.5 -136t-16 -135.5t-4 -128q0 -54 3 -104.5t12 -115t23 -118.5t40 -108t60 -92 t84 -62q50 -23 112 -23q42 0 80 18.5t65 49.5t48.5 70t34.5 82.5t19.5 85t6.5 77.5q0 34 -5 71t-15 77t-28 76t-41.5 65t-57 46t-71.5 17q-114 0 -198 -63l-44 51q40 57 73 89.5t75 50.5t94 18q62 0 116.5 -22t94.5 -59t71.5 -86t50.5 -105t29 -113t10 -113 q0 -59 -12 -120.5t-34 -122t-57 -113.5t-79 -93.5t-102 -63.5t-124 -23q-84 0 -154.5 26.5t-120 71t-87.5 107.5t-61 131t-38 147t-20.5 149t-5.5 144z" />
<glyph unicode="7" horiz-adv-x="1165" d="M127 1306v296h899v-164q-70 -110 -148.5 -269t-148.5 -333t-115.5 -349t-45.5 -295v-192h-154v192q0 102 30 238t76 268t107 276t117 258t112 218h-576v-144h-153z" />
<glyph unicode="8" horiz-adv-x="1165" d="M164 461q0 110 53 217.5t147 193.5q-82 60 -125 145t-43 183q0 90 27 167t75.5 134t123 90t166.5 33q121 0 212.5 -50.5t142.5 -144t51 -217.5q0 -106 -53 -196q-53 -88 -155 -176q120 -66 180 -167t60 -223q0 -58 -14 -116t-39 -110.5t-63 -98t-83 -78t-102 -51 t-119 -18.5q-101 0 -185.5 39t-139.5 106t-86 154t-31 184zM314 475q0 -64 19.5 -125.5t55.5 -110.5t92.5 -78.5t124.5 -29.5q60 0 111 27.5t84.5 71.5t52 99t18.5 113q0 91 -56 161.5t-146 113.5l-197 92q-68 -67 -113.5 -157t-45.5 -177zM350 1194q0 -162 234 -266l88 -39 q75 56 125.5 141.5t50.5 169.5q0 123 -71 196.5t-189 73.5q-60 0 -106 -21.5t-74.5 -60t-43 -87.5t-14.5 -107z" />
<glyph unicode="9" horiz-adv-x="1165" d="M131 1088q0 58 11.5 120t34 122t58 113t79.5 93.5t102 64t122 23.5q84 0 155 -27t120.5 -71t88 -107.5t61.5 -131t37.5 -146.5t20 -149t5.5 -144q0 -86 -7 -167t-25 -170t-47 -164.5t-74.5 -145t-104 -118t-140.5 -77.5q-84 -28 -182 -28q-82 0 -186 30v283h112l42 -160 q10 -2 34 -2q76 0 139 25.5t106 67.5t76 102.5t52 123t31 136.5t16 136t4 128q0 54 -2.5 104t-11.5 114.5t-23.5 119t-40.5 108.5t-59.5 92t-84 61t-112.5 23q-42 0 -79 -18t-64.5 -49t-49 -70.5t-34.5 -83t-20 -84.5t-7 -77q0 -40 7 -85.5t24 -94t41.5 -86.5t63 -62.5 t84.5 -24.5q112 -1 196 63l46 -50q-40 -58 -73.5 -90.5t-75 -50t-93.5 -17.5q-54 0 -102 16t-85 44t-68 67t-52.5 83t-36.5 93t-22 98t-7 97z" />
<glyph unicode=":" horiz-adv-x="624" d="M148 0v295h145v-295h-145zM148 852v293h145v-293h-145z" />
<glyph unicode=";" horiz-adv-x="624" d="M39 -152l17 26q17 26 37.5 63t37.5 84t17 83v189h145v-189q0 -36 -23.5 -83t-51.5 -84t-51 -63l-23 -26h-105zM148 852v293h145v-293h-145z" />
<glyph unicode="&#x3c;" horiz-adv-x="1507" d="M148 574v159l986 449v-180l-780 -348l780 -349v-180z" />
<glyph unicode="=" horiz-adv-x="1214" d="M146 442v142h880v-142h-880zM146 738v140h880v-140h-880z" />
<glyph unicode="&#x3e;" horiz-adv-x="1507" d="M326 125v180l780 349l-780 348v180l987 -449v-159z" />
<glyph unicode="?" horiz-adv-x="1206" d="M160 1512l51 22q52 23 86 35q109 39 189 39q40 0 76 -4t76.5 -15t75 -27.5t66.5 -44.5t54 -64t35 -87.5t13 -113.5q0 -68 -15 -125t-42 -97t-61 -75t-72 -65.5t-76 -61.5t-72 -68.5t-60.5 -81.5t-42 -106.5t-15.5 -137.5h-127q0 176 56 289q41 82 131 171q36 36 118 110 q34 31 55 53.5t39 51.5t26 63q7 36 7 80q0 40 -8 72t-23.5 54t-36.5 37.5t-49.5 24t-59 12.5t-68.5 4q-62 0 -174 -43l2 -203l-152 2zM291 -6v282h147v-282h-147z" />
<glyph unicode="@" horiz-adv-x="1955" d="M230 803q0 108 26.5 210.5t75 190.5t117.5 162t152 126t181 81t201 29q102 0 198.5 -27t177.5 -76t150 -118.5t116.5 -152t74 -180.5t26.5 -200q0 -72 -17 -135.5t-47 -108.5t-69 -77.5t-82 -48t-87 -15.5q-194 0 -279 213q-103 -224 -250 -224q-229 0 -229 250 q0 120 35 222t96 161.5t133 59.5h280v-363q0 -89 60 -151.5t145 -62.5q50 0 91.5 33t65.5 90t24 126q0 89 -22 173.5t-62 156t-96 132t-123.5 103t-147 65.5t-162.5 23q-84 0 -164.5 -23.5t-148.5 -66t-126 -104t-98 -135t-63 -160.5t-23 -178t23 -178.5t63 -161t98 -134.5 t126 -104t148.5 -66.5t164.5 -23.5q237 0 428 158l86 -101q-114 -94 -245.5 -141t-268.5 -47q-104 0 -201.5 29t-180.5 81t-152 125.5t-117.5 161t-75 191t-26.5 211.5zM778 721q0 -57 35 -98t82 -41q53 0 108 36t77 94v338h-122q-58 0 -99 -45t-61 -118t-20 -166z" />
<glyph unicode="A" horiz-adv-x="1239" d="M74 0l399 1602h254l397 -1602h-158l-142 580h-447l-145 -580h-158zM414 731h372l-178 717h-16z" />
<glyph unicode="B" horiz-adv-x="1265" d="M146 22v1580h532q77 0 142.5 -30t109.5 -81t69 -119t25 -143q0 -76 -26 -147.5t-76 -123.5q112 -62 170.5 -176t58.5 -248q0 -106 -31.5 -196t-87.5 -156t-132.5 -114t-169 -71t-194.5 -23q-152 0 -390 48zM299 864l2 -716q145 -24 225 -25q78 0 148 15.5t130 48.5 t103 81t68 117t25 151q0 96 -39 170.5t-112 116t-169 41.5h-381zM299 1018h391q44 0 79 17t57 47t33 67.5t11 79.5q0 44 -12 83.5t-36 69.5t-61 48t-83 18h-379v-430z" />
<glyph unicode="C" horiz-adv-x="1144" d="M74 790q0 77 5.5 151.5t21 159t39.5 158t64 141.5t92 117t126 78t164 29q164 0 387 -28v-376h-152v238q-149 12 -235 12q-52 0 -97 -16t-78.5 -42.5t-61 -65.5t-46.5 -81.5t-33 -94.5t-22.5 -99.5t-13.5 -100t-6.5 -94.5t-1.5 -86q0 -40 2 -80t7 -90.5t13 -97.5 t22.5 -96.5t33 -91.5t45.5 -80t59 -65t74 -42.5t92 -15.5q56 0 104.5 15t88 43.5t71.5 67t59 89.5l133 -74q-160 -294 -456 -294q-88 0 -161 28t-123.5 75.5t-90 114.5t-62.5 138.5t-38 154t-20 154.5q-5 71 -5 147z" />
<glyph unicode="D" horiz-adv-x="1153" d="M146 0v1602q240 22 382 22q82 0 154 -31t127 -87t99 -134t72.5 -174t43 -205.5t14.5 -228.5q0 -74 -5.5 -145.5t-21 -151t-39.5 -148t-63.5 -132t-90 -109t-121.5 -73t-157 -27.5h-71h-33q-140 0 -290 22zM299 137q105 -8 241 -8q63 0 114.5 24t86.5 62.5t62 93.5t42 111 t24 121t12 117t3 106q0 146 -24.5 275.5t-68.5 225.5t-109 151q-66 56 -142 56q-135 0 -241 -8v-1327z" />
<glyph unicode="E" horiz-adv-x="1058" d="M146 0v1602h745v-154h-594v-564h441v-153h-441v-577h721v-154h-872z" />
<glyph unicode="F" horiz-adv-x="917" d="M146 0v1602h730v-154h-577v-564h426v-153h-426v-731h-153z" />
<glyph unicode="G" horiz-adv-x="1161" d="M74 780q0 122 12 228t33.5 184t52 143t63.5 108.5t72 77t74.5 52.5t74 31t67.5 16t59 4q164 0 382 -28v-378h-151v238q-137 14 -231 14q-172 0 -263 -178q-91 -180 -91 -512q0 -309 90 -479t252 -170q104 0 187 66.5t136 172.5v206l-279 55v98h432v-729h-61l-92 170 q-29 -46 -60 -80t-70.5 -60t-88 -39t-104.5 -13q-105 0 -195 47t-154 137q-147 206 -147 618z" />
<glyph unicode="H" horiz-adv-x="1353" d="M146 0v1600h153v-716h717v720h152v-1604h-152v731h-717v-731h-153z" />
<glyph unicode="I" horiz-adv-x="485" d="M146 0v1602h153v-1602h-153z" />
<glyph unicode="J" horiz-adv-x="774" d="M22 -144q90 3 164 28.5t130 72.5t87 120t31 167v1358h154v-1358q0 -124 -41 -224t-114 -167t-172 -105t-218 -43z" />
<glyph unicode="K" horiz-adv-x="1208" d="M146 0v1602h153v-918l600 918h183l-498 -764l436 -684h148v-154h-232l-444 696l-193 -294v-402h-153z" />
<glyph unicode="L" horiz-adv-x="911" d="M146 0v1602h153v-1450h571v-152h-724z" />
<glyph unicode="M" horiz-adv-x="1509" d="M146 0v1602h161l426 -856l426 856h164v-1602h-153v1296l-367 -726h-137l-367 726v-1296h-153z" />
<glyph unicode="N" horiz-adv-x="1341" d="M146 0v1602h186l670 -1362v1362h153v-1602h-187l-669 1362v-1362h-153z" />
<glyph unicode="O" horiz-adv-x="1208" d="M74 776v50q0 73 6.5 145.5t23 152.5t42 151t66 136t92.5 111.5t124 73.5q72 28 156 28t155 -28t122 -74.5t92 -111.5t67 -136t43 -150.5t24 -152.5t7 -145v-50q0 -73 -7 -145.5t-23.5 -153t-42 -151t-66.5 -135.5t-92 -112t-123 -74t-156 -27t-155.5 27.5t-123 74 t-92.5 111.5t-66.5 136t-42.5 151t-23.5 153t-6.5 145zM228 780q0 -52 3.5 -106t14 -119t27.5 -123t45 -113t64 -95t88 -64.5t114 -24.5t114 24.5t88 64t64 95t44.5 113t27 123t14.5 119t4 106.5v50q0 52 -4 106t-15 119t-27 122.5t-44.5 113t-64.5 95.5t-87.5 64t-113.5 24 t-114.5 -24t-88.5 -64t-64 -95t-44.5 -113t-27 -123t-14 -119t-3.5 -106v-50z" />
<glyph unicode="P" horiz-adv-x="1126" d="M146 0v1602q168 22 358 22q244 0 376 -125t132 -367q0 -182 -72 -310.5t-203 -193.5t-313 -65q-68 1 -127 7v-570h-151zM297 725q72 -10 127 -10q212 0 323 104t111 313q0 168 -92 257t-262 89q-106 0 -207 -8v-745z" />
<glyph unicode="Q" horiz-adv-x="1208" d="M74 776v50q0 73 6.5 145.5t23 152.5t42 151t66 136t92.5 111.5t124 73.5q72 28 156 28t155 -28t122 -74.5t92 -111.5t67 -136t43 -150.5t24 -152.5t7 -145v-50q0 -66 -6 -132t-19.5 -139t-34 -139.5t-53.5 -129.5t-74 -112t-98.5 -85.5t-124.5 -50.5l137 -203l-155 -90 l-132 285q-76 8 -139.5 40t-110 80t-83.5 112.5t-60.5 133.5t-39 145.5t-21.5 146t-6 138.5zM228 780q0 -52 3.5 -106t14 -119t27.5 -123t45 -113t64 -95t88 -64.5t114 -24.5t114 24.5t88 64t64 95t44.5 113t27 123t14.5 119t4 106.5v50q0 52 -4 106t-15 119t-27 122.5 t-44.5 113t-64.5 95.5t-87.5 64t-113.5 24t-114.5 -24t-88.5 -64t-64 -95t-44.5 -113t-27 -123t-14 -119t-3.5 -106v-50z" />
<glyph unicode="R" horiz-adv-x="1148" d="M146 0v1602q200 22 336 22q86 0 161 -13t143.5 -44.5t117 -79t77.5 -119.5t29 -164q0 -142 -60.5 -249t-183.5 -167q268 -320 268 -788h-154q0 440 -268 742q-82 -16 -156 -20q-21 -1 -42 -1q-56 0 -117 6v-727h-151zM297 880q86 -8 131 -8q70 0 130 9.5t116.5 33 t95.5 60.5t62.5 95t23.5 134q0 60 -22 108t-57.5 78.5t-84 51t-98.5 28.5t-104 8q-86 0 -193 -10v-588z" />
<glyph unicode="S" horiz-adv-x="1136" d="M74 252v234h143v-156q59 -91 144.5 -150t183.5 -59q86 0 159.5 43.5t116.5 117.5q43 72 43 158q0 110 -41 175t-141 108q-40 17 -95.5 35.5t-100 31.5t-96.5 32.5t-91.5 39t-78 50t-63 67t-40 89t-15.5 116.5q0 104 34.5 187t96 138t146.5 85t186 30q104 0 204 -43 q99 -43 183 -117v-233h-143v170q-112 86 -256 86q-60 0 -115 -20.5t-96.5 -56t-65.5 -89t-24 -115.5q0 -36 5.5 -63.5t17.5 -49t26.5 -38t38.5 -30.5t47 -24t57 -22t100 -33q150 -48 214 -78q130 -60 190 -147q74 -105 74 -277q0 -66 -18 -127t-49 -112t-76 -94t-98 -72 t-115 -45t-128 -16q-137 0 -259.5 76t-204.5 198z" />
<glyph unicode="T" horiz-adv-x="1060" d="M0 1448v154h1020v-154h-428v-1448h-154v1448h-438z" />
<glyph unicode="U" horiz-adv-x="1351" d="M146 776v826h153v-822q0 -58 4 -114.5t14.5 -122t27.5 -122.5t45 -110.5t64 -91.5t88 -61t114 -23t113.5 23t87.5 61t64 91.5t44.5 110.5t27.5 122.5t15 122t4 114.5v822h154v-826q0 -81 -7 -158t-24 -157.5t-43 -150.5t-66.5 -132t-92 -106t-122.5 -69t-155 -25t-155 25 t-123 69t-92.5 106t-66.5 132t-42.5 150.5t-23.5 157.5t-7 158z" />
<glyph unicode="V" horiz-adv-x="1251" d="M74 1602h164l362 -1448h14l361 1448h161l-396 -1602h-263z" />
<glyph unicode="W" horiz-adv-x="1824" d="M74 1602h166l231 -1276l357 1274h128l357 -1274l231 1276h166l-311 -1602h-139l-369 1276l-367 -1276h-139z" />
<glyph unicode="X" horiz-adv-x="1126" d="M74 0l385 813l-371 789h168l286 -634l290 634h170l-374 -789l384 -813h-172l-298 658l-298 -658h-170z" />
<glyph unicode="Y" horiz-adv-x="1243" d="M74 1602h170l358 -795l356 795h170l-450 -963v-639h-154v645z" />
<glyph unicode="Z" horiz-adv-x="1087" d="M74 0v106q0 116 34 215q36 99 128 251l536 876h-692v154h893v-128l-601 -976q-30 -50 -45 -76t-34 -64t-27 -66t-14 -64t-6 -74h708v-154h-880z" />
<glyph unicode="[" horiz-adv-x="626" d="M148 -152v1907h438v-131h-293v-1646h293v-130h-438z" />
<glyph unicode="\" d="M121 1732l155 -2l484 -1884h-156z" />
<glyph unicode="]" horiz-adv-x="628" d="M0 -22h293v1646h-293v131h440v-1907h-440v130z" />
<glyph unicode="^" horiz-adv-x="458" d="M-53 1308l205 294h157l203 -294h-162l-124 183l-128 -183h-151z" />
<glyph unicode="_" horiz-adv-x="1361" d="M-4 0h1333v-152h-1333v152z" />
<glyph unicode="`" horiz-adv-x="458" d="M58 1602h202l142 -294h-128z" />
<glyph unicode="a" horiz-adv-x="1130" d="M74 266q0 80 24 147t65 114.5t99 85t120 60.5t136 39.5t138 24t134 11.5v114q0 60 -27 104t-71 64t-98 20l-213 -48v-115h-153v231q70 14 122 25t112 18t124 7q60 0 112.5 -11t98 -34t78 -58t51 -87t18.5 -116v-862h-154v254q-3 -4 -9 -10q-30 -32 -47.5 -50t-51 -50.5 t-57 -52t-58.5 -44.5t-63.5 -39t-62 -24t-64.5 -10q-139 0 -221 80t-82 212zM223 266q0 -66 43.5 -109t101.5 -43q34 0 82 22t93.5 54t95 74t85 77.5t66.5 68.5v227q-47 -2 -94.5 -8.5t-104.5 -20t-108 -32t-99.5 -48t-83 -66t-56 -87t-21.5 -109.5z" />
<glyph unicode="b" horiz-adv-x="1132" d="M146 0v1602h151v-682q73 112 167 180q96 68 196 68q57 0 105.5 -16t84.5 -44t65 -67t48 -84t31.5 -97t18 -103t5.5 -105v-118q0 -90 -17 -172t-52.5 -152.5t-85.5 -122t-120.5 -80.5t-152.5 -29q-72 0 -150.5 48t-142.5 120l-37 -146h-114zM297 316q44 -76 126 -131.5 t167 -55.5q58 0 107.5 26t87.5 76.5t59.5 131.5t21.5 184v88q0 39 -3 76t-10 75.5t-17 72t-27 62.5t-38 50t-49 33t-62 12q-100 0 -189.5 -69.5t-173.5 -219.5v-411z" />
<glyph unicode="c" horiz-adv-x="944" d="M74 559q0 347 156 500q108 109 270 109q50 0 112 -4t103 -8l41 -3l70 -6v-70v-215h-154v166q-30 2 -102 12l-70 10q-86 0 -149 -61t-94 -171.5t-31 -258.5q0 -140 28 -242.5t88 -161.5t148 -59q136 0 245 176l131 -82q-138 -214 -376 -214q-86 0 -161 34t-131 100 q-124 150 -124 449z" />
<glyph unicode="d" horiz-adv-x="1144" d="M74 536q0 64 4 122t16 123t31 119t51 105t74 86t102 56t134 21q84 0 167 -36t154 -94v564h153v-1376l23 -222h-119l-57 242q-41 -59 -81 -103.5t-88 -84.5t-103 -61t-113 -21q-60 0 -110 20t-85.5 53t-63 80t-44 96.5t-27 106t-14.5 106.5q-4 48 -4 98zM228 536 q0 -26 1.5 -55t7 -70t13.5 -78t22.5 -74t33 -64.5t46.5 -44.5t62 -17q107 0 199.5 69.5t193.5 213.5v479q-72 58 -154.5 88.5t-166.5 30.5q-258 0 -258 -478z" />
<glyph unicode="e" horiz-adv-x="1073" d="M74 549q0 94 16 182.5t51 168t85.5 139t124 94.5t161.5 35q74 0 139 -23t112 -62.5t83 -91t58 -110.5t33 -118t11 -118v-47h-714v-49q0 -72 11 -136.5t34.5 -120.5t58 -96.5t82.5 -64t106 -23.5q46 0 92 15t78 36t62 48.5t46 47t28 36.5l126 -91q-16 -22 -39.5 -47 t-64.5 -58t-87.5 -58t-110.5 -42t-130 -17q-70 0 -130 18t-105.5 50t-82.5 76.5t-61.5 95t-41.5 107.5t-24 112.5t-7 111.5zM244 715h544q0 50 -11.5 97.5t-35 88.5t-56 73t-77 50t-96.5 18q-74 0 -136 -47.5t-97 -123t-35 -156.5z" />
<glyph unicode="f" horiz-adv-x="675" d="M0 1002v143h146q0 226 118 353q118 128 344 128q92 0 172 -24l-32 -148l-187 41q-46 0 -84 -10t-64.5 -27.5t-47 -43.5t-33 -55t-20.5 -65.5t-10.5 -72t-2.5 -76.5h336v-143h-336v-1002h-153v1002h-146z" />
<glyph unicode="g" horiz-adv-x="1105" d="M74 796q0 77 33 145.5t88.5 116.5t129.5 75.5t154 27.5h11l575 3v-152l-383 49q52 -22 92 -54t63 -68t34 -72q11 -37 11 -71q0 -102 -56 -186.5t-148.5 -131t-198.5 -46.5q-95 0 -184 41l2 -197h430q58 0 106.5 -20t79.5 -52.5t47.5 -73t16.5 -83.5q0 -104 -42 -198.5 t-112.5 -162t-165.5 -107.5t-198 -40q-102 0 -180 40t-122.5 116.5t-44.5 177.5v127h154v-88q0 -252 195 -252q60 0 115.5 21t98.5 57t75 84t48.5 105t16.5 116q0 44 -31.5 72.5t-87.5 28.5h-393q-38 0 -65.5 8t-43.5 21.5t-24 34t-9 42t4 49t13 51.5t20.5 53t23.5 51 q10 22 24 46q-79 52 -125.5 128t-46.5 168zM226 796q0 -49 17 -93t48.5 -78.5t80 -55t107.5 -20.5q58 0 106.5 20.5t79.5 55t48.5 79t17.5 92.5q0 66 -31.5 121.5t-89.5 89t-131 33.5q-58 0 -106.5 -20.5t-80.5 -55t-49 -78.5t-17 -90z" />
<glyph unicode="h" horiz-adv-x="1196" d="M146 450l2 4v1148h153v-801q208 367 463 367q268 0 268 -374v-794h-152v794v36.5t-3 40t-7 42.5t-13 38.5t-21 33t-30 21t-42 8.5q-53 0 -104.5 -19.5t-97 -54.5t-91 -87.5t-86.5 -114.5t-84 -140v-598h-153v450h-2z" />
<glyph unicode="i" horiz-adv-x="483" d="M146 0v1145h151v-1145h-151zM146 1331v271h151v-271h-151z" />
<glyph unicode="j" horiz-adv-x="485" d="M-56 -334q76 85 104 124q64 90 86 196q12 64 12 145v1014h153v-981q0 -108 -17.5 -200t-52 -167t-74 -132t-93.5 -115zM148 1331v271h151v-271h-151z" />
<glyph unicode="k" horiz-adv-x="1071" d="M146 0v1602h151v-1055q127 99 229 230t172 277q30 69 35 91h154q0 -40 -20.5 -93.5t-50 -106.5t-67 -108t-70.5 -98t-63 -75l287 -512h127v-152h-217q-64 107 -178.5 316t-128.5 233q-94 -85 -209 -162v-387h-151z" />
<glyph unicode="l" horiz-adv-x="528" d="M146 238v1364h153v-1336q0 -66 24 -88q20 -17 67 -17q11 0 24 1v-162q-56 0 -104.5 16t-85 45t-57.5 75t-21 102z" />
<glyph unicode="m" horiz-adv-x="1648" d="M146 0v1145h122l29 -344q14 34 24 58t25.5 57.5t29 56.5t32 51t37 47.5t42 39t48 31t54.5 18.5q31 8 63 8q106 0 160 -66t64 -203l4 -98q14 36 24 58.5t26 56.5t29 57t32 51.5t37 47t41.5 38.5t48 31.5t54.5 19t63 7.5q49 0 89 -16t65 -42t42 -61.5t24 -72.5t7 -77v-899 h-149v850q0 36 -3.5 62t-12.5 51t-27 38t-46 13t-51 -7.5t-41 -20t-37 -35.5t-34 -46t-35 -59l-146 -256v-590h-149v850q0 35 -3.5 61.5t-12.5 51.5t-28 38t-46 13q-28 0 -51.5 -7.5t-41.5 -20t-36.5 -35.5t-33.5 -46q-16 -23 -36 -59l-145 -256v-590h-151z" />
<glyph unicode="n" horiz-adv-x="1183" d="M146 0v1145h120l33 -344q20 34 32.5 56.5t34 56.5t38 57t41 51.5t46 48t50 39.5t57 31t62.5 19t69 8q54 0 97.5 -15t72 -42t48.5 -61t30.5 -77.5t15.5 -86t5 -92.5v-794h-152v794q0 28 -2 53t-9 57t-19 55t-34.5 39t-52.5 16q-34 0 -67.5 -9t-61.5 -24t-57 -39t-52 -48 t-48 -57t-42.5 -60t-38 -62.5t-33.5 -60t-30 -56.5v-598h-153z" />
<glyph unicode="o" horiz-adv-x="1081" d="M74 572q0 80 12 154.5t35.5 141.5t61 121.5t86 94.5t113 62t138.5 22q90 0 164 -31.5t125.5 -86.5t87.5 -130.5t52.5 -162.5t16.5 -185t-16.5 -186t-52 -163t-87.5 -130t-126 -86t-164 -31q-89 0 -163.5 31t-126 86t-87 130t-52.5 163t-17 186zM228 580q0 -96 18 -181 t53 -151t92 -105t129 -39t129 36t92 99.5t53.5 145.5t18.5 178q0 63 -8 122t-23.5 112t-40.5 97t-56.5 76.5t-74 50t-90.5 17.5q-58 0 -106.5 -23.5t-82.5 -65.5t-57.5 -100t-34.5 -125.5t-11 -143.5z" />
<glyph unicode="p" horiz-adv-x="1132" d="M146 -444v1589h110l41 -225q73 112 167 180q96 68 196 68q57 0 105.5 -16t84.5 -44t65 -67t48 -84t31.5 -97t18 -103t5.5 -105v-118q0 -90 -17 -172t-52.5 -152.5t-85.5 -122t-120.5 -80.5t-152.5 -29q-72 0 -150.5 48t-142.5 120v-590h-151zM297 316q44 -76 126 -131.5 t167 -55.5q58 0 107.5 26t87.5 76.5t59.5 131.5t21.5 184v88q0 39 -3 76t-10 75.5t-17 72t-27 62.5t-38 50t-49 33t-62 12q-100 0 -189.5 -69.5t-173.5 -219.5v-411z" />
<glyph unicode="q" horiz-adv-x="1163" d="M74 536q0 64 4 122t16 123t31 119t51 105t74 86t102 56t134 21q84 0 167 -36t154 -94l77 128h93l-17 -271v-1335h-153v686q-41 -59 -81 -103.5t-88 -84.5t-103 -61t-113 -21q-60 0 -110 20t-85.5 53t-63 80t-44 96.5t-27 106t-14.5 106.5q-4 48 -4 98zM228 536 q0 -26 1.5 -55t7 -70t13.5 -78t22.5 -74t33 -64.5t46.5 -44.5t62 -17q107 0 199.5 69.5t193.5 213.5v479q-72 58 -154.5 88.5t-166.5 30.5q-258 0 -258 -478z" />
<glyph unicode="r" horiz-adv-x="952" d="M146 0v1145h153v-416q36 90 94 172t120.5 140t128.5 92.5t120 34.5l76 -23v-225h-134v55q-116 -36 -209.5 -145t-195.5 -324v-506h-153z" />
<glyph unicode="s" horiz-adv-x="980" d="M74 364h143l2 -118q46 -62 111.5 -102t136.5 -40q46 0 89.5 16t77.5 43t55 67t21 88q0 74 -32 117t-104 67q-30 10 -75 21.5t-80.5 20t-79 22.5t-76.5 29t-65.5 39t-53.5 52t-34.5 68.5t-13.5 89.5q0 65 21 119t57.5 91.5t86 63.5t105.5 38t118 12q85 0 168 -34 q84 -34 157 -90v-184h-143v127q-86 57 -191 57q-36 0 -69.5 -6t-64 -20t-53 -35.5t-35.5 -53t-13 -71.5q0 -21 4 -38.5t11 -30.5t19 -23.5t23 -18t29 -14.5t32 -11l35 -10t67 -18q134 -34 192 -58q120 -50 171 -134q43 -72 43 -182q0 -62 -23 -117t-62 -96t-91 -70.5 t-110 -44t-117 -14.5q-112 0 -213.5 56t-173.5 148z" />
<glyph unicode="t" horiz-adv-x="714" d="M0 1002v143h146v279h153v-279h301v-143h-301v-728q0 -86 24 -126t66 -40q26 0 42.5 12t25.5 34t12.5 48t3.5 60h123v-172q-32 -50 -84 -82t-112 -32q-112 0 -183 73t-71 195v758h-146z" />
<glyph unicode="u" horiz-adv-x="1183" d="M146 352v793h151v-793q0 -28 2 -53t9.5 -57t19 -55t34 -38.5t52.5 -15.5q34 0 67 9.5t61 24t57 39t52 47.5t48 56t42 59t39 63t34 59.5t30 56.5v598h154v-1145h-122l-32 346q-19 -34 -32.5 -57t-34.5 -56.5t-38 -56.5t-41 -51.5t-46.5 -47.5t-51 -39t-56.5 -32t-62 -19 q-32 -7 -68 -7q-46 0 -85 11t-66 30t-48 47t-34 60t-21 70t-11 75t-3 79z" />
<glyph unicode="v" horiz-adv-x="964" d="M74 1145h168l210 -993h46l186 993h166l-252 -1145h-242z" />
<glyph unicode="w" horiz-adv-x="1503" d="M74 1145h162l188 -846h20l199 846h176l199 -846h20l189 846h161l-296 -1145h-130l-231 991l-231 -991h-130z" />
<glyph unicode="x" horiz-adv-x="1034" d="M74 0l336 592l-312 553h172l220 -433h18l223 433h177l-318 -559l330 -586h-170l-240 473h-18l-240 -473h-178z" />
<glyph unicode="y" horiz-adv-x="1099" d="M12 -282q241 0 455 335l-55 152l-338 911l145 50l332 -955q169 360 268 934h166q-107 -522 -279 -930q-28 -66 -57.5 -124.5t-70.5 -126.5t-84 -124.5t-97.5 -110t-112.5 -90.5t-128 -60t-144 -23v162z" />
<glyph unicode="z" horiz-adv-x="950" d="M74 0v119l575 899l-563 -6v133h684l66 -117l-570 -895l551 4v-137h-743z" />
<glyph unicode="{" horiz-adv-x="770" d="M154 731v145q40 0 70 25.5t48 69t26.5 96.5t8.5 115v317q0 116 54 186t141 70h143v-131h-113q-16 0 -26 -2.5t-21 -10.5t-17.5 -23.5t-12 -40.5t-8.5 -63t-3 -90v-243q0 -118 -45 -213t-108 -131v-6q62 -36 107.5 -131.5t45.5 -213.5v-245q0 -51 3 -89t8.5 -62.5t12 -40 t17.5 -23.5t21 -10t26 -2h113v-132h-143q-86 0 -140.5 75t-54.5 194v303q0 62 -8.5 115t-26.5 96t-48 69t-70 27z" />
<glyph unicode="|" horiz-adv-x="770" d="M293 -152v1907h145v-1907h-145z" />
<glyph unicode="}" horiz-adv-x="770" d="M86 -16h112q16 0 26.5 2t21 10t17.5 23.5t13 40t8 62.5t2 89v245q0 118 46 213t108 132v6q-62 36 -108 130.5t-46 213.5v243q0 52 -2 90t-8 63t-13 40.5t-17.5 23.5t-21 10.5t-26.5 2.5h-112v131h144q86 0 140 -70t54 -186v-317q0 -62 9 -115t26.5 -96.5t48.5 -68.5 q30 -26 70 -26v-145q-40 -2 -70.5 -27.5t-48 -68.5t-26.5 -96t-9 -115v-303q0 -118 -54 -193.5t-140 -75.5h-144v132z" />
<glyph unicode="~" horiz-adv-x="1206" d="M129 538q92 176 256 177q38 0 88.5 -14.5t97.5 -35t93 -41t89 -34.5t71 -14q23 0 44.5 9t37.5 21t35.5 35t31 39t29.5 43l75 -86q-23 -32 -38 -52t-41 -46.5t-50 -41.5t-57 -25.5t-70 -10.5q-45 0 -90 14.5t-85 34.5t-81.5 41t-94 35t-108.5 14q-91 0 -157 -148z" />
<glyph unicode="&#xa1;" horiz-adv-x="624" d="M127 -440l35 1159h114l36 -1159h-185zM144 884v284h147v-284h-147z" />
<glyph unicode="&#xa2;" horiz-adv-x="944" d="M123 561q0 309 143 449q74 74 188 94l-16 328h152l-16 -326q38 -1 80 -3.5t67 -4.5t27 -2l71 -6v-72v-201h-157v147q-30 2 -81.5 10t-66.5 11q-110 -2 -173 -115.5t-63 -308.5q0 -187 59 -293t169 -106q64 0 116 41t103 119l135 -84q-110 -172 -286 -197l16 -321h-152 l16 319q-128 19 -216 119q-114 136 -115 403z" />
<glyph unicode="&#xa3;" horiz-adv-x="1214" d="M90 43q30 78 82.5 135.5t124.5 81.5q2 11 8.5 63t10 81.5t8.5 73t7.5 74.5t2.5 50q0 68 -20 146l-174 -23l2 123h132q-14 34 -44 97t-48 101.5t-32.5 94t-14.5 104.5q0 69 15 127t39 96t57.5 68t66 47t69 27.5t63.5 14t51 3.5q186 0 378 -92v-368h-98l-34 266 q-86 24 -141 33t-105 9q-18 0 -34 -1.5t-38 -7.5t-40 -15.5t-37 -27.5t-32 -41.5t-21 -59t-8 -78.5q0 -52 19.5 -111.5t57 -145t53.5 -130.5l311 31l-2 -131l-283 -2q12 -52 12 -109q0 -87 -56 -377q38 -2 86 -17t93.5 -35t89.5 -39t84.5 -32.5t67.5 -13.5q25 0 48 9 t42.5 26.5t35 36.5t32.5 45l61 -96q-16 -23 -26.5 -37.5t-28 -35.5t-31.5 -33.5t-34 -27.5t-40 -23.5t-44 -13.5q-26 -5 -52 -5q-45 0 -90.5 14t-85 34.5t-81 41t-93.5 34.5t-108 14q-90 0 -158 -146z" />
<glyph unicode="&#xa4;" horiz-adv-x="1441" d="M144 590v137l132 -8v172l-132 -9v138l136 -8q8 92 32 179.5t63 166t88.5 137.5t115 94t138.5 35q63 0 118.5 -22t97 -61t72.5 -85t52 -100l-156 -68q-34 90 -81.5 145.5t-107.5 55.5q-43 0 -88.5 -36t-85 -98t-68.5 -153q-29 -90 -38 -192l448 10v-138l-452 11v-176 l314 10v-137l-310 10q6 -84 26 -161t49 -135t63 -102t71 -67t71 -23q30 0 59 16t52 44t42.5 63t35.5 77l156 -66q-21 -54 -52 -101t-72.5 -85t-97 -60t-118.5 -22q-74 0 -139.5 35t-116 95.5t-89 140t-61.5 168.5t-31 181z" />
<glyph unicode="&#xa5;" horiz-adv-x="1243" d="M74 1602h170l358 -795l356 795h170l-340 -724h176v-140h-241l-45 -99v-55h286v-142h-286v-442h-154v442h-292v142h292v61l-45 93h-247v140h182z" />
<glyph unicode="&#xa6;" horiz-adv-x="477" d="M146 -152v734h145v-734h-145zM146 1022v733h145v-733h-145z" />
<glyph unicode="&#xa7;" horiz-adv-x="1206" d="M133 -114v264h105l46 -148q80 -16 126 -16q23 0 42.5 3t45.5 15t44 32t31 58t13 88q0 40 -23.5 88t-61 96t-82.5 99t-90 106t-83 110t-61 117t-23 120q0 78 34 155t93 139q-9 30 -9 68q0 63 13.5 115.5t35 87.5t51 62t59 42t62.5 25t59 13q24 3 48 3q20 0 40.5 -1.5 t40 -4t39.5 -6.5t39.5 -8.5t39.5 -9.5t38.5 -10.5t38.5 -10.5v-264h-104l-47 147q-75 16 -125 16q-23 0 -43 -3t-45.5 -15t-43.5 -32t-31 -57.5t-13 -88.5q0 -40 23.5 -88t61 -96t82.5 -99t90 -106t82.5 -110t61 -116.5t23.5 -119.5q0 -78 -34 -155.5t-93 -139.5 q9 -32 9 -68q0 -63 -13.5 -115t-35 -87.5t-51 -62.5t-59 -42t-62.5 -25t-59 -13q-24 -3 -48 -3q-44 0 -98 9t-85 17t-94 26zM305 952q0 -48 28.5 -105t75.5 -117t96.5 -118.5t102.5 -128.5q52 -71 82 -129q22 70 22 156q0 48 -28 105t-75 117t-96.5 119t-102 129t-82.5 128 q-22 -72 -23 -156z" />
<glyph unicode="&#xa8;" horiz-adv-x="1062" d="M309 1313v295h139v-295h-139zM612 1313v295h142v-295h-142z" />
<glyph unicode="&#xa9;" horiz-adv-x="1955" d="M223 803q0 108 26.5 210.5t75.5 190.5t118 162t152 126t181.5 81t202.5 29t201.5 -29t180.5 -81t152 -126t117.5 -162t75 -190.5t26.5 -210.5t-26.5 -211.5t-75 -191t-117.5 -161t-152 -125.5t-181 -81t-201 -29q-104 0 -202.5 29t-181.5 81t-152 125.5t-118 161 t-75.5 191t-26.5 211.5zM354 803q0 -110 32 -212.5t90 -184.5t135 -143t172 -94.5t196 -33.5q84 0 164.5 23.5t148.5 66.5t126 104t98 134.5t63 161t23 178.5t-23 178t-63 160.5t-98 135t-126 104t-148.5 66t-164.5 23.5q-101 0 -196 -33t-172 -94.5t-135 -143t-90 -184 t-32 -212.5zM643 803q0 32 3.5 64t13.5 69t25 69t40 62.5t57.5 52.5t79 35t102.5 13q80 0 250 -15v-227h-128v135q-42 2 -122 2q-35 0 -63.5 -9.5t-48 -24.5t-34 -37t-23.5 -45t-14 -50t-7 -49t-2 -45q0 -32 4 -62.5t16 -66t31.5 -62t54.5 -44.5q34 -17 80 -17 q54 0 104 42.5t76 104.5l118 -44q-48 -101 -124 -153.5t-174 -52.5q-56 0 -102 13t-78 34t-56.5 51t-39 61t-23.5 67t-12.5 66.5t-3.5 62.5z" />
<glyph unicode="&#xaa;" d="M144 1184q0 72 12 138t39 123t66 99t96 66t125 24q104 0 168 -2q64 -4 76 -6l12 -2v-889h-103l-29 252q-110 -254 -240 -254q-48 0 -85.5 22t-63 61t-42.5 96t-24 124q-7 68 -7 148zM276 1190q0 -84 4.5 -143t15 -106t31 -70t50.5 -23q37 0 81 58t82 143.5t66 183.5v279 q-60 8 -124 8q-66 0 -113 -45t-70 -118t-23 -167z" />
<glyph unicode="&#xab;" horiz-adv-x="1206" d="M104 654l434 514h187l-457 -514l457 -514h-187zM442 654l434 514h187l-455 -514l455 -514h-187z" />
<glyph unicode="&#xac;" d="M148 434v148h585v-440h-147v292h-438z" />
<glyph unicode="&#xad;" horiz-adv-x="1064" d="M291 588v141h442v-141h-442z" />
<glyph unicode="&#xae;" horiz-adv-x="1955" d="M223 803q0 108 26.5 210.5t75.5 190.5t118 162t152 126t181.5 81t202.5 29t201.5 -29t180.5 -81t152 -126t117.5 -162t75 -190.5t26.5 -210.5t-26.5 -211.5t-75 -191t-117.5 -161t-152 -125.5t-181 -81t-201 -29q-104 0 -202.5 29t-181.5 81t-152 125.5t-118 161 t-75.5 191t-26.5 211.5zM354 803q0 -110 32 -212.5t90 -184.5t135 -143t172 -94.5t196 -33.5q84 0 164.5 23.5t148.5 66.5t126 104t98 134.5t63 161t23 178.5t-23 178t-63 160.5t-98 135t-126 104t-148.5 66t-164.5 23.5q-101 0 -196 -33t-172 -94.5t-135 -143t-90 -184 t-32 -212.5zM721 461v679l27 8q26 7 88 14.5t132 7.5q36 0 74 -6t75 -17t69 -29t57 -40t39 -53t14 -67q0 -62 -41.5 -107.5t-109.5 -72.5q14 -16 28.5 -30.5t27.5 -30t25.5 -30.5t24 -32t21 -33t17 -35t13 -38t8.5 -41t3 -45h-156q0 80 -30.5 156.5t-80.5 132.5l-194 -8 v-283h-131zM852 826h4h36t40.5 1t44.5 3t43.5 7t42.5 11t36.5 16.5t31 23.5t19 30.5t7.5 39.5q0 27 -11.5 47.5t-30.5 33t-46 20t-53 10.5t-57 3.5t-53 -0.5q-23 0 -48 -2q-4 0 -6 -1v-243z" />
<glyph unicode="&#xaf;" horiz-adv-x="477" d="M-33 1491v111h543v-111h-543z" />
<glyph unicode="&#xb0;" d="M144 1222v54q0 88 38 163t107 121t153 46t153 -46t108 -121t39 -163v-54q0 -64 -23 -124t-62 -105.5t-95 -72.5t-119 -27t-119 27t-95.5 72.5t-62 105.5t-22.5 124zM266 1222q0 -88 53 -147t123 -59q34 0 66.5 15.5t57 42t38.5 65.5t14 83v54q0 88 -52 147.5t-123 59.5 t-124 -59.5t-53 -147.5v-54z" />
<glyph unicode="&#xb1;" horiz-adv-x="1351" d="M146 148v141h1011v-141h-1011zM146 727v141h434v300h141v-300h436v-141h-434v-293h-141v293h-436z" />
<glyph unicode="&#xb2;" horiz-adv-x="1048" d="M152 729v69q0 64 13 124t38 110.5t51 89.5q28 40 62 80q21 26 57.5 67t48.5 56q43 56 43 80q0 37 -29.5 55t-81.5 18q-34 0 -63 -10v-143h-137v211q86 78 202 78q38 0 73 -8t66 -24t54.5 -40.5t37 -60t13.5 -78.5q0 -62 -47 -127q-13 -20 -31 -43t-34 -41t-36 -39 q-32 -38 -53.5 -65.5t-46.5 -66.5t-40.5 -81t-20.5 -86q54 10 170 10l14 76h111v-211h-434z" />
<glyph unicode="&#xb3;" d="M154 715v221h110l18 -80q38 4 68.5 14t55 26t37.5 42t13 60q0 64 -25 88t-87 28q-26 2 -114 2v136l184 214h-119v-72h-137v208h450v-113l-223 -256q98 0 153 -61q56 -60 56 -174q0 -80 -39 -141t-111 -95q-59 -30 -124 -38q-64 -9 -166 -9z" />
<glyph unicode="&#xb4;" horiz-adv-x="477" d="M68 1308l139 294h203l-216 -294h-126z" />
<glyph unicode="&#xb6;" horiz-adv-x="1206" d="M0 1098q0 106 47 200t125 160t183 105t219 39h598v-103l-148 -37v-1484q0 -52 -6 -94.5t-22 -87t-43 -79.5t-71.5 -66t-104 -51t-142.5 -32t-187 -12q-4 36 -4.5 41t-2 24t-1.5 45q88 0 150 6v922h-16q-90 0 -176.5 24t-158 70t-125.5 107t-84 139q-30 80 -30 164z M152 1097.5q0 -68.5 32 -134.5t87 -116.5t134 -82t169 -31.5h16v729h-16q-89 0 -168.5 -31t-134.5 -82t-87 -117t-32 -134.5zM731 -295q46 18 75.5 44.5t46.5 66.5t23 86t6 110v1450h-151v-1757z" />
<glyph unicode="&#xb7;" horiz-adv-x="477" d="M148 582v292h145v-292h-145z" />
<glyph unicode="&#xb8;" horiz-adv-x="477" d="M26 -404l27 68q28 -12 67.5 -19t67.5 -7q27 0 51 7t42 26t18 47q0 43 -25.5 63.5t-68.5 20.5q-54 0 -82 -15l-31 37l119 176h90l-86 -127q36 6 74 6q71 0 116 -42.5t45 -100.5q0 -38 -15 -69t-39 -50t-55 -33t-62 -19t-62 -5q-52 0 -104.5 9t-86.5 27z" />
<glyph unicode="&#xb9;" d="M127 1444l305 194v-772h148v-137h-430v137h145v537l-103 -61z" />
<glyph unicode="&#xba;" d="M88 1183.5q0 72.5 13 138.5t40 123t66 99t95 66t124 24t124.5 -24t95.5 -66t66 -99t39.5 -123t12.5 -138.5t-12.5 -138t-39.5 -123t-66 -99.5t-95.5 -66t-124.5 -24t-124 24t-95 66t-66 99.5t-40 123t-13 138zM221 1190q0 -96 22.5 -172t69.5 -123t113 -47t113 44.5 t69.5 118t22.5 167.5q0 71 -13 132t-38 108.5t-64.5 74.5t-89.5 27q-66 0 -113 -45t-69.5 -118t-22.5 -167z" />
<glyph unicode="&#xbb;" horiz-adv-x="1206" d="M104 140l455 514l-455 514h187l434 -514l-434 -514h-187zM442 140l457 514l-457 514h186l435 -514l-435 -514h-186z" />
<glyph unicode="&#xbc;" horiz-adv-x="1955" d="M127 1444l305 194v-772h148v-137h-430v137h145v537l-103 -61zM334 0l950 1602h176l-950 -1602h-176zM1088 362l248 510h147l-250 -514h170v294h137v-294h74v-135h-74v-223h-137v223h-299z" />
<glyph unicode="&#xbd;" horiz-adv-x="1955" d="M127 1444l305 194v-772h148v-137h-430v137h145v537l-103 -61zM314 0l950 1602h176l-950 -1602h-176zM1184 -10v70q0 64 13.5 123.5t39 110.5t51.5 90q26 38 60 79q20 25 56.5 66t49.5 57q43 52 43 80q0 38 -29 56q-30 18 -82 18q-31 0 -63 -11v-143h-135v210 q80 78 202 78q37 0 72 -7t66.5 -23.5t55 -40.5t37 -59t13.5 -78q0 -60 -47 -130q-20 -29 -49.5 -63.5t-52.5 -58.5q-32 -36 -54.5 -65t-46.5 -67.5t-39 -80.5q-15 -43 -20 -87q18 4 52.5 7t73.5 4t44 2l13 73h112v-210h-436z" />
<glyph unicode="&#xbe;" horiz-adv-x="1955" d="M203 715v221h111l18 -80q38 4 68 14t54.5 26t38 42t13.5 60q0 64 -26 88t-87 28q-27 2 -115 2v136l185 214h-119v-72h-137v208h451v-113l-224 -256q98 0 154 -61q55 -60 55 -174q0 -80 -39 -141q-38 -61 -110 -95q-59 -30 -124.5 -38.5t-166.5 -8.5zM334 0l950 1602h176 l-950 -1602h-176zM1088 362l248 510h147l-250 -514h170v294h137v-294h74v-135h-74v-223h-137v223h-299z" />
<glyph unicode="&#xbf;" horiz-adv-x="1062" d="M160 -88q0 68 15.5 124.5t42 97t61 75.5t72.5 65t76 61t72.5 69t61 82t42 106t15.5 137h128q0 -175 -58 -289q-40 -80 -130 -170q-34 -34 -118 -110q-35 -32 -55.5 -54t-38.5 -51.5t-26 -64t-8 -78.5q0 -49 11.5 -85t32 -58.5t52.5 -36.5t68 -19.5t83 -5.5q63 0 174 43 l-2 203l151 -2v-299l-50 -23q-50 -23 -84 -35q-108 -38 -189 -38q-40 0 -76.5 4t-77 14t-75 27t-67 45t-55 64t-35.5 88t-13 114zM606 887v283h148v-283h-148z" />
<glyph unicode="&#xc0;" horiz-adv-x="1239" d="M74 0l399 1602h254l397 -1602h-158l-142 580h-447l-145 -580h-158zM396 1950h202l142 -294h-128zM414 731h372l-178 717h-16z" />
<glyph unicode="&#xc1;" horiz-adv-x="1239" d="M74 0l399 1602h254l397 -1602h-158l-142 580h-447l-145 -580h-158zM414 731h372l-178 717h-16zM468 1662l139 294h203l-216 -294h-126z" />
<glyph unicode="&#xc2;" horiz-adv-x="1239" d="M74 0l399 1602h254l397 -1602h-158l-142 580h-447l-145 -580h-158zM323 1662l205 294h158l204 -294h-162l-124 183l-128 -183h-153zM414 731h372l-178 717h-16z" />
<glyph unicode="&#xc3;" horiz-adv-x="1239" d="M74 0l399 1602h254l397 -1602h-158l-142 580h-447l-145 -580h-158zM317 1714q0 30 8 62t23.5 61t36.5 52t50 37t61 14q33 0 71 -11.5t66 -25t57 -24.5t47 -11q28 0 45 26t23 58h106q-6 -36 -12.5 -64t-20.5 -59t-32.5 -51.5t-48.5 -34t-68 -13.5q-32 0 -78 19t-88.5 37 t-66.5 18q-28 0 -55 -31t-21 -59h-103zM414 731h372l-178 717h-16z" />
<glyph unicode="&#xc4;" horiz-adv-x="1239" d="M74 0l399 1602h254l397 -1602h-158l-142 580h-447l-145 -580h-158zM381 1659v295h139v-295h-139zM414 731h372l-178 717h-16zM684 1659v295h142v-295h-142z" />
<glyph unicode="&#xc5;" horiz-adv-x="1239" d="M74 0l399 1602h254l397 -1602h-158l-142 580h-447l-145 -580h-158zM394 1830q0 86 62 148t148 62t148 -62t62 -148t-61 -147t-147 -61t-149 62q-63 60 -63 146zM414 731h372l-178 717h-16zM485 1831q0 -49 34.5 -84t83.5 -35t84 34.5t35 83.5h2q0 49 -35 84.5t-83 35.5 q-50 0 -85.5 -35t-35.5 -84z" />
<glyph unicode="&#xc6;" horiz-adv-x="1769" d="M74 0l582 1602h946v-154h-594v-564h440v-153h-440v-577h720v-154h-872v731h-346l-266 -731h-170zM563 882h293v566h-88z" />
<glyph unicode="&#xc7;" horiz-adv-x="1144" d="M74 790q0 77 5.5 151.5t21 159t39.5 158t64 141.5t92 117t126 78t164 29q164 0 387 -28v-376h-152v238q-149 12 -235 12q-52 0 -97 -16t-78.5 -42.5t-61 -65.5t-46.5 -81.5t-33 -94.5t-22.5 -99.5t-13.5 -100t-6.5 -94.5t-1.5 -86q0 -40 2 -80t7 -90.5t13 -97.5 t22.5 -96.5t33 -91.5t45.5 -80t59 -65t74 -42.5t92 -15.5q56 0 104.5 15t88 43.5t71.5 67t59 89.5l133 -74q-160 -294 -456 -294q-88 0 -161 28t-123.5 75.5t-90 114.5t-62.5 138.5t-38 154t-20 154.5q-5 71 -5 147zM376 -404l27 68q28 -12 67.5 -19t67.5 -7q27 0 51 7 t42 26t18 47q0 43 -25.5 63.5t-68.5 20.5q-54 0 -82 -15l-31 37l119 176h90l-86 -127q36 6 74 6q71 0 116 -42.5t45 -100.5q0 -38 -15 -69t-39 -50t-55 -33t-62 -19t-62 -5q-52 0 -104.5 9t-86.5 27z" />
<glyph unicode="&#xc8;" horiz-adv-x="1058" d="M146 0v1602h745v-154h-594v-564h441v-153h-441v-577h721v-154h-872zM326 1950h202l142 -294h-128z" />
<glyph unicode="&#xc9;" horiz-adv-x="1058" d="M146 0v1602h745v-154h-594v-564h441v-153h-441v-577h721v-154h-872zM453 1662l139 294h203l-216 -294h-126z" />
<glyph unicode="&#xca;" horiz-adv-x="1058" d="M146 0v1602h745v-154h-594v-564h441v-153h-441v-577h721v-154h-872zM264 1664l205 294h158l204 -294h-162l-124 183l-128 -183h-153z" />
<glyph unicode="&#xcb;" horiz-adv-x="1058" d="M146 0v1602h745v-154h-594v-564h441v-153h-441v-577h721v-154h-872zM333 1653v295h139v-295h-139zM636 1653v295h142v-295h-142z" />
<glyph unicode="&#xcc;" horiz-adv-x="485" d="M-32 1950h202l142 -294h-128zM146 0v1602h153v-1602h-153z" />
<glyph unicode="&#xcd;" horiz-adv-x="485" d="M146 0v1602h153v-1602h-153zM150 1662l139 294h203l-216 -294h-126z" />
<glyph unicode="&#xce;" horiz-adv-x="485" d="M-53 1662l205 294h158l204 -294h-162l-124 183l-128 -183h-153zM146 0v1602h153v-1602h-153z" />
<glyph unicode="&#xcf;" horiz-adv-x="485" d="M4 1659v295h139v-295h-139zM146 0v1602h153v-1602h-153zM307 1659v295h142v-295h-142z" />
<glyph unicode="&#xd0;" horiz-adv-x="1153" d="M6 735v139h568v-139h-568zM146 0v1602q240 22 382 22q82 0 154 -31t127 -87t99 -134t72.5 -174t43 -205.5t14.5 -228.5q0 -74 -5.5 -145.5t-21 -151t-39.5 -148t-63.5 -132t-90 -109t-121.5 -73t-157 -27.5h-71q-155 -3 -323 22zM299 137q105 -8 241 -8q63 0 114.5 24 t86.5 62.5t62 93.5t42 111t24 121t12 117t3 106q0 146 -24.5 275.5t-68.5 225.5t-109 151q-66 56 -142 56q-135 0 -241 -8v-1327z" />
<glyph unicode="&#xd1;" horiz-adv-x="1351" d="M146 0v1602h186l670 -1362v1362h153v-1602h-187l-669 1362v-1362h-153zM364 1690q0 30 8 62t23.5 61t36.5 52t50 37t61 14q33 0 71 -11.5t66 -25t57 -24.5t47 -11q28 0 45 26t23 58h106q-6 -36 -12.5 -64t-20.5 -59t-32.5 -51.5t-48.5 -34t-68 -13.5q-32 0 -78 19 t-88.5 37t-66.5 18q-28 0 -55 -31t-21 -59h-103z" />
<glyph unicode="&#xd2;" horiz-adv-x="1208" d="M74 776v50q0 73 6.5 145.5t23 152.5t42 151t66 136t92.5 111.5t124 73.5q72 28 156 28t155 -28t122 -74.5t92 -111.5t67 -136t43 -150.5t24 -152.5t7 -145v-50q0 -73 -7 -145.5t-23.5 -153t-42 -151t-66.5 -135.5t-92 -112t-123 -74t-156 -27t-155.5 27.5t-123 74 t-92.5 111.5t-66.5 136t-42.5 151t-23.5 153t-6.5 145zM228 780q0 -52 3.5 -106t14 -119t27.5 -123t45 -113t64 -95t88 -64.5t114 -24.5t114 24.5t88 64t64 95t44.5 113t27 123t14.5 119t4 106.5v50q0 52 -4 106t-15 119t-27 122.5t-44.5 113t-64.5 95.5t-87.5 64t-113.5 24 t-114.5 -24t-88.5 -64t-64 -95t-44.5 -113t-27 -123t-14 -119t-3.5 -106v-50zM314 1950h202l142 -294h-128z" />
<glyph unicode="&#xd3;" horiz-adv-x="1208" d="M74 776v50q0 73 6.5 145.5t23 152.5t42 151t66 136t92.5 111.5t124 73.5q72 28 156 28t155 -28t122 -74.5t92 -111.5t67 -136t43 -150.5t24 -152.5t7 -145v-50q0 -73 -7 -145.5t-23.5 -153t-42 -151t-66.5 -135.5t-92 -112t-123 -74t-156 -27t-155.5 27.5t-123 74 t-92.5 111.5t-66.5 136t-42.5 151t-23.5 153t-6.5 145zM228 780q0 -52 3.5 -106t14 -119t27.5 -123t45 -113t64 -95t88 -64.5t114 -24.5t114 24.5t88 64t64 95t44.5 113t27 123t14.5 119t4 106.5v50q0 52 -4 106t-15 119t-27 122.5t-44.5 113t-64.5 95.5t-87.5 64t-113.5 24 t-114.5 -24t-88.5 -64t-64 -95t-44.5 -113t-27 -123t-14 -119t-3.5 -106v-50zM514 1662l139 294h203l-216 -294h-126z" />
<glyph unicode="&#xd4;" horiz-adv-x="1208" d="M74 774v50q0 73 6.5 145.5t23 152.5t42 151t66 136t92.5 111.5t124 73.5q72 28 156 28t155 -28t122 -74.5t92 -111.5t67 -136t43 -150.5t24 -152.5t7 -145v-50q0 -73 -7 -145.5t-23.5 -153t-42 -151t-66.5 -135.5t-92 -112t-123 -74t-156 -27t-155.5 27.5t-123 74 t-92.5 111.5t-66.5 136t-42.5 151t-23.5 153t-6.5 145zM228 778q0 -52 3.5 -106t14 -119t27.5 -123t45 -113t64 -95t88 -64.5t114 -24.5t114 24.5t88 64t64 95t44.5 113t27 122.5t14.5 119t4 107v50q0 52 -4 106t-15 119t-27 122.5t-44.5 113t-64.5 95.5t-87.5 64t-113.5 24 t-114.5 -24t-88.5 -64t-64 -95t-44.5 -113t-27 -123t-14 -119t-3.5 -106v-50zM307 1663l205 293h158l202 -293h-162l-124 182l-127 -182h-152z" />
<glyph unicode="&#xd5;" horiz-adv-x="1208" d="M74 776v50q0 73 6.5 145.5t23 152.5t42 151t66 136t92.5 111.5t124 73.5q72 28 156 28t155 -28t122 -74.5t92 -111.5t67 -136t43 -150.5t24 -152.5t7 -145v-50q0 -73 -7 -145.5t-23.5 -153t-42 -151t-66.5 -135.5t-92 -112t-123 -74t-156 -27t-155.5 27.5t-123 74 t-92.5 111.5t-66.5 136t-42.5 151t-23.5 153t-6.5 145zM228 780q0 -52 3.5 -106t14 -119t27.5 -123t45 -113t64 -95t88 -64.5t114 -24.5t114 24.5t88 64t64 95t44.5 113t27 123t14.5 119t4 106.5v50q0 52 -4 106t-15 119t-27 122.5t-44.5 113t-64.5 95.5t-87.5 64t-113.5 24 t-114.5 -24t-88.5 -64t-64 -95t-44.5 -113t-27 -123t-14 -119t-3.5 -106v-50zM282 1714q0 30 8 62t23.5 61t36.5 52t50 37t61 14q33 0 71 -11.5t66 -25t57 -24.5t47 -11q28 0 45 26t23 58h106q-6 -36 -12.5 -64t-20.5 -59t-32.5 -51.5t-48.5 -34t-68 -13.5q-32 0 -78 19 t-88.5 37t-66.5 18q-28 0 -55 -31t-21 -59h-103z" />
<glyph unicode="&#xd6;" horiz-adv-x="1208" d="M74 776v50q0 73 6.5 145.5t23 152.5t42 151t66 136t92.5 111.5t124 73.5q72 28 156 28t155 -28t122 -74.5t92 -111.5t67 -136t43 -150.5t24 -152.5t7 -145v-50q0 -73 -7 -145.5t-23.5 -153t-42 -151t-66.5 -135.5t-92 -112t-123 -74t-156 -27t-155.5 27.5t-123 74 t-92.5 111.5t-66.5 136t-42.5 151t-23.5 153t-6.5 145zM228 780q0 -52 3.5 -106t14 -119t27.5 -123t45 -113t64 -95t88 -64.5t114 -24.5t114 24.5t88 64t64 95t44.5 113t27 123t14.5 119t4 106.5v50q0 52 -4 106t-15 119t-27 122.5t-44.5 113t-64.5 95.5t-87.5 64t-113.5 24 t-114.5 -24t-88.5 -64t-64 -95t-44.5 -113t-27 -123t-14 -119t-3.5 -106v-50zM367 1663v295h139v-295h-139zM670 1663v295h142v-295h-142z" />
<glyph unicode="&#xd7;" horiz-adv-x="1214" d="M176 422l308 309l-308 307l100 100l308 -308l307 308l100 -100l-307 -307l307 -309l-100 -100l-307 309l-308 -309z" />
<glyph unicode="&#xd8;" horiz-adv-x="1208" d="M74 -154l154 326q-54 80 -90.5 190t-50 211t-13.5 203v50q0 56 4 112t13.5 118t24 120t37.5 115t51 106t67 91t84.5 72t104 47t124.5 17q164 0 276 -102l111 233l141 2l-160 -344q38 -60 67 -135.5t44.5 -153.5t23 -152t7.5 -146v-50q0 -73 -7 -145.5t-23.5 -153 t-42 -151t-66.5 -135.5t-92 -112t-123 -74t-156 -27q-148 0 -262 90l-105 -222h-143zM228 780q0 -110 18 -226.5t61 -211.5l485 1036q-82 96 -208 96q-62 0 -114.5 -24t-88.5 -64t-64 -95t-44.5 -113t-27 -123t-14 -119t-3.5 -106v-50zM391 215q81 -80 193 -80 q63 0 115 24.5t88 64t64 95t44.5 113t26.5 123t14 119t4 106.5v50q0 102 -16 211t-52 202z" />
<glyph unicode="&#xd9;" horiz-adv-x="1351" d="M146 776v826h153v-822q0 -58 4 -114.5t14.5 -122t27.5 -122.5t45 -110.5t64 -91.5t88 -61t114 -23t113.5 23t87.5 61t64 91.5t44.5 110.5t27.5 122.5t15 122t4 114.5v822h154v-826q0 -81 -7 -158t-24 -157.5t-43 -150.5t-66.5 -132t-92 -106t-122.5 -69t-155 -25t-155 25 t-123 69t-92.5 106t-66.5 132t-42.5 150.5t-23.5 157.5t-7 158zM416 1950h202l142 -294h-128z" />
<glyph unicode="&#xda;" horiz-adv-x="1351" d="M146 776v826h153v-822q0 -58 4 -114.5t14.5 -122t27.5 -122.5t45 -110.5t64 -91.5t88 -61t114 -23t113.5 23t87.5 61t64 91.5t44.5 110.5t27.5 122.5t15 122t4 114.5v822h154v-826q0 -81 -7 -158t-24 -157.5t-43 -150.5t-66.5 -132t-92 -106t-122.5 -69t-155 -25t-155 25 t-123 69t-92.5 106t-66.5 132t-42.5 150.5t-23.5 157.5t-7 158zM543 1662l139 294h203l-216 -294h-126z" />
<glyph unicode="&#xdb;" horiz-adv-x="1351" d="M146 776v826h153v-822q0 -58 4 -114.5t14.5 -122t27.5 -122.5t45 -110.5t64 -91.5t88 -61t114 -23t113.5 23t87.5 61t64 91.5t44.5 110.5t27.5 122.5t15 122t4 114.5v822h154v-826q0 -81 -7 -158t-24 -157.5t-43 -150.5t-66.5 -132t-92 -106t-122.5 -69t-155 -25t-155 25 t-123 69t-92.5 106t-66.5 132t-42.5 150.5t-23.5 157.5t-7 158zM355 1664l205 294h158l204 -294h-162l-124 183l-128 -183h-153z" />
<glyph unicode="&#xdc;" horiz-adv-x="1351" d="M146 776v826h153v-822q0 -58 4 -114.5t14.5 -122t27.5 -122.5t45 -110.5t64 -91.5t88 -61t114 -23t113.5 23t87.5 61t64 91.5t44.5 110.5t27.5 122.5t15 122t4 114.5v822h154v-826q0 -81 -7 -158t-24 -157.5t-43 -150.5t-66.5 -132t-92 -106t-122.5 -69t-155 -25t-155 25 t-123 69t-92.5 106t-66.5 132t-42.5 150.5t-23.5 157.5t-7 158zM432 1663v295h139v-295h-139zM735 1663v295h142v-295h-142z" />
<glyph unicode="&#xdd;" horiz-adv-x="1243" d="M74 1602h170l358 -795l356 795h170l-450 -963v-639h-154v645zM543 1662l139 294h203l-216 -294h-126z" />
<glyph unicode="&#xde;" horiz-adv-x="1126" d="M146 0v1602h151v-289q104 6 207 6q244 0 376 -124.5t132 -366.5q0 -182 -72 -311t-203 -194t-313 -65q-72 0 -127 8v-266h-151zM297 420q70 -10 127 -10q212 0 323 104.5t111 313.5q0 168 -92 257t-262 89q-106 0 -207 -8v-746z" />
<glyph unicode="&#xdf;" horiz-adv-x="1153" d="M146 0v1042q0 67 12 134.5t36 131.5t62 119t86.5 96t113 65t138.5 24q104 0 182.5 -18t127 -47.5t78.5 -73t41 -89t11 -100.5q0 -62 -23 -112.5t-62 -83.5t-93 -50q-52 -18 -114 -18q-78 0 -121 -42t-43 -112q0 -37 15.5 -68t42 -54.5t61.5 -44.5t73 -40.5t76 -40 t73 -46.5t61.5 -56.5t42 -73t15.5 -92.5q0 -165 -90 -262.5t-240 -97.5q-44 0 -86 13t-78 36t-69 55t-60 68t-51 78l132 74q22 -45 43 -77.5t47 -60t57 -41.5t65 -14q37 0 69 12t56.5 36.5t39 64.5t14.5 92q0 38 -15.5 70t-42.5 55t-61.5 43t-73 38t-76.5 37t-72.5 44 t-61 54t-42.5 71t-16 94q0 122 72 204t192 98q24 2 48 6t45.5 8t40 14t31.5 25t20 39.5t7 57.5q0 19 -2 36.5t-9.5 40t-20 41t-34.5 37.5t-51 31.5t-73 20.5t-98 8q-52 0 -96 -21.5t-76 -57.5t-56.5 -82t-39 -98t-22 -102t-7.5 -96v-1042h-151z" />
<glyph unicode="&#xe0;" horiz-adv-x="1130" d="M74 266q0 80 24 147t65 114.5t99 85t120 60.5t136 39.5t138 24t134 11.5v114q0 60 -27 104t-71 64t-98 20l-213 -48v-115h-153v231q70 14 122 25t112 18t124 7q60 0 112.5 -11t98 -34t78 -58t51 -87t18.5 -116v-862h-154v254q-3 -4 -9 -10q-30 -32 -47.5 -50t-51 -50.5 t-57 -52t-58.5 -44.5t-63.5 -39t-62 -24t-64.5 -10q-139 0 -221 80t-82 212zM223 266q0 -66 43.5 -109t101.5 -43q34 0 82 22t93.5 54t95 74t85 77.5t66.5 68.5v227q-47 -2 -94.5 -8.5t-104.5 -20t-108 -32t-99.5 -48t-83 -66t-56 -87t-21.5 -109.5zM374 1602h202l142 -294 h-128z" />
<glyph unicode="&#xe1;" horiz-adv-x="1130" d="M74 266q0 80 24 147t65 114.5t99 85t120 60.5t136 39.5t138 24t134 11.5v114q0 60 -27 104t-71 64t-98 20l-213 -48v-115h-153v231q70 14 122 25t112 18t124 7q60 0 112.5 -11t98 -34t78 -58t51 -87t18.5 -116v-862h-154v254q-3 -4 -9 -10q-30 -32 -47.5 -50t-51 -50.5 t-57 -52t-58.5 -44.5t-63.5 -39t-62 -24t-64.5 -10q-139 0 -221 80t-82 212zM223 266q0 -66 43.5 -109t101.5 -43q34 0 82 22t93.5 54t95 74t85 77.5t66.5 68.5v227q-47 -2 -94.5 -8.5t-104.5 -20t-108 -32t-99.5 -48t-83 -66t-56 -87t-21.5 -109.5zM474 1308l139 294h203 l-216 -294h-126z" />
<glyph unicode="&#xe2;" horiz-adv-x="1130" d="M74 266q0 80 24 147t65 114.5t99 85t120 60.5t136 39.5t138 24t134 11.5v114q0 60 -27 104t-71 64t-98 20l-213 -48v-115h-153v231q70 14 122 25t112 18t124 7q60 0 112.5 -11t98 -34t78 -58t51 -87t18.5 -116v-862h-154v254q-3 -4 -9 -10q-30 -32 -47.5 -50t-51 -50.5 t-57 -52t-58.5 -44.5t-63.5 -39t-62 -24t-64.5 -10q-139 0 -221 80t-82 212zM223 266q0 -66 43.5 -109t101.5 -43q34 0 82 22t93.5 54t95 74t85 77.5t66.5 68.5v227q-47 -2 -94.5 -8.5t-104.5 -20t-108 -32t-99.5 -48t-83 -66t-56 -87t-21.5 -109.5zM293 1308l205 294h158 l204 -294h-162l-124 183l-128 -183h-153z" />
<glyph unicode="&#xe3;" horiz-adv-x="1130" d="M74 266q0 80 24 147t65 114.5t99 85t120 60.5t136 39.5t138 24t134 11.5v114q0 60 -27 104t-71 64t-98 20l-213 -48v-115h-153v231q70 14 122 25t112 18t124 7q60 0 112.5 -11t98 -34t78 -58t51 -87t18.5 -116v-862h-154v254q-3 -4 -9 -10q-30 -32 -47.5 -50t-51 -50.5 t-57 -52t-58.5 -44.5t-63.5 -39t-62 -24t-64.5 -10q-139 0 -221 80t-82 212zM223 266q0 -66 43.5 -109t101.5 -43q34 0 82 22t93.5 54t95 74t85 77.5t66.5 68.5v227q-47 -2 -94.5 -8.5t-104.5 -20t-108 -32t-99.5 -48t-83 -66t-56 -87t-21.5 -109.5zM282 1376q0 30 8 62 t23.5 61t36.5 52t50 37t61 14q33 0 71 -11.5t66 -25t57 -24.5t47 -11q28 0 45 26t23 58h106q-6 -36 -12.5 -64t-20.5 -59t-32.5 -51.5t-48.5 -34t-68 -13.5q-32 0 -78 19t-88.5 37t-66.5 18q-28 0 -55 -31t-21 -59h-103z" />
<glyph unicode="&#xe4;" horiz-adv-x="1130" d="M74 266q0 80 24 147t65 114.5t99 85t120 60.5t136 39.5t138 24t134 11.5v114q0 60 -27 104t-71 64t-98 20l-213 -48v-115h-153v231q70 14 122 25t112 18t124 7q60 0 112.5 -11t98 -34t78 -58t51 -87t18.5 -116v-862h-154v254q-3 -4 -9 -10q-30 -32 -47.5 -50t-51 -50.5 t-57 -52t-58.5 -44.5t-63.5 -39t-62 -24t-64.5 -10q-139 0 -221 80t-82 212zM223 266q0 -66 43.5 -109t101.5 -43q34 0 82 22t93.5 54t95 74t85 77.5t66.5 68.5v227q-47 -2 -94.5 -8.5t-104.5 -20t-108 -32t-99.5 -48t-83 -66t-56 -87t-21.5 -109.5zM350 1313v295h139v-295 h-139zM653 1313v295h142v-295h-142z" />
<glyph unicode="&#xe5;" horiz-adv-x="1130" d="M74 266q0 80 24 147t65 114.5t99 85t120 60.5t136 39.5t138 24t134 11.5v114q0 60 -27 104t-71 64t-98 20l-213 -48v-115h-153v231q70 14 122 25t112 18t124 7q60 0 112.5 -11t98 -34t78 -58t51 -87t18.5 -116v-862h-154v254q-3 -4 -9 -10q-30 -32 -47.5 -50t-51 -50.5 t-57 -52t-58.5 -44.5t-63.5 -39t-62 -24t-64.5 -10q-139 0 -221 80t-82 212zM223 266q0 -66 43.5 -109t101.5 -43q34 0 82 22t93.5 54t95 74t85 77.5t66.5 68.5v227q-47 -2 -94.5 -8.5t-104.5 -20t-108 -32t-99.5 -48t-83 -66t-56 -87t-21.5 -109.5zM354 1392q0 86 62 148 t148 62t148 -62t62 -148t-61 -147t-147 -61t-149 62q-63 60 -63 146zM445 1393q0 -49 34.5 -84t83.5 -35t84 34.5t35 83.5h2q0 49 -35 84.5t-83 35.5q-50 0 -85.5 -35t-35.5 -84z" />
<glyph unicode="&#xe6;" horiz-adv-x="1787" d="M74 266q0 80 24 147t65 114.5t99 85t120 60.5t136 39.5t138 24t134 11.5v114q0 60 -27 104t-71 64t-98 20l-213 -48v-115h-153v231q70 14 122 25t112 18t124 7q116 0 203 -41t127 -123q119 164 313 164q74 0 139 -23t111.5 -62.5t83 -91t58.5 -110.5t33 -118t11 -118v-45 h-717q-2 -16 -2 -51q0 -72 11.5 -137t35.5 -121.5t58.5 -97.5t83.5 -65t108 -24q47 0 93 15.5t78 36t63 48.5t46 46t27 36l123 -88q-16 -22 -39 -47t-64 -57t-87 -57t-109.5 -42t-130.5 -17t-125 17t-103 46t-81 70.5t-61 88t-43 101.5l-40 -47q-30 -38 -63.5 -74t-77 -75 t-87 -67t-92.5 -46t-93 -18q-139 0 -221 80t-82 212zM223 266q0 -66 43.5 -109t101.5 -43q34 0 82 22t93.5 54t95 74t85 77.5t66.5 68.5v227q-47 -2 -94.5 -8.5t-104.5 -20t-108 -32t-99.5 -48t-83 -66t-56 -87t-21.5 -109.5zM956 715l554 -3q0 64 -19 123.5t-54 107 t-89 75.5t-119 28q-74 0 -137.5 -48t-99.5 -124t-36 -159z" />
<glyph unicode="&#xe7;" horiz-adv-x="944" d="M74 559q0 347 156 500q108 109 270 109q50 0 112 -4t103 -8l41 -3l70 -6v-70v-215h-154v166q-30 2 -102 12l-70 10q-86 0 -149 -61t-94 -171.5t-31 -258.5q0 -140 28 -242.5t88 -161.5t148 -59q136 0 245 176l131 -82q-138 -214 -376 -214q-86 0 -161 34t-131 100 q-124 150 -124 449zM280 -404l27 68q28 -12 67.5 -19t67.5 -7q27 0 51 7t42 26t18 47q0 43 -25.5 63.5t-68.5 20.5q-54 0 -82 -15l-31 37l119 176h90l-86 -127q36 6 74 6q71 0 116 -42.5t45 -100.5q0 -38 -15 -69t-39 -50t-55 -33t-62 -19t-62 -5q-52 0 -104.5 9t-86.5 27z " />
<glyph unicode="&#xe8;" horiz-adv-x="1073" d="M74 549q0 94 16 182.5t51 168t85.5 139t124 94.5t161.5 35q74 0 139 -23t112 -62.5t83 -91t58 -110.5t33 -118t11 -118v-47h-714v-49q0 -72 11 -136.5t34.5 -120.5t58 -96.5t82.5 -64t106 -23.5q46 0 92 15t78 36t62 48.5t46 47t28 36.5l126 -91q-16 -22 -39.5 -47 t-64.5 -58t-87.5 -58t-110.5 -42t-130 -17q-70 0 -130 18t-105.5 50t-82.5 76.5t-61.5 95t-41.5 107.5t-24 112.5t-7 111.5zM244 715h544q0 50 -11.5 97.5t-35 88.5t-56 73t-77 50t-96.5 18q-74 0 -136 -47.5t-97 -123t-35 -156.5zM273 1602h202l142 -294h-128z" />
<glyph unicode="&#xe9;" horiz-adv-x="1073" d="M74 549q0 94 16 182.5t51 168t85.5 139t124 94.5t161.5 35q74 0 139 -23t112 -62.5t83 -91t58 -110.5t33 -118t11 -118v-47h-714v-49q0 -72 11 -136.5t34.5 -120.5t58 -96.5t82.5 -64t106 -23.5q46 0 92 15t78 36t62 48.5t46 47t28 36.5l126 -91q-16 -22 -39.5 -47 t-64.5 -58t-87.5 -58t-110.5 -42t-130 -17q-70 0 -130 18t-105.5 50t-82.5 76.5t-61.5 95t-41.5 107.5t-24 112.5t-7 111.5zM244 715h544q0 50 -11.5 97.5t-35 88.5t-56 73t-77 50t-96.5 18q-74 0 -136 -47.5t-97 -123t-35 -156.5zM457 1308l139 294h203l-216 -294h-126z " />
<glyph unicode="&#xea;" horiz-adv-x="1073" d="M74 549q0 94 16 182.5t51 168t85.5 139t124 94.5t161.5 35q74 0 139 -23t112 -62.5t83 -91t58 -110.5t33 -118t11 -118v-47h-714v-49q0 -72 11 -136.5t34.5 -120.5t58 -96.5t82.5 -64t106 -23.5q46 0 92 15t78 36t62 48.5t46 47t28 36.5l126 -91q-16 -22 -39.5 -47 t-64.5 -58t-87.5 -58t-110.5 -42t-130 -17q-70 0 -130 18t-105.5 50t-82.5 76.5t-61.5 95t-41.5 107.5t-24 112.5t-7 111.5zM244 715h544q0 50 -11.5 97.5t-35 88.5t-56 73t-77 50t-96.5 18q-74 0 -136 -47.5t-97 -123t-35 -156.5zM256 1308l205 294h158l204 -294h-162 l-124 183l-128 -183h-153z" />
<glyph unicode="&#xeb;" horiz-adv-x="1073" d="M74 549q0 94 16 182.5t51 168t85.5 139t124 94.5t161.5 35q74 0 139 -23t112 -62.5t83 -91t58 -110.5t33 -118t11 -118v-47h-714v-49q0 -72 11 -136.5t34.5 -120.5t58 -96.5t82.5 -64t106 -23.5q46 0 92 15t78 36t62 48.5t46 47t28 36.5l126 -91q-16 -22 -39.5 -47 t-64.5 -58t-87.5 -58t-110.5 -42t-130 -17q-70 0 -130 18t-105.5 50t-82.5 76.5t-61.5 95t-41.5 107.5t-24 112.5t-7 111.5zM244 715h544q0 50 -11.5 97.5t-35 88.5t-56 73t-77 50t-96.5 18q-74 0 -136 -47.5t-97 -123t-35 -156.5zM301 1309v295h139v-295h-139zM604 1309 v295h142v-295h-142z" />
<glyph unicode="&#xec;" horiz-adv-x="483" d="M-16 1602h202l142 -294h-128zM148 0v1145h151v-1145h-151z" />
<glyph unicode="&#xed;" horiz-adv-x="483" d="M116 1308l140 294h203l-215 -294h-128zM148 0v1145h151v-1145h-151z" />
<glyph unicode="&#xee;" horiz-adv-x="483" d="M-56 1308l206 294h157l205 -294h-162l-124 183l-128 -183h-154zM146 0v1145h151v-1145h-151z" />
<glyph unicode="&#xef;" horiz-adv-x="483" d="M-4 1313v295h139v-295h-139zM144 0v1145h151v-1145h-151zM299 1313v295h141v-295h-141z" />
<glyph unicode="&#xf0;" horiz-adv-x="1101" d="M74 572q0 62 7 121t23.5 119t41 112t60.5 97t81 77t104.5 51t128.5 19q128 0 224 -64q-48 150 -140 248l-204 -86l-42 94l158 66q-116 74 -278 73v103q254 0 414 -119l294 125l41 -94l-252 -107q58 -62 100.5 -143.5t67 -163.5t39.5 -180t19.5 -179t4.5 -173 q0 -72 -10.5 -142t-32 -137t-58 -123t-84.5 -99t-115 -67t-146 -24q-69 0 -128.5 18t-104.5 50t-81 77t-60.5 97t-41 112t-23.5 120t-7 122zM228 580q0 -42 3.5 -84t13 -90t24.5 -90t38 -81.5t52.5 -68t71 -45.5t89.5 -17t89.5 16t71 43t52.5 64t38 78t25 87t13.5 87.5 t3.5 83.5q0 41 -3.5 83t-13.5 90t-25 90t-38 82t-52.5 68t-71 45t-89.5 17t-89 -16t-71 -42.5t-53 -64t-38 -78t-24.5 -86.5t-13 -87.5t-3.5 -83.5z" />
<glyph unicode="&#xf1;" horiz-adv-x="1183" d="M146 0v1145h120l33 -344q20 34 32.5 56.5t34 56.5t38 57t41 51.5t46 48t50 39.5t57 31t62.5 19t69 8q54 0 97.5 -15t72 -42t48.5 -61t30.5 -77.5t15.5 -86t5 -92.5v-794h-152v794q0 28 -2 53t-9 57t-19 55t-34.5 39t-52.5 16q-34 0 -67.5 -9t-61.5 -24t-57 -39t-52 -48 t-48 -57t-42.5 -60t-38 -62.5t-33.5 -60t-30 -56.5v-598h-153zM292 1376q0 30 8 62t23.5 61t36.5 52t50 37t61 14q33 0 71 -11.5t66 -25t57 -24.5t47 -11q28 0 45 26t23 58h106q-6 -36 -12.5 -64t-20.5 -59t-32.5 -51.5t-48.5 -34t-68 -13.5q-32 0 -78 19t-88.5 37t-66.5 18 q-28 0 -55 -31t-21 -59h-103z" />
<glyph unicode="&#xf2;" horiz-adv-x="1081" d="M74 572q0 80 12 154.5t35.5 141.5t61 121.5t86 94.5t113 62t138.5 22q90 0 164 -31.5t125.5 -86.5t87.5 -130.5t52.5 -162.5t16.5 -185t-16.5 -186t-52 -163t-87.5 -130t-126 -86t-164 -31q-89 0 -163.5 31t-126 86t-87 130t-52.5 163t-17 186zM228 580q0 -96 18 -181 t53 -151t92 -105t129 -39t129 36t92 99.5t53.5 145.5t18.5 178q0 63 -8 122t-23.5 112t-40.5 97t-56.5 76.5t-74 50t-90.5 17.5q-58 0 -106.5 -23.5t-82.5 -65.5t-57.5 -100t-34.5 -125.5t-11 -143.5zM248 1602h202l142 -294h-128z" />
<glyph unicode="&#xf3;" horiz-adv-x="1081" d="M74 572q0 80 12 154.5t35.5 141.5t61 121.5t86 94.5t113 62t138.5 22q90 0 164 -31.5t125.5 -86.5t87.5 -130.5t52.5 -162.5t16.5 -185t-16.5 -186t-52 -163t-87.5 -130t-126 -86t-164 -31q-89 0 -163.5 31t-126 86t-87 130t-52.5 163t-17 186zM228 580q0 -96 18 -181 t53 -151t92 -105t129 -39t129 36t92 99.5t53.5 145.5t18.5 178q0 63 -8 122t-23.5 112t-40.5 97t-56.5 76.5t-74 50t-90.5 17.5q-58 0 -106.5 -23.5t-82.5 -65.5t-57.5 -100t-34.5 -125.5t-11 -143.5zM443 1308l139 294h203l-216 -294h-126z" />
<glyph unicode="&#xf4;" horiz-adv-x="1081" d="M74 572q0 80 12 154.5t35.5 141.5t61 121.5t86 94.5t113 62t138.5 22q90 0 164 -31.5t125.5 -86.5t87.5 -130.5t52.5 -162.5t16.5 -185t-16.5 -186t-52 -163t-87.5 -130t-126 -86t-164 -31q-89 0 -163.5 31t-126 86t-87 130t-52.5 163t-17 186zM228 580q0 -96 18 -181 t53 -151t92 -105t129 -39t129 36t92 99.5t53.5 145.5t18.5 178q0 63 -8 122t-23.5 112t-40.5 97t-56.5 76.5t-74 50t-90.5 17.5q-58 0 -106.5 -23.5t-82.5 -65.5t-57.5 -100t-34.5 -125.5t-11 -143.5zM244 1308l205 294h158l204 -294h-162l-124 183l-128 -183h-153z" />
<glyph unicode="&#xf5;" horiz-adv-x="1081" d="M74 572q0 80 12 154.5t35.5 141.5t61 121.5t86 94.5t113 62t138.5 22q90 0 164 -31.5t125.5 -86.5t87.5 -130.5t52.5 -162.5t16.5 -185t-16.5 -186t-52 -163t-87.5 -130t-126 -86t-164 -31q-89 0 -163.5 31t-126 86t-87 130t-52.5 163t-17 186zM228 580q0 -96 18 -181 t53 -151t92 -105t129 -39t129 36t92 99.5t53.5 145.5t18.5 178q0 63 -8 122t-23.5 112t-40.5 97t-56.5 76.5t-74 50t-90.5 17.5q-58 0 -106.5 -23.5t-82.5 -65.5t-57.5 -100t-34.5 -125.5t-11 -143.5zM237 1374q0 30 8 62t23.5 61t36.5 52t50 37t61 14q33 0 71 -11.5t66 -25 t57 -24.5t47 -11q28 0 45 26t23 58h106q-6 -36 -12.5 -64t-20.5 -59t-32.5 -51.5t-48.5 -34t-68 -13.5q-32 0 -78 19t-88.5 37t-66.5 18q-28 0 -55 -31t-21 -59h-103z" />
<glyph unicode="&#xf6;" horiz-adv-x="1081" d="M74 572q0 80 12 154.5t35.5 141.5t61 121.5t86 94.5t113 62t138.5 22q90 0 164 -31.5t125.5 -86.5t87.5 -130.5t52.5 -162.5t16.5 -185t-16.5 -186t-52 -163t-87.5 -130t-126 -86t-164 -31q-89 0 -163.5 31t-126 86t-87 130t-52.5 163t-17 186zM228 580q0 -96 18 -181 t53 -151t92 -105t129 -39t129 36t92 99.5t53.5 145.5t18.5 178q0 63 -8 122t-23.5 112t-40.5 97t-56.5 76.5t-74 50t-90.5 17.5q-58 0 -106.5 -23.5t-82.5 -65.5t-57.5 -100t-34.5 -125.5t-11 -143.5zM303 1313v295h139v-295h-139zM606 1313v295h142v-295h-142z" />
<glyph unicode="&#xf7;" horiz-adv-x="1206" d="M146 586v141h882v-141h-882zM514 168v254h146v-254h-146zM514 891v254h146v-254h-146z" />
<glyph unicode="&#xf8;" horiz-adv-x="1081" d="M74 572q0 80 12 154.5t35.5 141.5t61 121.5t86 94.5t113 62t138.5 22q114 0 203 -52l98 197h135l-137 -275q74 -81 110.5 -202.5t36.5 -263.5q0 -98 -16.5 -186t-52 -163t-87.5 -130t-126 -86t-164 -31q-118 0 -208 52l-91 -182h-135l131 262q-70 82 -106.5 202 t-36.5 262zM228 580q0 -194 65 -320l367 731q-64 47 -140 47q-58 0 -106.5 -23.5t-82.5 -65.5t-57.5 -100t-34.5 -125.5t-11 -143.5zM375 154q65 -50 145 -50q72 0 129 36t92 99.5t53.5 145.5t18.5 178q1 199 -69 326z" />
<glyph unicode="&#xf9;" horiz-adv-x="1183" d="M146 352v793h151v-793q0 -28 2 -53t9.5 -57t19 -55t34 -38.5t52.5 -15.5q34 0 67 9.5t61 24t57 39t52 47.5t48 56t42 59t39 63t34 59.5t30 56.5v598h154v-1145h-122l-32 346q-19 -34 -32.5 -57t-34.5 -56.5t-38 -56.5t-41 -51.5t-46.5 -47.5t-51 -39t-56.5 -32t-62 -19 q-32 -7 -68 -7q-46 0 -85 11t-66 30t-48 47t-34 60t-21 70t-11 75t-3 79zM338 1602h202l142 -294h-128z" />
<glyph unicode="&#xfa;" horiz-adv-x="1183" d="M146 352v793h151v-793q0 -28 2 -53t9.5 -57t19 -55t34 -38.5t52.5 -15.5q34 0 67 9.5t61 24t57 39t52 47.5t48 56t42 59t39 63t34 59.5t30 56.5v598h154v-1145h-122l-32 346q-19 -34 -32.5 -57t-34.5 -56.5t-38 -56.5t-41 -51.5t-46.5 -47.5t-51 -39t-56.5 -32t-62 -19 q-32 -7 -68 -7q-46 0 -85 11t-66 30t-48 47t-34 60t-21 70t-11 75t-3 79zM432 1308l139 294h203l-216 -294h-126z" />
<glyph unicode="&#xfb;" horiz-adv-x="1183" d="M146 352v793h151v-793q0 -28 2 -53t9.5 -57t19 -55t34 -38.5t52.5 -15.5q34 0 67 9.5t61 24t57 39t52 47.5t48 56t42 59t39 63t34 59.5t30 56.5v598h154v-1145h-122l-32 346q-19 -34 -32.5 -57t-34.5 -56.5t-38 -56.5t-41 -51.5t-46.5 -47.5t-51 -39t-56.5 -32t-62 -19 q-32 -7 -68 -7q-46 0 -85 11t-66 30t-48 47t-34 60t-21 70t-11 75t-3 79zM279 1308l205 294h158l204 -294h-162l-124 183l-128 -183h-153z" />
<glyph unicode="&#xfc;" horiz-adv-x="1183" d="M146 352v793h151v-793q0 -28 2 -53t9.5 -57t19 -55t34 -38.5t52.5 -15.5q34 0 67 9.5t61 24t57 39t52 47.5t48 56t42 59t39 63t34 59.5t30 56.5v598h154v-1145h-122l-32 346q-19 -34 -32.5 -57t-34.5 -56.5t-38 -56.5t-41 -51.5t-46.5 -47.5t-51 -39t-56.5 -32t-62 -19 q-32 -7 -68 -7q-46 0 -85 11t-66 30t-48 47t-34 60t-21 70t-11 75t-3 79zM354 1313v295h139v-295h-139zM657 1313v295h142v-295h-142z" />
<glyph unicode="&#xfd;" horiz-adv-x="1099" d="M12 -282q241 0 455 335l-55 152l-338 911l145 50l332 -955q169 360 268 934h166q-107 -522 -279 -930q-28 -66 -57.5 -124.5t-70.5 -126.5t-84 -124.5t-97.5 -110t-112.5 -90.5t-128 -60t-144 -23v162zM468 1308l139 294h203l-216 -294h-126z" />
<glyph unicode="&#xfe;" horiz-adv-x="1132" d="M146 -444v2046h151v-682q73 112 167 180q96 68 196 68q57 0 105.5 -16t84.5 -44t65 -67t48 -84t31.5 -97t18 -103t5.5 -105v-118q0 -90 -17 -172t-52.5 -152.5t-85.5 -122t-120.5 -80.5t-152.5 -29q-72 0 -150.5 48t-142.5 120v-590h-151zM297 316q44 -76 126 -131.5 t167 -55.5q58 0 107.5 26t87.5 76.5t59.5 131.5t21.5 184v88q0 39 -3 76t-10 75.5t-17 72t-27 62.5t-38 50t-49 33t-62 12q-100 0 -189.5 -69.5t-173.5 -219.5v-411z" />
<glyph unicode="&#xff;" horiz-adv-x="1171" d="M12 -282q241 0 455 335l-55 152l-338 911l145 50l332 -955q169 360 268 934h166q-107 -522 -279 -930q-28 -66 -57.5 -124.5t-70.5 -126.5t-84 -124.5t-97.5 -110t-112.5 -90.5t-128 -60t-144 -23v162zM337 1313v295h139v-295h-139zM640 1313v295h142v-295h-142z" />
<glyph unicode="&#x152;" horiz-adv-x="1736" d="M74 776v50q0 73 6.5 144.5t23 149.5t42 146t66 131t92.5 107.5t124 71.5q72 26 156 26h2h983v-154h-594v-564h440v-153h-440v-577h721v-154h-1110h-2q-84 0 -155.5 26.5t-123 71t-92 107.5t-66.5 131.5t-42.5 146t-23.5 149.5t-7 144zM228 780q0 -52 3.5 -106t14 -119 t27.5 -123t45 -113t64 -95t88 -64.5t114 -24.5h2l238 19v1294l-238 26h-2q-62 0 -114.5 -24t-88.5 -64t-64 -95t-44.5 -113t-27 -123t-14 -119t-3.5 -106v-50z" />
<glyph unicode="&#x153;" horiz-adv-x="1810" d="M74 572q0 80 12 154.5t35.5 141.5t61 121.5t86 94.5t113 62t138.5 22q130 0 224 -64t149 -176q55 112 145 176q92 64 214 64q74 0 139 -23t111.5 -62.5t83 -91t58.5 -110.5t33 -118t11 -118v-45h-717q-3 -16 -3 -51q0 -72 12 -137t36 -121.5t58 -97.5t84 -65t108 -24 q47 0 92.5 15.5t77.5 36t63 48.5t46 46t28 36l123 -88q-16 -22 -39 -47t-64 -57t-87 -57t-110 -42t-130 -17q-133 0 -227 62t-148 169q-56 -110 -149.5 -171.5t-221.5 -61.5q-89 0 -163.5 31t-126 86t-87 130t-52.5 163t-17 186zM228 580q0 -96 18 -181t53 -151t92 -105 t129 -39t129 36t92 99.5t53.5 145.5t18.5 178q0 63 -8 122t-23.5 112t-40.5 97t-56.5 76.5t-74 50t-90.5 17.5q-58 0 -106.5 -23.5t-82.5 -65.5t-57.5 -100t-34.5 -125.5t-11 -143.5zM979 715l553 -3q0 64 -19 123.5t-53.5 107t-89 75.5t-118.5 28q-74 0 -138 -48 t-99.5 -124t-35.5 -159z" />
<glyph unicode="&#x178;" horiz-adv-x="1243" d="M74 1602h170l358 -795l356 795h170l-450 -963v-639h-154v645zM381 1659v295h139v-295h-139zM684 1659v295h142v-295h-142z" />
<glyph unicode="&#x2c6;" horiz-adv-x="477" d="M-45 1308l205 294h158l204 -294h-162l-124 183l-128 -183h-153z" />
<glyph unicode="&#x2dc;" horiz-adv-x="477" d="M-58 1376q0 30 8 62t23.5 61t36.5 52t50 37t61 14q33 0 71 -11.5t66 -25t57 -24.5t47 -11q28 0 45 26t23 58h106q-6 -36 -12.5 -64t-20.5 -59t-32.5 -51.5t-48.5 -34t-68 -13.5q-32 0 -78 19t-88.5 37t-66.5 18q-28 0 -55 -31t-21 -59h-103z" />
<glyph unicode="&#x2000;" horiz-adv-x="1020" />
<glyph unicode="&#x2001;" horiz-adv-x="2040" />
<glyph unicode="&#x2002;" horiz-adv-x="1020" />
<glyph unicode="&#x2003;" horiz-adv-x="2040" />
<glyph unicode="&#x2004;" horiz-adv-x="680" />
<glyph unicode="&#x2005;" horiz-adv-x="510" />
<glyph unicode="&#x2006;" horiz-adv-x="340" />
<glyph unicode="&#x2007;" horiz-adv-x="340" />
<glyph unicode="&#x2008;" horiz-adv-x="255" />
<glyph unicode="&#x2009;" horiz-adv-x="408" />
<glyph unicode="&#x200a;" horiz-adv-x="113" />
<glyph unicode="&#x2010;" horiz-adv-x="1064" d="M291 588v141h442v-141h-442z" />
<glyph unicode="&#x2011;" horiz-adv-x="1064" d="M291 588v141h442v-141h-442z" />
<glyph unicode="&#x2012;" horiz-adv-x="1064" d="M291 588v141h442v-141h-442z" />
<glyph unicode="&#x2013;" d="M148 588v141h585v-141h-585z" />
<glyph unicode="&#x2014;" horiz-adv-x="1497" d="M148 588v141h1177v-141h-1177z" />
<glyph unicode="&#x2018;" horiz-adv-x="624" d="M148 1170v188q0 36 23 83.5t51 84t52 62.5l23 26h105l-18 -26q-17 -26 -37 -62.5t-37 -84t-17 -83.5v-188h-145z" />
<glyph unicode="&#x2019;" horiz-adv-x="624" d="M186 1166l18 25q17 26 37 62.5t37 84.5t17 84v188h145v-188q0 -36 -23 -84t-51 -84.5t-52 -62.5l-23 -25h-105z" />
<glyph unicode="&#x201a;" horiz-adv-x="624" d="M186 -148l18 26q17 26 37 63t37 84t17 83v189h145v-189q0 -36 -23 -83t-51 -84t-52 -63l-23 -26h-105z" />
<glyph unicode="&#x201c;" d="M148 1170v188q0 36 23 83.5t51 84t52 62.5l23 26h105l-18 -26q-17 -26 -37 -62.5t-37 -84t-17 -83.5v-188h-145zM440 1170v188q0 36 23.5 83.5t52 84t51.5 62.5l23 26h104l-16 -26q-17 -26 -37.5 -62.5t-37.5 -84t-17 -83.5v-188h-146z" />
<glyph unicode="&#x201d;" d="M186 1166l18 25q17 26 37 62.5t37 84.5t17 84v188h145v-188q0 -36 -23 -84t-51 -84.5t-52 -62.5l-23 -25h-105zM479 1166l17 25q17 26 37.5 62.5t37.5 84.5t17 84v188h145v-188q0 -36 -23.5 -84t-51.5 -84.5t-51 -62.5l-23 -25h-105z" />
<glyph unicode="&#x201e;" d="M186 -148l18 26q17 26 37 63t37 84t17 83v189h145v-189q0 -36 -23 -83t-51 -84t-52 -63l-23 -26h-105zM479 -148l17 26q17 26 37.5 63t37.5 84t17 83v189h145v-189q0 -36 -23.5 -83t-51.5 -84t-51 -63l-23 -26h-105z" />
<glyph unicode="&#x2022;" horiz-adv-x="770" d="M146 606v201q0 80 57 137.5t137 57.5h51q80 0 137.5 -57.5t57.5 -137.5v-201q0 -80 -57.5 -137t-137.5 -57h-51q-80 0 -137 57t-57 137z" />
<glyph unicode="&#x2026;" horiz-adv-x="1062" d="M148 0v295h145v-295h-145zM440 0v295h146v-295h-146zM733 0v295h147v-295h-147z" />
<glyph unicode="&#x202f;" horiz-adv-x="408" />
<glyph unicode="&#x2039;" d="M104 654l434 514h200l-458 -514l458 -514h-200z" />
<glyph unicode="&#x203a;" d="M92 140l455 514l-455 514h199l434 -514l-434 -514h-199z" />
<glyph unicode="&#x205f;" horiz-adv-x="510" />
<glyph unicode="&#x2122;" horiz-adv-x="1644" d="M188 1485v117h447v-117h-158v-733h-119v733h-170zM809 752v850h117l206 -371l208 371h116v-850h-120v622l-164 -276h-78l-166 276v-622h-119z" />
<glyph unicode="&#x25fc;" horiz-adv-x="1145" d="M0 0v1145h1145v-1145h-1145z" />
</font>
</defs>
</svg>
